<?xml version="1.0" encoding="utf-8"?>
<!-- Generator: Adobe Illustrator 15.1.0, SVG Export Plug-In . SVG Version: 6.00 Build 0)  -->
<!DOCTYPE svg PUBLIC "-//W3C//DTD SVG 1.1//EN" "http://www.w3.org/Graphics/SVG/1.1/DTD/svg11.dtd">
<svg version="1.1" id="圖層_1" xmlns="http://www.w3.org/2000/svg" xmlns:xlink="http://www.w3.org/1999/xlink" x="0px" y="0px"
	 width="18px" height="18px" viewBox="-384.5 315.5 18 18" enable-background="new -384.5 315.5 18 18" xml:space="preserve">
<title>help</title>
<path fill="#2975A8" d="M-372.091,318.027c-0.949-0.685-2.144-1.027-3.58-1.027c-1.093,0-2.016,0.242-2.765,0.724
	c-1.19,0.754-1.821,2.038-1.897,3.845h2.755c0-0.527,0.155-1.032,0.461-1.521c0.308-0.489,0.83-0.734,1.566-0.734
	c0.748,0,1.264,0.2,1.545,0.596c0.282,0.396,0.423,0.836,0.423,1.318c0,0.421-0.211,0.804-0.464,1.153
	c-0.139,0.203-0.323,0.39-0.551,0.561c0,0-1.494,0.957-2.15,1.729c-0.38,0.446-0.414,1.114-0.449,2.074
	c-0.001,0.068,0.025,0.209,0.263,0.209c0.238,0,1.931,0,2.142,0c0.213,0,0.258-0.158,0.261-0.229
	c0.015-0.349,0.054-0.528,0.117-0.729c0.12-0.381,0.448-0.712,0.816-1l0.757-0.521c0.686-0.533,1.232-0.973,1.473-1.314
	c0.412-0.564,0.701-1.258,0.701-2.084C-370.666,319.728-371.141,318.714-372.091,318.027z M-375.715,328.605
	c-0.95-0.029-1.732,0.626-1.764,1.657c-0.029,1.028,0.716,1.708,1.666,1.736c0.99,0.029,1.753-0.605,1.784-1.635
	C-374.001,329.332-374.723,328.635-375.715,328.605z"/>
</svg>
