<?xml version="1.0" encoding="utf-8"?>
<!-- Generator: Adobe Illustrator 15.1.0, SVG Export Plug-In . SVG Version: 6.00 Build 0)  -->
<!DOCTYPE svg PUBLIC "-//W3C//DTD SVG 1.1//EN" "http://www.w3.org/Graphics/SVG/1.1/DTD/svg11.dtd">
<svg version="1.1" id="圖層_1" xmlns="http://www.w3.org/2000/svg" xmlns:xlink="http://www.w3.org/1999/xlink" x="0px" y="0px"
	 width="22px" height="22px" viewBox="0 0 22 22" enable-background="new 0 0 22 22" xml:space="preserve">
<path fill="#7F7F7F" d="M18.012,10.746c-0.15-0.148-0.354-0.234-0.563-0.234h-5.65V8.281h-1.598v2.231H4.55
	c-0.208,0-0.414,0.086-0.564,0.235c-0.149,0.149-0.235,0.354-0.235,0.563v3.348h1.6v-2.549H16.65v2.549h1.597V11.31
	C18.246,11.099,18.16,10.893,18.012,10.746z"/>
<path fill="#C4C4C4" d="M14.549,2.414c0.047,0.048,0.094,0.108,0.143,0.183h-2.395V0.203c0.076,0.047,0.137,0.095,0.184,0.143
	L14.549,2.414z"/>
<g>
	<path fill="#4E85C4" d="M12.135,3.246h2.76v4.896c0,0.135-0.047,0.25-0.143,0.345c-0.094,0.095-0.209,0.142-0.344,0.142H7.591
		c-0.135,0-0.249-0.047-0.345-0.142c-0.094-0.095-0.142-0.21-0.142-0.345V0.487c0-0.135,0.048-0.25,0.142-0.345
		C7.343,0.048,7.458,0,7.591,0h4.058v2.759c0,0.135,0.047,0.25,0.143,0.345C11.887,3.198,12,3.246,12.135,3.246z"/>
</g>
<path fill="#C4C4C4" d="M8.18,15.785c0.047,0.048,0.094,0.107,0.142,0.183H5.928v-2.394c0.075,0.047,0.135,0.095,0.183,0.142
	L8.18,15.785z"/>
<path fill="#4E85C4" d="M5.766,16.617h2.759v4.896c0,0.135-0.048,0.25-0.143,0.344C8.288,21.952,8.172,22,8.038,22H1.223
	c-0.135,0-0.25-0.048-0.345-0.143c-0.095-0.096-0.142-0.209-0.142-0.346v-7.654c0-0.135,0.047-0.25,0.142-0.344
	c0.095-0.096,0.21-0.144,0.345-0.144h4.056v2.759c0,0.135,0.048,0.25,0.143,0.346C5.517,16.568,5.63,16.617,5.766,16.617z"/>
<path fill="#C4C4C4" d="M20.92,15.785c0.047,0.048,0.094,0.107,0.141,0.183h-2.393v-2.394c0.074,0.047,0.135,0.095,0.182,0.142
	L20.92,15.785z"/>
<path fill="#4E85C4" d="M18.506,16.617h2.758v4.896c0,0.135-0.047,0.25-0.143,0.344C21.027,21.952,20.912,22,20.777,22h-6.816
	c-0.135,0-0.25-0.048-0.344-0.143c-0.096-0.096-0.143-0.209-0.143-0.346v-7.654c0-0.135,0.047-0.25,0.143-0.344
	c0.096-0.096,0.209-0.144,0.344-0.144h4.059v2.759c0,0.135,0.047,0.25,0.142,0.346C18.256,16.568,18.371,16.617,18.506,16.617z"/>
</svg>
