<?xml version="1.0" encoding="utf-8"?>
<!-- Generator: Adobe Illustrator 15.1.0, SVG Export Plug-In . SVG Version: 6.00 Build 0)  -->
<!DOCTYPE svg PUBLIC "-//W3C//DTD SVG 1.1//EN" "http://www.w3.org/Graphics/SVG/1.1/DTD/svg11.dtd">
<svg version="1.1" id="圖層_1" xmlns="http://www.w3.org/2000/svg" xmlns:xlink="http://www.w3.org/1999/xlink" x="0px" y="0px"
	 width="25px" height="25px" viewBox="-375.5 324.5 25 25" enable-background="new -375.5 324.5 25 25" xml:space="preserve">
<title>approve</title>
<path fill="#2F8AC1" d="M-362.353,334.17v2.536h6.681c0.17,0,0.336,0.071,0.458,0.19c0.121,0.119,0.189,0.288,0.189,0.456v3.545
	h-1.296v-2.896h-13.36v2.896h-1.297v-3.545c0-0.168,0.071-0.336,0.19-0.456c0.121-0.119,0.288-0.19,0.458-0.19h6.681v-2.536
	H-362.353z"/>
<path fill="#2F8AC1" d="M-354.765,341.157h-1.815v-2.896h-12.84v2.896h-1.818v-3.805c0-0.236,0.098-0.471,0.268-0.641
	c0.172-0.169,0.405-0.267,0.642-0.267h6.421v-2.536h1.815v2.536h6.421c0.236,0,0.47,0.098,0.641,0.266
	c0.169,0.167,0.267,0.401,0.267,0.642V341.157L-354.765,341.157z M-356.06,340.637h0.774v-3.284c0-0.101-0.042-0.202-0.112-0.271
	c-0.074-0.074-0.174-0.115-0.274-0.115h-6.941v-2.536h-0.773v2.536h-6.941c-0.1,0-0.202,0.043-0.275,0.115
	c-0.07,0.07-0.113,0.173-0.113,0.271v3.284h0.776v-2.896h13.881V340.637z"/>
<path fill="#2F8AC1" d="M-358.967,327.243c0.054,0.055,0.107,0.123,0.162,0.207h-2.721v-2.721c0.085,0.055,0.154,0.108,0.208,0.163
	L-358.967,327.243z M-361.709,328.188h3.135v5.563c0,0.153-0.054,0.285-0.161,0.393c-0.108,0.106-0.238,0.161-0.393,0.161h-7.744
	c-0.154,0-0.285-0.055-0.393-0.161c-0.106-0.108-0.161-0.239-0.161-0.393v-8.698c0-0.154,0.055-0.284,0.161-0.392
	c0.108-0.108,0.239-0.162,0.393-0.162h4.609v3.135c0,0.154,0.054,0.284,0.162,0.392
	C-361.993,328.135-361.863,328.188-361.709,328.188z"/>
<path fill="#2F8AC1" d="M-366.205,342.438c0.054,0.054,0.107,0.123,0.162,0.207h-2.72v-2.72c0.085,0.055,0.153,0.108,0.207,0.161
	L-366.205,342.438z M-368.947,343.383h3.135v5.564c0,0.154-0.055,0.284-0.161,0.392c-0.108,0.107-0.239,0.161-0.393,0.161h-7.744
	c-0.154,0-0.284-0.054-0.392-0.162c-0.107-0.107-0.162-0.237-0.162-0.392v-8.698c0-0.153,0.055-0.284,0.162-0.392
	c0.108-0.107,0.238-0.162,0.392-0.162h4.609v3.136c0,0.152,0.055,0.283,0.162,0.392
	C-369.231,343.328-369.102,343.383-368.947,343.383z"/>
<path fill="#2F8AC1" d="M-351.728,342.438c0.054,0.054,0.106,0.123,0.161,0.207h-2.72v-2.72c0.084,0.055,0.153,0.108,0.207,0.161
	L-351.728,342.438z M-354.471,343.383h3.135v5.564c0,0.154-0.055,0.284-0.161,0.392c-0.108,0.107-0.239,0.161-0.393,0.161h-7.744
	c-0.154,0-0.284-0.054-0.393-0.162c-0.107-0.107-0.161-0.237-0.161-0.392v-8.698c0-0.153,0.054-0.284,0.161-0.392
	c0.108-0.107,0.238-0.162,0.393-0.162h4.61v3.136c0,0.152,0.054,0.283,0.161,0.392
	C-354.755,343.328-354.625,343.383-354.471,343.383z"/>
</svg>
