<?xml version="1.0" encoding="utf-8"?>
<!-- Generator: Adobe Illustrator 15.1.0, SVG Export Plug-In . SVG Version: 6.00 Build 0)  -->
<!DOCTYPE svg PUBLIC "-//W3C//DTD SVG 1.1//EN" "http://www.w3.org/Graphics/SVG/1.1/DTD/svg11.dtd">
<svg version="1.1" id="圖層_1" xmlns="http://www.w3.org/2000/svg" xmlns:xlink="http://www.w3.org/1999/xlink" x="0px" y="0px"
	 width="16px" height="16px" viewBox="-0.5 42.5 16 16" enable-background="new -0.5 42.5 16 16" xml:space="preserve">
<title>arrow-up</title>
<path d="M12.387,49.727c0.151-0.151,0.151-0.356-0.001-0.51l-4.632-4.631c-0.019-0.019-0.03-0.029-0.034-0.035l-0.092-0.044
	c-0.12-0.012-0.19-0.007-0.247,0.006c-0.049,0.034-0.094,0.057-0.125,0.071l-4.643,4.634c-0.152,0.152-0.152,0.357,0,0.511
	c0.146,0.144,0.359,0.145,0.508-0.002l4.011-4.012v10.418c0,0.241,0.126,0.367,0.367,0.367s0.367-0.126,0.367-0.367V45.715
	l4.012,4.014C12.014,49.861,12.228,49.888,12.387,49.727z"/>
</svg>
