<?xml version="1.0" encoding="utf-8"?>
<!-- Generator: Adobe Illustrator 15.1.0, SVG Export Plug-In . SVG Version: 6.00 Build 0)  -->
<!DOCTYPE svg PUBLIC "-//W3C//DTD SVG 1.1//EN" "http://www.w3.org/Graphics/SVG/1.1/DTD/svg11.dtd">
<svg version="1.1" id="圖層_1" xmlns="http://www.w3.org/2000/svg" xmlns:xlink="http://www.w3.org/1999/xlink" x="0px" y="0px"
	 width="16px" height="16px" viewBox="-4.5 38.5 16 16" enable-background="new -4.5 38.5 16 16" xml:space="preserve">
<title>arrow-up</title>
<path fill="#BCBCBC" d="M8.386,45.727c0.152-0.15,0.152-0.355,0-0.51l-4.631-4.631c-0.019-0.02-0.03-0.029-0.034-0.035l-0.092-0.044
	c-0.12-0.012-0.19-0.007-0.247,0.007c-0.049,0.033-0.094,0.057-0.125,0.07l-4.642,4.634c-0.152,0.152-0.152,0.357,0,0.511
	c0.146,0.145,0.359,0.146,0.508-0.002l4.01-4.012v10.418c0,0.241,0.126,0.367,0.367,0.367s0.367-0.126,0.367-0.367V41.715
	l4.012,4.014C8.013,45.861,8.228,45.889,8.386,45.727z"/>
</svg>
