<?xml version="1.0" encoding="utf-8"?>
<!-- Generator: Adobe Illustrator 15.1.0, SVG Export Plug-In . SVG Version: 6.00 Build 0)  -->
<!DOCTYPE svg PUBLIC "-//W3C//DTD SVG 1.1//EN" "http://www.w3.org/Graphics/SVG/1.1/DTD/svg11.dtd">
<svg version="1.1" id="圖層_1" xmlns="http://www.w3.org/2000/svg" xmlns:xlink="http://www.w3.org/1999/xlink" x="0px" y="0px"
	 width="22px" height="22px" viewBox="0 0 22 22" enable-background="new 0 0 22 22" xml:space="preserve">
<path fill="#E79D5E" d="M14.991,7.026l-1.396-1.395l-6.979,6.977c-1.156,1.156-1.156,3.031,0,4.188c1.155,1.156,3.03,1.156,4.187,0
	l8.373-8.373c1.931-1.926,1.931-5.051,0-6.977c-1.925-1.927-5.051-1.927-6.977,0l-8.79,8.79c-0.006,0.007-0.013,0.014-0.019,0.019
	c-2.688,2.688-2.688,7.044,0,9.731c2.687,2.687,7.045,2.687,9.732,0c0.006-0.008,0.011-0.014,0.018-0.021h0.002l6.002-6
	l-1.396-1.396l-6.002,5.998c-0.006,0.008-0.015,0.015-0.021,0.021c-1.913,1.912-5.024,1.912-6.938,0
	c-1.913-1.914-1.913-5.024,0-6.938c0.007-0.006,0.013-0.012,0.02-0.019L4.807,11.63L13.6,2.839c1.153-1.154,3.032-1.154,4.188,0
	c1.154,1.154,1.152,3.033,0,4.186l-8.374,8.374c-0.385,0.386-1.01,0.386-1.396,0c-0.384-0.385-0.384-1.01,0-1.396l6.978-6.979
	L14.991,7.026L14.991,7.026z"/>
</svg>
