<?xml version="1.0" encoding="utf-8"?>
<!-- Generator: Adobe Illustrator 15.1.0, SVG Export Plug-In . SVG Version: 6.00 Build 0)  -->
<!DOCTYPE svg PUBLIC "-//W3C//DTD SVG 1.1//EN" "http://www.w3.org/Graphics/SVG/1.1/DTD/svg11.dtd">
<svg version="1.1" id="圖層_1" xmlns="http://www.w3.org/2000/svg" xmlns:xlink="http://www.w3.org/1999/xlink" x="0px" y="0px"
	 width="25px" height="25px" viewBox="-383.5 316.5 25 25" enable-background="new -383.5 316.5 25 25" xml:space="preserve">
<title>attachment</title>
<path d="M-366.464,324.484l-1.585-1.584l-7.93,7.928c-1.314,1.313-1.314,3.443,0,4.756c1.314,1.314,3.444,1.314,4.758,0l9.516-9.514
	c2.191-2.189,2.191-5.738,0-7.928c-2.188-2.189-5.74-2.189-7.929,0l-9.991,9.99c-0.007,0.008-0.015,0.014-0.021,0.02
	c-3.054,3.055-3.054,8.004,0,11.059c3.053,3.053,8.005,3.053,11.059,0c0.007-0.008,0.013-0.016,0.021-0.021h0l6.82-6.818
	l-1.587-1.586l-6.82,6.818c-0.007,0.006-0.014,0.014-0.02,0.02c-2.175,2.174-5.712,2.174-7.888,0c-2.174-2.174-2.174-5.709,0-7.885
	c0.008-0.008,0.015-0.014,0.022-0.02l0-0.002l9.991-9.988c1.312-1.313,3.447-1.313,4.759,0c1.311,1.311,1.311,3.445,0,4.756
	l-9.516,9.516c-0.438,0.436-1.148,0.436-1.586,0c-0.437-0.438-0.437-1.15,0-1.586l7.93-7.93H-366.464z"/>
</svg>
