<?xml version="1.0" encoding="utf-8"?>
<!-- Generator: Adobe Illustrator 15.1.0, SVG Export Plug-In . SVG Version: 6.00 Build 0)  -->
<!DOCTYPE svg PUBLIC "-//W3C//DTD SVG 1.1//EN" "http://www.w3.org/Graphics/SVG/1.1/DTD/svg11.dtd">
<svg version="1.1" id="圖層_1" xmlns="http://www.w3.org/2000/svg" xmlns:xlink="http://www.w3.org/1999/xlink" x="0px" y="0px"
	 width="25px" height="25px" viewBox="-387 313 25 25" enable-background="new -387 313 25 25" xml:space="preserve">
<title>attachmentreference</title>
<path fill="#2F8AC1" d="M-369.873,327.053c-1.841,0-3.335,1.493-3.335,3.335c0,1.844,1.494,3.335,3.335,3.335
	s3.335-1.493,3.335-3.335S-368.032,327.053-369.873,327.053z M-370.779,331.542c-0.773,0-1.401-0.628-1.401-1.401
	c0-0.772,0.627-1.401,1.401-1.401s1.401,0.629,1.401,1.401C-369.376,330.914-370.003,331.542-370.779,331.542z"/>
<path fill="#2F8AC1" d="M-369.873,337.05c-4.188,0-7.43-4.682-7.566-4.882l-0.307-0.451l0.307-0.45
	c0.137-0.198,3.378-4.88,7.566-4.88s7.429,4.682,7.566,4.88l0.307,0.45l-0.307,0.45C-362.444,332.368-365.685,337.05-369.873,337.05
	z M-375.777,331.717c0.856,1.081,3.232,3.732,5.905,3.732c2.671,0,5.046-2.651,5.905-3.732c-0.858-1.081-3.233-3.731-5.905-3.731
	C-372.554,327.984-374.923,330.636-375.777,331.717z"/>
<path fill="#2F8AC1" d="M-380.004,331.717l1.024-1.501c0.194-0.284,1.154-1.629,2.662-2.939h-3.281
	c-0.815,0-1.479-0.662-1.479-1.481c0-0.822,0.662-1.479,1.479-1.479h3.705c0.816,0,1.479,0.662,1.479,1.479
	c0,0.034-0.008,0.065-0.01,0.098c1.313-0.788,2.849-1.372,4.552-1.372c0.476,0,0.933,0.058,1.382,0.141v-4.788l-3.701-5.923h-11.106
	l-3.702,5.923v11.847L-380.004,331.717L-380.004,331.717z M-382.855,314.689h10.218l3.24,5.182h-16.696L-382.855,314.689z"/>
<path fill="#2F8AC1" d="M-373.673,315.43h-8.146l-0.443,0.74h9.031L-373.673,315.43z"/>
<path fill="#2F8AC1" d="M-372.711,316.91h-10.069l-0.445,0.741h10.958L-372.711,316.91z"/>
<path fill="#2F8AC1" d="M-371.823,318.392h-11.846l-0.444,0.739h12.734L-371.823,318.392z"/>
</svg>
