<?xml version="1.0" encoding="utf-8"?>
<!-- Generator: Adobe Illustrator 15.1.0, SVG Export Plug-In . SVG Version: 6.00 Build 0)  -->
<!DOCTYPE svg PUBLIC "-//W3C//DTD SVG 1.1//EN" "http://www.w3.org/Graphics/SVG/1.1/DTD/svg11.dtd">
<svg version="1.1" id="圖層_1" xmlns="http://www.w3.org/2000/svg" xmlns:xlink="http://www.w3.org/1999/xlink" x="0px" y="0px"
	 width="25px" height="25px" viewBox="-383.5 316.5 25 25" enable-background="new -383.5 316.5 25 25" xml:space="preserve">
<title>attachmentreference</title>
<path d="M-366.373,330.554c-1.841,0-3.335,1.493-3.335,3.335c0,1.843,1.494,3.335,3.335,3.335s3.335-1.493,3.335-3.335
	S-364.532,330.554-366.373,330.554z M-367.279,335.043c-0.773,0-1.401-0.628-1.401-1.401s0.627-1.402,1.401-1.402
	c0.774,0,1.401,0.629,1.401,1.402C-365.876,334.415-366.503,335.043-367.279,335.043z"/>
<path d="M-366.373,340.551c-4.188,0-7.43-4.682-7.566-4.882l-0.307-0.451l0.307-0.45c0.137-0.199,3.378-4.88,7.566-4.88
	s7.429,4.681,7.566,4.88l0.307,0.45l-0.307,0.45C-358.944,335.869-362.185,340.551-366.373,340.551z M-372.277,335.218
	c0.856,1.081,3.232,3.732,5.905,3.732c2.671,0,5.046-2.651,5.905-3.732c-0.858-1.081-3.233-3.732-5.905-3.732
	C-369.054,331.485-371.423,334.137-372.277,335.218z"/>
<path d="M-376.504,335.218l1.024-1.501c0.194-0.284,1.154-1.629,2.662-2.94h-3.281c-0.815,0-1.479-0.662-1.479-1.481
	c0-0.822,0.662-1.48,1.479-1.48h3.705c0.816,0,1.479,0.663,1.479,1.48c0,0.034-0.008,0.065-0.01,0.098
	c1.313-0.789,2.849-1.372,4.552-1.372c0.476,0,0.933,0.057,1.382,0.14v-4.788l-3.701-5.923h-11.106l-3.702,5.923v11.847
	L-376.504,335.218L-376.504,335.218z M-379.355,318.19h10.218l3.24,5.182h-16.696L-379.355,318.19z"/>
<path d="M-370.173,318.931h-8.146l-0.443,0.74h9.031L-370.173,318.931z"/>
<path d="M-369.211,320.411h-10.069l-0.445,0.741h10.958L-369.211,320.411z"/>
<path d="M-368.323,321.893h-11.846l-0.444,0.739h12.734L-368.323,321.893z"/>
</svg>
