<?xml version="1.0" encoding="utf-8"?>
<!-- Generator: Adobe Illustrator 15.1.0, SVG Export Plug-In . SVG Version: 6.00 Build 0)  -->
<!DOCTYPE svg PUBLIC "-//W3C//DTD SVG 1.1//EN" "http://www.w3.org/Graphics/SVG/1.1/DTD/svg11.dtd">
<svg version="1.1" id="圖層_1" xmlns="http://www.w3.org/2000/svg" xmlns:xlink="http://www.w3.org/1999/xlink" x="0px" y="0px"
	 width="22px" height="22px" viewBox="0 0 22 22" enable-background="new 0 0 22 22" xml:space="preserve">
<path fill="#7F7F7F" d="M15.072,12.367c-1.62,0-2.936,1.314-2.936,2.936c0,1.622,1.314,2.934,2.936,2.934s2.935-1.313,2.935-2.934
	S16.691,12.367,15.072,12.367z M14.275,16.316c-0.682,0-1.232-0.551-1.232-1.231c0-0.68,0.553-1.233,1.232-1.233
	s1.231,0.554,1.231,1.233C15.51,15.766,14.957,16.316,14.275,16.316z"/>
<path fill="#C4C4C4" d="M15.072,21.164c-3.686,0-6.538-4.119-6.658-4.295l-0.271-0.396l0.271-0.396
	c0.121-0.176,2.973-4.295,6.658-4.295c3.685,0,6.537,4.119,6.658,4.295L22,16.473l-0.27,0.396
	C21.609,17.045,18.758,21.164,15.072,21.164z M9.876,16.473c0.754,0.95,2.845,3.284,5.197,3.284c2.351,0,4.44-2.333,5.196-3.284
	c-0.756-0.953-2.847-3.285-5.196-3.285C12.713,13.188,10.628,15.52,9.876,16.473z"/>
<path fill="#4E85C4" d="M6.156,16.473l0.901-1.322c0.171-0.25,1.016-1.434,2.343-2.586H6.513c-0.718,0-1.302-0.584-1.302-1.305
	c0-0.724,0.582-1.303,1.302-1.303h3.261c0.718,0,1.302,0.583,1.302,1.303c0,0.029-0.008,0.058-0.009,0.086
	c1.156-0.695,2.507-1.208,4.006-1.208c0.418,0,0.821,0.05,1.216,0.123V6.048l-3.257-5.212H3.258L0,6.048v10.425H6.156L6.156,16.473z
	 M3.647,1.487h8.992l2.852,4.561H0.798L3.647,1.487z"/>
<path fill="#E79D5E" d="M11.729,2.14H4.56L4.17,2.791h7.947L11.729,2.14z"/>
<path fill="#E79D5E" d="M12.574,3.442h-8.86L3.322,4.094h9.644L12.574,3.442z"/>
<path fill="#E79D5E" d="M13.355,4.746H2.932L2.541,5.397h11.206L13.355,4.746z"/>
</svg>
