<?xml version="1.0" encoding="utf-8"?>
<!-- Generator: Adobe Illustrator 15.1.0, SVG Export Plug-In . SVG Version: 6.00 Build 0)  -->
<!DOCTYPE svg PUBLIC "-//W3C//DTD SVG 1.1//EN" "http://www.w3.org/Graphics/SVG/1.1/DTD/svg11.dtd">
<svg version="1.1" id="圖層_1" xmlns="http://www.w3.org/2000/svg" xmlns:xlink="http://www.w3.org/1999/xlink" x="0px" y="0px"
	 width="18px" height="18px" viewBox="1.5 21.5 18 18" enable-background="new 1.5 21.5 18 18" xml:space="preserve">
<path fill="#2F4E93" d="M13.832,31.618c-1.326,0-2.402,1.076-2.402,2.402c0,1.327,1.075,2.4,2.402,2.4c1.326,0,2.4-1.074,2.4-2.4
	S15.156,31.618,13.832,31.618z M13.18,34.85c-0.559,0-1.008-0.45-1.008-1.008c0-0.557,0.452-1.009,1.008-1.009
	s1.007,0.454,1.007,1.009C14.189,34.399,13.737,34.85,13.18,34.85z"/>
<path fill="#2F4E93" d="M13.832,38.816c-3.017,0-5.35-3.37-5.448-3.515l-0.222-0.324l0.222-0.323
	c0.099-0.145,2.432-3.515,5.448-3.515c3.015,0,5.349,3.37,5.447,3.515l0.221,0.323l-0.221,0.324
	C19.181,35.446,16.848,38.816,13.832,38.816z M9.58,34.978c0.617,0.777,2.328,2.688,4.253,2.688c1.923,0,3.633-1.909,4.251-2.688
	c-0.618-0.779-2.33-2.688-4.251-2.688C11.901,32.29,10.195,34.198,9.58,34.978z"/>
<path fill="#2F4E93" d="M6.537,34.978l0.737-1.082c0.14-0.204,0.832-1.173,1.917-2.115H6.829c-0.588,0-1.065-0.479-1.065-1.067
	c0-0.593,0.476-1.066,1.065-1.066h2.668c0.588,0,1.065,0.478,1.065,1.066c0,0.023-0.007,0.048-0.008,0.07
	c0.945-0.569,2.052-0.988,3.278-0.988c0.342,0,0.672,0.04,0.994,0.101v-3.447l-2.664-4.265H4.166L1.5,26.448v8.529H6.537
	L6.537,34.978z M4.484,22.716h7.357l2.334,3.732H2.153L4.484,22.716z"/>
<path fill="#2F4E93" d="M11.096,23.251H5.231l-0.319,0.532h6.502L11.096,23.251z"/>
<path fill="#2F4E93" d="M11.788,24.315h-7.25L4.218,24.85h7.891L11.788,24.315z"/>
<path fill="#2F4E93" d="M12.427,25.383H3.899l-0.32,0.532h9.169L12.427,25.383z"/>
</svg>
