<?xml version="1.0" encoding="utf-8"?>
<!-- Generator: Adobe Illustrator 15.1.0, SVG Export Plug-In . SVG Version: 6.00 Build 0)  -->
<!DOCTYPE svg PUBLIC "-//W3C//DTD SVG 1.1//EN" "http://www.w3.org/Graphics/SVG/1.1/DTD/svg11.dtd">
<svg version="1.1" id="圖層_1" xmlns="http://www.w3.org/2000/svg" xmlns:xlink="http://www.w3.org/1999/xlink" x="0px" y="0px"
	 width="20px" height="20px" viewBox="-383.5 316.5 20 20" enable-background="new -383.5 316.5 20 20" xml:space="preserve">
<title>attachment</title>
<path d="M-374.836,323.972l-0.888-0.888l-4.44,4.438c-0.736,0.735-0.736,1.929,0,2.664c0.735,0.735,1.929,0.735,2.664,0l5.329-5.328
	c1.227-1.225,1.227-3.214,0-4.439c-1.225-1.226-3.214-1.226-4.441,0l-5.593,5.595c-0.005,0.003-0.009,0.009-0.013,0.012
	c-1.709,1.71-1.709,4.482,0,6.192c1.709,1.71,4.483,1.71,6.193,0c0.004-0.005,0.007-0.01,0.012-0.013l0.001,0.001l3.819-3.818
	l-0.889-0.888l-3.82,3.817c-0.003,0.003-0.007,0.008-0.011,0.012c-1.218,1.218-3.199,1.218-4.417,0
	c-1.218-1.218-1.218-3.198,0-4.416c0.004-0.004,0.007-0.009,0.012-0.011v-0.001l5.595-5.594c0.734-0.734,1.931-0.734,2.665,0
	c0.735,0.734,0.734,1.93,0,2.664l-5.329,5.327c-0.245,0.244-0.644,0.244-0.888,0c-0.244-0.245-0.244-0.644,0-0.889l4.44-4.438
	H-374.836z"/>
</svg>
