<?xml version="1.0" encoding="utf-8"?>
<!-- Generator: Adobe Illustrator 15.1.0, SVG Export Plug-In . SVG Version: 6.00 Build 0)  -->
<!DOCTYPE svg PUBLIC "-//W3C//DTD SVG 1.1//EN" "http://www.w3.org/Graphics/SVG/1.1/DTD/svg11.dtd">
<svg version="1.1" id="圖層_1" xmlns="http://www.w3.org/2000/svg" xmlns:xlink="http://www.w3.org/1999/xlink" x="0px" y="0px"
	 width="18px" height="18px" viewBox="-240.5 159.5 18 18" enable-background="new -240.5 159.5 18 18" xml:space="preserve">
<path fill="#A8A8A8" d="M-228.168,169.617c-1.326,0-2.402,1.075-2.402,2.401c0,1.328,1.075,2.4,2.402,2.4c1.326,0,2.4-1.074,2.4-2.4
	S-226.844,169.617-228.168,169.617z M-228.82,172.849c-0.559,0-1.008-0.449-1.008-1.008c0-0.557,0.452-1.009,1.008-1.009
	c0.557,0,1.008,0.454,1.008,1.009C-227.811,172.397-228.264,172.849-228.82,172.849z"/>
<path fill="#A8A8A8" d="M-228.168,176.815c-3.018,0-5.35-3.371-5.448-3.516l-0.222-0.324l0.222-0.322
	c0.099-0.146,2.433-3.516,5.448-3.516s5.35,3.37,5.447,3.516l0.221,0.322l-0.221,0.324
	C-222.818,173.444-225.152,176.815-228.168,176.815z M-232.42,172.978c0.617,0.776,2.328,2.688,4.253,2.688
	c1.923,0,3.633-1.909,4.251-2.688c-0.618-0.779-2.33-2.688-4.251-2.688C-230.1,170.289-231.805,172.197-232.42,172.978z"/>
<path fill="#A8A8A8" d="M-235.463,172.978l0.737-1.082c0.14-0.205,0.832-1.174,1.917-2.115h-2.362c-0.588,0-1.065-0.479-1.065-1.067
	c0-0.593,0.476-1.065,1.065-1.065h2.668c0.588,0,1.065,0.478,1.065,1.065c0,0.022-0.008,0.048-0.008,0.07
	c0.944-0.569,2.051-0.988,3.277-0.988c0.342,0,0.672,0.04,0.994,0.101v-3.446l-2.664-4.265h-7.996l-2.666,4.263v8.528h5.037V172.978
	z M-237.516,160.715h7.357l2.334,3.732h-12.022L-237.516,160.715z"/>
<path fill="#A8A8A8" d="M-230.904,161.25h-5.865l-0.319,0.532h6.502L-230.904,161.25z"/>
<path fill="#A8A8A8" d="M-230.212,162.313h-7.25l-0.32,0.535h7.892L-230.212,162.313z"/>
<path fill="#A8A8A8" d="M-229.573,163.382h-8.528l-0.32,0.532h9.169L-229.573,163.382z"/>
</svg>
