<?xml version="1.0" encoding="utf-8"?>
<!-- Generator: Adobe Illustrator 15.1.0, SVG Export Plug-In . SVG Version: 6.00 Build 0)  -->
<!DOCTYPE svg PUBLIC "-//W3C//DTD SVG 1.1//EN" "http://www.w3.org/Graphics/SVG/1.1/DTD/svg11.dtd">
<svg version="1.1" id="圖層_1" xmlns="http://www.w3.org/2000/svg" xmlns:xlink="http://www.w3.org/1999/xlink" x="0px" y="0px"
	 width="22px" height="22px" viewBox="0 0 22 22" enable-background="new 0 0 22 22" xml:space="preserve">
<path fill="#7F7F7F" d="M7.824,21.677H6.74l-0.43-1.12H4.337l-0.407,1.12H2.875l1.92-4.936h1.053L7.824,21.677z M5.99,19.725
	l-0.68-1.832l-0.668,1.832H5.99L5.99,19.725z"/>
<path fill="#7F7F7F" d="M8.346,16.741h0.996v2.673c0,0.423,0.012,0.697,0.037,0.822c0.043,0.201,0.146,0.365,0.305,0.486
	c0.16,0.125,0.382,0.185,0.658,0.185c0.284,0,0.497-0.058,0.64-0.173c0.144-0.115,0.23-0.258,0.259-0.428
	c0.029-0.166,0.045-0.445,0.045-0.838V16.74h0.997v2.591c0,0.591-0.028,1.011-0.082,1.256c-0.055,0.244-0.153,0.451-0.299,0.618
	c-0.145,0.17-0.338,0.305-0.581,0.402c-0.241,0.102-0.559,0.15-0.95,0.15c-0.47,0-0.827-0.056-1.071-0.163
	c-0.243-0.108-0.437-0.25-0.577-0.424c-0.141-0.175-0.235-0.354-0.279-0.547c-0.064-0.284-0.097-0.701-0.097-1.253L8.346,16.741
	L8.346,16.741z"/>
<path fill="#7F7F7F" d="M14.441,21.677v-4.101h-1.465v-0.835h3.922v0.835h-1.459v4.101H14.441z"/>
<path fill="#7F7F7F" d="M17.216,19.238c0-0.502,0.075-0.924,0.226-1.266c0.111-0.25,0.266-0.477,0.459-0.676
	c0.195-0.199,0.408-0.348,0.639-0.443c0.309-0.131,0.662-0.196,1.063-0.196c0.728,0,1.31,0.226,1.746,0.678
	C21.781,17.785,22,18.413,22,19.217c0,0.795-0.216,1.418-0.648,1.869c-0.434,0.451-1.013,0.676-1.736,0.676
	c-0.733,0-1.315-0.225-1.75-0.674c-0.434-0.445-0.648-1.063-0.648-1.848L17.216,19.238L17.216,19.238z M18.242,19.205
	c0,0.561,0.128,0.982,0.386,1.271c0.257,0.289,0.587,0.431,0.983,0.431s0.723-0.142,0.978-0.429
	c0.255-0.285,0.384-0.717,0.384-1.289c0-0.563-0.127-0.986-0.373-1.265c-0.248-0.278-0.578-0.418-0.988-0.418
	c-0.409,0-0.741,0.14-0.991,0.423C18.366,18.213,18.242,18.639,18.242,19.205L18.242,19.205z"/>
<path fill="#C4C4C4" d="M1.116,21.741l0.672-1.726H0.899v1.35C0.899,21.525,0.989,21.66,1.116,21.741z"/>
<path fill="#4E85C4" d="M5.179,8.154c1.114,1.114,1.114,1.214,1.114,1.974v2.697c0,0.868-0.888,1.708-1.995,2.301h7.585
	c-1.108-0.594-1.995-1.433-1.995-2.301c0,0,0.005-2.414,0.005-2.823c0-0.639,0-0.737,1.083-1.821
	C12,7.323,12.585,6.063,12.585,4.734c0-2.477-2.018-4.495-4.496-4.495c-2.476,0-4.494,2.019-4.494,4.495
	C3.596,6.069,4.185,7.322,5.179,8.154z"/>
<path fill="#F3F3F3" d="M7.547,2.09c0.247-0.049,0.48,0.108,0.53,0.352c0.05,0.244-0.104,0.481-0.346,0.53
	c-0.836,0.17-1.438,0.912-1.438,1.762c0,0.391,0.121,0.764,0.354,1.074c0.147,0.197,0.108,0.48-0.089,0.63
	c-0.082,0.059-0.177,0.09-0.271,0.09c-0.136,0-0.271-0.063-0.359-0.181c-0.35-0.472-0.533-1.03-0.533-1.614
	C5.395,3.457,6.303,2.347,7.547,2.09z"/>
<path fill="#4E85C4" d="M3.556,15.475c-0.763,0.31-1.559,0.498-2.208,0.498C0.607,15.973,0,16.578,0,17.318v1.351
	c0,0.246,0.201,0.448,0.45,0.448h1.688L3.556,15.475L3.556,15.475z"/>
</svg>
