<?xml version="1.0" encoding="utf-8"?>
<!-- Generator: Adobe Illustrator 15.1.0, SVG Export Plug-In . SVG Version: 6.00 Build 0)  -->
<!DOCTYPE svg PUBLIC "-//W3C//DTD SVG 1.1//EN" "http://www.w3.org/Graphics/SVG/1.1/DTD/svg11.dtd">
<svg version="1.1" id="圖層_1" xmlns="http://www.w3.org/2000/svg" xmlns:xlink="http://www.w3.org/1999/xlink" x="0px" y="0px"
	 width="22px" height="22px" viewBox="-240.5 159.5 22 22" enable-background="new -240.5 159.5 22 22" xml:space="preserve">
<title>loader</title>
<path fill="#7F7F7F" d="M-233.701,168.819h3.514c0.379,0,0.687-0.308,0.687-0.688c0-0.381-0.308-0.688-0.687-0.688h-3.514
	c-0.379,0-0.687,0.308-0.687,0.688C-234.388,168.512-234.08,168.819-233.701,168.819z"/>
<path fill="#7F7F7F" d="M-228.965,173.556h-4.736c-0.379,0-0.687,0.308-0.687,0.688c0,0.381,0.308,0.688,0.687,0.688h4.736
	c0.379,0,0.687-0.308,0.687-0.688C-228.278,173.863-228.584,173.556-228.965,173.556z"/>
<path fill="#7F7F7F" d="M-225.299,170.5h-8.402c-0.379,0-0.687,0.308-0.687,0.688c0,0.381,0.308,0.688,0.687,0.688h8.402
	c0.38,0,0.688-0.308,0.688-0.688C-224.611,170.808-224.918,170.5-225.299,170.5z"/>
<path fill="#4E85C4" d="M-221.392,164.42c-0.478-0.649-1.142-1.409-1.873-2.142c-0.73-0.73-1.492-1.395-2.144-1.871
	c-1.108-0.813-1.645-0.907-1.953-0.907h-9.434c-0.948,0-1.719,0.771-1.719,1.719v18.563c0,0.946,0.771,1.719,1.719,1.719h5.156
	h3.736h5.698c0.948,0,1.719-0.771,1.719-1.719v-9.47v-2.98v-0.955C-220.485,166.067-220.579,165.53-221.392,164.42z
	 M-225.985,161.692c0.493,0.384,1.09,0.899,1.749,1.561c0.659,0.656,1.177,1.253,1.559,1.747h-3.307V161.692z M-221.86,169.112
	v10.668c0,0.186-0.158,0.344-0.344,0.344c0,0-3.978,0-6.768,0h-2.666h-5.156c-0.186,0-0.344-0.158-0.344-0.344v-18.563
	c0-0.186,0.158-0.343,0.344-0.343c0,0,9.433,0,9.434,0v4.813c0,0.38,0.308,0.688,0.688,0.688h4.813v0.955L-221.86,169.112
	L-221.86,169.112z"/>
</svg>
