<?xml version="1.0" encoding="utf-8"?>
<!-- Generator: Adobe Illustrator 15.1.0, SVG Export Plug-In . SVG Version: 6.00 Build 0)  -->
<!DOCTYPE svg PUBLIC "-//W3C//DTD SVG 1.1//EN" "http://www.w3.org/Graphics/SVG/1.1/DTD/svg11.dtd">
<svg version="1.1" id="圖層_1" xmlns="http://www.w3.org/2000/svg" xmlns:xlink="http://www.w3.org/1999/xlink" x="0px" y="0px"
	 width="20px" height="20px" viewBox="-381.5 316.5 20 20" enable-background="new -381.5 316.5 20 20" xml:space="preserve">
<title>books</title>
<path fill="#FFFFFF" d="M-376.24,320.912h-2.794c-0.256,0-0.466,0.209-0.466,0.465v10.246c0,0.256,0.209,0.465,0.466,0.465h2.794
	c0.256,0,0.466-0.209,0.466-0.465v-10.246C-375.774,321.121-375.984,320.912-376.24,320.912z M-376.706,323.706h-1.863v-0.932h1.863
	V323.706z"/>
<path fill="#FFFFFF" d="M-371.583,320.912h-2.794c-0.256,0-0.466,0.209-0.466,0.465v10.246c0,0.256,0.21,0.465,0.466,0.465h2.794
	c0.256,0,0.465-0.209,0.465-0.465v-10.246C-371.118,321.121-371.327,320.912-371.583,320.912z M-372.049,323.706h-1.863v-0.932
	h1.863V323.706z"/>
<path fill="#FFFFFF" d="M-363.55,330.155l-4.19-8.317c-0.115-0.229-0.396-0.322-0.625-0.206l-2.495,1.257
	c-0.229,0.115-0.322,0.396-0.207,0.626l4.191,8.317c0.011,0.021,0.028,0.034,0.042,0.053c0.019,0.027,0.037,0.056,0.061,0.078
	c0.021,0.02,0.046,0.032,0.071,0.048c0.026,0.017,0.051,0.034,0.081,0.045s0.06,0.013,0.09,0.019
	c0.024,0.004,0.046,0.014,0.072,0.014c0.005,0,0.01-0.003,0.016-0.003c0.029-0.001,0.057-0.011,0.086-0.018
	c0.032-0.007,0.063-0.012,0.092-0.025c0.005-0.002,0.01-0.001,0.015-0.004l2.496-1.257
	C-363.527,330.666-363.434,330.384-363.55,330.155z"/>
</svg>
