<?xml version="1.0" encoding="utf-8"?>
<!-- Generator: Adobe Illustrator 15.1.0, SVG Export Plug-In . SVG Version: 6.00 Build 0)  -->
<!DOCTYPE svg PUBLIC "-//W3C//DTD SVG 1.1//EN" "http://www.w3.org/Graphics/SVG/1.1/DTD/svg11.dtd">
<svg version="1.1" id="圖層_1" xmlns="http://www.w3.org/2000/svg" xmlns:xlink="http://www.w3.org/1999/xlink" x="0px" y="0px"
	 width="20px" height="20px" viewBox="8.5 24.5 20 20" enable-background="new 8.5 24.5 20 20" xml:space="preserve">
<title>browse</title>
<path fill="#C1C1C1" d="M9,26.5h15.317v1.768H9V26.5z"/>
<path fill="#C1C1C1" d="M27.743,41.006l-3.682-3.684c0.325-0.617,0.496-1.309,0.496-2.01c0-1.152-0.45-2.236-1.266-3.053
	c-0.804-0.803-1.868-1.25-3.003-1.264l-0.05-0.002c-2.381,0-4.316,1.938-4.316,4.318s1.937,4.316,4.316,4.316
	c0.985,0,1.939-0.336,2.702-0.949l3.563,3.563c0.165,0.166,0.385,0.258,0.62,0.258c0.236,0,0.455-0.092,0.62-0.258
	S28,41.857,28,41.623S27.909,41.17,27.743,41.006z M20.24,37.879c-1.415,0-2.566-1.15-2.566-2.566c0-1.414,1.151-2.564,2.566-2.564
	c0.687,0,1.33,0.266,1.813,0.75c0.485,0.484,0.752,1.127,0.752,1.814c0,0.686-0.267,1.33-0.752,1.813
	C21.57,37.611,20.927,37.879,20.24,37.879z"/>
<path fill="#C1C1C1" d="M15.348,38.447H9v1.766h8.119C16.409,39.759,15.804,39.156,15.348,38.447z"/>
<g>
	<path fill="#C1C1C1" d="M14.423,35.313c0-0.289,0.028-0.571,0.069-0.849H9v1.768h5.503C14.455,35.932,14.423,35.626,14.423,35.313z
		"/>
</g>
<g>
	<path fill="#C1C1C1" d="M17.001,30.482H9v1.768h6.303C15.74,31.549,16.316,30.943,17.001,30.482z"/>
</g>
<title>arrow-down-thick</title>
</svg>
