<?xml version="1.0" encoding="utf-8"?>
<!-- Generator: Adobe Illustrator 15.1.0, SVG Export Plug-In . SVG Version: 6.00 Build 0)  -->
<!DOCTYPE svg PUBLIC "-//W3C//DTD SVG 1.1//EN" "http://www.w3.org/Graphics/SVG/1.1/DTD/svg11.dtd">
<svg version="1.1" id="圖層_1" xmlns="http://www.w3.org/2000/svg" xmlns:xlink="http://www.w3.org/1999/xlink" x="0px" y="0px"
	 width="20px" height="20px" viewBox="-383.5 316.5 20 20" enable-background="new -383.5 316.5 20 20" xml:space="preserve">
<title>calendar-alt-stroke</title>
<path fill="#FFFFFF" d="M-365.5,334.5h-16v-14h2v12h12v-12h2V334.5z M-378.5,324.5h2v2h-2V324.5z M-374.5,324.5h2v2h-2V324.5z
	 M-370.5,324.5h2v2h-2V324.5z M-378.5,328.5h2v2h-2V328.5z M-374.5,328.5h2v2h-2V328.5z M-370.5,330.5v-2h2L-370.5,330.5z
	 M-377.5,321.5v-2c0-0.553,0.448-1,1-1s1,0.447,1,1v2c0,0.553-0.448,1-1,1S-377.5,322.053-377.5,321.5z M-371.5,321.5v-2
	c0-0.553,0.447-1,1-1s1,0.447,1,1v2c0,0.553-0.447,1-1,1S-371.5,322.053-371.5,321.5z"/>
</svg>
