<?xml version="1.0" encoding="utf-8"?>
<!-- Generator: Adobe Illustrator 15.1.0, SVG Export Plug-In . SVG Version: 6.00 Build 0)  -->
<!DOCTYPE svg PUBLIC "-//W3C//DTD SVG 1.1//EN" "http://www.w3.org/Graphics/SVG/1.1/DTD/svg11.dtd">
<svg version="1.1" id="圖層_1" xmlns="http://www.w3.org/2000/svg" xmlns:xlink="http://www.w3.org/1999/xlink" x="0px" y="0px"
	 width="20px" height="50px" viewBox="0 0 20 50" enable-background="new 0 0 20 50" xml:space="preserve">
<title>calendar</title>
<path fill="#606060" d="M-11.039,18.109h-1.75v1.75h1.75V18.109z M-9.289,18.109h-0.875v2.625h-3.5v-2.625h-3.5v2.625h-3.5v-2.625
	h-0.875c-0.483,0-0.875,0.392-0.875,0.875v12.25c0,0.482,0.391,0.875,0.875,0.875h12.25c0.483,0,0.875-0.393,0.875-0.875v-12.25
	C-8.414,18.501-8.806,18.109-9.289,18.109z M-10.164,30.359h-10.5v-7.875h10.5V30.359z M-18.039,18.109h-1.75v1.75h1.75V18.109z
	 M-14.539,24.234h-1.75v1.75h1.75V24.234z M-11.914,24.234h-1.75v1.75h1.75V24.234z M-17.164,26.859h-1.75v1.75h1.75V26.859z
	 M-17.164,24.234h-1.75v1.75h1.75V24.234z M-14.539,26.859h-1.75v1.75h1.75V26.859z M-11.914,26.859h-1.75v1.75h1.75V26.859z"/>
<g>
	<path fill="#3A3A3A" d="M12.658,19.604c0.133,0,0.244,0.111,0.244,0.244v2.136H1.099v-2.136c0-0.133,0.111-0.244,0.243-0.244
		H12.658z M1.342,18.5C0.602,18.5,0,19.104,0,19.849v10.303C0,30.894,0.602,31.5,1.342,31.5h11.316c0.74,0,1.342-0.604,1.342-1.349
		V19.849c0-0.742-0.602-1.348-1.342-1.348L1.342,18.5z M1.1,23.088h11.802v7.063c0,0.133-0.111,0.244-0.242,0.244H1.344
		c-0.132,0-0.243-0.111-0.243-0.244L1.1,23.088L1.1,23.088z"/>
</g>
<path fill="#606060" d="M-30.295,19H-41.73c-0.7,0-1.27,0.581-1.27,1.295v10.412C-43,31.42-42.419,32-41.705,32h11.436
	c0.7,0,1.27-0.58,1.27-1.293V20.295C-29,19.581-29.581,19-30.295,19z M-30.363,22.67h-11.273v-2.294h11.273V22.67z M-41.636,24.053
	h11.273v6.573h-11.273V24.053z"/>
<circle fill="#606060" cx="-36" cy="26.026" r="0.875"/>
<circle fill="#606060" cx="-33.375" cy="26.026" r="0.875"/>
<circle fill="#606060" cx="-38.625" cy="28.65" r="0.875"/>
<circle fill="#606060" cx="-38.625" cy="26.026" r="0.875"/>
<circle fill="#606060" cx="-36" cy="28.65" r="0.875"/>
<circle fill="#606060" cx="-33.375" cy="28.65" r="0.875"/>
<path fill="#0B486B" d="M-32.25,51.666h-14v-12.25h1.75v10.5H-34v-10.5h1.75V51.666z M-43.625,42.916h1.75v1.75h-1.75V42.916z
	 M-40.125,42.916h1.75v1.75h-1.75V42.916z M-36.625,42.916h1.75v1.75h-1.75V42.916z M-43.625,46.416h1.75v1.75h-1.75V46.416z
	 M-40.125,46.416h1.75v1.75h-1.75V46.416z M-36.625,48.166v-1.75h1.75L-36.625,48.166z M-42.75,40.291v-1.75
	c0-0.482,0.392-0.875,0.875-0.875S-41,38.059-41,38.541v1.75c0,0.482-0.392,0.875-0.875,0.875S-42.75,40.773-42.75,40.291z
	 M-37.5,40.291v-1.75c0-0.482,0.392-0.875,0.875-0.875s0.875,0.393,0.875,0.875v1.75c0,0.482-0.392,0.875-0.875,0.875
	S-37.5,40.773-37.5,40.291z"/>
<path fill="#212121" d="M-10.241,66.02c0,0.166-0.146,0.299-0.324,0.299c-0.178,0-0.323-0.133-0.323-0.299v-1.602h-2.6v1.602
	c0,0.166-0.145,0.299-0.324,0.299c-0.178,0-0.323-0.133-0.323-0.299v-1.602h-2.602v1.602c0,0.166-0.145,0.299-0.323,0.299
	c-0.178,0-0.323-0.133-0.323-0.299v-1.602h-1.288c-0.178,0-0.323-0.133-0.323-0.295c0-0.166,0.145-0.299,0.323-0.299h1.288v-2.104
	h-1.288c-0.178,0-0.323-0.131-0.323-0.299c0-0.167,0.145-0.299,0.323-0.299h1.288v-1.6c0-0.166,0.145-0.297,0.323-0.297
	c0.178,0,0.323,0.131,0.323,0.297v1.6h2.602v-1.6c0-0.166,0.145-0.297,0.323-0.297c0.179,0,0.324,0.131,0.324,0.297v1.6h2.6v-1.6
	c0-0.166,0.145-0.297,0.323-0.297c0.18,0,0.324,0.131,0.324,0.297v1.6h1.285c0.18,0,0.324,0.132,0.324,0.299
	c0,0.168-0.145,0.299-0.324,0.299h-1.285v2.104h1.285c0.18,0,0.324,0.133,0.324,0.299c0,0.162-0.145,0.295-0.324,0.295h-1.285V66.02
	L-10.241,66.02z M-19.736,57.738H-7.89v-0.784c0-0.294-0.133-0.567-0.345-0.765l-0.002-0.006c-0.214-0.189-0.509-0.313-0.832-0.313
	h-0.291v0.568c0,0.275-0.24,0.5-0.538,0.5s-0.538-0.225-0.538-0.5v-0.568h-6.755v0.568c0,0.275-0.242,0.5-0.54,0.5
	c-0.296,0-0.538-0.225-0.538-0.5v-0.568h-0.29c-0.323,0-0.619,0.123-0.832,0.318h-0.001c-0.213,0.195-0.346,0.467-0.346,0.765
	L-19.736,57.738L-19.736,57.738z M-7.89,58.729h-11.847v7.002c0,0.295,0.133,0.568,0.347,0.766l-0.001,0.006h0.001
	c0.213,0.189,0.507,0.316,0.832,0.316h9.49c0.322,0,0.617-0.127,0.832-0.322h0.001l0,0c0.214-0.195,0.347-0.467,0.347-0.766v-7.002
	H-7.89z M-18.559,54.876h0.291v-0.573c0-0.273,0.242-0.494,0.537-0.494c0.298,0,0.54,0.221,0.54,0.494v0.573h6.755v-0.573
	c0-0.273,0.24-0.494,0.538-0.494c0.297,0,0.538,0.221,0.538,0.494v0.573h0.291c0.618,0,1.182,0.235,1.591,0.606l0.003,0.006
	l0.009,0.01c0.402,0.373,0.652,0.893,0.652,1.456v1.265v0.016v0.016v7.482c0,0.568-0.255,1.086-0.664,1.465h0.001
	c-0.407,0.377-0.972,0.611-1.592,0.611h-9.49c-0.619,0-1.183-0.234-1.591-0.611l-0.001,0.004c-0.41-0.377-0.663-0.896-0.663-1.471
	v-7.482v-0.016v-0.014v-1.266c0-0.568,0.253-1.087,0.661-1.465h0.001l-0.001-0.006C-19.745,55.112-19.179,54.876-18.559,54.876
	L-18.559,54.876z M-16.737,61.723v2.102h2.602v-2.102H-16.737L-16.737,61.723z M-13.488,61.723v2.102h2.6v-2.102H-13.488
	L-13.488,61.723z"/>
<g>
	<circle fill="#3A3A3A" cx="7.001" cy="25.43" r="0.875"/>
	<circle fill="#3A3A3A" cx="9.625" cy="25.43" r="0.875"/>
	<circle fill="#3A3A3A" cx="4.376" cy="28.055" r="0.875"/>
	<circle fill="#3A3A3A" cx="4.376" cy="25.43" r="0.875"/>
	<circle fill="#3A3A3A" cx="7.001" cy="28.055" r="0.875"/>
	<circle fill="#3A3A3A" cx="9.625" cy="28.055" r="0.875"/>
</g>
<g>
	<path fill="#3A3A3A" d="M-13.217,37.785h-1.42v1.104h1.42c0.132,0,0.243,0.111,0.243,0.244v2.137h-11.803v-2.137
		c0-0.133,0.111-0.244,0.243-0.244h1.433v0.975c0,0.304,0.247,0.552,0.549,0.552c0.303,0,0.55-0.248,0.55-0.552v-2.854
		c0-0.305-0.247-0.552-0.55-0.552c-0.302,0-0.549,0.247-0.549,0.552v0.775h-1.433c-0.74,0-1.342,0.604-1.342,1.349v9.977
		c0,0.742,0.602,1.349,1.342,1.349h11.316c0.74,0,1.342-0.604,1.342-1.349v-9.977C-11.875,38.391-12.477,37.785-13.217,37.785z
		 M-24.776,42.373h11.803v6.736c0,0.133-0.111,0.244-0.243,0.244h-11.316c-0.132,0-0.243-0.111-0.243-0.244L-24.776,42.373
		L-24.776,42.373z"/>
	<path fill="#3A3A3A" d="M-16.45,39.863c0,0.304,0.247,0.552,0.549,0.552c0.303,0,0.55-0.248,0.55-0.552v-2.854
		c0-0.305-0.247-0.552-0.55-0.552c-0.303,0-0.549,0.247-0.549,0.552v0.775h-1.369v1.104h1.369V39.863z"/>
	<path fill="#3A3A3A" d="M-19.791,39.863c0,0.304,0.247,0.552,0.549,0.552c0.302,0,0.549-0.248,0.549-0.552v-2.854
		c0-0.305-0.247-0.552-0.549-0.552c-0.302,0-0.549,0.247-0.549,0.552v0.775h-1.369v1.104h1.369V39.863z"/>
</g>
<rect x="-23.625" y="43.964" fill="#3A3A3A" width="2.5" height="0.802"/>
<rect x="-20.125" y="43.964" fill="#3A3A3A" width="2.5" height="0.802"/>
<rect x="-16.625" y="43.964" fill="#3A3A3A" width="2.5" height="0.802"/>
<rect x="-23.625" y="45.464" fill="#3A3A3A" width="2.5" height="0.802"/>
<rect x="-20.125" y="45.464" fill="#3A3A3A" width="2.5" height="0.802"/>
<rect x="-16.625" y="45.464" fill="#3A3A3A" width="2.5" height="0.802"/>
<rect x="-23.625" y="46.964" fill="#3A3A3A" width="2.5" height="0.802"/>
<rect x="-20.125" y="46.964" fill="#3A3A3A" width="2.5" height="0.802"/>
<rect x="-16.625" y="46.964" fill="#3A3A3A" width="2.5" height="0.802"/>
</svg>
