<?xml version="1.0" encoding="utf-8"?>
<!-- Generator: Adobe Illustrator 15.1.0, SVG Export Plug-In . SVG Version: 6.00 Build 0)  -->
<!DOCTYPE svg PUBLIC "-//W3C//DTD SVG 1.1//EN" "http://www.w3.org/Graphics/SVG/1.1/DTD/svg11.dtd">
<svg version="1.1" id="圖層_1" xmlns="http://www.w3.org/2000/svg" xmlns:xlink="http://www.w3.org/1999/xlink" x="0px" y="0px"
	 width="18px" height="18px" viewBox="-383.5 316.5 18 18" enable-background="new -383.5 316.5 18 18" xml:space="preserve">
<title>capture</title>
<path fill="#236490" d="M-381.362,323.266v1.229h2.66v-2.659h-1.229v1.43H-381.362z"/>
<path fill="#236490" d="M-368.298,323.99l-0.85-1.029l-0.169,0.137c-0.007,0.007-0.783,0.627-1.859,0.627
	c-0.4,0-0.795-0.086-1.177-0.257l-0.404-0.181l-0.339,0.304c-0.31,0.275-1.879,1.669-2.346,2.008
	c-0.217,0.147-0.498,0.225-0.808,0.225c-0.45,0-0.874-0.164-1.045-0.327c0.811-0.812,3.438-3.495,4.535-4.616l0.22-0.226
	l-0.979-0.958h-6.655l-3.325,3.326v9.149c0,0.747,0.609,1.355,1.356,1.355h12.51c0.749,0,1.356-0.608,1.356-1.355v-8.188
	L-368.298,323.99L-368.298,323.99z M-369.633,332.299h-12.511c-0.07,0-0.127-0.057-0.127-0.127v-8.64l2.605-2.605h4.944
	c-1.153,1.179-2.929,2.988-3.556,3.616c-0.526,0.527-0.568,1.229-0.106,1.789c0.427,0.521,1.257,0.856,2.112,0.856
	c0.598,0,1.154-0.161,1.61-0.468c0.438-0.317,1.527-1.27,2.17-1.839c0.43,0.144,0.873,0.216,1.318,0.216
	c0.652,0,1.219-0.153,1.667-0.336v7.411C-369.507,332.243-369.564,332.299-369.633,332.299L-369.633,332.299z"/>
<path fill="#236490" d="M-373.768,317.473c-0.9,0-1.77,0.386-2.389,1.064l-0.581,0.753h1.557l0.057-0.053
	c0.364-0.345,0.846-0.534,1.355-0.534l7.038,0.001v5.812l-1.142,0.001v1.867l0.338-0.354c0.11-0.115,0.193-0.215,0.25-0.285h1.784
	v-8.27L-373.768,317.473z"/>
</svg>
