<?xml version="1.0" encoding="utf-8"?>
<!-- Generator: Adobe Illustrator 15.1.0, SVG Export Plug-In . SVG Version: 6.00 Build 0)  -->
<!DOCTYPE svg PUBLIC "-//W3C//DTD SVG 1.1//EN" "http://www.w3.org/Graphics/SVG/1.1/DTD/svg11.dtd">
<svg version="1.1" id="圖層_1" xmlns="http://www.w3.org/2000/svg" xmlns:xlink="http://www.w3.org/1999/xlink" x="0px" y="0px"
	 width="18px" height="18px" viewBox="-385.5 314.5 18 18" enable-background="new -385.5 314.5 18 18" xml:space="preserve">
<title>check2</title>
<path fill="#0F5D8A" d="M-368.5,319.763c0,0.276-0.097,0.51-0.29,0.702l-8.877,8.878c-0.193,0.192-0.427,0.289-0.702,0.289
	s-0.508-0.097-0.702-0.289l-5.14-5.141c-0.193-0.192-0.289-0.427-0.289-0.701c0-0.275,0.096-0.509,0.289-0.702l1.404-1.404
	c0.192-0.192,0.426-0.289,0.701-0.289s0.509,0.097,0.702,0.289l3.035,3.046l6.772-6.782c0.193-0.193,0.426-0.29,0.701-0.29
	c0.275,0,0.509,0.097,0.702,0.29l1.403,1.403c0.194,0.192,0.289,0.427,0.289,0.701H-368.5z"/>
</svg>
