<?xml version="1.0" encoding="utf-8"?>
<!-- Generator: Adobe Illustrator 15.1.0, SVG Export Plug-In . SVG Version: 6.00 Build 0)  -->
<!DOCTYPE svg PUBLIC "-//W3C//DTD SVG 1.1//EN" "http://www.w3.org/Graphics/SVG/1.1/DTD/svg11.dtd">
<svg version="1.1" id="圖層_1" xmlns="http://www.w3.org/2000/svg" xmlns:xlink="http://www.w3.org/1999/xlink" x="0px" y="0px"
	 width="16px" height="16px" viewBox="-387.5 312.5 16 16" enable-background="new -387.5 312.5 16 16" xml:space="preserve">
<title>check</title>
<path fill="#FFFFFF" d="M-372.3,314.9c0.229,0,0.42,0.075,0.571,0.229c0.152,0.15,0.229,0.342,0.229,0.57
	c0,0.227-0.076,0.415-0.231,0.57l-9.6,9.6c-0.154,0.154-0.344,0.23-0.569,0.23c-0.225,0-0.414-0.076-0.568-0.23l-4.8-4.801
	c-0.155-0.153-0.231-0.344-0.231-0.568c0-0.23,0.076-0.42,0.229-0.572c0.152-0.151,0.342-0.229,0.571-0.229
	c0.226,0,0.415,0.078,0.569,0.232l4.23,4.236l9.031-9.037C-372.715,314.977-372.525,314.9-372.3,314.9z"/>
</svg>
