<?xml version="1.0" encoding="utf-8"?>
<!-- Generator: Adobe Illustrator 15.1.0, SVG Export Plug-In . SVG Version: 6.00 Build 0)  -->
<!DOCTYPE svg PUBLIC "-//W3C//DTD SVG 1.1//EN" "http://www.w3.org/Graphics/SVG/1.1/DTD/svg11.dtd">
<svg version="1.1" id="圖層_1" xmlns="http://www.w3.org/2000/svg" xmlns:xlink="http://www.w3.org/1999/xlink" x="0px" y="0px"
	 width="30px" height="30px" viewBox="-383.5 316.5 30 30" enable-background="new -383.5 316.5 30 30" xml:space="preserve">
<title>circle-up</title>
<path fill="#34495E" d="M-368.5,317.5c-7.732,0-14,6.268-14,14s6.268,14,14,14s14-6.268,14-14S-360.768,317.5-368.5,317.5z
	 M-368.5,342.875c-6.283,0-11.375-5.093-11.375-11.375c0-6.283,5.092-11.375,11.375-11.375c6.282,0,11.375,5.092,11.375,11.375
	C-357.125,337.782-362.218,342.875-368.5,342.875z"/>
<path fill="#34495E" d="M-375.5,331.898c0,0.251,0.102,0.49,0.285,0.675l0.697,0.697c0.175,0.183,0.42,0.285,0.674,0.285
	c0.255,0,0.5-0.103,0.672-0.282l3.116-3.105v7.072c0,0.566,0.484,0.86,0.961,0.86h1.186c0.479,0,0.963-0.295,0.963-0.86v-7.072
	l3.111,3.101c0.177,0.185,0.422,0.287,0.676,0.287s0.503-0.104,0.684-0.285l0.696-0.697c0.179-0.185,0.278-0.427,0.278-0.675
	c0-0.252-0.102-0.502-0.278-0.688l-6.036-6.035c-0.177-0.176-0.428-0.277-0.686-0.277c-0.26,0-0.505,0.1-0.673,0.274l-6.042,6.041
	C-375.396,331.396-375.5,331.646-375.5,331.898z"/>
</svg>
