<?xml version="1.0" encoding="utf-8"?>
<!-- Generator: Adobe Illustrator 15.1.0, SVG Export Plug-In . SVG Version: 6.00 Build 0)  -->
<!DOCTYPE svg PUBLIC "-//W3C//DTD SVG 1.1//EN" "http://www.w3.org/Graphics/SVG/1.1/DTD/svg11.dtd">
<svg version="1.1" id="圖層_1" xmlns="http://www.w3.org/2000/svg" xmlns:xlink="http://www.w3.org/1999/xlink" x="0px" y="0px"
	 width="30px" height="30px" viewBox="-383.5 316.5 30 30" enable-background="new -383.5 316.5 30 30" xml:space="preserve">
<title>circle-down</title>
<path fill="#C1C1C1" d="M-368.5,317.5c-7.732,0-14,6.268-14,14s6.268,14,14,14s14-6.268,14-14S-360.768,317.5-368.5,317.5z
	 M-368.5,342.875c-6.283,0-11.375-5.093-11.375-11.375s5.092-11.375,11.375-11.375c6.282,0,11.375,5.093,11.375,11.375
	S-362.218,342.875-368.5,342.875z"/>
<path fill="#C1C1C1" d="M-361.5,331.102c0-0.251-0.102-0.49-0.285-0.675l-0.697-0.697c-0.175-0.183-0.419-0.285-0.674-0.285
	c-0.254,0-0.5,0.103-0.672,0.282l-3.116,3.106v-7.075c0-0.564-0.484-0.859-0.96-0.859h-1.187c-0.478,0-0.962,0.295-0.962,0.859
	v7.075l-0.385-0.385l-2.728-2.717c-0.176-0.183-0.421-0.287-0.677-0.287c-0.253,0-0.502,0.104-0.684,0.287l-0.695,0.695
	c-0.178,0.185-0.277,0.426-0.277,0.675c0,0.252,0.103,0.502,0.28,0.688l6.036,6.034c0.177,0.178,0.427,0.277,0.685,0.277
	c0.26,0,0.505-0.098,0.673-0.274l6.042-6.04C-361.604,331.604-361.5,331.354-361.5,331.102z"/>
</svg>
