<?xml version="1.0" encoding="utf-8"?>
<!-- Generator: Adobe Illustrator 15.1.0, SVG Export Plug-In . SVG Version: 6.00 Build 0)  -->
<!DOCTYPE svg PUBLIC "-//W3C//DTD SVG 1.1//EN" "http://www.w3.org/Graphics/SVG/1.1/DTD/svg11.dtd">
<svg version="1.1" id="圖層_1" xmlns="http://www.w3.org/2000/svg" xmlns:xlink="http://www.w3.org/1999/xlink" x="0px" y="0px"
	 width="25px" height="25px" viewBox="-383.5 316.5 25 25" enable-background="new -383.5 316.5 25 25" xml:space="preserve">
<title>clean</title>
<path fill="#FFFFFF" d="M-365.712,322.238l-4.917-4.918c-0.114-0.111-0.258-0.224-0.435-0.337v5.688h5.688
	C-365.487,322.495-365.6,322.351-365.712,322.238z"/>
<path fill="#FFFFFF" d="M-358.594,325.704c0-0.559-0.218-1.083-0.612-1.478c-0.394-0.394-0.919-0.611-1.477-0.611
	c-0.551,0-1.07,0.212-1.462,0.598l-5.392,4.817l-1.44-1.44c-0.214-0.214-0.542-0.264-0.812-0.121l-2.576,1.359
	c-0.195,0.103-0.328,0.291-0.361,0.508c-0.033,0.217,0.04,0.437,0.195,0.592l0.289,0.288l-4.102,3.042
	c-0.081,0.06-0.131,0.152-0.138,0.251c-0.007,0.102,0.03,0.2,0.101,0.271l1.452,1.454c0.103,0.103,0.26,0.13,0.394,0.067
	l0.668-0.316l-0.279,0.743c-0.048,0.127-0.017,0.271,0.079,0.366l2.026,2.027c0.114,0.114,0.29,0.134,0.424,0.05l1.148-0.696
	l-0.688,1.162c-0.08,0.136-0.058,0.31,0.052,0.421l0.837,0.836c0.115,0.114,0.294,0.133,0.43,0.047l0.224-0.145l-0.137,0.282
	c-0.065,0.135-0.04,0.292,0.066,0.396l0.924,0.925c0.066,0.066,0.154,0.101,0.246,0.101c0.009,0,0.017,0,0.025,0
	c0.101-0.007,0.193-0.059,0.252-0.139l3.042-4.102l0.288,0.289c0.13,0.131,0.307,0.202,0.488,0.202c0.035,0,0.069-0.003,0.103-0.009
	c0.218-0.032,0.405-0.165,0.509-0.36l1.36-2.575c0.141-0.269,0.091-0.597-0.123-0.813l-1.439-1.439l4.817-5.391
	c0.386-0.392,0.598-0.91,0.598-1.462V325.704z M-368.553,340.629l-0.466-0.466l0.572-1.169c0.069-0.138,0.035-0.306-0.08-0.408
	c-0.115-0.104-0.285-0.117-0.416-0.035l-1.03,0.659l-0.45-0.449l1.256-2.12c0.081-0.136,0.058-0.31-0.053-0.423
	c-0.114-0.11-0.287-0.131-0.423-0.05l-2.097,1.273l-1.678-1.677l0.501-1.334c0.049-0.131,0.014-0.28-0.09-0.376
	c-0.104-0.097-0.255-0.118-0.382-0.059l-1.221,0.577l-0.998-0.998l3.861-2.863l6.057,6.057l-2.863,3.862V340.629z"/>
<path fill="#FFFFFF" d="M-375.354,337.384c-0.147-0.147-0.27-0.313-0.366-0.49c-0.179-0.098-0.347-0.223-0.495-0.371l-1.453-1.454
	c-0.425-0.422-0.656-1.007-0.634-1.611l-0.088-0.089l0.1-0.074c0.066-0.598,0.378-1.142,0.864-1.501l2.883-2.138
	c-0.017-0.195-0.012-0.393,0.018-0.59c0.121-0.789,0.611-1.479,1.313-1.85l2.575-1.359c0.358-0.188,0.765-0.291,1.173-0.291
	c0.672,0,1.304,0.263,1.778,0.737l0.22,0.22l2.571-2.298v-0.011h-6.557c-0.321,0-0.594-0.112-0.819-0.338
	c-0.226-0.225-0.337-0.498-0.337-0.819V316.5h-9.642c-0.321,0-0.594,0.112-0.82,0.339c-0.226,0.225-0.337,0.497-0.337,0.819v19.283
	c0,0.32,0.111,0.594,0.337,0.818c0.226,0.225,0.499,0.338,0.82,0.338h7.608l-0.715-0.716L-375.354,337.384z"/>
</svg>
