<?xml version="1.0" encoding="utf-8"?>
<!-- Generator: Adobe Illustrator 15.1.0, SVG Export Plug-In . SVG Version: 6.00 Build 0)  -->
<!DOCTYPE svg PUBLIC "-//W3C//DTD SVG 1.1//EN" "http://www.w3.org/Graphics/SVG/1.1/DTD/svg11.dtd">
<svg version="1.1" id="圖層_1" xmlns="http://www.w3.org/2000/svg" xmlns:xlink="http://www.w3.org/1999/xlink" x="0px" y="0px"
	 width="22px" height="22px" viewBox="0 0 22 22" enable-background="new 0 0 22 22" xml:space="preserve">
<path fill="#C4C4C4" d="M15.654,5.049l-4.328-4.327c-0.101-0.099-0.227-0.197-0.382-0.297v5.006h5.007
	C15.852,5.275,15.754,5.147,15.654,5.049z"/>
<path fill="#7F7F7F" d="M21.918,8.099c0-0.49-0.191-0.953-0.537-1.299c-0.348-0.348-0.809-0.539-1.301-0.539
	c-0.484,0-0.941,0.188-1.285,0.525l-4.746,4.241L12.781,9.76c-0.188-0.189-0.477-0.232-0.715-0.107L9.801,10.85
	c-0.172,0.09-0.289,0.256-0.317,0.447c-0.029,0.189,0.034,0.383,0.171,0.52l0.254,0.254L6.3,14.749
	C6.229,14.8,6.184,14.882,6.178,14.97c-0.006,0.089,0.026,0.177,0.089,0.238l1.277,1.278c0.091,0.091,0.229,0.113,0.347,0.06
	l0.588-0.276l-0.246,0.653c-0.042,0.111-0.014,0.238,0.069,0.322l1.784,1.782c0.1,0.101,0.254,0.117,0.372,0.043l1.011-0.612
	l-0.605,1.022c-0.07,0.121-0.051,0.273,0.046,0.371l0.736,0.736c0.102,0.1,0.26,0.115,0.379,0.041l0.197-0.127l-0.121,0.248
	c-0.059,0.117-0.035,0.256,0.059,0.348l0.813,0.814C13.029,21.971,13.107,22,13.188,22c0.01,0,0.016,0,0.022,0
	c0.089-0.006,0.171-0.051,0.224-0.121l2.676-3.609l0.254,0.254c0.115,0.115,0.271,0.179,0.431,0.179c0.029,0,0.062-0.002,0.09-0.009
	c0.191-0.026,0.357-0.145,0.449-0.315l1.194-2.269c0.125-0.233,0.08-0.522-0.106-0.713l-1.269-1.268l4.24-4.744
	c0.34-0.346,0.525-0.801,0.525-1.288V8.099z"/>
<path fill="#F3F3F3" d="M13.152,21.234l-0.409-0.41l0.504-1.029c0.062-0.121,0.03-0.27-0.07-0.359
	c-0.102-0.092-0.252-0.104-0.366-0.028l-0.906,0.579l-0.396-0.396l1.104-1.864c0.072-0.119,0.052-0.273-0.047-0.373
	c-0.101-0.099-0.252-0.115-0.371-0.043l-1.846,1.121l-1.477-1.478l0.441-1.174c0.043-0.115,0.012-0.246-0.08-0.33
	c-0.091-0.086-0.225-0.104-0.336-0.054l-1.074,0.509l-0.878-0.878l3.397-2.52l5.331,5.328l-2.521,3.4V21.234L13.152,21.234z"/>
<path fill="#4E85C4" d="M7.168,18.379c-0.129-0.131-0.237-0.275-0.322-0.432c-0.157-0.086-0.305-0.197-0.436-0.326l-1.279-1.279
	c-0.374-0.373-0.577-0.887-0.558-1.42l-0.078-0.078l0.088-0.063c0.059-0.525,0.333-1.005,0.761-1.322l2.538-1.879
	c-0.016-0.172-0.011-0.346,0.016-0.52c0.106-0.695,0.538-1.301,1.156-1.627l2.266-1.198c0.315-0.166,0.674-0.256,1.032-0.256
	c0.592,0,1.148,0.23,1.566,0.649l0.193,0.193l2.262-2.022v-0.01h-5.771c-0.282,0-0.522-0.098-0.72-0.297
	C9.684,6.292,9.585,6.052,9.585,5.77V0H1.1C0.818,0,0.578,0.099,0.378,0.297C0.18,0.495,0.083,0.734,0.083,1.019v16.97
	c0,0.282,0.098,0.522,0.296,0.721c0.199,0.197,0.439,0.297,0.722,0.297h6.696L7.168,18.379L7.168,18.379z"/>
</svg>
