<?xml version="1.0" encoding="utf-8"?>
<!-- Generator: Adobe Illustrator 15.1.0, SVG Export Plug-In . SVG Version: 6.00 Build 0)  -->
<!DOCTYPE svg PUBLIC "-//W3C//DTD SVG 1.1//EN" "http://www.w3.org/Graphics/SVG/1.1/DTD/svg11.dtd">
<svg version="1.1" id="圖層_1" xmlns="http://www.w3.org/2000/svg" xmlns:xlink="http://www.w3.org/1999/xlink" x="0px" y="0px"
	 width="25px" height="25px" viewBox="-383.5 316.5 25 25" enable-background="new -383.5 316.5 25 25" xml:space="preserve">
<title>clockwise</title>
<path fill="#FFFFFF" d="M-359.824,327.199h-7.295c-0.728,0-1.326,0.597-1.326,1.326v10.8c0,0.729,0.598,1.326,1.326,1.326h7.295
	c0.726,0,1.324-0.597,1.324-1.326v-10.8C-358.5,327.796-359.098,327.199-359.824,327.199z"/>
<path fill="#FFFFFF" d="M-383.5,332.033v7.293c0,0.73,0.596,1.326,1.326,1.326h10.802c0.728,0,1.325-0.596,1.325-1.326v-7.293
	c0-0.729-0.597-1.326-1.325-1.326h-10.802C-382.904,330.707-383.5,331.305-383.5,332.033z M-371.372,332.033v7.293h-10.802v-7.293
	H-371.372z"/>
<path fill="#FFFFFF" d="M-372.809,319.474c0.898-0.326,1.828-0.474,2.793-0.44c0.99,0.035,1.936,0.265,2.843,0.687l0.014,0.007
	l2.737,1.24l-0.958-2.628c-0.068-0.191-0.061-0.38,0.024-0.564c0.086-0.184,0.226-0.312,0.415-0.38
	c0.192-0.07,0.381-0.062,0.565,0.023c0.185,0.085,0.313,0.226,0.38,0.416l1.514,4.156c0.068,0.19,0.061,0.378-0.026,0.563
	c-0.085,0.185-0.225,0.312-0.417,0.382l-4.154,1.512c-0.192,0.07-0.379,0.061-0.563-0.024c-0.184-0.085-0.313-0.224-0.382-0.416
	c-0.067-0.19-0.06-0.379,0.026-0.563s0.223-0.311,0.417-0.38l2.337-0.852l-2.552-1.154c-0.718-0.334-1.465-0.519-2.238-0.551
	c-0.773-0.033-1.531,0.085-2.271,0.355c-0.728,0.265-1.372,0.652-1.934,1.162c-0.589,0.525-1.052,1.153-1.39,1.886
	c-0.148,0.271-0.279,0.649-0.394,1.134c-0.115,0.485-0.169,0.957-0.162,1.415c0.002,0.203-0.07,0.378-0.214,0.522
	c-0.145,0.145-0.315,0.218-0.515,0.221c-0.203,0.001-0.377-0.07-0.521-0.212c-0.142-0.143-0.218-0.312-0.22-0.512
	c-0.016-0.518,0.036-1.055,0.16-1.614c0.122-0.559,0.3-1.085,0.528-1.578c0.423-0.904,1.001-1.688,1.736-2.352
	c0.718-0.645,1.526-1.132,2.423-1.458l0,0L-372.809,319.474z"/>
</svg>
