<?xml version="1.0" encoding="utf-8"?>
<!-- Generator: Adobe Illustrator 15.1.0, SVG Export Plug-In . SVG Version: 6.00 Build 0)  -->
<!DOCTYPE svg PUBLIC "-//W3C//DTD SVG 1.1//EN" "http://www.w3.org/Graphics/SVG/1.1/DTD/svg11.dtd">
<svg version="1.1" id="圖層_1" xmlns="http://www.w3.org/2000/svg" xmlns:xlink="http://www.w3.org/1999/xlink" x="0px" y="0px"
	 width="22px" height="22px" viewBox="0 0 22 22" enable-background="new 0 0 22 22" xml:space="preserve">
<path fill="#4E85C4" d="M20.834,9.415h-6.419c-0.642,0-1.167,0.525-1.167,1.167v9.505c0,0.642,0.525,1.166,1.167,1.166h6.419
	c0.641,0,1.166-0.524,1.166-1.166v-9.505C22,9.94,21.475,9.415,20.834,9.415z"/>
<path fill="#C4C4C4" d="M0,13.669v6.418c0,0.644,0.525,1.167,1.167,1.167h9.505c0.641,0,1.166-0.523,1.166-1.167v-6.418
	c0-0.642-0.525-1.166-1.166-1.166H1.167C0.524,12.503,0,13.027,0,13.669z M10.672,13.669v6.418H1.167v-6.418H10.672z"/>
<path fill="#7F7F7F" d="M9.409,2.617c0.79-0.287,1.608-0.417,2.457-0.388c0.87,0.031,1.704,0.233,2.501,0.604l0.014,0.006
	l2.408,1.091l-0.842-2.313c-0.061-0.168-0.055-0.333,0.021-0.496c0.075-0.162,0.198-0.274,0.365-0.335
	c0.169-0.061,0.335-0.054,0.496,0.021c0.163,0.075,0.274,0.199,0.335,0.367l1.332,3.657c0.061,0.168,0.054,0.333-0.023,0.496
	c-0.074,0.162-0.197,0.274-0.365,0.336l-3.655,1.331c-0.169,0.061-0.334,0.053-0.496-0.022c-0.162-0.075-0.276-0.198-0.336-0.367
	s-0.054-0.334,0.022-0.496c0.074-0.163,0.195-0.274,0.365-0.335l2.057-0.749L13.82,4.01c-0.633-0.294-1.289-0.457-1.971-0.485
	c-0.681-0.03-1.348,0.075-1.999,0.312C9.211,4.07,8.645,4.412,8.149,4.861C7.631,5.323,7.224,5.876,6.926,6.52
	C6.796,6.758,6.681,7.091,6.58,7.518C6.479,7.944,6.431,8.36,6.438,8.763c0.001,0.18-0.063,0.333-0.188,0.46
	C6.122,9.35,5.972,9.414,5.796,9.417c-0.179,0-0.332-0.062-0.459-0.187C5.212,9.105,5.146,8.956,5.144,8.78
	c-0.015-0.455,0.032-0.927,0.14-1.42c0.107-0.492,0.264-0.955,0.465-1.388c0.373-0.796,0.882-1.487,1.528-2.07
	C7.909,3.334,8.62,2.906,9.409,2.619l0,0V2.617z"/>
</svg>
