<?xml version="1.0" encoding="utf-8"?>
<!-- Generator: Adobe Illustrator 15.1.0, SVG Export Plug-In . SVG Version: 6.00 Build 0)  -->
<!DOCTYPE svg PUBLIC "-//W3C//DTD SVG 1.1//EN" "http://www.w3.org/Graphics/SVG/1.1/DTD/svg11.dtd">
<svg version="1.1" id="圖層_1" xmlns="http://www.w3.org/2000/svg" xmlns:xlink="http://www.w3.org/1999/xlink" x="0px" y="0px"
	 width="30px" height="30px" viewBox="0 0 30 30" enable-background="new 0 0 30 30" xml:space="preserve">
<title>close-window</title>
<path fill="#663267" d="M15.835,14l3.118,3.119c0.205,0.203,0.205,0.531,0,0.736l-1.1,1.1c-0.205,0.203-0.531,0.203-0.734,0
	l-3.121-3.12l-3.12,3.12c-0.201,0.203-0.531,0.203-0.735,0l-1.098-1.1c-0.204-0.205-0.204-0.531,0-0.736L12.165,14l-3.119-3.121
	c-0.204-0.203-0.204-0.531,0-0.735l1.1-1.1c0.201-0.203,0.531-0.203,0.733,0l3.119,3.121l3.121-3.121
	c0.203-0.203,0.529-0.203,0.734,0l1.1,1.101c0.205,0.204,0.205,0.532,0,0.735L15.835,14z"/>
<path fill="#663267" d="M24.893,3.922c-0.004-0.007-0.004-0.017-0.008-0.025c-0.023-0.056-0.057-0.106-0.087-0.158
	c-0.017-0.029-0.03-0.063-0.05-0.09c-0.023-0.038-0.057-0.07-0.086-0.104c-0.03-0.038-0.059-0.08-0.092-0.114
	c-0.043-0.042-0.092-0.077-0.139-0.114c-0.027-0.021-0.052-0.046-0.08-0.065c-0.043-0.03-0.094-0.052-0.142-0.077
	c-0.036-0.019-0.069-0.043-0.108-0.059C23.928,3.041,23.736,3,23.533,3H4.466C4.417,3,4.37,3.01,4.322,3.015
	C4.276,3.02,4.23,3.02,4.186,3.028C4.098,3.045,4.014,3.072,3.932,3.104c-0.003,0.001-0.006,0.002-0.01,0.003
	C3.915,3.111,3.905,3.113,3.897,3.116C3.841,3.139,3.791,3.172,3.739,3.202C3.71,3.219,3.676,3.231,3.649,3.251
	c-0.007,0.005-0.012,0.01-0.018,0.015C3.599,3.288,3.57,3.316,3.539,3.342C3.503,3.371,3.464,3.397,3.431,3.431
	c-0.042,0.042-0.077,0.09-0.114,0.137C3.295,3.596,3.271,3.62,3.251,3.648c-0.03,0.044-0.052,0.093-0.077,0.141
	C3.156,3.825,3.131,3.858,3.116,3.897C3.041,4.072,3,4.265,3,4.467v19.067c0,0.101,0.01,0.2,0.03,0.295
	c0.037,0.18,0.111,0.351,0.208,0.501c0.005,0.008,0.008,0.015,0.013,0.021C3.515,24.742,3.962,25,4.466,25h19.068
	C24.34,25,25,24.339,25,23.534V4.467C25,4.274,24.961,4.091,24.893,3.922z M22.066,22.066H5.933V5.933h16.133V22.066z"/>
</svg>
