<?xml version="1.0" encoding="utf-8"?>
<!-- Generator: Adobe Illustrator 15.1.0, SVG Export Plug-In . SVG Version: 6.00 Build 0)  -->
<!DOCTYPE svg PUBLIC "-//W3C//DTD SVG 1.1//EN" "http://www.w3.org/Graphics/SVG/1.1/DTD/svg11.dtd">
<svg version="1.1" id="圖層_1" xmlns="http://www.w3.org/2000/svg" xmlns:xlink="http://www.w3.org/1999/xlink" x="0px" y="0px"
	 width="30px" height="30px" viewBox="5.5 25.5 30 30" enable-background="new 5.5 25.5 30 30" xml:space="preserve">
<title>common-description</title>
<path fill="#76A328" d="M19.516,47.573h-8.081v-16.14h16.139v8.08c1.042,0.027,2.029,0.252,2.933,0.647V29.967
	c0-0.807-0.659-1.467-1.467-1.467H9.968c-0.707,0-1.3,0.506-1.438,1.172C8.51,29.768,8.5,29.866,8.5,29.967V49.04
	c0,0.806,0.661,1.467,1.467,1.467H20.16C19.768,49.604,19.543,48.613,19.516,47.573L19.516,47.573z"/>
<path fill="#76A328" d="M21.955,33.809c-0.684-0.492-1.54-0.742-2.553-0.742c-0.783,0-1.459,0.18-2.004,0.533
	c-0.881,0.559-1.356,1.502-1.412,2.809l-0.018,0.408h2.59v-0.393c0-0.268,0.078-0.521,0.238-0.779
	c0.08-0.125,0.236-0.293,0.684-0.293c0.24,0,0.555,0.039,0.683,0.222c0.136,0.192,0.203,0.397,0.203,0.629
	c0,0.141-0.072,0.306-0.232,0.526c-0.067,0.097-0.155,0.188-0.245,0.256c-0.043,0.026-1.023,0.658-1.481,1.195
	c-0.343,0.402-0.362,0.95-0.386,1.594c-0.002,0.143,0.05,0.275,0.146,0.373c0.073,0.074,0.205,0.162,0.417,0.162h1.391
	c0.351,0,0.547-0.263,0.561-0.524c0.008-0.197,0.029-0.278,0.058-0.371c0.041-0.13,0.175-0.284,0.378-0.442l0.512-0.352
	c0.484-0.379,0.844-0.669,1.028-0.932c0.352-0.479,0.532-1.014,0.532-1.584C23.042,35.102,22.675,34.329,21.955,33.809z"/>
<path fill="#76A328" d="M19.334,41.378c-0.841,0-1.471,0.613-1.496,1.458c-0.023,0.846,0.604,1.504,1.46,1.529l0.056,0.002
	c0.859,0,1.479-0.594,1.506-1.445C20.884,42.055,20.263,41.404,19.334,41.378z M19.354,43.969L19.354,43.969L19.354,43.969z"/>
<path fill="#76A328" d="M27.365,41.075c-3.467,0-6.288,2.821-6.288,6.286c0,3.469,2.819,6.289,6.288,6.289
	c3.467,0,6.287-2.82,6.287-6.289C33.652,43.896,30.832,41.075,27.365,41.075z M31.896,44.743h-0.992
	c-0.188-0.681-0.445-1.294-0.764-1.815C30.863,43.383,31.466,44.006,31.896,44.743z M30.201,47.361c0,0.546-0.049,1.074-0.137,1.572
	h-2.177v-3.143h2.177C30.154,46.29,30.201,46.818,30.201,47.361z M24.525,47.361c0-0.543,0.05-1.071,0.138-1.569h2.178v3.144h-2.178
	C24.575,48.438,24.525,47.907,24.525,47.361z M26.84,42.221v2.522h-1.917C25.336,43.462,26.032,42.512,26.84,42.221z M26.84,49.982
	v2.521c-0.808-0.292-1.504-1.24-1.917-2.521H26.84z M27.888,52.505v-2.522h1.917C29.393,51.264,28.695,52.213,27.888,52.505z
	 M27.888,44.743v-2.522c0.808,0.291,1.505,1.241,1.917,2.522H27.888z M24.587,42.928c-0.317,0.521-0.575,1.137-0.765,1.815h-0.99
	C23.263,44.006,23.865,43.383,24.587,42.928z M22.366,45.792h1.235c-0.078,0.501-0.123,1.026-0.123,1.569
	c0,0.546,0.045,1.072,0.123,1.572h-1.235c-0.156-0.496-0.241-1.023-0.241-1.572C22.125,46.814,22.21,46.287,22.366,45.792z
	 M22.833,49.982h0.989c0.188,0.681,0.449,1.295,0.766,1.813C23.865,51.343,23.263,50.721,22.833,49.982z M30.143,51.796
	c0.317-0.519,0.574-1.132,0.764-1.813h0.99C31.466,50.721,30.863,51.343,30.143,51.796z M32.363,48.936h-1.237
	c0.079-0.502,0.124-1.027,0.124-1.572s-0.046-1.069-0.124-1.57h1.237c0.156,0.495,0.242,1.021,0.242,1.57
	C32.605,47.911,32.52,48.438,32.363,48.936z"/>
</svg>
