<?xml version="1.0" encoding="utf-8"?>
<!-- Generator: Adobe Illustrator 15.1.0, SVG Export Plug-In . SVG Version: 6.00 Build 0)  -->
<!DOCTYPE svg PUBLIC "-//W3C//DTD SVG 1.1//EN" "http://www.w3.org/Graphics/SVG/1.1/DTD/svg11.dtd">
<svg version="1.1" id="圖層_1" xmlns="http://www.w3.org/2000/svg" xmlns:xlink="http://www.w3.org/1999/xlink" x="0px" y="0px"
	 width="30px" height="30px" viewBox="-383.5 0 30 30" enable-background="new -383.5 0 30 30" xml:space="preserve">
<title>common-description</title>
<path fill="#AB4A08" d="M-369.486,22.073h-8.081V5.934h16.139v8.08c1.042,0.027,2.03,0.252,2.933,0.647V4.467
	c0-0.807-0.659-1.467-1.467-1.467h-19.072c-0.707,0-1.3,0.506-1.438,1.172c-0.02,0.095-0.03,0.194-0.03,0.295V23.54
	c0,0.805,0.661,1.467,1.467,1.467h10.193C-369.234,24.104-369.459,23.113-369.486,22.073L-369.486,22.073z"/>
<path fill="#AB4A08" d="M-367.047,8.308c-0.683-0.492-1.54-0.741-2.553-0.741c-0.783,0-1.458,0.179-2.003,0.532
	c-0.881,0.559-1.357,1.503-1.412,2.809l-0.018,0.408h2.589v-0.392c0-0.268,0.079-0.522,0.239-0.779
	c0.08-0.125,0.236-0.293,0.683-0.293c0.241,0,0.555,0.039,0.683,0.221c0.136,0.193,0.203,0.398,0.203,0.629
	c0,0.141-0.072,0.306-0.232,0.526c-0.067,0.097-0.156,0.189-0.246,0.256c-0.042,0.027-1.023,0.659-1.481,1.196
	c-0.343,0.402-0.362,0.95-0.386,1.593c-0.002,0.143,0.05,0.276,0.146,0.373c0.073,0.074,0.205,0.163,0.417,0.163h1.39
	c0.351,0,0.548-0.263,0.561-0.525c0.008-0.197,0.029-0.278,0.058-0.371c0.041-0.13,0.174-0.284,0.378-0.443l0.511-0.351
	c0.485-0.379,0.844-0.669,1.029-0.932c0.351-0.479,0.532-1.013,0.532-1.583C-365.96,9.601-366.327,8.829-367.047,8.308z"/>
<path fill="#AB4A08" d="M-369.668,15.878c-0.841,0-1.471,0.613-1.496,1.458c-0.024,0.846,0.604,1.504,1.46,1.529l0.055,0.002
	c0.86,0,1.48-0.594,1.507-1.445C-368.118,16.554-368.739,15.905-369.668,15.878z M-369.648,18.469L-369.648,18.469L-369.648,18.469z
	"/>
<path fill="#AB4A08" d="M-361.637,15.575c-3.467,0-6.288,2.821-6.288,6.287c0,3.468,2.82,6.288,6.288,6.288
	c3.467,0,6.287-2.82,6.287-6.288C-355.35,18.396-358.17,15.575-361.637,15.575z M-357.106,19.243h-0.991
	c-0.188-0.68-0.446-1.294-0.764-1.815C-358.139,17.883-357.536,18.506-357.106,19.243z M-358.801,21.862
	c0,0.545-0.048,1.074-0.136,1.572h-2.177v-3.143h2.177C-358.848,20.79-358.801,21.318-358.801,21.862z M-364.476,21.862
	c0-0.544,0.049-1.072,0.137-1.57h2.178v3.143h-2.178C-364.427,22.937-364.476,22.407-364.476,21.862z M-362.162,16.72v2.523h-1.917
	C-363.666,17.962-362.97,17.012-362.162,16.72z M-362.162,24.482v2.522c-0.808-0.292-1.504-1.241-1.917-2.522H-362.162z
	 M-361.114,27.005v-2.522h1.917C-359.609,25.764-360.307,26.713-361.114,27.005z M-361.114,19.243V16.72
	c0.807,0.292,1.505,1.242,1.917,2.523H-361.114z M-364.415,17.428c-0.317,0.521-0.575,1.136-0.765,1.815h-0.99
	C-365.739,18.506-365.137,17.883-364.415,17.428z M-366.636,20.292h1.235c-0.077,0.501-0.122,1.026-0.122,1.57
	c0,0.545,0.044,1.071,0.122,1.572h-1.235c-0.156-0.496-0.241-1.024-0.241-1.572S-366.792,20.787-366.636,20.292z M-366.169,24.482
	h0.99c0.188,0.681,0.448,1.295,0.765,1.813C-365.137,25.843-365.739,25.221-366.169,24.482z M-358.86,26.296
	c0.318-0.519,0.575-1.132,0.764-1.813h0.991C-357.536,25.221-358.139,25.843-358.86,26.296z M-356.639,23.435h-1.237
	c0.079-0.501,0.124-1.027,0.124-1.572c0-0.544-0.046-1.069-0.124-1.57h1.237c0.157,0.495,0.242,1.022,0.242,1.57
	S-356.482,22.938-356.639,23.435z"/>
</svg>
