<?xml version="1.0" encoding="utf-8"?>
<!-- Generator: Adobe Illustrator 15.1.0, SVG Export Plug-In . SVG Version: 6.00 Build 0)  -->
<!DOCTYPE svg PUBLIC "-//W3C//DTD SVG 1.1//EN" "http://www.w3.org/Graphics/SVG/1.1/DTD/svg11.dtd">
<svg version="1.1" id="圖層_1" xmlns="http://www.w3.org/2000/svg" xmlns:xlink="http://www.w3.org/1999/xlink" x="0px" y="0px"
	 width="22px" height="22px" viewBox="0 0 22 22" enable-background="new 0 0 22 22" xml:space="preserve">
<title>content_cut</title>
<polygon fill="#C4C4C4" points="1.083,3.305 1.083,0 2.167,0 9.914,7.695 7.692,9.916 "/>
<path fill="#7F7F7F" d="M17.609,13.222c-0.672,0-1.238,0.104-1.807,0.361l-1.284-1.284l-2.219,2.219l1.285,1.284
	c-0.258,0.569-0.361,1.139-0.361,1.809c0,2.428,1.961,4.39,4.387,4.39C20.037,22,22,20.038,22,17.61
	C22,15.184,20.037,13.222,17.609,13.222z M17.609,19.832c-1.238,0-2.221-1.034-2.221-2.222s0.982-2.222,2.221-2.222
	c1.24,0,2.221,1.034,2.221,2.222S18.85,19.832,17.609,19.832z"/>
<path fill="#4E85C4" d="M11,13.22l0.013,0.013l2.221-2.22L13.221,11l7.695-7.695V0H19.83L6.197,13.583
	c-0.568-0.258-1.137-0.361-1.807-0.361C1.962,13.222,0,15.184,0,17.61C0,20.038,1.962,22,4.39,22c2.427,0,4.389-1.962,4.389-4.39
	c0-0.672-0.103-1.239-0.361-1.808L11,13.22z M10.999,10.432c0.311,0,0.568,0.258,0.568,0.568c0,0.311-0.257,0.569-0.568,0.569
	S10.43,11.311,10.43,11S10.688,10.432,10.999,10.432z M4.389,19.832c-1.24,0-2.221-1.034-2.221-2.222s0.981-2.221,2.221-2.221
	c1.239,0,2.221,1.033,2.221,2.221S5.628,19.832,4.389,19.832z"/>
</svg>
