<?xml version="1.0" encoding="utf-8"?>
<!-- Generator: Adobe Illustrator 15.1.0, SVG Export Plug-In . SVG Version: 6.00 Build 0)  -->
<!DOCTYPE svg PUBLIC "-//W3C//DTD SVG 1.1//EN" "http://www.w3.org/Graphics/SVG/1.1/DTD/svg11.dtd">
<svg version="1.1" id="圖層_1" xmlns="http://www.w3.org/2000/svg" xmlns:xlink="http://www.w3.org/1999/xlink" x="0px" y="0px"
	 width="22px" height="22px" viewBox="0 0 22 22" enable-background="new 0 0 22 22" xml:space="preserve">
<path fill="#4E85C4" d="M0,10.583v9.504c0,0.644,0.525,1.167,1.166,1.167h6.419c0.641,0,1.166-0.523,1.166-1.167v-9.504
	c0-0.642-0.525-1.167-1.166-1.167H1.166C0.525,9.415,0,9.94,0,10.583z"/>
<path fill="#C4C4C4" d="M20.833,12.503h-9.505c-0.642,0-1.167,0.526-1.167,1.167v6.418c0,0.643,0.525,1.167,1.167,1.167h9.505
	c0.642,0,1.167-0.524,1.167-1.167V13.67C22,13.029,21.475,12.503,20.833,12.503z M20.833,13.67v6.418h-9.505V13.67H20.833z"/>
<path fill="#7F7F7F" d="M12.591,2.618c0.791,0.288,1.502,0.716,2.132,1.282c0.646,0.583,1.155,1.274,1.527,2.071
	c0.201,0.433,0.357,0.896,0.465,1.388c0.107,0.492,0.156,0.965,0.141,1.421c-0.004,0.176-0.065,0.324-0.193,0.449
	c-0.126,0.125-0.278,0.187-0.458,0.187c-0.175-0.002-0.326-0.066-0.451-0.193c-0.127-0.127-0.19-0.28-0.188-0.46
	c0.006-0.403-0.041-0.818-0.144-1.245c-0.101-0.427-0.217-0.76-0.346-0.997c-0.298-0.645-0.707-1.198-1.226-1.659
	c-0.494-0.449-1.061-0.791-1.701-1.024c-0.65-0.236-1.316-0.34-1.998-0.312C9.469,3.554,8.812,3.715,8.179,4.01L5.934,5.026
	L7.99,5.774c0.168,0.061,0.291,0.173,0.367,0.335c0.075,0.162,0.082,0.328,0.021,0.496c-0.063,0.168-0.175,0.29-0.335,0.366
	C7.881,7.046,7.716,7.054,7.547,6.993l-3.656-1.33C3.722,5.602,3.6,5.489,3.524,5.327C3.449,5.165,3.441,5,3.503,4.831l1.331-3.657
	c0.062-0.168,0.173-0.291,0.335-0.366c0.162-0.075,0.328-0.083,0.495-0.021C5.833,0.849,5.955,0.96,6.029,1.122
	C6.104,1.285,6.113,1.45,6.052,1.618L5.21,3.933l2.421-1.098c0.797-0.372,1.63-0.573,2.5-0.604
	C10.979,2.202,11.8,2.331,12.591,2.618L12.591,2.618L12.591,2.618z"/>
</svg>
