<?xml version="1.0" encoding="utf-8"?>
<!-- Generator: Adobe Illustrator 15.1.0, SVG Export Plug-In . SVG Version: 6.00 Build 0)  -->
<!DOCTYPE svg PUBLIC "-//W3C//DTD SVG 1.1//EN" "http://www.w3.org/Graphics/SVG/1.1/DTD/svg11.dtd">
<svg version="1.1" id="圖層_1" xmlns="http://www.w3.org/2000/svg" xmlns:xlink="http://www.w3.org/1999/xlink" x="0px" y="0px"
	 width="25px" height="25px" viewBox="-383.5 316.5 25 25" enable-background="new -383.5 316.5 25 25" xml:space="preserve">
<title>counterclockwise</title>
<path d="M-383.5,328.526v10.8c0,0.729,0.597,1.326,1.325,1.326h7.295c0.728,0,1.325-0.597,1.325-1.326v-10.8
	c0-0.729-0.597-1.326-1.325-1.326h-7.295C-382.903,327.199-383.5,327.796-383.5,328.526z"/>
<path d="M-359.826,330.708h-10.802c-0.729,0-1.325,0.598-1.325,1.326v7.293c0,0.73,0.597,1.326,1.325,1.326h10.802
	c0.728,0,1.326-0.596,1.326-1.326v-7.293C-358.5,331.306-359.098,330.708-359.826,330.708z M-359.826,332.034v7.293h-10.802v-7.293
	H-359.826z"/>
<path d="M-369.192,319.475c0.898,0.327,1.706,0.813,2.421,1.457c0.736,0.664,1.314,1.448,1.737,2.354
	c0.229,0.492,0.406,1.018,0.528,1.577c0.122,0.561,0.178,1.098,0.16,1.614c-0.004,0.2-0.076,0.37-0.221,0.512
	c-0.143,0.142-0.316,0.212-0.521,0.212c-0.198-0.003-0.371-0.076-0.513-0.221c-0.145-0.144-0.216-0.317-0.215-0.522
	c0.006-0.458-0.047-0.929-0.162-1.414c-0.115-0.485-0.248-0.864-0.394-1.134c-0.337-0.731-0.802-1.36-1.392-1.885
	c-0.562-0.511-1.206-0.898-1.934-1.164c-0.739-0.269-1.496-0.387-2.269-0.354c-0.774,0.033-1.521,0.217-2.24,0.552l-2.552,1.154
	l2.337,0.851c0.192,0.069,0.331,0.196,0.417,0.38c0.086,0.185,0.094,0.373,0.024,0.564c-0.071,0.19-0.197,0.329-0.38,0.415
	c-0.185,0.086-0.373,0.095-0.565,0.025l-4.154-1.512c-0.192-0.07-0.331-0.198-0.417-0.382c-0.085-0.185-0.095-0.372-0.024-0.563
	l1.512-4.156c0.071-0.191,0.197-0.33,0.381-0.416c0.184-0.087,0.373-0.094,0.563-0.024c0.191,0.069,0.331,0.195,0.415,0.381
	c0.086,0.185,0.096,0.373,0.026,0.564l-0.957,2.63l2.751-1.248c0.905-0.422,1.853-0.65,2.84-0.687
	c0.965-0.032,1.896,0.114,2.794,0.441l0,0L-369.192,319.475z"/>
</svg>
