<?xml version="1.0" encoding="utf-8"?>
<!-- Generator: Adobe Illustrator 15.1.0, SVG Export Plug-In . SVG Version: 6.00 Build 0)  -->
<!DOCTYPE svg PUBLIC "-//W3C//DTD SVG 1.1//EN" "http://www.w3.org/Graphics/SVG/1.1/DTD/svg11.dtd">
<svg version="1.1" id="圖層_1" xmlns="http://www.w3.org/2000/svg" xmlns:xlink="http://www.w3.org/1999/xlink" x="0px" y="0px"
	 width="20px" height="20px" viewBox="-383.5 316.5 20 20" enable-background="new -383.5 316.5 20 20" xml:space="preserve">
<title>database2</title>
<path fill="#FFFFFF" d="M-373.5,318.5c-4.418,0-8,1.119-8,2.5v2c0,1.381,3.582,2.5,8,2.5s8-1.119,8-2.5v-2
	C-365.5,319.619-369.082,318.5-373.5,318.5z"/>
<path fill="#FFFFFF" d="M-373.5,327c-4.418,0-8-1.119-8-2.5v3c0,1.381,3.582,2.5,8,2.5s8-1.119,8-2.5v-3
	C-365.5,325.881-369.082,327-373.5,327z"/>
<path fill="#FFFFFF" d="M-373.5,331.5c-4.418,0-8-1.119-8-2.5v3c0,1.381,3.582,2.5,8,2.5s8-1.119,8-2.5v-3
	C-365.5,330.381-369.082,331.5-373.5,331.5z"/>
</svg>
