<?xml version="1.0" encoding="utf-8"?>
<!-- Generator: Adobe Illustrator 15.1.0, SVG Export Plug-In . SVG Version: 6.00 Build 0)  -->
<!DOCTYPE svg PUBLIC "-//W3C//DTD SVG 1.1//EN" "http://www.w3.org/Graphics/SVG/1.1/DTD/svg11.dtd">
<svg version="1.1" id="圖層_1" xmlns="http://www.w3.org/2000/svg" xmlns:xlink="http://www.w3.org/1999/xlink" x="0px" y="0px"
	 width="22px" height="22px" viewBox="0 0 22 22" enable-background="new 0 0 22 22" xml:space="preserve">
<g>
	<path fill="#4E85C4" d="M19.892,2.021c0.209,0,0.384,0.174,0.384,0.383V5.76H1.728V2.403c0-0.209,0.174-0.383,0.381-0.383H19.892z
		 M2.108,0.286C0.946,0.286,0,1.234,0,2.405v17.189c0,1.167,0.946,2.119,2.108,2.119h17.783c1.163,0,2.108-0.947,2.108-2.121V2.405
		c0-1.166-0.945-2.118-2.108-2.118L2.108,0.286z M1.729,7.495h18.547v12.098c0,0.21-0.175,0.383-0.381,0.383H2.112
		c-0.208,0-0.382-0.173-0.382-0.383L1.729,7.495L1.729,7.495z"/>
</g>
<circle fill="#7F7F7F" cx="11.002" cy="11.172" r="1.6"/>
<circle fill="#7F7F7F" cx="16.126" cy="11.172" r="1.6"/>
<circle fill="#7F7F7F" cx="5.877" cy="16.297" r="1.6"/>
<circle fill="#E79D5E" cx="5.877" cy="11.172" r="1.6"/>
<circle fill="#7F7F7F" cx="11.002" cy="16.297" r="1.6"/>
<circle fill="#7F7F7F" cx="16.126" cy="16.297" r="1.6"/>
</svg>
