<?xml version="1.0" encoding="utf-8"?>
<!-- Generator: Adobe Illustrator 15.1.0, SVG Export Plug-In . SVG Version: 6.00 Build 0)  -->
<!DOCTYPE svg PUBLIC "-//W3C//DTD SVG 1.1//EN" "http://www.w3.org/Graphics/SVG/1.1/DTD/svg11.dtd">
<svg version="1.1" id="圖層_1" xmlns="http://www.w3.org/2000/svg" xmlns:xlink="http://www.w3.org/1999/xlink" x="0px" y="0px"
	 width="22px" height="22px" viewBox="0 0 22 22" enable-background="new 0 0 22 22" xml:space="preserve">
<path fill="#4E85C4" d="M1.855,14.534c-0.558,0-1.006-0.16-1.345-0.479C0.171,13.736,0,13.314,0,12.795
	c0-0.55,0.153-0.99,0.46-1.321c0.307-0.331,0.753-0.538,1.34-0.623l1.046-0.144c0.273-0.037,0.5-0.1,0.681-0.188
	c0.078-0.037,0.138-0.104,0.18-0.2c0.043-0.095,0.059-0.194,0.047-0.293c-0.021-0.17-0.109-0.302-0.26-0.398
	c-0.181-0.115-0.44-0.172-0.781-0.172c-0.302,0-0.539,0.073-0.708,0.221c-0.169,0.148-0.261,0.356-0.271,0.625H0.21
	C0.244,9.598,0.483,9.07,0.93,8.72c0.447-0.351,1.102-0.526,1.965-0.526c0.75,0,1.341,0.158,1.774,0.474
	C5.103,8.983,5.32,9.415,5.32,9.962v3.37c0,0.27,0.022,0.458,0.066,0.566c0.045,0.109,0.133,0.195,0.267,0.259v0.223H3.938v-0.006
	c-0.07-0.245-0.116-0.481-0.139-0.715l-0.005-0.011C3.295,14.238,2.649,14.534,1.855,14.534L1.855,14.534z M3.766,12.152V11.46
	c-0.185,0.104-0.429,0.187-0.731,0.25l-0.586,0.11c-0.277,0.051-0.487,0.146-0.631,0.285c-0.144,0.138-0.216,0.313-0.216,0.522
	c0,0.239,0.064,0.429,0.194,0.563c0.129,0.138,0.31,0.203,0.542,0.203c0.51,0,0.916-0.178,1.218-0.535
	c0.059-0.069,0.109-0.174,0.149-0.312C3.745,12.414,3.766,12.281,3.766,12.152L3.766,12.152z"/>
<path fill="#4E85C4" d="M22,12.146c-0.081,0.75-0.359,1.334-0.836,1.756c-0.477,0.421-1.098,0.632-1.859,0.632
	c-0.912,0-1.617-0.271-2.113-0.814c-0.496-0.542-0.744-1.314-0.744-2.319c0-0.983,0.258-1.762,0.771-2.34s1.211-0.867,2.086-0.867
	c0.773,0,1.409,0.214,1.903,0.643c0.494,0.428,0.759,0.991,0.792,1.689h-1.617c-0.015-0.299-0.119-0.541-0.316-0.725
	c-0.199-0.185-0.451-0.277-0.762-0.277c-0.398,0-0.703,0.16-0.912,0.479c-0.207,0.319-0.313,0.785-0.313,1.399
	c0,0.598,0.104,1.053,0.313,1.364c0.209,0.313,0.514,0.469,0.912,0.469c0.287,0,0.531-0.1,0.729-0.299
	c0.2-0.199,0.315-0.461,0.349-0.785L22,12.146L22,12.146z"/>
<path fill="#E79D5E" d="M15.24,15.729c-0.457,0.457-1.197,0.457-1.654,0l-2.585-2.955l-2.584,2.953
	c-0.458,0.457-1.199,0.457-1.655,0c-0.457-0.457-0.457-1.197,0-1.654L9.451,11L6.76,7.927c-0.458-0.458-0.458-1.198,0-1.655
	s1.198-0.457,1.654,0l2.587,2.956l2.584-2.956c0.458-0.457,1.197-0.457,1.653,0c0.459,0.458,0.459,1.199,0,1.655L12.551,11
	l2.688,3.07C15.697,14.529,15.697,15.271,15.24,15.729L15.24,15.729z"/>
</svg>
