<?xml version="1.0" encoding="utf-8"?>
<!-- Generator: Adobe Illustrator 15.1.0, SVG Export Plug-In . SVG Version: 6.00 Build 0)  -->
<!DOCTYPE svg PUBLIC "-//W3C//DTD SVG 1.1//EN" "http://www.w3.org/Graphics/SVG/1.1/DTD/svg11.dtd">
<svg version="1.1" id="圖層_1" xmlns="http://www.w3.org/2000/svg" xmlns:xlink="http://www.w3.org/1999/xlink" x="0px" y="0px"
	 width="22px" height="22px" viewBox="0 0 22 22" enable-background="new 0 0 22 22" xml:space="preserve">
<path fill="#4E85C4" d="M13.291,0v5.502c0,1.019,0.822,1.832,1.84,1.832h4.577V20.17c0,1.014-0.819,1.83-1.83,1.83H4.123
	c-1.015,0-1.831-0.823-1.831-1.839V1.841c0-1.017,0.825-1.839,1.842-1.839L13.291,0L13.291,0z"/>
<polygon fill="#E79D5E" points="5.042,2.75 5.042,4.584 5.958,4.584 5.958,3.667 6.874,3.667 6.874,7.334 7.791,7.334 7.791,3.667 
	8.707,3.667 8.707,4.584 9.624,4.584 9.624,2.75 5.04,2.75 "/>
<path fill="#C4C4C4" d="M14.209,0v5.497c0,0.508,0.412,0.919,0.908,0.919h4.591L14.209,0z"/>
<rect x="5.042" y="11.917" fill="#F3F3F3" width="11.916" height="0.916"/>
<rect x="5.042" y="9.167" fill="#F3F3F3" width="11.916" height="0.916"/>
<rect x="5.042" y="14.666" fill="#F3F3F3" width="11.916" height="0.917"/>
<rect x="5.042" y="17.416" fill="#F3F3F3" width="11.916" height="0.917"/>
</svg>
