<?xml version="1.0" encoding="utf-8"?>
<!-- Generator: Adobe Illustrator 15.1.0, SVG Export Plug-In . SVG Version: 6.00 Build 0)  -->
<!DOCTYPE svg PUBLIC "-//W3C//DTD SVG 1.1//EN" "http://www.w3.org/Graphics/SVG/1.1/DTD/svg11.dtd">
<svg version="1.1" id="圖層_1" xmlns="http://www.w3.org/2000/svg" xmlns:xlink="http://www.w3.org/1999/xlink" x="0px" y="0px"
	 width="30px" height="30px" viewBox="-384.5 315.5 30 30" enable-background="new -384.5 315.5 30 30" xml:space="preserve">
<title>home</title>
<path fill="#327CCB" d="M-368.416,318v6.247c0,0.577,0.468,1.044,1.032,1.044h5.217L-368.416,318z"/>
<path fill="#327CCB" d="M-357.446,330.976l-1.326,1.326l-4.154-4.151l1.327-1.329c0.27-0.269,0.597-0.403,0.981-0.403
	s0.711,0.137,0.98,0.403l2.192,2.192c0.27,0.27,0.403,0.597,0.403,0.983C-357.043,330.378-357.18,330.704-357.446,330.976
	L-357.446,330.976z"/>
<path fill="#327CCB" d="M-363.852,329.071l-9.69,9.691v4.151h4.153l9.691-9.688L-363.852,329.071z M-369.965,341.532h-0.808v-1.385
	h-1.384v-0.807l1.673-1.675l2.191,2.192L-369.965,341.532z M-368.683,336.672c-0.162,0.163-0.321,0.169-0.476,0.016
	c-0.153-0.155-0.147-0.313,0.016-0.478l5.047-5.046c0.163-0.165,0.323-0.169,0.476-0.016c0.153,0.153,0.149,0.313-0.014,0.475
	L-368.683,336.672z"/>
<path fill="#327CCB" d="M-367.384,326.791c-1.396,0-2.532-1.142-2.532-2.544V318l-9.949,0.002c-1.155,0-2.093,0.935-2.093,2.09
	v20.818c0,1.154,0.927,2.09,2.08,2.09h4.836v-4.858l11.19-11.191l0.002,0.002l0.161-0.161H-367.384z M-375.833,335.938h-3v-1.5h3
	V335.938z M-372.833,332.813h-6v-1.5h6V332.813z M-369.833,329.688h-9v-1.5h9V329.688z"/>
</svg>
