<?xml version="1.0" encoding="utf-8"?>
<!-- Generator: Adobe Illustrator 15.1.0, SVG Export Plug-In . SVG Version: 6.00 Build 0)  -->
<!DOCTYPE svg PUBLIC "-//W3C//DTD SVG 1.1//EN" "http://www.w3.org/Graphics/SVG/1.1/DTD/svg11.dtd">
<svg version="1.1" id="圖層_1" xmlns="http://www.w3.org/2000/svg" xmlns:xlink="http://www.w3.org/1999/xlink" x="0px" y="0px"
	 width="25px" height="25px" viewBox="-383.5 316.5 25 25" enable-background="new -383.5 316.5 25 25" xml:space="preserve">
<title>document-table</title>
<path fill="#FFFFFF" d="M-371.463,333.167h-3.704v1.852h3.704V333.167z M-370.538,333.167h3.704v1.852h-3.704V333.167z
	 M-371.463,337.796h-3.704v-1.852h3.704V337.796z M-370.538,337.796h3.704v-1.852h-3.704V337.796z M-371.463,330.389h-3.704v1.853
	h3.704V330.389z M-370.538,330.389h3.704v1.853h-3.704V330.389z M-371.463,327.611h-3.704v1.852h3.704V327.611z M-370.538,327.611
	h3.704v1.852h-3.704V327.611z M-368.686,316.5v5.558c0,1.028,0.832,1.85,1.857,1.85h4.624v15.743c0,1.025-0.828,1.85-1.849,1.85
	h-13.894c-1.025,0-1.849-0.832-1.849-1.858v-21.282c0-1.027,0.833-1.858,1.86-1.858L-368.686,316.5L-368.686,316.5z M-367.76,316.5
	v5.553c0,0.513,0.418,0.929,0.918,0.929h4.638L-367.76,316.5z M-376.093,325.759v12.964h10.186v-12.964H-376.093z"/>
</svg>
