<?xml version="1.0" encoding="utf-8"?>
<!-- Generator: Adobe Illustrator 15.1.0, SVG Export Plug-In . SVG Version: 6.00 Build 0)  -->
<!DOCTYPE svg PUBLIC "-//W3C//DTD SVG 1.1//EN" "http://www.w3.org/Graphics/SVG/1.1/DTD/svg11.dtd">
<svg version="1.1" id="圖層_1" xmlns="http://www.w3.org/2000/svg" xmlns:xlink="http://www.w3.org/1999/xlink" x="0px" y="0px"
	 width="22px" height="22px" viewBox="0 0 22 22" enable-background="new 0 0 22 22" xml:space="preserve">
<path fill="#C4C4C4" d="M15.117,6.417h4.591L14.209,0v5.497C14.209,6.005,14.621,6.417,15.117,6.417z"/>
<path fill="#4E85C4" d="M13.291,5.502V0L4.135,0.001c-1.018,0-1.843,0.823-1.843,1.839v18.32c0,1.016,0.816,1.84,1.831,1.84h13.754
	c1.012,0,1.831-0.816,1.831-1.831V7.333h-4.577C14.113,7.333,13.291,6.52,13.291,5.502L13.291,5.502z"/>
<rect x="5.041" y="14.666" fill="#F3F3F3" width="5.196" height="0.916"/>
<rect x="5.041" y="11.916" fill="#F3F3F3" width="5.196" height="0.916"/>
<rect x="5.041" y="9.166" fill="#F3F3F3" width="5.196" height="0.917"/>
<polygon fill="#E79D5E" points="9.624,2.75 9.624,4.583 8.707,4.583 8.707,3.667 7.791,3.667 7.791,7.333 6.874,7.333 6.874,3.667 
	5.959,3.667 5.959,4.583 5.042,4.583 5.042,2.75 "/>
<rect x="5.041" y="17.416" fill="#F3F3F3" width="11.917" height="0.916"/>
<path fill="#2B2C2D" d="M16.271,8.527c0.265-0.265,0.709-0.265,0.975,0l1.088,1.088c0.266,0.265,0.266,0.709,0,0.974l-0.659,0.659
	l-2.063-2.062L16.271,8.527z"/>
<path fill="#2B2C2D" d="M15.154,9.644l-3.896,3.895v2.063h2.062l3.896-3.896L15.154,9.644z M13.034,14.914h-0.4v-0.688h-0.688v-0.4
	l0.373-0.373l1.088,1.089L13.034,14.914z M13.178,12.959c-0.064,0.064-0.164,0.079-0.216,0.021c-0.058-0.051-0.043-0.15,0.021-0.215
	l2.086-2.084c0.064-0.064,0.164-0.078,0.215-0.021c0.058,0.051,0.043,0.151-0.021,0.215L13.178,12.959z"/>
</svg>
