<?xml version="1.0" encoding="utf-8"?>
<!-- Generator: Adobe Illustrator 15.1.0, SVG Export Plug-In . SVG Version: 6.00 Build 0)  -->
<!DOCTYPE svg PUBLIC "-//W3C//DTD SVG 1.1//EN" "http://www.w3.org/Graphics/SVG/1.1/DTD/svg11.dtd">
<svg version="1.1" id="圖層_1" xmlns="http://www.w3.org/2000/svg" xmlns:xlink="http://www.w3.org/1999/xlink" x="0px" y="0px"
	 width="25px" height="25px" viewBox="-383.5 316.5 25 25" enable-background="new -383.5 316.5 25 25" xml:space="preserve">
<title>document-text</title>
<path d="M-368.396,316.5v6.253c0,1.157,0.935,2.081,2.089,2.081h5.203v14.586c0,1.152-0.932,2.08-2.081,2.08h-15.63
	c-1.153,0-2.081-0.936-2.081-2.09v-20.817c0-1.155,0.937-2.091,2.093-2.091L-368.396,316.5L-368.396,316.5z M-377.771,319.625v2.084
	h1.042v-1.041h1.042v4.166h1.042v-4.166h1.041v1.041h1.042v-2.084h-5.208H-377.771z M-367.354,316.5v6.247
	c0,0.577,0.469,1.045,1.032,1.045h5.218L-367.354,316.5z M-377.771,330.041v1.042h13.541v-1.042H-377.771z M-377.771,326.917v1.041
	h13.541v-1.041H-377.771z M-377.771,333.166v1.042h13.541v-1.042H-377.771z M-377.771,336.291v1.042h13.541v-1.042H-377.771z"/>
</svg>
