<?xml version="1.0" encoding="utf-8"?>
<!-- Generator: Adobe Illustrator 15.1.0, SVG Export Plug-In . SVG Version: 6.00 Build 0)  -->
<!DOCTYPE svg PUBLIC "-//W3C//DTD SVG 1.1//EN" "http://www.w3.org/Graphics/SVG/1.1/DTD/svg11.dtd">
<svg version="1.1" id="圖層_1" xmlns="http://www.w3.org/2000/svg" xmlns:xlink="http://www.w3.org/1999/xlink" x="0px" y="0px"
	 width="22px" height="22px" viewBox="0 0 22 22" enable-background="new 0 0 22 22" xml:space="preserve">
<rect x="7.333" y="14.667" fill="#7F7F7F" width="3.26" height="1.629"/>
<rect x="11.407" y="14.667" fill="#7F7F7F" width="3.259" height="1.629"/>
<rect x="7.333" y="17.111" fill="#7F7F7F" width="3.26" height="1.63"/>
<rect x="11.407" y="17.111" fill="#7F7F7F" width="3.259" height="1.63"/>
<rect x="7.333" y="12.223" fill="#7F7F7F" width="3.26" height="1.629"/>
<rect x="11.407" y="12.223" fill="#7F7F7F" width="3.259" height="1.629"/>
<rect x="7.333" y="9.777" fill="#7F7F7F" width="3.26" height="1.63"/>
<rect x="11.407" y="9.777" fill="#7F7F7F" width="3.259" height="1.63"/>
<path fill="#C4C4C4" d="M13.852,0v4.887c0,0.451,0.367,0.817,0.808,0.817h4.082L13.852,0z"/>
<path fill="#4E85C4" d="M14.672,6.519c-0.902,0-1.635-0.723-1.635-1.628v-4.89H4.896c-0.904,0-1.637,0.731-1.637,1.635v18.729
	C3.259,21.268,3.985,22,4.887,22h12.226c0.898,0,1.627-0.727,1.627-1.627V6.519H14.672z M15.48,19.557H6.518V8.148h8.962V19.557z"/>
</svg>
