<?xml version="1.0" encoding="utf-8"?>
<!-- Generator: Adobe Illustrator 15.1.0, SVG Export Plug-In . SVG Version: 6.00 Build 0)  -->
<!DOCTYPE svg PUBLIC "-//W3C//DTD SVG 1.1//EN" "http://www.w3.org/Graphics/SVG/1.1/DTD/svg11.dtd">
<svg version="1.1" id="圖層_1" xmlns="http://www.w3.org/2000/svg" xmlns:xlink="http://www.w3.org/1999/xlink" x="0px" y="0px"
	 width="25px" height="25px" viewBox="-383.5 316.5 25 25" enable-background="new -383.5 316.5 25 25" xml:space="preserve">
<title>document-revision</title>
<path d="M-366.322,323.791h5.217l-6.25-7.291v6.247C-367.354,323.324-366.885,323.791-366.322,323.791z"/>
<path d="M-368.526,331.227l2.369-2.368c0.073-0.073,0.09-0.187,0.024-0.244c-0.057-0.065-0.171-0.049-0.245,0.024l-2.369,2.368
	c-0.073,0.073-0.09,0.188-0.024,0.244C-368.713,331.315-368.599,331.3-368.526,331.227L-368.526,331.227z"/>
<path d="M-368.396,322.752v-6.251l-10.405,0.001c-1.157,0-2.094,0.935-2.094,2.09v20.818c0,1.153,0.928,2.09,2.081,2.09h15.63
	c1.149,0,2.081-0.93,2.081-2.08v-14.587h-5.202C-367.461,324.833-368.396,323.908-368.396,322.752L-368.396,322.752z
	 M-377.771,333.166h5.904v1.041h-5.904V333.166z M-377.771,331.082v-1.041h5.904v1.041H-377.771z M-377.771,327.958v-1.042h5.904
	v1.042H-377.771z M-372.564,319.625v2.084h-1.042v-1.042h-1.042v4.167h-1.042v-4.167h-1.041v1.042h-1.042v-2.084H-372.564
	L-372.564,319.625z M-364.229,337.332h-13.542v-1.041h13.542V337.332z M-365.009,326.189c0.3-0.301,0.806-0.301,1.107,0l1.237,1.237
	c0.3,0.301,0.3,0.806,0,1.106l-0.75,0.749l-2.344-2.344L-365.009,326.189z M-363.935,329.803l-4.427,4.427h-2.344v-2.344
	l4.427-4.427L-363.935,329.803z"/>
<path d="M-369.144,333.448h0.455l0.423-0.423l-1.237-1.237l-0.422,0.424v0.455h0.781V333.448z"/>
</svg>
