<?xml version="1.0" encoding="utf-8"?>
<!-- Generator: Adobe Illustrator 15.1.0, SVG Export Plug-In . SVG Version: 6.00 Build 0)  -->
<!DOCTYPE svg PUBLIC "-//W3C//DTD SVG 1.1//EN" "http://www.w3.org/Graphics/SVG/1.1/DTD/svg11.dtd">
<svg version="1.1" id="圖層_1" xmlns="http://www.w3.org/2000/svg" xmlns:xlink="http://www.w3.org/1999/xlink" x="0px" y="0px"
	 width="25px" height="25px" viewBox="0 25 25 25" enable-background="new 0 25 25 25" xml:space="preserve">
<title>document-text</title>
<path fill="#2F8AC1" d="M15.104,25v6.253c0,1.157,0.936,2.081,2.09,2.081h5.203V47.92c0,1.152-0.933,2.08-2.082,2.08H4.685
	c-1.153,0-2.081-0.936-2.081-2.09V27.093c0-1.155,0.937-2.091,2.093-2.091L15.104,25L15.104,25z M5.729,28.125v2.084h1.042v-1.041
	h1.042v4.166h1.042v-4.166h1.041v1.041h1.042v-2.084H5.729L5.729,28.125z M16.146,25v6.247c0,0.577,0.469,1.045,1.031,1.045h5.219
	L16.146,25z M5.729,38.541v1.042H19.27v-1.042H5.729z M5.729,35.417v1.041H19.27v-1.041H5.729z M5.729,41.666v1.042H19.27v-1.042
	H5.729z M5.729,44.791v1.042H19.27v-1.042H5.729z"/>
</svg>
