<?xml version="1.0" encoding="utf-8"?>
<!-- Generator: Adobe Illustrator 15.1.0, SVG Export Plug-In . SVG Version: 6.00 Build 0)  -->
<!DOCTYPE svg PUBLIC "-//W3C//DTD SVG 1.1//EN" "http://www.w3.org/Graphics/SVG/1.1/DTD/svg11.dtd">
<svg version="1.1" id="圖層_1" xmlns="http://www.w3.org/2000/svg" xmlns:xlink="http://www.w3.org/1999/xlink" x="0px" y="0px"
	 width="20px" height="20px" viewBox="1.5 17.5 20 20" enable-background="new 1.5 17.5 20 20" xml:space="preserve">
<title>edit</title>
<path fill="#0F5D8A" d="M11.457,31.25l1.234-1.236l-1.617-1.619l-1.235,1.238v0.595h1.022v1.022H11.457z M16.143,23.58
	c-0.113-0.113-0.23-0.109-0.352,0.012l-3.727,3.727c-0.121,0.122-0.125,0.239-0.012,0.353s0.23,0.109,0.352-0.012l3.729-3.729
	C16.252,23.811,16.256,23.693,16.143,23.58z M16.996,29.909v2.022c0,0.845-0.301,1.567-0.9,2.167C15.494,34.699,14.773,35,13.928,35
	h-8.86c-0.845,0-1.568-0.299-2.168-0.901c-0.6-0.6-0.9-1.322-0.899-2.167v-8.864c0-0.845,0.3-1.566,0.899-2.167
	C3.499,20.299,4.222,20,5.067,20h8.86c0.447,0,0.863,0.087,1.246,0.265c0.106,0.051,0.171,0.134,0.191,0.245
	c0.021,0.121-0.012,0.224-0.097,0.309l-0.522,0.521c-0.1,0.101-0.213,0.128-0.341,0.086c-0.163-0.043-0.323-0.064-0.479-0.064H5.065
	c-0.468,0-0.87,0.167-1.203,0.502c-0.333,0.334-0.501,0.733-0.5,1.203v8.862c0,0.471,0.167,0.87,0.5,1.205
	c0.333,0.334,0.734,0.501,1.203,0.501h8.861c0.469,0,0.87-0.167,1.205-0.501c0.333-0.333,0.501-0.734,0.5-1.205v-1.341
	c0-0.092,0.031-0.17,0.096-0.233l0.682-0.683c0.105-0.106,0.23-0.132,0.373-0.074S16.996,29.759,16.996,29.909z M15.971,22.046
	l3.068,3.068l-7.156,7.157H8.815v-3.067L15.971,22.046z M20.701,23.452l-0.979,0.979l-3.067-3.066l0.98-0.981
	c0.199-0.198,0.44-0.297,0.725-0.297c0.283,0,0.524,0.1,0.725,0.297l1.618,1.62C20.9,22.203,21,22.444,21,22.729
	C20.999,23.011,20.898,23.252,20.701,23.452L20.701,23.452z"/>
</svg>
