<?xml version="1.0" encoding="utf-8"?>
<!-- Generator: Adobe Illustrator 15.1.0, SVG Export Plug-In . SVG Version: 6.00 Build 0)  -->
<!DOCTYPE svg PUBLIC "-//W3C//DTD SVG 1.1//EN" "http://www.w3.org/Graphics/SVG/1.1/DTD/svg11.dtd">
<svg version="1.1" id="圖層_1" xmlns="http://www.w3.org/2000/svg" xmlns:xlink="http://www.w3.org/1999/xlink" x="0px" y="0px"
	 width="20px" height="20px" viewBox="1.5 17.5 20 20" enable-background="new 1.5 17.5 20 20" xml:space="preserve">
<title>edit</title>
<path fill="#2F8AC1" d="M11.457,31.249l1.234-1.236l-1.617-1.618l-1.235,1.237v0.595h1.022v1.022H11.457z M16.143,23.581
	c-0.113-0.113-0.23-0.109-0.352,0.012l-3.727,3.726c-0.121,0.122-0.125,0.239-0.012,0.353s0.23,0.109,0.352-0.012l3.729-3.728
	C16.252,23.812,16.256,23.694,16.143,23.581z M16.996,29.908v2.022c0,0.845-0.301,1.566-0.9,2.166
	c-0.602,0.601-1.322,0.901-2.168,0.901h-8.86c-0.845,0-1.568-0.299-2.168-0.901c-0.6-0.6-0.9-1.321-0.899-2.166v-8.862
	c0-0.845,0.3-1.565,0.899-2.166c0.599-0.602,1.322-0.9,2.168-0.9h8.86c0.447,0,0.863,0.087,1.246,0.265
	c0.106,0.051,0.171,0.134,0.191,0.245c0.021,0.121-0.012,0.224-0.097,0.309l-0.522,0.521c-0.1,0.101-0.213,0.128-0.341,0.086
	c-0.163-0.043-0.323-0.064-0.479-0.064H5.065c-0.468,0-0.87,0.167-1.203,0.502c-0.333,0.333-0.501,0.732-0.5,1.202v8.86
	c0,0.471,0.167,0.87,0.5,1.204c0.333,0.334,0.734,0.501,1.203,0.501h8.861c0.469,0,0.87-0.167,1.205-0.501
	c0.333-0.332,0.501-0.733,0.5-1.204v-1.341c0-0.092,0.031-0.17,0.096-0.233l0.682-0.683c0.105-0.106,0.23-0.132,0.373-0.074
	S16.996,29.758,16.996,29.908z M15.971,22.047l3.068,3.068l-7.156,7.155H8.815v-3.066L15.971,22.047z M20.701,23.453l-0.979,0.979
	l-3.067-3.065l0.98-0.981c0.199-0.198,0.44-0.297,0.725-0.297c0.283,0,0.524,0.1,0.725,0.297l1.618,1.619
	C20.9,22.204,21,22.445,21,22.729C20.999,23.012,20.898,23.253,20.701,23.453L20.701,23.453z"/>
</svg>
