<?xml version="1.0" encoding="utf-8"?>
<!-- Generator: Adobe Illustrator 15.1.0, SVG Export Plug-In . SVG Version: 6.00 Build 0)  -->
<!DOCTYPE svg PUBLIC "-//W3C//DTD SVG 1.1//EN" "http://www.w3.org/Graphics/SVG/1.1/DTD/svg11.dtd">
<svg version="1.1" id="圖層_1" xmlns="http://www.w3.org/2000/svg" xmlns:xlink="http://www.w3.org/1999/xlink" x="0px" y="0px"
	 width="20px" height="20px" viewBox="1.5 17.5 20 20" enable-background="new 1.5 17.5 20 20" xml:space="preserve">
<title>edit</title>
<path fill="#2F8AC1" d="M17.042,29.479v5.938H3.584V22.75h5.207l1.979-1.584H3.289C2.58,21.166,2,21.747,2,22.455v13.256
	C2,36.42,2.58,37,3.289,37h14.046c0.71,0,1.289-0.58,1.289-1.289v-7.715L17.042,29.479L17.042,29.479z"/>
<path fill="#2F8AC1" d="M15.372,19.799l3.83,3.829l-0.852,0.851l-3.829-3.829L15.372,19.799z"/>
<path fill="#2F8AC1" d="M20.789,22.04c0.281-0.28,0.281-0.739,0-1.021l-2.809-2.81c-0.28-0.28-0.74-0.28-1.021,0l-0.767,0.767
	l3.83,3.83L20.789,22.04z"/>
<path fill="#2F8AC1" d="M9.657,29.344v0.851l6.384-6.384l-0.852-0.851l-6.383,6.384H9.657z"/>
<path fill="#2F8AC1" d="M11.15,31.681L11.15,31.681l6.379-6.381l-0.638-0.638l-6.288,6.288L8.87,31.307L7.692,30.13l0.358-1.733
	l6.287-6.288L13.7,21.47l-6.38,6.379L7.319,27.85l-0.003,0.003v0.001c-0.061,0.06-0.105,0.138-0.123,0.228l-0.83,4.021
	c-0.03,0.149,0.016,0.304,0.123,0.41c0.107,0.107,0.262,0.154,0.41,0.123l4.022-0.829c0.089-0.019,0.167-0.063,0.227-0.123l0,0
	L11.15,31.681L11.15,31.681z"/>
</svg>
