<?xml version="1.0" encoding="utf-8"?>
<!-- Generator: Adobe Illustrator 15.1.0, SVG Export Plug-In . SVG Version: 6.00 Build 0)  -->
<!DOCTYPE svg PUBLIC "-//W3C//DTD SVG 1.1//EN" "http://www.w3.org/Graphics/SVG/1.1/DTD/svg11.dtd">
<svg version="1.1" id="圖層_1" xmlns="http://www.w3.org/2000/svg" xmlns:xlink="http://www.w3.org/1999/xlink" x="0px" y="0px"
	 width="25px" height="25px" viewBox="-383.5 316.5 25 25" enable-background="new -383.5 316.5 25 25" xml:space="preserve">
<title>eraser</title>
<path fill="#FFFFFF" d="M-368.452,336.856L-368.452,336.856l9.952-9.953l-9.592-9.592L-383.5,332.72l6.717,6.718
	c0.499,0.498,1.091,0.845,1.715,1.04v0.211h11.866v-1.832h-7.25L-368.452,336.856z M-368.092,319.228l7.676,7.675l-8.335,8.337
	l-7.675-7.676l8.336-8.335L-368.092,319.228z M-370.97,335.394l1.277,1.275c0,0-1.392,1.85-3.402,2.187h-1.24
	c-0.513-0.088-1.052-0.29-1.606-0.652C-375.94,338.204-372.849,338.018-370.97,335.394z"/>
</svg>
