<?xml version="1.0" encoding="utf-8"?>
<!-- Generator: Adobe Illustrator 15.1.0, SVG Export Plug-In . SVG Version: 6.00 Build 0)  -->
<!DOCTYPE svg PUBLIC "-//W3C//DTD SVG 1.1//EN" "http://www.w3.org/Graphics/SVG/1.1/DTD/svg11.dtd">
<svg version="1.1" id="圖層_1" xmlns="http://www.w3.org/2000/svg" xmlns:xlink="http://www.w3.org/1999/xlink" x="0px" y="0px"
	 width="22px" height="22px" viewBox="0 0 22 22" enable-background="new 0 0 22 22" xml:space="preserve">
<path fill="#4E85C4" d="M13.242,17.914L13.242,17.914L22,9.154l-8.439-8.439L0,14.273l5.911,5.91
	c0.438,0.438,0.961,0.743,1.51,0.916v0.186h10.442v-1.611h-6.381L13.242,17.914z"/>
<polygon fill="#F3F3F3" points="13.561,2.4 20.314,9.154 12.979,16.49 6.225,9.735 13.561,2.401 "/>
<path fill="#F3F3F3" d="M11.027,16.626l1.124,1.123c0,0-1.227,1.627-2.995,1.924H8.064c-0.451-0.078-0.925-0.256-1.412-0.573
	C6.652,19.1,9.373,18.936,11.027,16.626z"/>
</svg>
