<?xml version="1.0" encoding="utf-8"?>
<!-- Generator: Adobe Illustrator 15.1.0, SVG Export Plug-In . SVG Version: 6.00 Build 0)  -->
<!DOCTYPE svg PUBLIC "-//W3C//DTD SVG 1.1//EN" "http://www.w3.org/Graphics/SVG/1.1/DTD/svg11.dtd">
<svg version="1.1" id="圖層_1" xmlns="http://www.w3.org/2000/svg" xmlns:xlink="http://www.w3.org/1999/xlink" x="0px" y="0px"
	 width="50px" height="50px" viewBox="-10.5 30.5 50 50" enable-background="new -10.5 30.5 50 50" xml:space="preserve">
<title>exclamation</title>
<path fill="#FFFFFF" d="M17.5,62v3.5c0,0.547-0.453,1-1,1h-4c-0.547,0-1-0.453-1-1V62c0-0.547,0.453-1,1-1h4
	C17.047,61,17.5,61.453,17.5,62z M17.969,45.5l-0.438,12c-0.016,0.547-0.484,1-1.031,1h-4c-0.547,0-1.016-0.453-1.031-1l-0.438-12
	c-0.016-0.547,0.422-1,0.969-1h5C17.547,44.5,17.984,44.953,17.969,45.5z"/>
</svg>
