<?xml version="1.0" encoding="utf-8"?>
<!-- Generator: Adobe Illustrator 15.1.0, SVG Export Plug-In . SVG Version: 6.00 Build 0)  -->
<!DOCTYPE svg PUBLIC "-//W3C//DTD SVG 1.1//EN" "http://www.w3.org/Graphics/SVG/1.1/DTD/svg11.dtd">
<svg version="1.1" id="圖層_1" xmlns="http://www.w3.org/2000/svg" xmlns:xlink="http://www.w3.org/1999/xlink" x="0px" y="0px"
	 width="20px" height="20px" viewBox="-389.5 310.5 20 20" enable-background="new -389.5 310.5 20 20" xml:space="preserve">
<title>feather</title>
<path fill="#FFFFFF" d="M-384.191,328.31c0.251-0.801,0.629-1.929,1.136-3.561c2.21-0.351,3.125,0.278,4.528-2.228
	c-1.139,0.348-2.512-0.647-2.438-1.078c0.073-0.433,3.194,0.311,5.238-2.591c-2.576,0.568-3.399-0.682-3.067-0.871
	c0.767-0.436,3.042-0.181,4.255-1.362c0.625-0.608,0.918-2.087,0.664-2.614c-0.306-0.637-2.168-1.589-3.195-1.499
	c-1.027,0.091-2.638,3.911-3.116,3.881c-0.477-0.03-0.574-1.712,0.26-3.275c-0.879,0.389-2.491,1.6-2.996,2.633
	c-0.941,1.925,0.088,6.341-0.242,6.497c-0.33,0.157-1.441-2.025-1.773-3.015c-0.453,1.517-0.464,3.037,0.86,5.056
	c-0.5,1.325-0.772,2.85-0.813,3.626C-384.912,328.527-384.301,328.66-384.191,328.31z"/>
</svg>
