<?xml version="1.0" encoding="utf-8"?>
<!-- Generator: Adobe Illustrator 15.1.0, SVG Export Plug-In . SVG Version: 6.00 Build 0)  -->
<!DOCTYPE svg PUBLIC "-//W3C//DTD SVG 1.1//EN" "http://www.w3.org/Graphics/SVG/1.1/DTD/svg11.dtd">
<svg version="1.1" id="圖層_1" xmlns="http://www.w3.org/2000/svg" xmlns:xlink="http://www.w3.org/1999/xlink" x="0px" y="0px"
	 width="18px" height="18px" viewBox="-240.5 159.5 18 18" enable-background="new -240.5 159.5 18 18" xml:space="preserve">
<title>loader</title>
<path fill="#0F5D8A" d="M-224.866,163.525c-0.391-0.531-0.935-1.153-1.532-1.752c-0.598-0.598-1.221-1.142-1.754-1.531
	c-0.906-0.665-1.346-0.742-1.598-0.742h-7.719c-0.775,0-1.406,0.631-1.406,1.406v15.188c0,0.774,0.631,1.406,1.406,1.406h4.219
	h3.057h4.662c0.775,0,1.406-0.631,1.406-1.406v-7.748v-2.438v-0.781C-224.124,164.873-224.201,164.434-224.866,163.525z
	 M-228.624,161.294c0.403,0.313,0.892,0.735,1.431,1.276c0.539,0.537,0.963,1.025,1.275,1.43h-2.706V161.294z M-225.249,167.364
	v8.729c0,0.152-0.129,0.281-0.281,0.281c0,0-3.255,0-5.538,0h-2.181h-4.219c-0.152,0-0.281-0.129-0.281-0.281v-15.188
	c0-0.151,0.129-0.28,0.281-0.28c0,0,7.718,0,7.719,0v3.938c0,0.311,0.252,0.563,0.563,0.563h3.938v0.781L-225.249,167.364
	L-225.249,167.364z"/>
<path fill="#0F5D8A" d="M-227,168h-3h-3h-3c-0.276,0-0.5,0.224-0.5,0.5v3v3c0,0.276,0.224,0.5,0.5,0.5h3h3h3
	c0.276,0,0.5-0.224,0.5-0.5v-3v-3C-226.5,168.224-226.724,168-227,168z M-227.5,171h-2v-2h2V171z M-230.5,171h-2v-2h2V171z
	 M-235.5,169h2v2h-2V169z M-235.5,172h2v2h-2V172z M-232.5,172h2v2h-2V172z M-227.5,174h-2v-2h2V174z"/>
</svg>
