<?xml version="1.0" encoding="utf-8"?>
<!-- Generator: Adobe Illustrator 15.1.0, SVG Export Plug-In . SVG Version: 6.00 Build 0)  -->
<!DOCTYPE svg PUBLIC "-//W3C//DTD SVG 1.1//EN" "http://www.w3.org/Graphics/SVG/1.1/DTD/svg11.dtd">
<svg version="1.1" id="圖層_1" xmlns="http://www.w3.org/2000/svg" xmlns:xlink="http://www.w3.org/1999/xlink" x="0px" y="0px"
	 width="22px" height="22px" viewBox="-240.5 159.5 22 22" enable-background="new -240.5 159.5 22 22" xml:space="preserve">
<title>loader</title>
<path fill="#4E85C4" d="M-221.392,164.42c-0.478-0.649-1.142-1.409-1.873-2.142c-0.73-0.731-1.492-1.396-2.144-1.871
	c-1.108-0.813-1.645-0.907-1.953-0.907h-9.434c-0.948,0-1.719,0.771-1.719,1.719v18.563c0,0.946,0.771,1.719,1.719,1.719h5.156
	h3.736h5.698c0.948,0,1.719-0.771,1.719-1.719v-9.47v-2.979v-0.955C-220.485,166.067-220.579,165.53-221.392,164.42z
	 M-225.985,161.692c0.493,0.384,1.09,0.899,1.749,1.561c0.659,0.656,1.177,1.253,1.559,1.747h-3.307V161.692z M-221.86,169.112
	v10.668c0,0.186-0.158,0.344-0.343,0.344c0,0-3.979,0-6.769,0h-2.666h-5.156c-0.186,0-0.344-0.158-0.344-0.344v-18.563
	c0-0.185,0.158-0.342,0.344-0.342c0,0,9.433,0,9.434,0v4.813c0,0.381,0.308,0.688,0.688,0.688h4.813v0.955L-221.86,169.112
	L-221.86,169.112z"/>
<path fill="#7F7F7F" d="M-224,169.889h-3.667h-3.667H-235c-0.337,0-0.611,0.274-0.611,0.611v3.667v3.666
	c0,0.337,0.274,0.611,0.611,0.611h3.667h3.667H-224c0.336,0,0.611-0.274,0.611-0.611v-3.666V170.5
	C-223.389,170.163-223.664,169.889-224,169.889z M-224.611,173.556h-2.444v-2.444h2.444V173.556z M-228.278,173.556h-2.444v-2.444
	h2.444V173.556z M-234.389,171.111h2.444v2.444h-2.444V171.111z M-234.389,174.777h2.444v2.445h-2.444V174.777z M-230.722,174.777
	h2.444v2.445h-2.444V174.777z M-224.611,177.223h-2.444v-2.445h2.444V177.223z"/>
</svg>
