<?xml version="1.0" encoding="utf-8"?>
<!-- Generator: Adobe Illustrator 15.1.0, SVG Export Plug-In . SVG Version: 6.00 Build 0)  -->
<!DOCTYPE svg PUBLIC "-//W3C//DTD SVG 1.1//EN" "http://www.w3.org/Graphics/SVG/1.1/DTD/svg11.dtd">
<svg version="1.1" id="圖層_1" xmlns="http://www.w3.org/2000/svg" xmlns:xlink="http://www.w3.org/1999/xlink" x="0px" y="0px"
	 width="25px" height="25px" viewBox="-383.5 316.5 25 25" enable-background="new -383.5 316.5 25 25" xml:space="preserve">
<title>file-text2</title>
<path d="M-361.625,316.5h-18.75c-1.289,0-2.344,1.055-2.344,2.344v20.313c0,1.289,1.055,2.344,2.344,2.344h18.75
	c1.29,0,2.344-1.055,2.344-2.344v-20.313C-359.281,317.555-360.335,316.5-361.625,316.5z M-362.406,338.375h-17.188v-18.75h17.188
	V338.375z M-376.469,327.438h10.938V329h-10.938V327.438z M-376.469,330.563h10.938v1.563h-10.938V330.563z M-376.469,333.688
	h10.938v1.563h-10.938V333.688z M-376.469,324.313h10.938v1.563h-10.938V324.313z"/>
</svg>
