<?xml version="1.0" encoding="utf-8"?>
<!-- Generator: Adobe Illustrator 15.1.0, SVG Export Plug-In . SVG Version: 6.00 Build 0)  -->
<!DOCTYPE svg PUBLIC "-//W3C//DTD SVG 1.1//EN" "http://www.w3.org/Graphics/SVG/1.1/DTD/svg11.dtd">
<svg version="1.1" id="圖層_1" xmlns="http://www.w3.org/2000/svg" xmlns:xlink="http://www.w3.org/1999/xlink" x="0px" y="0px"
	 width="25px" height="25px" viewBox="-383.5 316.5 25 25" enable-background="new -383.5 316.5 25 25" xml:space="preserve">
<title>files-empty</title>
<path fill="#FFFFFF" d="M-361.092,325.218c-0.543-0.739-1.299-1.604-2.129-2.435s-1.694-1.585-2.435-2.128
	c-1.259-0.924-1.869-1.03-2.219-1.03h-8.984c-1.077,0-1.953,0.877-1.953,1.953v17.969c0,1.076,0.876,1.953,1.953,1.953h14.844
	c1.077,0,1.953-0.877,1.953-1.953v-12.109C-360.063,327.087-360.169,326.477-361.092,325.218z M-364.326,323.889
	c0.749,0.749,1.337,1.426,1.771,1.986h-3.758v-3.758C-365.752,322.551-365.075,323.139-364.326,323.889L-364.326,323.889z
	 M-361.625,339.547c0,0.212-0.179,0.391-0.391,0.391h-14.844c-0.212,0-0.391-0.179-0.391-0.391v-17.969
	c0-0.212,0.179-0.391,0.391-0.391c0,0,8.983,0,8.984,0v5.469c0,0.431,0.35,0.781,0.781,0.781h5.469V339.547z"/>
<path fill="#FFFFFF" d="M-368.781,317.53c-1.259-0.924-1.869-1.03-2.219-1.03h-8.984c-1.077,0-1.953,0.876-1.953,1.953v17.969
	c0,0.943,0.672,1.731,1.563,1.914v-19.883c0-0.212,0.179-0.391,0.391-0.391h11.887C-368.333,317.869-368.563,317.69-368.781,317.53
	L-368.781,317.53z"/>
</svg>
