<?xml version="1.0" encoding="utf-8"?>
<!-- Generator: Adobe Illustrator 15.1.0, SVG Export Plug-In . SVG Version: 6.00 Build 0)  -->
<!DOCTYPE svg PUBLIC "-//W3C//DTD SVG 1.1//EN" "http://www.w3.org/Graphics/SVG/1.1/DTD/svg11.dtd">
<svg version="1.1" id="圖層_1" xmlns="http://www.w3.org/2000/svg" xmlns:xlink="http://www.w3.org/1999/xlink" x="0px" y="0px"
	 width="22px" height="22px" viewBox="0 0 22 22" enable-background="new 0 0 22 22" xml:space="preserve">
<path fill="#4E85C4" d="M19.719,7.672c-0.479-0.651-1.143-1.412-1.873-2.143c-0.729-0.73-1.49-1.395-2.143-1.873
	C14.596,2.844,14.059,2.75,13.75,2.75H5.844c-0.948,0-1.719,0.771-1.719,1.719v15.813C4.125,21.229,4.896,22,5.844,22h13.063
	c0.946,0,1.719-0.771,1.719-1.719V9.625C20.625,9.317,20.531,8.779,19.719,7.672z M16.873,6.502
	c0.659,0.659,1.177,1.254,1.561,1.748h-3.309V4.942C15.618,5.325,16.214,5.842,16.873,6.502L16.873,6.502z M19.25,20.281
	c0,0.187-0.157,0.344-0.344,0.344H5.844c-0.187,0-0.344-0.157-0.344-0.344V4.469c0-0.187,0.157-0.344,0.344-0.344
	c0,0,7.905,0,7.906,0v4.813c0,0.379,0.309,0.688,0.688,0.688h4.813L19.25,20.281L19.25,20.281z"/>
<path fill="#7F7F7F" d="M12.953,0.907C11.846,0.094,11.309,0,11,0H3.094C2.146,0,1.375,0.771,1.375,1.719v15.813
	c0,0.829,0.591,1.524,1.375,1.685V1.719c0-0.187,0.157-0.344,0.344-0.344h10.46C13.348,1.205,13.146,1.047,12.953,0.907
	L12.953,0.907z"/>
</svg>
