<?xml version="1.0" encoding="utf-8"?>
<!-- Generator: Adobe Illustrator 15.1.0, SVG Export Plug-In . SVG Version: 6.00 Build 0)  -->
<!DOCTYPE svg PUBLIC "-//W3C//DTD SVG 1.1//EN" "http://www.w3.org/Graphics/SVG/1.1/DTD/svg11.dtd">
<svg version="1.1" id="圖層_1" xmlns="http://www.w3.org/2000/svg" xmlns:xlink="http://www.w3.org/1999/xlink" x="0px" y="0px"
	 width="25px" height="25px" viewBox="-383.5 316.5 25 25" enable-background="new -383.5 316.5 25 25" xml:space="preserve">
<title>firsepage</title>
<path d="M-364.994,340.312c0.583-0.581,0.583-1.527,0-2.11l-1.184-1.185h5.408c0.824,0,1.493-0.667,1.493-1.492
	s-0.669-1.493-1.493-1.493h-5.408l1.184-1.184c0.583-0.582,0.583-1.529,0-2.111c-0.292-0.291-0.674-0.438-1.056-0.438
	s-0.765,0.146-1.056,0.438l-4.788,4.788l4.788,4.787c0.583,0.584,1.527,0.584,2.11,0H-364.994z"/>
<path d="M-374.435,331.042c0-0.824-0.668-1.494-1.493-1.494c-0.824,0-1.493,0.67-1.493,1.494v8.965c0,0.825,0.668,1.493,1.493,1.493
	c0.825,0,1.493-0.67,1.493-1.493V331.042z"/>
<path d="M-365.134,316.826c-0.217-0.217-0.483-0.326-0.793-0.326h-15.676c-0.311,0-0.574,0.109-0.793,0.326
	c-0.218,0.219-0.327,0.483-0.327,0.794v18.661c0,0.311,0.108,0.574,0.327,0.793c0.218,0.218,0.482,0.326,0.793,0.326h2.666v-6.358
	c0-1.66,1.35-3.01,3.009-3.01s3.009,1.35,3.009,3.01v2.341l4.23-4.23c0.706-0.705,1.643-1.094,2.639-1.094
	c0.432,0,0.847,0.086,1.243,0.227V317.62C-364.807,317.31-364.916,317.046-365.134,316.826L-365.134,316.826z M-368.781,327.324
	c0,0.108-0.035,0.199-0.105,0.269c-0.07,0.069-0.159,0.104-0.268,0.104h-10.232c-0.109,0-0.198-0.035-0.268-0.104
	s-0.105-0.16-0.105-0.269v-1.252c0-0.108,0.036-0.199,0.105-0.269c0.07-0.07,0.159-0.104,0.268-0.104h10.232
	c0.108,0,0.198,0.035,0.268,0.104c0.07,0.069,0.105,0.158,0.105,0.269V327.324z M-368.781,323.833c0,0.108-0.035,0.198-0.105,0.268
	c-0.07,0.07-0.159,0.105-0.268,0.105h-10.232c-0.109,0-0.198-0.035-0.268-0.105c-0.07-0.069-0.105-0.159-0.105-0.268v-1.252
	c0-0.108,0.036-0.198,0.105-0.269c0.07-0.069,0.159-0.104,0.268-0.104h10.232c0.108,0,0.198,0.035,0.268,0.104
	c0.07,0.07,0.105,0.16,0.105,0.269V323.833z M-368.781,320.342c0,0.108-0.035,0.198-0.105,0.269c-0.07,0.07-0.159,0.105-0.268,0.105
	h-10.232c-0.109,0-0.198-0.035-0.268-0.105s-0.105-0.158-0.105-0.269v-1.251c0-0.109,0.036-0.198,0.105-0.269
	c0.07-0.071,0.159-0.105,0.268-0.105h10.232c0.108,0,0.198,0.035,0.268,0.105c0.07,0.07,0.105,0.158,0.105,0.269V320.342z"/>
</svg>
