<?xml version="1.0" encoding="utf-8"?>
<!-- Generator: Adobe Illustrator 15.1.0, SVG Export Plug-In . SVG Version: 6.00 Build 0)  -->
<!DOCTYPE svg PUBLIC "-//W3C//DTD SVG 1.1//EN" "http://www.w3.org/Graphics/SVG/1.1/DTD/svg11.dtd">
<svg version="1.1" id="圖層_1" xmlns="http://www.w3.org/2000/svg" xmlns:xlink="http://www.w3.org/1999/xlink" x="0px" y="0px"
	 width="22px" height="22px" viewBox="0 0 22 22" enable-background="new 0 0 22 22" xml:space="preserve">
<title>gavel</title>
<path fill="#7F7F7F" d="M16.285,20.954c0.513-0.513,0.513-1.345,0-1.856l-1.042-1.043h4.759c0.725,0,1.313-0.587,1.313-1.313
	c0-0.727-0.588-1.315-1.313-1.315h-4.759l1.042-1.041c0.513-0.513,0.513-1.346,0-1.856c-0.258-0.258-0.594-0.385-0.93-0.385
	s-0.672,0.127-0.93,0.385l-4.213,4.214l4.213,4.212C14.939,21.469,15.771,21.469,16.285,20.954L16.285,20.954z"/>
<path fill="#7F7F7F" d="M7.977,12.797c0-0.727-0.588-1.314-1.314-1.314c-0.725,0-1.314,0.589-1.314,1.314v7.891
	C5.349,21.412,5.938,22,6.663,22c0.726,0,1.314-0.59,1.314-1.313V12.797z"/>
<path fill="#4E85C4" d="M16.162,0.287C15.971,0.096,15.736,0,15.464,0H1.669C1.396,0,1.164,0.096,0.972,0.287
	C0.779,0.479,0.684,0.712,0.684,0.985v16.423c0,0.271,0.095,0.504,0.288,0.697c0.191,0.19,0.424,0.287,0.698,0.287h2.346v-5.597
	c0-1.461,1.188-2.649,2.647-2.649c1.46,0,2.647,1.188,2.647,2.649v2.06l3.723-3.722c0.621-0.621,1.445-0.963,2.322-0.963
	c0.381,0,0.746,0.076,1.094,0.2V0.985C16.45,0.712,16.354,0.48,16.162,0.287L16.162,0.287z M12.953,9.525
	c0,0.096-0.031,0.174-0.094,0.236c-0.062,0.062-0.139,0.092-0.234,0.092H3.621c-0.096,0-0.174-0.031-0.236-0.092
	C3.323,9.7,3.292,9.621,3.292,9.525V8.423c0-0.096,0.031-0.175,0.092-0.236c0.063-0.062,0.14-0.092,0.236-0.092h9.004
	c0.095,0,0.174,0.031,0.235,0.092s0.093,0.139,0.093,0.236L12.953,9.525L12.953,9.525z M12.953,6.453
	c0,0.096-0.031,0.175-0.094,0.236c-0.062,0.062-0.139,0.093-0.234,0.093H3.621c-0.096,0-0.174-0.032-0.236-0.093
	c-0.062-0.061-0.092-0.14-0.092-0.236V5.352c0-0.096,0.031-0.174,0.092-0.237c0.063-0.061,0.14-0.091,0.236-0.091h9.004
	c0.096,0,0.174,0.031,0.234,0.091c0.063,0.063,0.094,0.141,0.094,0.237V6.453z M12.953,3.38c0,0.096-0.031,0.175-0.094,0.236
	c-0.062,0.062-0.139,0.093-0.234,0.093H3.621c-0.096,0-0.174-0.031-0.236-0.093C3.323,3.555,3.292,3.478,3.292,3.38v-1.1
	c0-0.096,0.031-0.175,0.092-0.236C3.447,1.981,3.524,1.95,3.621,1.95h9.004c0.096,0,0.174,0.032,0.234,0.093
	c0.062,0.061,0.094,0.139,0.094,0.236V3.38z"/>
</svg>
