<?xml version="1.0" encoding="utf-8"?>
<!-- Generator: Adobe Illustrator 15.1.0, SVG Export Plug-In . SVG Version: 6.00 Build 0)  -->
<!DOCTYPE svg PUBLIC "-//W3C//DTD SVG 1.1//EN" "http://www.w3.org/Graphics/SVG/1.1/DTD/svg11.dtd">
<svg version="1.1" id="圖層_1" xmlns="http://www.w3.org/2000/svg" xmlns:xlink="http://www.w3.org/1999/xlink" x="0px" y="0px"
	 width="18px" height="18px" viewBox="-375.5 324.5 18 18" enable-background="new -375.5 324.5 18 18" xml:space="preserve">
<title>floppy</title>
<path fill="#2975A8" d="M-367.625,337.063c0,0.518,0.42,0.938,0.938,0.938s0.938-0.42,0.938-0.938s-0.42-0.938-0.938-0.938
	S-367.625,336.545-367.625,337.063z M-374,324.5c-0.829,0-1.5,0.671-1.5,1.5v15c0,0.829,0.671,1.5,1.5,1.5h15
	c0.829,0,1.5-0.671,1.5-1.5v-12.78c0-0.502-0.198-0.948-0.518-1.271l-1.905-1.897c-0.337-0.341-0.81-0.551-1.328-0.551H-374z
	 M-372.8,326.375h1.05v2.925c0,0.458,0.368,0.825,0.825,0.825h0.975c0.458,0,0.825-0.367,0.825-0.825v-2.925h7.05
	c0.458,0,0.825,0.367,0.825,0.825v3.6c0,0.458-0.368,0.825-0.825,0.825H-372.8c-0.458,0-0.825-0.367-0.825-0.825v-3.6
	C-373.625,326.742-373.257,326.375-372.8,326.375z M-369.125,337.063c0-1.346,1.091-2.438,2.438-2.438s2.438,1.092,2.438,2.438
	s-1.091,2.438-2.438,2.438S-369.125,338.408-369.125,337.063z"/>
</svg>
