<?xml version="1.0" encoding="utf-8"?>
<!-- Generator: Adobe Illustrator 15.1.0, SVG Export Plug-In . SVG Version: 6.00 Build 0)  -->
<!DOCTYPE svg PUBLIC "-//W3C//DTD SVG 1.1//EN" "http://www.w3.org/Graphics/SVG/1.1/DTD/svg11.dtd">
<svg version="1.1" id="圖層_1" xmlns="http://www.w3.org/2000/svg" xmlns:xlink="http://www.w3.org/1999/xlink" x="0px" y="0px"
	 width="30px" height="30px" viewBox="-388.5 311.5 30 30" enable-background="new -388.5 311.5 30 30" xml:space="preserve">
<title>gavel</title>
<path fill="#1195EF" d="M-359.363,315.58l-3.175-3.162c-0.562-0.567-1.351-0.918-2.212-0.918H-386c-1.381,0-2.5,1.118-2.5,2.5
	v24.999c0,1.383,1.118,2.501,2.5,2.501h25c1.382,0,2.501-1.118,2.501-2.5v-21.301C-358.5,316.861-358.83,316.118-359.363,315.58z
	 M-373.813,338.573c-3.388,0-6.135-2.747-6.135-6.137c0-3.388,2.747-6.137,6.135-6.137c3.389,0,6.137,2.749,6.137,6.137
	C-367.675,335.826-370.424,338.573-373.813,338.573z M-364.751,322c0,0.764-0.614,1.375-1.375,1.375H-384
	c-0.763,0-1.375-0.613-1.375-1.375v-6c0.001-0.762,0.614-1.375,1.375-1.375h1.75v4.876c0,0.762,0.613,1.374,1.375,1.374h1.625
	c0.762,0,1.374-0.612,1.374-1.374v-4.876h11.751c0.762,0,1.375,0.613,1.375,1.376V322z"/>
<path fill="#58BDF4" d="M-373.813,328.346c-2.259,0-4.091,1.832-4.091,4.091c0,2.26,1.832,4.091,4.091,4.091
	c2.259,0,4.092-1.831,4.092-4.091C-369.721,330.178-371.553,328.346-373.813,328.346z M-373.813,334.482
	c-1.129,0-2.045-0.917-2.045-2.046s0.917-2.045,2.045-2.045c1.13,0,2.046,0.916,2.046,2.045S-372.682,334.482-373.813,334.482z"/>
</svg>
