<?xml version="1.0" encoding="utf-8"?>
<!-- Generator: Adobe Illustrator 15.1.0, SVG Export Plug-In . SVG Version: 6.00 Build 0)  -->
<!DOCTYPE svg PUBLIC "-//W3C//DTD SVG 1.1//EN" "http://www.w3.org/Graphics/SVG/1.1/DTD/svg11.dtd">
<svg version="1.1" id="圖層_1" xmlns="http://www.w3.org/2000/svg" xmlns:xlink="http://www.w3.org/1999/xlink" x="0px" y="0px"
	 width="32px" height="32px" viewBox="-388.5 311.5 32 32" enable-background="new -388.5 311.5 32 32" xml:space="preserve">
<title>gavel</title>
<path fill="#007AE1" d="M-357.42,315.853l-3.386-3.373c-0.6-0.605-1.441-0.979-2.359-0.979h-22.668
	c-1.473,0-2.666,1.192-2.666,2.667v26.665c0,1.476,1.193,2.668,2.666,2.668h26.667c1.474,0,2.667-1.192,2.667-2.667v-22.721
	C-356.5,317.219-356.852,316.426-357.42,315.853z M-372.833,340.378c-3.614,0-6.544-2.93-6.544-6.546
	c0-3.613,2.93-6.546,6.544-6.546c3.615,0,6.546,2.933,6.546,6.546C-366.287,337.448-369.219,340.378-372.833,340.378z
	 M-363.167,322.7c0,0.814-0.655,1.467-1.467,1.467h-19.066c-0.813,0-1.467-0.654-1.467-1.467v-6.4
	c0.001-0.813,0.654-1.467,1.467-1.467h1.867v5.201c0,0.813,0.654,1.466,1.466,1.466h1.733c0.813,0,1.465-0.653,1.465-1.466v-5.201
	h12.535c0.813,0,1.467,0.654,1.467,1.468V322.7z"/>
<path fill="#1195EF" d="M-372.833,329.469c-2.409,0-4.363,1.954-4.363,4.363c0,2.411,1.954,4.364,4.363,4.364
	c2.41,0,4.365-1.953,4.365-4.364C-368.469,331.423-370.423,329.469-372.833,329.469z M-372.833,336.015
	c-1.204,0-2.182-0.979-2.182-2.183s0.978-2.181,2.182-2.181c1.206,0,2.183,0.977,2.183,2.181S-371.627,336.015-372.833,336.015z"/>
</svg>
