<?xml version="1.0" encoding="utf-8"?>
<!-- Generator: Adobe Illustrator 15.1.0, SVG Export Plug-In . SVG Version: 6.00 Build 0)  -->
<!DOCTYPE svg PUBLIC "-//W3C//DTD SVG 1.1//EN" "http://www.w3.org/Graphics/SVG/1.1/DTD/svg11.dtd">
<svg version="1.1" id="圖層_1" xmlns="http://www.w3.org/2000/svg" xmlns:xlink="http://www.w3.org/1999/xlink" x="0px" y="0px"
	 width="22px" height="22px" viewBox="0 0 22 22" enable-background="new 0 0 22 22" xml:space="preserve">
<title>gavel</title>
<path fill="#4E85C4" d="M1.833,0C0.82,0,0,0.82,0,1.833v18.333C0,21.18,0.82,22,1.833,22h18.333C21.18,22,22,21.18,22,20.167V4.546
	c0-0.614-0.242-1.159-0.633-1.554l-2.328-2.319C18.627,0.257,18.049,0,17.417,0H1.833z"/>
<path fill="#F3F3F3" d="M3.3,2.292h1.283v3.575c0,0.559,0.449,1.008,1.008,1.008h1.191c0.559,0,1.008-0.449,1.008-1.008V2.292h8.617
	c0.559,0,1.009,0.449,1.009,1.009V7.7c0,0.56-0.45,1.008-1.009,1.008H3.3c-0.56,0-1.009-0.449-1.009-1.008V3.3
	C2.292,2.741,2.741,2.292,3.3,2.292z"/>
<circle fill="#7F7F7F" cx="10.771" cy="15.354" r="2.979"/>
<circle fill="#F3F3F3" cx="10.771" cy="15.354" r="1.146"/>
</svg>
