<?xml version="1.0" encoding="utf-8"?>
<!-- Generator: Adobe Illustrator 15.1.0, SVG Export Plug-In . SVG Version: 6.00 Build 0)  -->
<!DOCTYPE svg PUBLIC "-//W3C//DTD SVG 1.1//EN" "http://www.w3.org/Graphics/SVG/1.1/DTD/svg11.dtd">
<svg version="1.1" id="圖層_1" xmlns="http://www.w3.org/2000/svg" xmlns:xlink="http://www.w3.org/1999/xlink" x="0px" y="0px"
	 width="25px" height="25px" viewBox="-375.5 324.5 25 25" enable-background="new -375.5 324.5 25 25" xml:space="preserve">
<title>floppy</title>
<path fill="#FFFFFF" d="M-364.563,341.948c0,0.719,0.583,1.302,1.302,1.302s1.302-0.583,1.302-1.302s-0.583-1.303-1.302-1.303
	S-364.563,341.229-364.563,341.948z M-373.417,324.5c-1.151,0-2.083,0.933-2.083,2.083v20.834c0,1.15,0.932,2.083,2.083,2.083
	h20.833c1.151,0,2.083-0.933,2.083-2.083v-17.75c0-0.698-0.276-1.317-0.719-1.767l-2.646-2.635
	c-0.468-0.474-1.125-0.766-1.844-0.766H-373.417z M-371.75,327.104h1.458v4.063c0,0.635,0.51,1.146,1.146,1.146h1.354
	c0.636,0,1.146-0.511,1.146-1.146v-4.063h9.792c0.636,0,1.146,0.511,1.146,1.146v5c0,0.635-0.51,1.146-1.146,1.146h-14.896
	c-0.635,0-1.146-0.511-1.146-1.146v-5C-372.896,327.615-372.385,327.104-371.75,327.104z M-366.646,341.948
	c0-1.87,1.516-3.386,3.386-3.386s3.385,1.516,3.385,3.386c0,1.869-1.516,3.385-3.385,3.385S-366.646,343.817-366.646,341.948z"/>
</svg>
