<?xml version="1.0" encoding="utf-8"?>
<!-- Generator: Adobe Illustrator 15.1.0, SVG Export Plug-In . SVG Version: 6.00 Build 0)  -->
<!DOCTYPE svg PUBLIC "-//W3C//DTD SVG 1.1//EN" "http://www.w3.org/Graphics/SVG/1.1/DTD/svg11.dtd">
<svg version="1.1" id="圖層_1" xmlns="http://www.w3.org/2000/svg" xmlns:xlink="http://www.w3.org/1999/xlink" x="0px" y="0px"
	 width="18px" height="18px" viewBox="0 0 18 18" enable-background="new 0 0 18 18" xml:space="preserve">
<title>floppy</title>
<path fill="#C1C1C1" d="M7.875,12.563c0,0.519,0.42,0.938,0.938,0.938s0.938-0.42,0.938-0.938c0-0.518-0.42-0.938-0.938-0.938
	S7.875,12.045,7.875,12.563z M1.5,0C0.671,0,0,0.671,0,1.5v15C0,17.329,0.671,18,1.5,18h15c0.829,0,1.5-0.671,1.5-1.5V3.721
	c0-0.503-0.198-0.949-0.518-1.271l-1.905-1.897c-0.337-0.341-0.81-0.551-1.328-0.551L1.5,0L1.5,0z M2.7,1.875h1.05V4.8
	c0,0.458,0.368,0.825,0.825,0.825H5.55c0.458,0,0.825-0.367,0.825-0.825V1.875h7.05c0.458,0,0.825,0.367,0.825,0.825v3.6
	c0,0.458-0.368,0.825-0.825,0.825H2.7c-0.458,0-0.825-0.367-0.825-0.825V2.7C1.875,2.242,2.243,1.875,2.7,1.875z M6.375,12.563
	c0-1.346,1.091-2.438,2.438-2.438s2.438,1.092,2.438,2.438c0,1.347-1.091,2.438-2.438,2.438S6.375,13.908,6.375,12.563z"/>
</svg>
