<?xml version="1.0" encoding="utf-8"?>
<!-- Generator: Adobe Illustrator 15.1.0, SVG Export Plug-In . SVG Version: 6.00 Build 0)  -->
<!DOCTYPE svg PUBLIC "-//W3C//DTD SVG 1.1//EN" "http://www.w3.org/Graphics/SVG/1.1/DTD/svg11.dtd">
<svg version="1.1" id="圖層_1" xmlns="http://www.w3.org/2000/svg" xmlns:xlink="http://www.w3.org/1999/xlink" x="0px" y="0px"
	 width="30px" height="30px" viewBox="-389.5 310.5 30 30" enable-background="new -389.5 310.5 30 30" xml:space="preserve">
<title>folder</title>
<path fill="#0B486B" d="M-363.985,318.993c-0.138-0.55-0.819-1-1.513-1h-8.525c-0.693,0-1.664-0.398-2.154-0.884l-0.746-0.736
	c-0.491-0.486-1.46-0.882-2.153-0.882h-4.072c-0.694,0-1.325,0.56-1.401,1.244l-0.365,3.761h21.182L-363.985,318.993z
	 M-362.725,321.747h-23.551c-0.428,0-0.763,0.367-0.721,0.794l1.154,12.098c0.046,0.492,0.462,0.87,0.958,0.87h20.768
	c0.497,0,0.91-0.378,0.959-0.87l1.153-12.098C-361.962,322.114-362.297,321.747-362.725,321.747z"/>
</svg>
