<?xml version="1.0" encoding="utf-8"?>
<!-- Generator: Adobe Illustrator 15.1.0, SVG Export Plug-In . SVG Version: 6.00 Build 0)  -->
<!DOCTYPE svg PUBLIC "-//W3C//DTD SVG 1.1//EN" "http://www.w3.org/Graphics/SVG/1.1/DTD/svg11.dtd">
<svg version="1.1" id="圖層_1" xmlns="http://www.w3.org/2000/svg" xmlns:xlink="http://www.w3.org/1999/xlink" x="0px" y="0px"
	 width="25px" height="25px" viewBox="-383.5 316.5 25 25" enable-background="new -383.5 316.5 25 25" xml:space="preserve">
<title>frontpage</title>
<path d="M-375.186,336.112l6.568-6.567c0.728-0.728,1.692-1.128,2.721-1.128c0.445,0,0.874,0.089,1.282,0.232v-10.994
	c0-0.32-0.114-0.593-0.337-0.817c-0.225-0.225-0.497-0.338-0.817-0.338h-16.162c-0.32,0-0.592,0.113-0.817,0.338
	c-0.225,0.224-0.337,0.497-0.337,0.817v19.239c0,0.32,0.112,0.593,0.337,0.818c0.224,0.224,0.497,0.336,0.816,0.336h8.683
	L-375.186,336.112L-375.186,336.112z M-378.468,320.733c0-0.111,0.037-0.205,0.109-0.276c0.072-0.073,0.163-0.109,0.276-0.109h8.465
	c0.112,0,0.205,0.037,0.276,0.109c0.072,0.071,0.108,0.163,0.108,0.276v0.769c0,0.112-0.037,0.205-0.108,0.277
	s-0.163,0.108-0.276,0.108h-8.465c-0.111,0-0.205-0.036-0.276-0.108c-0.072-0.072-0.109-0.164-0.109-0.277V320.733L-378.468,320.733
	z M-378.468,323.813c0-0.112,0.037-0.205,0.109-0.277c0.072-0.071,0.163-0.108,0.276-0.108h8.465c0.112,0,0.205,0.037,0.276,0.108
	c0.072,0.072,0.108,0.164,0.108,0.277v0.769c0,0.111-0.037,0.205-0.108,0.277c-0.071,0.071-0.163,0.108-0.276,0.108h-8.465
	c-0.111,0-0.205-0.037-0.276-0.108c-0.073-0.072-0.109-0.164-0.109-0.277V323.813z M-378.359,327.937
	c-0.073-0.072-0.108-0.163-0.108-0.277v-0.77c0-0.111,0.036-0.204,0.108-0.276c0.072-0.073,0.163-0.108,0.276-0.108h8.466
	c0.111,0,0.205,0.037,0.275,0.108c0.072,0.073,0.109,0.164,0.109,0.276v0.77c0,0.112-0.037,0.205-0.109,0.277
	c-0.072,0.071-0.163,0.108-0.275,0.108h-8.466C-378.194,328.045-378.287,328.008-378.359,327.937z"/>
<path d="M-364.809,341.049c0.601-0.599,0.601-1.574,0-2.177l-1.221-1.22h5.575c0.849,0,1.539-0.688,1.539-1.54
	s-0.689-1.539-1.539-1.539h-5.575l1.221-1.222c0.601-0.598,0.601-1.574,0-2.176c-0.301-0.301-0.694-0.451-1.088-0.451
	c-0.395,0-0.788,0.15-1.089,0.451l-4.937,4.937l4.937,4.937C-366.384,341.65-365.41,341.65-364.809,341.049z"/>
</svg>
