<?xml version="1.0" encoding="utf-8"?>
<!-- Generator: Adobe Illustrator 15.1.0, SVG Export Plug-In . SVG Version: 6.00 Build 0)  -->
<!DOCTYPE svg PUBLIC "-//W3C//DTD SVG 1.1//EN" "http://www.w3.org/Graphics/SVG/1.1/DTD/svg11.dtd">
<svg version="1.1" id="圖層_1" xmlns="http://www.w3.org/2000/svg" xmlns:xlink="http://www.w3.org/1999/xlink" x="0px" y="0px"
	 width="22px" height="22px" viewBox="0 0 22 22" enable-background="new 0 0 22 22" xml:space="preserve">
<title>gavel</title>
<path fill="#4E85C4" d="M7.317,17.258l5.779-5.779c0.641-0.641,1.49-0.992,2.396-0.992c0.393,0,0.771,0.078,1.129,0.205V1.016
	c0-0.282-0.101-0.521-0.297-0.72C16.125,0.099,15.885,0,15.604,0H1.381C1.099,0,0.86,0.099,0.661,0.296
	c-0.197,0.198-0.296,0.438-0.296,0.72v16.931c0,0.281,0.099,0.521,0.296,0.719c0.197,0.198,0.438,0.297,0.719,0.297h7.64
	L7.317,17.26V17.258z M4.429,3.725c0-0.098,0.032-0.18,0.096-0.243c0.063-0.064,0.144-0.096,0.243-0.096h7.449
	c0.1,0,0.182,0.032,0.243,0.096c0.063,0.063,0.095,0.144,0.095,0.243v0.677c0,0.098-0.031,0.18-0.095,0.243
	s-0.144,0.096-0.243,0.096H4.768c-0.098,0-0.18-0.032-0.243-0.096C4.461,4.582,4.429,4.501,4.429,4.401V3.725L4.429,3.725z
	 M4.429,6.434c0-0.099,0.032-0.18,0.096-0.244c0.063-0.063,0.144-0.095,0.243-0.095h7.449c0.1,0,0.182,0.032,0.243,0.095
	c0.063,0.064,0.095,0.145,0.095,0.244v0.677c0,0.099-0.031,0.181-0.095,0.244S12.316,7.45,12.217,7.45H4.768
	c-0.098,0-0.18-0.032-0.243-0.095C4.46,7.291,4.429,7.21,4.429,7.111V6.434z M4.523,10.063C4.459,10,4.428,9.92,4.428,9.82V9.143
	c0-0.098,0.032-0.18,0.096-0.243c0.064-0.064,0.144-0.096,0.244-0.096h7.45c0.099,0,0.181,0.032,0.242,0.096
	c0.063,0.064,0.097,0.144,0.097,0.243V9.82c0,0.098-0.033,0.18-0.097,0.244c-0.063,0.063-0.144,0.095-0.242,0.095h-7.45
	C4.668,10.159,4.587,10.126,4.523,10.063z"/>
<path fill="#7F7F7F" d="M16.449,21.604c0.527-0.526,0.527-1.387,0-1.916l-1.076-1.073h4.906c0.748,0,1.354-0.605,1.354-1.355
	c0-0.748-0.606-1.354-1.354-1.354h-4.906l1.076-1.074c0.527-0.526,0.527-1.388,0-1.916c-0.266-0.265-0.611-0.396-0.959-0.396
	c-0.346,0-0.693,0.133-0.957,0.396l-4.344,4.344l4.344,4.347C15.063,22.133,15.918,22.133,16.449,21.604z"/>
</svg>
