<?xml version="1.0" encoding="utf-8"?>
<!-- Generator: Adobe Illustrator 15.1.0, SVG Export Plug-In . SVG Version: 6.00 Build 0)  -->
<!DOCTYPE svg PUBLIC "-//W3C//DTD SVG 1.1//EN" "http://www.w3.org/Graphics/SVG/1.1/DTD/svg11.dtd">
<svg version="1.1" id="圖層_1" xmlns="http://www.w3.org/2000/svg" xmlns:xlink="http://www.w3.org/1999/xlink" x="0px" y="0px"
	 width="25px" height="25px" viewBox="-383.5 316.5 25 25" enable-background="new -383.5 316.5 25 25" xml:space="preserve">
<title>fullpage</title>
<path fill="#2F8AC1" d="M-371,321.709l-2.962,2.963h2.279v2.734h1.367v-2.734h2.279L-371,321.709L-371,321.709z"/>
<path fill="#2F8AC1" d="M-363.708,329.002l-2.962-2.963v2.279h-2.734v1.367h2.734v2.278L-363.708,329.002L-363.708,329.002z"/>
<path fill="#2F8AC1" d="M-371,336.293l2.962-2.963h-2.279v-2.734h-1.367v2.734h-2.279L-371,336.293L-371,336.293z"/>
<path fill="#2F8AC1" d="M-378.292,329.002l2.962,2.962v-2.278h2.734v-1.367h-2.734v-2.279L-378.292,329.002L-378.292,329.002z"/>
<path fill="#2F8AC1" d="M-361.092,322.094c-0.543-0.74-1.299-1.604-2.129-2.436c-0.83-0.83-1.694-1.584-2.435-2.128
	c-1.258-0.923-1.869-1.03-2.219-1.03h-12.109c-1.077,0-1.953,0.877-1.953,1.953v21.095c0,1.075,0.876,1.952,1.953,1.952h17.969
	c1.076,0,1.953-0.877,1.953-1.952v-15.234C-360.063,323.962-360.169,323.352-361.092,322.094z M-364.326,320.764
	c0.749,0.75,1.337,1.427,1.771,1.987h-3.757v-3.759C-365.752,319.427-365.073,320.015-364.326,320.764L-364.326,320.764z
	 M-361.625,339.549c0,0.211-0.179,0.391-0.391,0.391h-17.969c-0.212,0-0.391-0.18-0.391-0.391v-21.095
	c0-0.212,0.179-0.39,0.391-0.39h12.108v5.469c0,0.43,0.351,0.781,0.781,0.781h5.47V339.549z"/>
</svg>
