<?xml version="1.0" encoding="utf-8"?>
<!-- Generator: Adobe Illustrator 15.1.0, SVG Export Plug-In . SVG Version: 6.00 Build 0)  -->
<!DOCTYPE svg PUBLIC "-//W3C//DTD SVG 1.1//EN" "http://www.w3.org/Graphics/SVG/1.1/DTD/svg11.dtd">
<svg version="1.1" id="圖層_1" xmlns="http://www.w3.org/2000/svg" xmlns:xlink="http://www.w3.org/1999/xlink" x="0px" y="0px"
	 width="25px" height="25px" viewBox="0 25 25 25" enable-background="new 0 25 25 25" xml:space="preserve">
<title>fullpage</title>
<path d="M12.5,30.209l-2.962,2.963h2.279v2.734h1.367v-2.734h2.279L12.5,30.209L12.5,30.209z"/>
<path d="M19.791,37.502l-2.961-2.963v2.279h-2.734v1.367h2.734v2.277L19.791,37.502L19.791,37.502z"/>
<path d="M12.5,44.793l2.961-2.963h-2.278v-2.734h-1.367v2.734H9.537L12.5,44.793L12.5,44.793z"/>
<path d="M5.208,37.502l2.962,2.962v-2.278h2.734v-1.367H8.169V34.54L5.208,37.502L5.208,37.502z"/>
<path d="M22.408,30.594c-0.543-0.74-1.3-1.604-2.13-2.436c-0.829-0.83-1.694-1.584-2.435-2.129C16.586,25.107,15.975,25,15.625,25
	H3.516c-1.077,0-1.953,0.877-1.953,1.953v21.095C1.563,49.123,2.438,50,3.516,50h17.969c1.076,0,1.953-0.877,1.953-1.952V32.814
	C23.437,32.462,23.33,31.852,22.408,30.594z M19.174,29.264c0.748,0.75,1.336,1.428,1.771,1.987h-3.757v-3.759
	C17.748,27.927,18.426,28.516,19.174,29.264L19.174,29.264z M21.875,48.049c0,0.211-0.18,0.391-0.392,0.391H3.515
	c-0.212,0-0.391-0.18-0.391-0.391V26.954c0-0.212,0.179-0.39,0.391-0.39h12.108v5.469c0,0.43,0.351,0.781,0.781,0.781h5.469v15.234
	H21.875z"/>
</svg>
