<?xml version="1.0" encoding="utf-8"?>
<!-- Generator: Adobe Illustrator 15.1.0, SVG Export Plug-In . SVG Version: 6.00 Build 0)  -->
<!DOCTYPE svg PUBLIC "-//W3C//DTD SVG 1.1//EN" "http://www.w3.org/Graphics/SVG/1.1/DTD/svg11.dtd">
<svg version="1.1" id="圖層_1" xmlns="http://www.w3.org/2000/svg" xmlns:xlink="http://www.w3.org/1999/xlink" x="0px" y="0px"
	 width="22px" height="22px" viewBox="0 0 22 22" enable-background="new 0 0 22 22" xml:space="preserve">
<title>gavel</title>
<path fill="#7F7F7F" d="M11,4.584L8.393,7.191h2.005v2.406h1.204V7.191h2.006L11,4.584L11,4.584z"/>
<path fill="#7F7F7F" d="M17.416,11.001l-2.605-2.606V10.4h-2.406v1.204h2.406v2.006L17.416,11.001L17.416,11.001z"/>
<path fill="#7F7F7F" d="M11,17.418l2.605-2.607h-2.004v-2.405h-1.205v2.405H8.393L11,17.418L11,17.418z"/>
<path fill="#7F7F7F" d="M4.583,11.001l2.607,2.606v-2.006h2.406V10.4H7.19V8.395L4.583,11.001L4.583,11.001z"/>
<path fill="#4E85C4" d="M19.719,4.923c-0.479-0.651-1.143-1.412-1.873-2.144c-0.729-0.731-1.49-1.395-2.143-1.873
	C14.596,0.095,14.059,0,13.75,0H3.094C2.146,0,1.375,0.771,1.375,1.719v18.563C1.375,21.229,2.146,22,3.094,22h15.813
	c0.946,0,1.719-0.771,1.719-1.718V6.875C20.625,6.567,20.531,6.029,19.719,4.923z M16.873,3.752
	c0.659,0.659,1.177,1.255,1.561,1.748h-3.309V2.193C15.618,2.575,16.215,3.093,16.873,3.752L16.873,3.752z M19.25,20.282
	c0,0.187-0.157,0.344-0.344,0.344H3.094c-0.187,0-0.344-0.157-0.344-0.344V1.719c0-0.186,0.157-0.343,0.344-0.343H13.75v4.813
	c0,0.378,0.309,0.688,0.688,0.688h4.813L19.25,20.282L19.25,20.282z"/>
</svg>
