<?xml version="1.0" encoding="utf-8"?>
<!-- Generator: Adobe Illustrator 15.1.0, SVG Export Plug-In . SVG Version: 6.00 Build 0)  -->
<!DOCTYPE svg PUBLIC "-//W3C//DTD SVG 1.1//EN" "http://www.w3.org/Graphics/SVG/1.1/DTD/svg11.dtd">
<svg version="1.1" id="圖層_1" xmlns="http://www.w3.org/2000/svg" xmlns:xlink="http://www.w3.org/1999/xlink" x="0px" y="0px"
	 width="22px" height="22px" viewBox="0 0 22 22" enable-background="new 0 0 22 22" xml:space="preserve">
<path fill="#E79D5E" d="M9.756,4.46H4.339c-0.125,0-0.226,0.101-0.226,0.226V6.04c0,0.124,0.101,0.226,0.226,0.226h0.225
	c0.125,0,0.226-0.102,0.226-0.226l0.451-0.677h1.354v5.417l-1.128,0.452c-0.125,0-0.227,0.101-0.227,0.226s0.101,0.226,0.227,0.226
	h3.159c0.125,0,0.226-0.102,0.226-0.226s-0.101-0.226-0.226-0.226L7.499,10.78V5.363h1.354L9.305,6.04
	c0,0.124,0.101,0.226,0.226,0.226h0.225c0.125,0,0.226-0.102,0.226-0.226V4.687C9.982,4.561,9.881,4.46,9.756,4.46z"/>
<path fill="#4E85C4" d="M19.721,4.922c-0.479-0.65-1.143-1.412-1.873-2.143s-1.492-1.396-2.144-1.873
	C14.598,0.094,14.061,0,13.752,0H3.094C2.146,0,1.375,0.771,1.375,1.719v18.563C1.375,21.229,2.146,22,3.094,22h15.812
	c0.947,0,1.719-0.771,1.719-1.718V6.875C20.626,6.567,20.532,6.029,19.721,4.922z M16.875,3.751c0.659,0.66,1.177,1.255,1.559,1.749
	h-3.308V2.192C15.619,2.574,16.216,3.092,16.875,3.751z M19.251,20.282c0,0.186-0.157,0.344-0.343,0.344H3.094
	c-0.188,0-0.344-0.158-0.344-0.344V1.719c0-0.187,0.157-0.344,0.344-0.344h10.657v4.813c0,0.379,0.308,0.688,0.687,0.688h4.813
	V20.282L19.251,20.282z"/>
<path fill="#7F7F7F" d="M10.064,10.554c0-0.077,0.025-0.141,0.075-0.19c0.049-0.049,0.112-0.076,0.191-0.076h7.292
	c0.078,0,0.142,0.025,0.19,0.076c0.051,0.049,0.074,0.113,0.074,0.19v0.892c0,0.078-0.025,0.142-0.074,0.191
	c-0.049,0.051-0.112,0.074-0.19,0.074H10.33c-0.078,0-0.143-0.023-0.191-0.074c-0.05-0.049-0.075-0.113-0.075-0.191V10.554z"/>
<path fill="#7F7F7F" d="M4.53,14.014c0-0.076,0.026-0.143,0.075-0.19c0.049-0.05,0.113-0.075,0.191-0.075h12.827
	c0.078,0,0.143,0.025,0.191,0.075c0.049,0.049,0.074,0.112,0.074,0.19v0.893c0,0.076-0.025,0.142-0.074,0.191
	c-0.051,0.049-0.113,0.072-0.191,0.072H4.796c-0.078,0-0.142-0.023-0.191-0.072c-0.049-0.051-0.075-0.115-0.075-0.191V14.014
	L4.53,14.014z"/>
<path fill="#7F7F7F" d="M4.53,17.473c0-0.076,0.026-0.143,0.075-0.189c0.049-0.051,0.113-0.076,0.191-0.076h12.827
	c0.078,0,0.143,0.025,0.191,0.076c0.049,0.048,0.074,0.111,0.074,0.189v0.893c0,0.076-0.025,0.142-0.074,0.191
	c-0.051,0.049-0.113,0.072-0.191,0.072H4.796c-0.078,0-0.142-0.023-0.191-0.072c-0.049-0.051-0.075-0.115-0.075-0.191V17.473
	L4.53,17.473z"/>
</svg>
