<?xml version="1.0" encoding="utf-8"?>
<!-- Generator: Adobe Illustrator 15.1.0, SVG Export Plug-In . SVG Version: 6.00 Build 0)  -->
<!DOCTYPE svg PUBLIC "-//W3C//DTD SVG 1.1//EN" "http://www.w3.org/Graphics/SVG/1.1/DTD/svg11.dtd">
<svg version="1.1" id="圖層_1" xmlns="http://www.w3.org/2000/svg" xmlns:xlink="http://www.w3.org/1999/xlink" x="0px" y="0px"
	 width="25px" height="25px" viewBox="-383.5 316.5 25 25" enable-background="new -383.5 316.5 25 25" xml:space="preserve">
<title>full-page-text</title>
<path fill="#2F8AC1" d="M-372.414,321.568h-6.156c-0.143,0-0.256,0.115-0.256,0.257v1.539c0,0.142,0.115,0.257,0.256,0.257h0.256
	c0.142,0,0.256-0.115,0.256-0.257l0.513-0.771h1.539v6.156l-1.282,0.514c-0.143,0-0.257,0.114-0.257,0.256s0.115,0.256,0.257,0.256
	h3.59c0.143,0,0.257-0.114,0.257-0.256s-0.115-0.256-0.257-0.256l-1.282-0.514v-6.156h1.539l0.513,0.771
	c0,0.142,0.115,0.257,0.256,0.257h0.255c0.142,0,0.257-0.115,0.257-0.257v-1.539C-372.157,321.684-372.272,321.568-372.414,321.568z
	"/>
<path fill="#2F8AC1" d="M-361.091,322.093c-0.543-0.739-1.298-1.604-2.128-2.435c-0.831-0.831-1.695-1.586-2.436-2.128
	c-1.259-0.923-1.869-1.03-2.219-1.03h-12.11c-1.077,0-1.954,0.876-1.954,1.953v21.095c0,1.075,0.877,1.952,1.954,1.952h17.968
	c1.076,0,1.953-0.877,1.953-1.952v-15.234C-360.062,323.962-360.168,323.352-361.091,322.093z M-364.325,320.763
	c0.75,0.749,1.337,1.426,1.772,1.986h-3.759v-3.757C-365.751,319.425-365.074,320.013-364.325,320.763z M-361.624,339.548
	c0,0.211-0.179,0.391-0.39,0.391h-17.97c-0.213,0-0.391-0.18-0.391-0.391v-21.095c0-0.212,0.179-0.391,0.391-0.391h12.109v5.469
	c0,0.431,0.35,0.782,0.781,0.782h5.469L-361.624,339.548L-361.624,339.548z"/>
<path fill="#2F8AC1" d="M-372.063,328.493c0-0.087,0.029-0.161,0.085-0.217c0.056-0.056,0.128-0.086,0.217-0.086h8.286
	c0.089,0,0.162,0.029,0.218,0.086c0.056,0.058,0.083,0.129,0.083,0.217v1.014c0,0.088-0.028,0.161-0.083,0.217
	c-0.057,0.057-0.129,0.084-0.218,0.084h-8.286c-0.088,0-0.161-0.027-0.217-0.084c-0.056-0.056-0.085-0.129-0.085-0.217V328.493z"/>
<path fill="#2F8AC1" d="M-378.353,332.424c0-0.087,0.029-0.161,0.085-0.216c0.056-0.058,0.128-0.086,0.217-0.086h14.575
	c0.089,0,0.162,0.028,0.218,0.086c0.056,0.055,0.083,0.128,0.083,0.216v1.014c0,0.088-0.028,0.161-0.083,0.218
	c-0.057,0.056-0.129,0.083-0.218,0.083h-14.574c-0.088,0-0.161-0.027-0.217-0.083c-0.056-0.057-0.084-0.13-0.084-0.218
	L-378.353,332.424L-378.353,332.424z"/>
<path fill="#2F8AC1" d="M-378.353,336.354c0-0.087,0.029-0.161,0.085-0.216c0.056-0.057,0.128-0.086,0.217-0.086h14.575
	c0.089,0,0.162,0.029,0.218,0.086c0.056,0.055,0.083,0.128,0.083,0.216v1.014c0,0.088-0.028,0.161-0.083,0.218
	c-0.057,0.056-0.129,0.083-0.218,0.083h-14.574c-0.088,0-0.161-0.027-0.217-0.083c-0.056-0.057-0.084-0.129-0.084-0.218
	L-378.353,336.354L-378.353,336.354z"/>
</svg>
