<?xml version="1.0" encoding="utf-8"?>
<!-- Generator: Adobe Illustrator 15.1.0, SVG Export Plug-In . SVG Version: 6.00 Build 0)  -->
<!DOCTYPE svg PUBLIC "-//W3C//DTD SVG 1.1//EN" "http://www.w3.org/Graphics/SVG/1.1/DTD/svg11.dtd">
<svg version="1.1" id="圖層_1" xmlns="http://www.w3.org/2000/svg" xmlns:xlink="http://www.w3.org/1999/xlink" x="0px" y="0px"
	 width="25px" height="25px" viewBox="-385.5 316.5 25 25" enable-background="new -385.5 316.5 25 25" xml:space="preserve">
<title>gear</title>
<path fill="#FFFFFF" d="M-373.003,324.48c-2.495,0-4.519,2.025-4.519,4.521c0,2.493,2.024,4.521,4.519,4.521
	s4.504-2.027,4.504-4.521C-368.499,326.506-370.508,324.48-373.003,324.48z M-363.943,331.598l-0.814,1.962l1.646,3.229
	l-2.015,2.014l-3.304-1.561l-1.962,0.805l-0.995,3.049l-0.128,0.404h-2.846l-1.232-3.441l-1.962-0.809l-3.234,1.638l-2.014-2.014
	l1.559-3.305l-0.808-1.961l-3.446-1.124v-2.846l3.443-1.234l0.808-1.958l-1.448-2.858l-0.191-0.375l2.011-2.011l3.309,1.558
	l1.959-0.81l0.995-3.047l0.128-0.403h2.847l1.233,3.445l1.957,0.809l3.239-1.641l2.012,2.011l-1.559,3.304l0.805,1.963l3.453,1.123
	v2.844l-3.441,1.239L-363.943,331.598z"/>
</svg>
