<?xml version="1.0" encoding="utf-8"?>
<!-- Generator: Adobe Illustrator 15.1.0, SVG Export Plug-In . SVG Version: 6.00 Build 0)  -->
<!DOCTYPE svg PUBLIC "-//W3C//DTD SVG 1.1//EN" "http://www.w3.org/Graphics/SVG/1.1/DTD/svg11.dtd">
<svg version="1.1" id="圖層_1" xmlns="http://www.w3.org/2000/svg" xmlns:xlink="http://www.w3.org/1999/xlink" x="0px" y="0px"
	 width="22px" height="22px" viewBox="0 0 22 22" enable-background="new 0 0 22 22" xml:space="preserve">
<path fill="#4E85C4" d="M10.998,7.023c-2.195,0-3.977,1.781-3.977,3.979c0,2.193,1.781,3.979,3.977,3.979
	c2.195,0,3.963-1.783,3.963-3.979C14.961,8.805,13.193,7.023,10.998,7.023z M18.969,13.286l-0.717,1.728l1.449,2.842l-1.773,1.771
	l-2.908-1.374l-1.727,0.709l-0.875,2.683L12.305,22H9.8l-1.083-3.027L6.991,18.26l-2.847,1.441L2.373,17.93l1.372-2.908
	l-0.711-1.726L0,12.307V9.802l3.03-1.086l0.711-1.723L2.467,4.477l-0.168-0.33l1.77-1.77L6.98,3.749l1.724-0.713l0.876-2.68L9.692,0
	h2.505l1.086,3.031l1.721,0.713l2.85-1.444l1.771,1.769l-1.373,2.907l0.709,1.727L22,9.691v2.502l-3.029,1.092L18.969,13.286z"/>
<circle fill="#7F7F7F" cx="11" cy="11" r="2.5"/>
</svg>
