<?xml version="1.0" encoding="utf-8"?>
<!-- Generator: Adobe Illustrator 15.1.0, SVG Export Plug-In . SVG Version: 6.00 Build 0)  -->
<!DOCTYPE svg PUBLIC "-//W3C//DTD SVG 1.1//EN" "http://www.w3.org/Graphics/SVG/1.1/DTD/svg11.dtd">
<svg version="1.1" id="圖層_1" xmlns="http://www.w3.org/2000/svg" xmlns:xlink="http://www.w3.org/1999/xlink" x="0px" y="0px"
	 width="40px" height="40px" viewBox="-383.5 316.5 40 40" enable-background="new -383.5 316.5 40 40" xml:space="preserve">
<title>go-top</title>
<path fill="#FFFFFF" d="M-357.617,341.872l-5.363-7.802c0,0-0.217-0.303-0.521-0.303c-0.303,0-0.519,0.303-0.519,0.303l-5.365,7.802
	c-0.411,0.62-0.107,1.128,0.679,1.128h10.41C-357.508,343-357.204,342.492-357.617,341.872L-357.617,341.872z M-357,332.168v-1.085
	c0-0.599-0.052-1.083-0.65-1.083h-11.7c-0.598,0-0.65,0.484-0.65,1.083v1.085c0,0.598,0.052,1.082,0.649,1.082h11.7
	C-357.052,333.25-357,332.766-357,332.168z"/>
</svg>
