<?xml version="1.0" encoding="utf-8"?>
<!-- Generator: Adobe Illustrator 15.1.0, SVG Export Plug-In . SVG Version: 6.00 Build 0)  -->
<!DOCTYPE svg PUBLIC "-//W3C//DTD SVG 1.1//EN" "http://www.w3.org/Graphics/SVG/1.1/DTD/svg11.dtd">
<svg version="1.1" id="圖層_1" xmlns="http://www.w3.org/2000/svg" xmlns:xlink="http://www.w3.org/1999/xlink" x="0px" y="0px"
	 width="18px" height="18px" viewBox="-137.5 162.5 18 18" enable-background="new -137.5 162.5 18 18" xml:space="preserve">
<title>loader</title>
<g>
	<path fill="#0F5D8A" d="M-124.125,171.25c-0.314,0-0.534,0.22-0.534,0.533v1.638c0,0.313,0.22,0.533,0.534,0.533
		s0.534-0.22,0.534-0.533v-1.638C-123.591,171.47-123.811,171.25-124.125,171.25z"/>
	<path fill="#0F5D8A" d="M-124.125,177.796c-0.314,0-0.534,0.22-0.534,0.533v1.638c0,0.313,0.22,0.533,0.534,0.533
		s0.534-0.22,0.534-0.533v-1.638C-123.591,178.016-123.811,177.796-124.125,177.796z"/>
	<path fill="#0F5D8A" d="M-126.259,174.491c0.11,0.109,0.268,0.158,0.375,0.158s0.265-0.049,0.375-0.159
		c0.213-0.213,0.213-0.536,0-0.75l-1.146-1.145c-0.103-0.104-0.236-0.16-0.375-0.16c-0.139,0-0.272,0.057-0.375,0.16
		c-0.213,0.214-0.213,0.536,0,0.749L-126.259,174.491z"/>
	<path fill="#0F5D8A" d="M-122.032,177.218c-0.206-0.205-0.544-0.205-0.75,0c-0.103,0.104-0.16,0.237-0.16,0.377
		c0,0.139,0.057,0.271,0.16,0.374l1.145,1.144c0.116,0.117,0.275,0.159,0.376,0.159c0.108,0,0.267-0.049,0.374-0.158
		c0.103-0.103,0.159-0.235,0.159-0.375c0-0.139-0.057-0.271-0.159-0.374L-122.032,177.218z"/>
	<path fill="#0F5D8A" d="M-126.046,175.875c0-0.313-0.219-0.533-0.533-0.533h-1.637c-0.314,0-0.534,0.22-0.534,0.533
		s0.22,0.533,0.534,0.533h1.637C-126.265,176.408-126.046,176.188-126.046,175.875z"/>
	<path fill="#0F5D8A" d="M-120.034,175.342h-1.637c-0.314,0-0.533,0.22-0.533,0.533s0.219,0.533,0.533,0.533h1.637
		c0.314,0,0.534-0.22,0.534-0.533S-119.72,175.342-120.034,175.342z"/>
	<path fill="#0F5D8A" d="M-126.218,177.218l-1.146,1.146c-0.103,0.104-0.16,0.237-0.16,0.376s0.057,0.271,0.159,0.373
		c0.108,0.11,0.267,0.159,0.375,0.159c0.101,0,0.26-0.042,0.375-0.158l1.146-1.145c0.213-0.214,0.213-0.536,0-0.751
		C-125.677,177.012-126.08,177.031-126.218,177.218z"/>
	<path fill="#0F5D8A" d="M-122.407,174.691c0.147,0,0.263-0.049,0.375-0.16l1.145-1.146c0.213-0.214,0.213-0.536,0-0.748
		c-0.205-0.207-0.543-0.206-0.75-0.001l-1.145,1.145c-0.103,0.103-0.16,0.235-0.16,0.374c0,0.14,0.057,0.273,0.16,0.377
		C-122.67,174.643-122.513,174.691-122.407,174.691z"/>
</g>
<path fill="#0F5D8A" d="M-130.688,168.125h-2.875c-0.31,0-0.562-0.252-0.562-0.563s0.252-0.563,0.562-0.563h2.875
	c0.31,0,0.562,0.252,0.562,0.563S-130.377,168.125-130.688,168.125z"/>
<path fill="#0F5D8A" d="M-130.688,173.125h-2.875c-0.31,0-0.562-0.252-0.562-0.563s0.252-0.563,0.562-0.563h2.875
	c0.31,0,0.562,0.252,0.562,0.563S-130.377,173.125-130.688,173.125z"/>
<path fill="#0F5D8A" d="M-125.688,170.625h-7.875c-0.31,0-0.562-0.252-0.562-0.563s0.252-0.563,0.562-0.563h7.875
	c0.31,0,0.562,0.252,0.562,0.563S-125.377,170.625-125.688,170.625z"/>
<g>
	<path fill="#0F5D8A" d="M-128.22,180.2c-0.23-0.228-0.387-0.515-0.475-0.825h-7.399c-0.152,0-0.281-0.129-0.281-0.281v-15.188
		c0-0.152,0.129-0.281,0.281-0.281c0,0,8.718,0,8.719,0v3.938c0,0.311,0.252,0.563,0.563,0.563h3.938v2.239
		c0.376,0.272,0.649,0.675,0.745,1.151c0.119-0.074,0.249-0.124,0.38-0.171v-3.22c0-0.252-0.077-0.692-0.742-1.599
		c-0.391-0.532-0.935-1.154-1.533-1.752c-0.597-0.598-1.22-1.142-1.753-1.532c-0.907-0.665-1.346-0.742-1.598-0.742h-8.719
		c-0.775,0-1.406,0.631-1.406,1.406v15.188c0,0.774,0.631,1.406,1.406,1.406h8.274C-127.964,180.415-128.103,180.319-128.22,180.2z
		 M-126.25,164.294c0.404,0.313,0.891,0.736,1.43,1.276c0.54,0.538,0.963,1.025,1.276,1.43h-2.706V164.294z"/>
</g>
</svg>
