<?xml version="1.0" encoding="utf-8"?>
<!-- Generator: Adobe Illustrator 15.1.0, SVG Export Plug-In . SVG Version: 6.00 Build 0)  -->
<!DOCTYPE svg PUBLIC "-//W3C//DTD SVG 1.1//EN" "http://www.w3.org/Graphics/SVG/1.1/DTD/svg11.dtd">
<svg version="1.1" id="圖層_1" xmlns="http://www.w3.org/2000/svg" xmlns:xlink="http://www.w3.org/1999/xlink" x="0px" y="0px"
	 width="25px" height="25px" viewBox="-383.5 316.5 25 25" enable-background="new -383.5 316.5 25 25" xml:space="preserve">
<title>handwriting</title>
<path fill="#2F8AC1" d="M-364.191,324.475c0-0.37-0.331-1.098-0.961-1.098c-0.719,0-1.021,0.78-1.008,1.066
	c0.01,0.397-0.012,1.227-0.083,1.77l-0.277-2.768c0-0.532-0.396-1.18-1.086-1.18c-0.784,0-1.011,0.821-0.999,1.231
	c0.011,0.54-0.034,1.935-0.33,2.715l-0.134-4.338c0-0.776-0.418-1.584-1.057-1.416c-0.45,0.118-0.882,0.7-0.873,1.302
	c0.022,1.158-0.312,3.53-0.409,4.589l-0.394-7.499c0-1.238-0.27-2.35-0.943-2.35c-0.76,0-1.186,1.191-1.226,2.158
	c-0.166,3.958-0.119,11.741-0.119,11.741s-0.723-1.076-1.715-2.79c-0.487-0.835-1.449-1.149-1.874-0.871
	c-0.53,0.345-0.547,1.582-0.163,2.252c1.15,1.994,1.83,3.3,3.35,4.647c0.917,0.819,1.394,2.282,1.394,2.282h7.777
	c0.273-1.636,0.51-1.589,0.783-2.45c0.462-1.47,0.647-6.563,0.647-6.563L-364.191,324.475L-364.191,324.475z"/>
<path fill="#2F8AC1" d="M-372.797,336.942h8.096v0.592h-8.096V336.942z"/>
<path fill="#2F8AC1" d="M-373.099,338.322v3.178h8.629v-3.178H-373.099z M-365.458,341.143c-0.274,0-0.502-0.227-0.502-0.503
	c0-0.274,0.228-0.502,0.502-0.502c0.278,0,0.502,0.228,0.502,0.502C-364.956,340.916-365.18,341.143-365.458,341.143z"/>
</svg>
