<?xml version="1.0" encoding="utf-8"?>
<!-- Generator: Adobe Illustrator 15.1.0, SVG Export Plug-In . SVG Version: 6.00 Build 0)  -->
<!DOCTYPE svg PUBLIC "-//W3C//DTD SVG 1.1//EN" "http://www.w3.org/Graphics/SVG/1.1/DTD/svg11.dtd">
<svg version="1.1" id="圖層_1" xmlns="http://www.w3.org/2000/svg" xmlns:xlink="http://www.w3.org/1999/xlink" x="0px" y="0px"
	 width="22px" height="22px" viewBox="0 0 22 22" enable-background="new 0 0 22 22" xml:space="preserve">
<path fill="#4E85C4" d="M16.992,7.018c0-0.325-0.291-0.966-0.846-0.966c-0.633,0-0.898,0.688-0.889,0.939
	c0.01,0.35-0.011,1.08-0.072,1.557l-0.244-2.435c0-0.469-0.35-1.039-0.957-1.039c-0.688,0-0.889,0.723-0.879,1.084
	c0.011,0.475-0.029,1.702-0.289,2.389L12.698,4.73c0-0.683-0.368-1.394-0.931-1.247C11.372,3.587,10.993,4.099,11,4.628
	c0.02,1.02-0.274,3.107-0.36,4.039l-0.347-6.6C10.292,0.978,10.056,0,9.463,0C8.794,0,8.42,1.048,8.384,1.899
	C8.239,5.382,8.28,12.23,8.28,12.23s-0.636-0.946-1.51-2.455C6.341,9.042,5.495,8.765,5.122,9.009
	C4.656,9.313,4.64,10.402,4.978,10.99c1.012,1.755,1.61,2.904,2.947,4.09c0.807,0.721,1.227,2.009,1.227,2.009h6.844
	c0.24-1.438,0.449-1.397,0.688-2.155c0.407-1.295,0.569-5.775,0.569-5.775L16.992,7.018L16.992,7.018z"/>
<path fill="#E79D5E" d="M9.418,17.989h7.125v0.521H9.418V17.989z"/>
<rect x="9.153" y="19.203" fill="#7F7F7F" width="7.595" height="2.797"/>
<path fill="#F3F3F3" d="M15.878,21.686c-0.241,0-0.442-0.199-0.442-0.441c0-0.241,0.201-0.442,0.442-0.442
	c0.244,0,0.44,0.201,0.44,0.442C16.318,21.486,16.122,21.686,15.878,21.686z"/>
</svg>
