<?xml version="1.0" encoding="utf-8"?>
<!-- Generator: Adobe Illustrator 15.1.0, SVG Export Plug-In . SVG Version: 6.00 Build 0)  -->
<!DOCTYPE svg PUBLIC "-//W3C//DTD SVG 1.1//EN" "http://www.w3.org/Graphics/SVG/1.1/DTD/svg11.dtd">
<svg version="1.1" id="圖層_1" xmlns="http://www.w3.org/2000/svg" xmlns:xlink="http://www.w3.org/1999/xlink" x="0px" y="0px"
	 width="30px" height="30px" viewBox="-389.5 310.5 30 30" enable-background="new -389.5 310.5 30 30" xml:space="preserve">
<title>help</title>
<path fill="#63211C" d="M-369.956,316.869c-1.266-0.913-2.858-1.369-4.773-1.369c-1.457,0-2.687,0.321-3.686,0.964
	c-1.586,1.006-2.428,2.717-2.53,5.128h3.674c0-0.703,0.206-1.377,0.615-2.03c0.41-0.652,1.106-0.978,2.087-0.978
	c0.998,0,1.686,0.265,2.06,0.793c0.376,0.529,0.564,1.115,0.564,1.757c0,0.561-0.28,1.073-0.618,1.537
	c-0.186,0.271-0.431,0.521-0.735,0.749c0,0-1.992,1.277-2.867,2.305c-0.507,0.594-0.552,1.486-0.598,2.764
	c-0.002,0.092,0.033,0.28,0.35,0.28c0.318,0,2.575,0,2.856,0c0.285,0,0.344-0.21,0.347-0.304c0.02-0.465,0.072-0.703,0.156-0.973
	c0.161-0.508,0.598-0.95,1.088-1.332l1.01-0.697c0.914-0.712,1.642-1.295,1.964-1.753c0.549-0.751,0.935-1.678,0.935-2.778
	C-368.056,319.137-368.688,317.785-369.956,316.869z M-374.788,330.972c-1.266-0.039-2.31,0.837-2.351,2.211
	c-0.039,1.372,0.954,2.278,2.22,2.315c1.321,0.039,2.338-0.807,2.38-2.181C-372.502,331.943-373.465,331.011-374.788,330.972z"/>
</svg>
