<?xml version="1.0" encoding="utf-8"?>
<!-- Generator: Adobe Illustrator 15.1.0, SVG Export Plug-In . SVG Version: 6.00 Build 0)  -->
<!DOCTYPE svg PUBLIC "-//W3C//DTD SVG 1.1//EN" "http://www.w3.org/Graphics/SVG/1.1/DTD/svg11.dtd">
<svg version="1.1" id="圖層_1" xmlns="http://www.w3.org/2000/svg" xmlns:xlink="http://www.w3.org/1999/xlink" x="0px" y="0px"
	 width="30px" height="30px" viewBox="5.5 25.5 30 30" enable-background="new 5.5 25.5 30 30" xml:space="preserve">
<title>help</title>
<path fill="#B74E4E" d="M25.045,31.869c-1.266-0.913-2.857-1.369-4.773-1.369c-1.457,0-2.687,0.32-3.686,0.964
	c-1.586,1.007-2.428,2.718-2.53,5.128h3.674c0-0.703,0.205-1.377,0.614-2.029c0.41-0.652,1.106-0.979,2.087-0.979
	c0.998,0,1.687,0.266,2.061,0.793c0.376,0.529,0.564,1.115,0.564,1.757c0,0.562-0.281,1.073-0.619,1.537
	c-0.186,0.271-0.431,0.521-0.734,0.749c0,0-1.992,1.277-2.867,2.305c-0.507,0.594-0.552,1.486-0.598,2.764
	c-0.002,0.093,0.033,0.281,0.35,0.281c0.318,0,2.575,0,2.855,0c0.285,0,0.345-0.211,0.348-0.305c0.02-0.465,0.072-0.703,0.156-0.973
	c0.16-0.508,0.598-0.95,1.088-1.332l1.01-0.697c0.914-0.712,1.643-1.295,1.964-1.753c0.55-0.751,0.935-1.678,0.935-2.778
	C26.945,34.137,26.313,32.785,25.045,31.869z M20.213,45.973c-1.266-0.039-2.311,0.836-2.352,2.211
	c-0.038,1.371,0.955,2.277,2.221,2.314c1.32,0.039,2.338-0.807,2.38-2.182C22.499,46.943,21.536,46.011,20.213,45.973z"/>
</svg>
