<?xml version="1.0" encoding="utf-8"?>
<!-- Generator: Adobe Illustrator 15.1.0, SVG Export Plug-In . SVG Version: 6.00 Build 0)  -->
<!DOCTYPE svg PUBLIC "-//W3C//DTD SVG 1.1//EN" "http://www.w3.org/Graphics/SVG/1.1/DTD/svg11.dtd">
<svg version="1.1" id="圖層_1" xmlns="http://www.w3.org/2000/svg" xmlns:xlink="http://www.w3.org/1999/xlink" x="0px" y="0px"
	 width="30px" height="30px" viewBox="-386.5 314.5 30 30" enable-background="new -386.5 314.5 30 30" xml:space="preserve">
<title>home</title>
<path fill="#AB4A08" d="M-362.568,331.012v7.443c0,0.269-0.099,0.501-0.295,0.696c-0.196,0.197-0.429,0.295-0.697,0.295h-5.955
	v-5.954h-3.969v5.954h-5.955c-0.269,0-0.501-0.098-0.698-0.295c-0.196-0.195-0.294-0.428-0.294-0.696v-7.443
	c0-0.01,0.002-0.027,0.008-0.047c0.005-0.021,0.008-0.036,0.008-0.046l8.916-7.35l8.915,7.35
	C-362.574,330.938-362.568,330.97-362.568,331.012z M-359.11,329.942l-0.961,1.147c-0.083,0.093-0.192,0.148-0.326,0.171h-0.046
	c-0.135,0-0.243-0.037-0.326-0.11l-10.731-8.945l-10.73,8.945c-0.124,0.083-0.248,0.12-0.373,0.11
	c-0.134-0.022-0.243-0.078-0.326-0.171l-0.961-1.147c-0.083-0.103-0.119-0.225-0.109-0.364c0.011-0.142,0.068-0.252,0.171-0.335
	l11.148-9.287c0.331-0.269,0.724-0.402,1.179-0.402c0.456,0,0.848,0.134,1.179,0.402l3.784,3.162v-3.022
	c0-0.146,0.046-0.264,0.14-0.356c0.093-0.093,0.212-0.14,0.356-0.14h2.977c0.145,0,0.264,0.047,0.356,0.14
	c0.092,0.093,0.14,0.212,0.14,0.356v6.325l3.395,2.822c0.104,0.083,0.161,0.193,0.171,0.335
	C-358.991,329.718-359.027,329.84-359.11,329.942L-359.11,329.942z"/>
<path fill="#AA4946" d="M-300.889,325.793l-7.35-5.775v3.15h-3.151v5.251h3.151v3.15L-300.889,325.793z"/>
</svg>
