<?xml version="1.0" encoding="utf-8"?>
<!-- Generator: Adobe Illustrator 15.1.0, SVG Export Plug-In . SVG Version: 6.00 Build 0)  -->
<!DOCTYPE svg PUBLIC "-//W3C//DTD SVG 1.1//EN" "http://www.w3.org/Graphics/SVG/1.1/DTD/svg11.dtd">
<svg version="1.1" id="圖層_1" xmlns="http://www.w3.org/2000/svg" xmlns:xlink="http://www.w3.org/1999/xlink" x="0px" y="0px"
	 width="30px" height="30px" viewBox="5.5 25.5 30 30" enable-background="new 5.5 25.5 30 30" xml:space="preserve">
<title>home</title>
<path fill="#B74E4E" d="M29.433,42.012v7.443c0,0.27-0.099,0.501-0.295,0.695c-0.196,0.197-0.429,0.295-0.697,0.295h-5.955v-5.953
	h-3.969v5.953h-5.955c-0.269,0-0.501-0.098-0.698-0.295c-0.196-0.194-0.294-0.428-0.294-0.695v-7.443
	c0-0.01,0.002-0.027,0.008-0.047c0.005-0.021,0.008-0.035,0.008-0.046l8.916-7.351l8.916,7.351
	C29.427,41.938,29.433,41.971,29.433,42.012z M32.891,40.941l-0.961,1.147c-0.083,0.093-0.191,0.147-0.326,0.171h-0.046
	c-0.135,0-0.243-0.037-0.326-0.109L20.5,33.205L9.771,42.15c-0.124,0.082-0.248,0.119-0.373,0.109
	c-0.134-0.021-0.243-0.078-0.326-0.171l-0.961-1.147c-0.083-0.103-0.119-0.225-0.109-0.363c0.011-0.143,0.068-0.252,0.171-0.335
	l11.148-9.287c0.331-0.269,0.724-0.401,1.179-0.401c0.456,0,0.849,0.133,1.18,0.401l3.783,3.162v-3.022
	c0-0.146,0.046-0.264,0.141-0.355c0.093-0.094,0.212-0.141,0.355-0.141h2.978c0.146,0,0.265,0.047,0.356,0.141
	c0.092,0.093,0.14,0.212,0.14,0.355v6.325l3.396,2.822c0.104,0.083,0.161,0.192,0.171,0.335
	C33.01,40.718,32.974,40.84,32.891,40.941L32.891,40.941z"/>
</svg>
