<?xml version="1.0" encoding="utf-8"?>
<!-- Generator: Adobe Illustrator 15.1.0, SVG Export Plug-In . SVG Version: 6.00 Build 0)  -->
<!DOCTYPE svg PUBLIC "-//W3C//DTD SVG 1.1//EN" "http://www.w3.org/Graphics/SVG/1.1/DTD/svg11.dtd">
<svg version="1.1" id="圖層_1" xmlns="http://www.w3.org/2000/svg" xmlns:xlink="http://www.w3.org/1999/xlink" x="0px" y="0px"
	 width="22px" height="22px" viewBox="-825.5 1206.5 22 22" enable-background="new -825.5 1206.5 22 22" xml:space="preserve">
<title>inbox</title>
<path fill="#C4C4C4" d="M-817.811,1225.189h6.621v-0.828h-6.621V1225.189z M-818.638,1223.534h8.276v-0.828h-8.276V1223.534z"/>
<path fill="#7F7F7F" d="M-819.177,1215.242l3.784,3.783c0.118,0.116,0.256,0.21,0.412,0.271c0.308,0.13,0.656,0.13,0.964,0
	c0.156-0.062,0.292-0.153,0.41-0.271l3.784-3.783c0.493-0.494,0.493-1.289,0-1.783c-0.245-0.247-0.57-0.369-0.893-0.369
	c-0.321,0-0.646,0.122-0.892,0.369l-1.629,1.63v-7.438h-0.012c-0.055-0.644-0.589-1.15-1.25-1.15c-0.661,0-1.195,0.507-1.25,1.15
	h-0.015v7.438l-1.63-1.63c-0.247-0.247-0.571-0.369-0.893-0.369c-0.321,0-0.645,0.122-0.892,0.369
	C-819.669,1213.953-819.669,1214.752-819.177,1215.242z"/>
<path fill="#4E85C4" d="M-808.152,1217.106l-0.655,0.655l3.078,4.933l-3.419,0.03l-1.698,3.313l-7.109-0.018l-1.824-3.308
	l-3.382-0.019l3.056-4.845l-0.675-0.675l-3.651,5.532v4.138c0,0.915,0.741,1.656,1.655,1.656h16.552
	c0.914,0,1.655-0.741,1.655-1.656v-4.138L-808.152,1217.106z"/>
</svg>
