<?xml version="1.0" encoding="utf-8"?>
<!-- Generator: Adobe Illustrator 15.1.0, SVG Export Plug-In . SVG Version: 6.00 Build 0)  -->
<!DOCTYPE svg PUBLIC "-//W3C//DTD SVG 1.1//EN" "http://www.w3.org/Graphics/SVG/1.1/DTD/svg11.dtd">
<svg version="1.1" id="圖層_1" xmlns="http://www.w3.org/2000/svg" xmlns:xlink="http://www.w3.org/1999/xlink" x="0px" y="0px"
	 width="18px" height="18px" viewBox="0 0 18 18" enable-background="new 0 0 18 18" xml:space="preserve">
<path fill="#327CCB" d="M10.462,12.766c-0.004,0.002-0.35,0.116-0.649,0.116c-0.166,0-0.232-0.034-0.254-0.049
	c-0.105-0.073-0.3-0.21,0.034-0.875l0.625-1.246c0.37-0.74,0.425-1.456,0.153-2.016c-0.223-0.458-0.65-0.772-1.201-0.885
	C8.973,7.771,8.771,7.75,8.572,7.75c-1.156,0-1.934,0.675-1.966,0.704C6.494,8.553,6.468,8.716,6.542,8.845
	c0.075,0.129,0.229,0.188,0.372,0.139c0.003-0.001,0.349-0.117,0.649-0.117c0.165,0,0.23,0.034,0.251,0.049
	C7.92,8.989,8.116,9.128,7.782,9.792l-0.625,1.247c-0.371,0.74-0.425,1.456-0.153,2.015c0.223,0.459,0.649,0.773,1.201,0.886
	C8.401,13.979,8.603,14,8.801,14c1.156,0,1.934-0.675,1.967-0.703c0.112-0.099,0.138-0.263,0.063-0.392
	C10.758,12.777,10.602,12.72,10.462,12.766z"/>
<path fill="#327CCB" d="M11.5,5.563c0,0.863-0.699,1.563-1.563,1.563s-1.563-0.7-1.563-1.563c0-0.863,0.699-1.563,1.563-1.563
	S11.5,4.7,11.5,5.563z"/>
<path fill="#327CCB" d="M9,1.5c4.136,0,7.5,3.364,7.5,7.5s-3.364,7.5-7.5,7.5S1.5,13.136,1.5,9S4.864,1.5,9,1.5 M9,0
	C4.029,0,0,4.029,0,9s4.029,9,9,9s9-4.029,9-9S13.971,0,9,0L9,0z"/>
</svg>
