<?xml version="1.0" encoding="utf-8"?>
<!-- Generator: Adobe Illustrator 15.1.0, SVG Export Plug-In . SVG Version: 6.00 Build 0)  -->
<!DOCTYPE svg PUBLIC "-//W3C//DTD SVG 1.1//EN" "http://www.w3.org/Graphics/SVG/1.1/DTD/svg11.dtd">
<svg version="1.1" id="圖層_1" xmlns="http://www.w3.org/2000/svg" xmlns:xlink="http://www.w3.org/1999/xlink" x="0px" y="0px"
	 width="22px" height="22px" viewBox="0 0 22 22" enable-background="new 0 0 22 22" xml:space="preserve">
<path fill="#4E85C4" d="M2.031,14.375c-0.611,0-1.102-0.176-1.473-0.523C0.186,13.501,0,13.041,0,12.47
	c0-0.601,0.168-1.082,0.503-1.444c0.336-0.361,0.824-0.589,1.467-0.682l1.146-0.156c0.298-0.042,0.546-0.11,0.745-0.207
	c0.085-0.04,0.15-0.114,0.198-0.219C4.105,9.658,4.123,9.55,4.11,9.44C4.087,9.254,3.99,9.109,3.824,9.004
	C3.627,8.879,3.343,8.816,2.971,8.816c-0.332,0-0.59,0.079-0.776,0.242C2.009,9.22,1.909,9.448,1.897,9.742H0.23
	c0.037-0.77,0.299-1.348,0.788-1.732c0.489-0.384,1.207-0.575,2.151-0.575c0.82,0,1.468,0.173,1.942,0.519
	C5.586,8.299,5.824,8.772,5.824,9.37v3.688c0,0.297,0.024,0.502,0.073,0.621c0.049,0.12,0.146,0.215,0.292,0.282v0.244H4.31v-0.007
	c-0.077-0.268-0.127-0.527-0.152-0.782l-0.005-0.013C3.607,14.052,2.9,14.375,2.031,14.375L2.031,14.375z M4.122,11.77v-0.76
	c-0.202,0.115-0.469,0.204-0.8,0.273l-0.643,0.12c-0.303,0.057-0.533,0.16-0.69,0.313c-0.157,0.15-0.236,0.343-0.236,0.571
	c0,0.264,0.071,0.471,0.212,0.618c0.141,0.149,0.34,0.225,0.594,0.225c0.557,0,1.001-0.196,1.333-0.588
	c0.065-0.077,0.12-0.19,0.164-0.34c0.044-0.15,0.066-0.295,0.066-0.437V11.77z"/>
<path fill="#4E85C4" d="M9.172,5.294h1.74v3.178l0.034-0.05c0.47-0.658,1.089-0.987,1.855-0.987c0.836,0,1.51,0.309,2.02,0.928
	c0.51,0.619,0.765,1.433,0.765,2.442c0,1.07-0.255,1.935-0.765,2.589c-0.51,0.653-1.184,0.98-2.02,0.98
	c-0.763,0-1.382-0.307-1.855-0.922l-0.072-0.098v0.849H9.172V5.294L9.172,5.294z M12.305,12.943c0.471,0,0.836-0.174,1.098-0.524
	c0.264-0.349,0.396-0.836,0.396-1.458c0-0.634-0.133-1.13-0.396-1.487c-0.262-0.356-0.625-0.536-1.09-0.536S11.484,9.122,11.22,9.49
	c-0.262,0.366-0.393,0.879-0.393,1.532c0,0.603,0.132,1.074,0.393,1.414C11.479,12.773,11.84,12.943,12.305,12.943L12.305,12.943z"
	/>
<path fill="#4E85C4" d="M22,11.762c-0.089,0.821-0.395,1.461-0.915,1.924c-0.521,0.459-1.2,0.689-2.036,0.689
	c-0.999,0-1.77-0.297-2.313-0.893c-0.543-0.594-0.814-1.439-0.814-2.539c0-1.075,0.282-1.929,0.846-2.561
	c0.563-0.633,1.325-0.949,2.282-0.949c0.849,0,1.543,0.234,2.084,0.702c0.541,0.47,0.831,1.086,0.867,1.85H20.23
	c-0.017-0.327-0.131-0.593-0.348-0.794C19.664,8.99,19.389,8.89,19.049,8.89c-0.438,0-0.77,0.175-0.998,0.523
	c-0.228,0.35-0.342,0.859-0.342,1.531c0,0.656,0.114,1.151,0.342,1.494c0.229,0.343,0.563,0.514,0.998,0.514
	c0.314,0,0.582-0.109,0.799-0.327c0.221-0.218,0.346-0.507,0.383-0.862H22L22,11.762z"/>
<path fill="#E79D5E" d="M5.524,16.707l2.16-3.74l2.159,3.74H5.524z"/>
</svg>
