<?xml version="1.0" encoding="utf-8"?>
<!-- Generator: Adobe Illustrator 15.1.0, SVG Export Plug-In . SVG Version: 6.00 Build 0)  -->
<!DOCTYPE svg PUBLIC "-//W3C//DTD SVG 1.1//EN" "http://www.w3.org/Graphics/SVG/1.1/DTD/svg11.dtd">
<svg version="1.1" id="圖層_1" xmlns="http://www.w3.org/2000/svg" xmlns:xlink="http://www.w3.org/1999/xlink" x="0px" y="0px"
	 width="22px" height="22px" viewBox="0 0 22 22" enable-background="new 0 0 22 22" xml:space="preserve">
<path fill="#E79D5E" d="M6.792,9.244c-0.209,0-0.376-0.167-0.375-0.376l0.11-7.638c0.004-0.209,0.127-0.259,0.275-0.11L8.22,2.538
	c0.148,0.148,0.409,0.167,0.576,0.043c0,0,7.214-5.247,13.205-0.777c0,0-8.099-0.336-9.448,5.316l1.799,1.8
	c0.146,0.146,0.098,0.269-0.113,0.272L6.792,9.244z"/>
<path fill="#4E85C4" d="M17.757,3.667h-0.188C16.829,4.14,16.162,4.74,15.642,5.5h1.775v14.667H1.833V5.5h1.889l0.026-1.833H1.493
	C0.671,3.667,0,4.338,0,5.159v15.349C0,21.328,0.671,22,1.493,22h16.264c0.821,0,1.493-0.672,1.493-1.492V5.159
	C19.25,4.338,18.578,3.667,17.757,3.667z"/>
<rect x="4.583" y="12.375" fill="#7F7F7F" width="9.167" height="1.833"/>
<rect x="4.583" y="16.5" fill="#7F7F7F" width="9.167" height="1.833"/>
</svg>
