<?xml version="1.0" encoding="utf-8"?>
<!-- Generator: Adobe Illustrator 15.1.0, SVG Export Plug-In . SVG Version: 6.00 Build 0)  -->
<!DOCTYPE svg PUBLIC "-//W3C//DTD SVG 1.1//EN" "http://www.w3.org/Graphics/SVG/1.1/DTD/svg11.dtd">
<svg version="1.1" id="圖層_1" xmlns="http://www.w3.org/2000/svg" xmlns:xlink="http://www.w3.org/1999/xlink" x="0px" y="0px"
	 width="25px" height="25px" viewBox="-383.5 316.5 25 25" enable-background="new -383.5 316.5 25 25" xml:space="preserve">
<title>insertword</title>
<path fill="#2F8AC1" d="M-381.392,332.389c-0.633,0-1.143-0.182-1.529-0.544c-0.386-0.363-0.579-0.841-0.579-1.433
	c0-0.625,0.174-1.125,0.522-1.501c0.349-0.375,0.856-0.61,1.523-0.707l1.189-0.163c0.31-0.043,0.568-0.113,0.774-0.215
	c0.089-0.042,0.157-0.118,0.205-0.227s0.066-0.22,0.054-0.333c-0.025-0.193-0.124-0.344-0.296-0.453
	c-0.206-0.131-0.501-0.195-0.888-0.195c-0.344,0-0.612,0.083-0.805,0.251c-0.193,0.168-0.296,0.405-0.309,0.711h-1.73
	c0.038-0.8,0.31-1.4,0.818-1.799s1.252-0.598,2.233-0.598c0.852,0,1.523,0.18,2.017,0.538c0.493,0.358,0.74,0.85,0.74,1.471v3.83
	c0,0.307,0.025,0.521,0.076,0.646s0.151,0.222,0.303,0.293v0.252h-1.951v-0.006c-0.08-0.277-0.132-0.548-0.157-0.813l-0.006-0.013
	C-379.755,332.054-380.49,332.389-381.392,332.389L-381.392,332.389z M-379.221,329.683v-0.786
	c-0.209,0.118-0.487,0.211-0.831,0.283l-0.666,0.125c-0.315,0.059-0.554,0.166-0.717,0.324c-0.163,0.157-0.245,0.355-0.245,0.594
	c0,0.273,0.073,0.487,0.22,0.642c0.147,0.155,0.353,0.233,0.617,0.233c0.579,0,1.041-0.205,1.384-0.61
	c0.067-0.08,0.125-0.197,0.17-0.353C-379.245,329.979-379.221,329.828-379.221,329.683L-379.221,329.683z"/>
<path fill="#2F8AC1" d="M-372.337,322.963h1.807v3.297l0.037-0.051c0.486-0.684,1.129-1.025,1.925-1.025
	c0.868,0,1.567,0.321,2.096,0.964c0.529,0.642,0.793,1.486,0.793,2.535c0,1.111-0.264,2.007-0.793,2.688
	c-0.528,0.68-1.228,1.019-2.096,1.019c-0.792,0-1.434-0.318-1.925-0.957l-0.076-0.101v0.88h-1.768v-9.25V322.963z M-369.083,330.903
	c0.487,0,0.867-0.183,1.139-0.545c0.272-0.363,0.41-0.868,0.41-1.514c0-0.658-0.137-1.173-0.41-1.544s-0.65-0.557-1.132-0.557
	c-0.481,0-0.86,0.19-1.133,0.572c-0.272,0.381-0.409,0.912-0.409,1.592c0,0.625,0.137,1.115,0.409,1.467
	C-369.941,330.728-369.565,330.903-369.083,330.903L-369.083,330.903z"/>
<path fill="#2F8AC1" d="M-358.5,329.677c-0.092,0.852-0.409,1.517-0.95,1.994c-0.542,0.479-1.246,0.718-2.114,0.718
	c-1.037,0-1.837-0.309-2.401-0.925c-0.564-0.617-0.846-1.496-0.846-2.637c0-1.116,0.293-2.002,0.877-2.658s1.376-0.985,2.37-0.985
	c0.88,0,1.602,0.243,2.164,0.729s0.862,1.127,0.9,1.92h-1.837c-0.017-0.34-0.138-0.615-0.362-0.824
	c-0.226-0.21-0.513-0.315-0.865-0.315c-0.453,0-0.798,0.183-1.035,0.545c-0.237,0.362-0.355,0.892-0.355,1.589
	c0,0.68,0.119,1.196,0.355,1.552c0.237,0.354,0.582,0.53,1.035,0.53c0.327,0,0.604-0.112,0.83-0.339
	c0.228-0.227,0.358-0.524,0.397-0.893L-358.5,329.677L-358.5,329.677z"/>
<path fill="#2F8AC1" d="M-377.222,335.039l2.455-4.251l2.454,4.251H-377.222z"/>
</svg>
