<?xml version="1.0" encoding="utf-8"?>
<!-- Generator: Adobe Illustrator 15.1.0, SVG Export Plug-In . SVG Version: 6.00 Build 0)  -->
<!DOCTYPE svg PUBLIC "-//W3C//DTD SVG 1.1//EN" "http://www.w3.org/Graphics/SVG/1.1/DTD/svg11.dtd">
<svg version="1.1" id="圖層_1" xmlns="http://www.w3.org/2000/svg" xmlns:xlink="http://www.w3.org/1999/xlink" x="0px" y="0px"
	 width="25px" height="25px" viewBox="-383.5 316.5 25 25" enable-background="new -383.5 316.5 25 25" xml:space="preserve">
<title>lastpage</title>
<path d="M-371.72,330.735c-0.583,0.582-0.583,1.528,0,2.111l1.184,1.184h-5.407c-0.824,0-1.492,0.669-1.492,1.494
	c0,0.824,0.669,1.492,1.492,1.492h5.409l-1.185,1.185c-0.583,0.581-0.583,1.527,0,2.11c0.292,0.293,0.674,0.438,1.056,0.438
	c0.381,0,0.764-0.145,1.055-0.438l4.789-4.787l-4.789-4.789C-370.191,330.151-371.137,330.151-371.72,330.735z"/>
<path d="M-379.457,335.524c0-1.938,1.575-3.515,3.514-3.515h1.772c-0.005-0.074-0.007-0.147-0.007-0.221
	c0-0.939,0.366-1.821,1.03-2.484c0.662-0.662,1.545-1.027,2.483-1.027s1.822,0.365,2.485,1.03l3.387,3.388V317.62
	c0-0.312-0.108-0.574-0.327-0.794c-0.217-0.216-0.482-0.326-0.792-0.326h-15.677c-0.311,0-0.574,0.11-0.793,0.326
	c-0.218,0.219-0.326,0.482-0.326,0.794v18.663c0,0.311,0.108,0.575,0.326,0.793s0.481,0.327,0.793,0.327h2.681
	C-379.253,336.859-379.457,336.217-379.457,335.524L-379.457,335.524z M-379.745,319.088c0-0.108,0.035-0.198,0.104-0.267
	c0.069-0.07,0.159-0.106,0.269-0.106h10.232c0.108,0,0.198,0.036,0.269,0.106c0.068,0.068,0.104,0.157,0.104,0.267v1.252
	c0,0.109-0.035,0.198-0.104,0.269c-0.07,0.071-0.158,0.104-0.269,0.104h-10.232c-0.108,0-0.199-0.035-0.269-0.104
	c-0.069-0.07-0.104-0.159-0.104-0.269V319.088z M-379.745,322.58c0-0.109,0.035-0.198,0.104-0.27
	c0.069-0.07,0.159-0.104,0.269-0.104h10.232c0.108,0,0.198,0.035,0.269,0.104c0.07,0.071,0.104,0.16,0.104,0.27v1.251
	c0,0.109-0.035,0.199-0.104,0.269c-0.07,0.07-0.158,0.105-0.269,0.105h-10.232c-0.108,0-0.199-0.035-0.269-0.105
	c-0.069-0.069-0.104-0.159-0.104-0.269V322.58z M-379.745,327.323v-1.252c0-0.108,0.035-0.197,0.104-0.268s0.159-0.105,0.269-0.105
	h10.232c0.108,0,0.198,0.035,0.269,0.105s0.104,0.159,0.104,0.268v1.252c0,0.108-0.035,0.199-0.104,0.269
	c-0.07,0.069-0.158,0.105-0.269,0.105h-10.232c-0.108,0-0.199-0.036-0.269-0.105S-379.745,327.433-379.745,327.323z"/>
<path d="M-362.278,340.007c0,0.825,0.668,1.493,1.493,1.493s1.492-0.67,1.492-1.493v-8.966c0-0.824-0.667-1.494-1.492-1.494
	s-1.493,0.67-1.493,1.494V340.007z"/>
</svg>
