<?xml version="1.0" encoding="utf-8"?>
<!-- Generator: Adobe Illustrator 15.1.0, SVG Export Plug-In . SVG Version: 6.00 Build 0)  -->
<!DOCTYPE svg PUBLIC "-//W3C//DTD SVG 1.1//EN" "http://www.w3.org/Graphics/SVG/1.1/DTD/svg11.dtd">
<svg version="1.1" id="圖層_1" xmlns="http://www.w3.org/2000/svg" xmlns:xlink="http://www.w3.org/1999/xlink" x="0px" y="0px"
	 width="22px" height="22px" viewBox="0 0 22 22" enable-background="new 0 0 22 22" xml:space="preserve">
<title>gavel</title>
<path fill="#7F7F7F" d="M10.367,12.527c-0.514,0.512-0.514,1.345,0,1.857l1.042,1.041H6.65c-0.725,0-1.314,0.588-1.314,1.314
	c0,0.726,0.589,1.313,1.314,1.313h4.76l-1.042,1.042c-0.514,0.513-0.514,1.345,0,1.857c0.256,0.258,0.592,0.385,0.929,0.385
	c0.335,0,0.672-0.127,0.928-0.385l4.215-4.213l-4.215-4.214C11.711,12.014,10.88,12.014,10.367,12.527z"/>
<path fill="#4E85C4" d="M3.557,16.741c0-1.705,1.387-3.093,3.093-3.093h1.559c-0.004-0.064-0.006-0.129-0.006-0.194
	c0-0.826,0.322-1.603,0.907-2.187c0.583-0.582,1.359-0.903,2.186-0.903c0.825,0,1.603,0.321,2.187,0.906l2.98,2.981V0.985
	c0-0.273-0.096-0.505-0.288-0.698C15.984,0.096,15.75,0,15.479,0H1.683C1.409,0,1.177,0.096,0.984,0.288
	C0.793,0.479,0.697,0.712,0.697,0.985v16.424c0,0.272,0.096,0.506,0.287,0.698c0.192,0.19,0.424,0.287,0.698,0.287H4.04
	c-0.304-0.479-0.483-1.045-0.483-1.651V16.741z M3.304,2.278c0-0.096,0.031-0.175,0.092-0.236c0.061-0.062,0.14-0.093,0.236-0.093
	h9.005c0.096,0,0.174,0.031,0.235,0.093c0.062,0.061,0.092,0.14,0.092,0.236V3.38c0,0.096-0.03,0.174-0.092,0.236
	c-0.062,0.062-0.14,0.092-0.235,0.092H3.632c-0.096,0-0.175-0.031-0.236-0.092C3.335,3.554,3.304,3.476,3.304,3.38V2.278z
	 M3.304,5.351c0-0.096,0.031-0.174,0.092-0.237s0.14-0.092,0.236-0.092h9.005c0.096,0,0.174,0.032,0.235,0.092
	c0.062,0.063,0.092,0.141,0.092,0.237v1.101c0,0.096-0.03,0.175-0.092,0.236s-0.14,0.093-0.235,0.093H3.632
	c-0.096,0-0.175-0.032-0.236-0.093c-0.061-0.062-0.092-0.14-0.092-0.236V5.351z M3.304,9.524V8.423c0-0.095,0.031-0.174,0.092-0.235
	c0.061-0.062,0.14-0.092,0.236-0.092h9.005c0.096,0,0.174,0.031,0.235,0.092s0.092,0.139,0.092,0.235v1.102
	c0,0.096-0.03,0.175-0.092,0.236c-0.062,0.062-0.14,0.092-0.235,0.092H3.632c-0.096,0-0.175-0.031-0.236-0.092
	S3.304,9.621,3.304,9.524z"/>
<path fill="#7F7F7F" d="M18.675,20.686c0,0.728,0.589,1.314,1.313,1.314c0.727,0,1.313-0.59,1.313-1.314v-7.89
	c0-0.726-0.588-1.314-1.313-1.314c-0.727,0-1.313,0.59-1.313,1.314V20.686z"/>
</svg>
