<?xml version="1.0" encoding="utf-8"?>
<!-- Generator: Adobe Illustrator 15.1.0, SVG Export Plug-In . SVG Version: 6.00 Build 0)  -->
<!DOCTYPE svg PUBLIC "-//W3C//DTD SVG 1.1//EN" "http://www.w3.org/Graphics/SVG/1.1/DTD/svg11.dtd">
<svg version="1.1" id="圖層_1" xmlns="http://www.w3.org/2000/svg" xmlns:xlink="http://www.w3.org/1999/xlink" x="0px" y="0px"
	 width="20px" height="20px" viewBox="-387.5 312.5 20 20" enable-background="new -387.5 312.5 20 20" xml:space="preserve">
<title>library_books</title>
<path fill="#FFFFFF" d="M-371.903,318.481v-1.578h-8v1.578H-371.903z M-375.096,324.904v-1.615h-4.808v1.615H-375.096z
	 M-371.903,321.711v-1.614h-8v1.614H-371.903z M-371.077,314.5c0.864,0,1.577,0.714,1.577,1.577v9.615
	c0,0.864-0.713,1.616-1.577,1.616h-9.615c-0.863,0-1.615-0.752-1.615-1.616v-9.615c0-0.863,0.752-1.577,1.615-1.577H-371.077z
	 M-383.923,317.692v11.23h11.23v1.577h-11.23c-0.864,0-1.577-0.714-1.577-1.577v-11.23H-383.923z"/>
</svg>
