<?xml version="1.0" encoding="utf-8"?>
<!-- Generator: Adobe Illustrator 15.1.0, SVG Export Plug-In . SVG Version: 6.00 Build 0)  -->
<!DOCTYPE svg PUBLIC "-//W3C//DTD SVG 1.1//EN" "http://www.w3.org/Graphics/SVG/1.1/DTD/svg11.dtd">
<svg version="1.1" id="圖層_1" xmlns="http://www.w3.org/2000/svg" xmlns:xlink="http://www.w3.org/1999/xlink" x="0px" y="0px"
	 width="28px" height="28px" viewBox="-121.5 36.5 28 28" enable-background="new -121.5 36.5 28 28" xml:space="preserve">
<circle id="XMLID_858_" fill="#F3AB0F" cx="-107.5" cy="45.882" r="8"/>
<rect id="XMLID_857_" x="-111.597" y="51.213" fill="#F3AB0F" width="8.194" height="5.722"/>
<rect id="XMLID_2_" x="-110.097" y="51.213" fill="#FBD451" width="5.194" height="5.722"/>
<title>lightbulb-o</title>
<circle id="XMLID_1_" fill="#FBD451" cx="-107.5" cy="45.882" r="6.5"/>
<path fill="#FFEDA6" d="M-104.405,46.235c0,1.709-1.386,3.094-3.094,3.094c-1.71,0-3.096-1.385-3.096-3.094s1.386-3.095,3.096-3.095
	C-105.791,43.141-104.405,44.526-104.405,46.235"/>
<path fill="#F3AB0F" d="M-104.663,45.663c-0.463-0.379-1.188-0.455-1.681-0.163c-0.445,0.263-0.711,0.765-0.711,1.346v0.414h-0.834
	v-0.414c0-0.561-0.284-1.075-0.741-1.346c-0.498-0.292-1.241-0.214-1.704,0.163c-0.271,0.223-0.447,0.601-0.482,1.037
	c-0.032,0.369,0.087,0.731,0.333,1.021c0.268,0.316,0.656,0.516,1.067,0.549c0.153,0.012,0.319,0.019,0.479,0.021v7.552
	c0,0.3,0.226,0.524,0.524,0.524c0.298,0,0.523-0.225,0.523-0.524v-7.556c0.241,0,0.595-0.001,0.834,0v7.556
	c0,0.3,0.226,0.524,0.524,0.524s0.524-0.225,0.524-0.566v-7.51c0.149-0.004,0.301-0.01,0.451-0.021
	c0.4-0.031,0.779-0.227,1.037-0.533c0.248-0.291,0.366-0.66,0.334-1.036C-104.205,46.444-104.295,45.967-104.663,45.663z
	 M-106.016,46.634c0.021-0.058,0.043-0.104,0.071-0.143c0.106-0.14,0.484-0.221,0.623,0c0.09,0.141,0.095,0.232,0.09,0.295
	c-0.004,0.042-0.028,0.168-0.056,0.218c-0.063,0.123-0.128,0.19-0.196,0.208c-0.158,0.042-0.344,0.049-0.522,0.049v-0.508
	L-106.016,46.634z M-109.718,47.01c-0.027-0.052-0.053-0.179-0.057-0.22c-0.004-0.059,0-0.152,0.093-0.3
	c0.049-0.079,0.164-0.128,0.299-0.128c0.136,0,0.266,0.053,0.323,0.129c0.05,0.067,0.085,0.152,0.11,0.267l0.013,0.503h-0.045
	c-0.185,0-0.378-0.006-0.54-0.048C-109.592,47.194-109.658,47.126-109.718,47.01z"/>
<path fill="#D6D6D6" d="M-103.469,54.253c0.485,0.284,0.786,0.819,0.786,1.371c0,0.402-0.15,0.786-0.418,1.071
	c0.268,0.284,0.418,0.669,0.418,1.07c0,0.552-0.284,1.054-0.753,1.354c0.134,0.234,0.218,0.519,0.218,0.786
	c0,1.088-0.854,1.606-1.823,1.606c-0.435,0.97-1.405,1.605-2.459,1.605s-2.024-0.636-2.459-1.605c-0.971,0-1.823-0.519-1.823-1.606
	c0-0.268,0.083-0.552,0.218-0.786c-0.47-0.301-0.753-0.803-0.753-1.354c0-0.401,0.15-0.786,0.418-1.07
	c-0.268-0.285-0.418-0.669-0.418-1.071c0-0.552,0.301-1.087,0.785-1.371H-103.469z"/>
<path fill="#E6E6E6" d="M-101.39,57.977c0,0.671-0.542,1.213-1.21,1.213h-9.801c-0.669,0-1.21-0.542-1.21-1.213v-0.028
	c0-0.668,0.541-1.211,1.21-1.211h9.801c0.668,0,1.21,0.543,1.21,1.211V57.977z"/>
<path fill="#F58C3D" d="M-98.241,51.927c-0.289-0.168-0.388-0.537-0.22-0.827c0.167-0.289,0.538-0.389,0.827-0.22l1.171,0.675
	c0.289,0.167,0.388,0.538,0.219,0.827c-0.167,0.29-0.537,0.388-0.826,0.22L-98.241,51.927L-98.241,51.927z"/>
<path fill="#F58C3D" d="M-97.634,40.885c-0.289,0.167-0.66,0.07-0.827-0.222c-0.168-0.288-0.069-0.658,0.22-0.826l1.171-0.677
	c0.289-0.168,0.66-0.068,0.826,0.222c0.169,0.288,0.069,0.66-0.219,0.828L-97.634,40.885L-97.634,40.885z"/>
<path fill="#F58C3D" d="M-96.458,46.508c-0.335,0-0.607-0.271-0.607-0.606c0-0.336,0.272-0.609,0.607-0.609h1.351
	c0.335,0,0.607,0.273,0.607,0.609c0,0.335-0.271,0.606-0.607,0.606H-96.458L-96.458,46.508z"/>
<path fill="#F58C3D" d="M-116.759,39.837c0.289,0.168,0.388,0.538,0.22,0.826c-0.167,0.292-0.538,0.389-0.827,0.222l-1.171-0.675
	c-0.289-0.168-0.388-0.54-0.22-0.828c0.167-0.29,0.538-0.39,0.827-0.222L-116.759,39.837L-116.759,39.837z"/>
<path fill="#F58C3D" d="M-117.366,50.88c0.289-0.169,0.66-0.069,0.827,0.22c0.168,0.29,0.069,0.659-0.22,0.827l-1.171,0.675
	c-0.289,0.168-0.66,0.07-0.827-0.22c-0.168-0.289-0.068-0.66,0.22-0.827L-117.366,50.88L-117.366,50.88z"/>
<path fill="#F58C3D" d="M-118.542,45.292c0.335,0,0.607,0.273,0.607,0.609c0,0.335-0.271,0.606-0.607,0.606h-1.351
	c-0.335,0-0.607-0.271-0.607-0.606c0-0.336,0.271-0.609,0.607-0.609H-118.542L-118.542,45.292z"/>
</svg>
