<?xml version="1.0" encoding="utf-8"?>
<!-- Generator: Adobe Illustrator 15.1.0, SVG Export Plug-In . SVG Version: 6.00 Build 0)  -->
<!DOCTYPE svg PUBLIC "-//W3C//DTD SVG 1.1//EN" "http://www.w3.org/Graphics/SVG/1.1/DTD/svg11.dtd">
<svg version="1.1" id="圖層_1" xmlns="http://www.w3.org/2000/svg" xmlns:xlink="http://www.w3.org/1999/xlink" x="0px" y="0px"
	 width="20px" height="12px" viewBox="-383.5 316.5 20 12" enable-background="new -383.5 316.5 20 12" xml:space="preserve">
<title>list</title>
<path fill="#4D4D4D" d="M-378.112,326.162c-0.179,0-0.359-0.077-0.484-0.226c-0.222-0.267-0.186-0.664,0.081-0.887l3.053-2.548
	l-3.054-2.552c-0.266-0.222-0.302-0.621-0.079-0.886c0.223-0.269,0.619-0.303,0.886-0.081l4.209,3.519l-4.209,3.515
	C-377.827,326.115-377.97,326.162-378.112,326.162L-378.112,326.162z"/>
<path fill="#4D4D4D" d="M-374.481,323.131h-8.39c-0.347,0-0.629-0.282-0.629-0.629s0.282-0.63,0.629-0.63h8.39
	c0.348,0,0.629,0.283,0.629,0.63S-374.134,323.131-374.481,323.131z"/>
</svg>
