<?xml version="1.0" encoding="utf-8"?>
<!-- Generator: Adobe Illustrator 15.1.0, SVG Export Plug-In . SVG Version: 6.00 Build 0)  -->
<!DOCTYPE svg PUBLIC "-//W3C//DTD SVG 1.1//EN" "http://www.w3.org/Graphics/SVG/1.1/DTD/svg11.dtd">
<svg version="1.1" id="圖層_1" xmlns="http://www.w3.org/2000/svg" xmlns:xlink="http://www.w3.org/1999/xlink" x="0px" y="0px"
	 width="22px" height="22px" viewBox="0 0 22 22" enable-background="new 0 0 22 22" xml:space="preserve">
<rect x="8" y="1.844" fill="#7F7F7F" width="14" height="2.5"/>
<rect x="8" y="9.75" fill="#7F7F7F" width="14" height="2.5"/>
<rect x="8" y="17.579" fill="#7F7F7F" width="14" height="2.5"/>
<path fill="#4E85C4" d="M2.241,0L2.175,0.148C2.033,0.464,1.832,0.7,1.559,0.868C1.316,1.02,1.051,1.093,0.748,1.093L0.387,1.077
	v1.414h1.538v4.417h1.761V0H2.241z"/>
<path fill="#4E85C4" d="M3.136,12.264c0.657-0.42,1.098-0.794,1.346-1.144c0.257-0.36,0.387-0.815,0.387-1.353
	c0-0.661-0.228-1.21-0.677-1.633c-0.448-0.418-1.025-0.63-1.718-0.63c-0.745,0-1.343,0.231-1.775,0.688
	c-0.431,0.455-0.638,1.071-0.615,1.832l0.008,0.242h1.735L1.818,10.01c-0.01-0.313,0.049-0.557,0.175-0.727
	C2.106,9.131,2.257,9.06,2.465,9.06c0.199,0,0.353,0.059,0.469,0.181c0.119,0.126,0.178,0.294,0.178,0.514
	c0,0.21-0.059,0.396-0.179,0.566c-0.132,0.187-0.371,0.402-0.713,0.64c-0.85,0.598-1.415,1.104-1.73,1.55
	C0.164,12.97,0,13.526,0,14.162v0.25h4.868v-1.607H2.389C2.584,12.636,2.833,12.455,3.136,12.264z"/>
<path fill="#4E85C4" d="M4.271,18.222c-0.025-0.021-0.052-0.041-0.079-0.061c0.35-0.322,0.527-0.724,0.527-1.197
	c0-0.595-0.213-1.09-0.631-1.472c-0.412-0.376-0.943-0.566-1.579-0.566c-0.731,0-1.313,0.201-1.727,0.599
	c-0.416,0.4-0.632,0.968-0.642,1.688l-0.004,0.253h1.659l0.005-0.245c0.005-0.261,0.063-0.458,0.174-0.586
	c0.188-0.218,0.627-0.252,0.839-0.023c0.1,0.106,0.148,0.248,0.148,0.434c0,0.191-0.047,0.329-0.145,0.423
	c-0.078,0.075-0.186,0.12-0.328,0.138c-0.123,0.014-0.238,0.021-0.346,0.026l-0.167,0.002l-0.298-0.059v1.235l0.013,0.293
	l0.291-0.049c0.024-0.004,0.063-0.008,0.159-0.005c0.108,0.002,0.228,0.007,0.353,0.015c0.181,0.014,0.324,0.071,0.435,0.173
	c0.128,0.122,0.187,0.273,0.187,0.479c0,0.247-0.064,0.438-0.197,0.581c-0.258,0.28-0.783,0.271-0.997,0.012
	c-0.119-0.143-0.182-0.366-0.187-0.667L1.73,19.396H0.005l0.004,0.253c0.01,0.739,0.232,1.323,0.664,1.735
	C1.102,21.793,1.703,22,2.46,22c0.735,0,1.333-0.209,1.777-0.621c0.447-0.417,0.675-0.982,0.675-1.681
	C4.912,19.049,4.694,18.55,4.271,18.222z"/>
</svg>
