<?xml version="1.0" encoding="utf-8"?>
<!-- Generator: Adobe Illustrator 15.1.0, SVG Export Plug-In . SVG Version: 6.00 Build 0)  -->
<!DOCTYPE svg PUBLIC "-//W3C//DTD SVG 1.1//EN" "http://www.w3.org/Graphics/SVG/1.1/DTD/svg11.dtd">
<svg version="1.1" id="圖層_1" xmlns="http://www.w3.org/2000/svg" xmlns:xlink="http://www.w3.org/1999/xlink" x="0px" y="0px"
	 width="20px" height="20px" viewBox="-383.5 316.5 20 20" enable-background="new -383.5 316.5 20 20" xml:space="preserve">
<title>location</title>
<path d="M-371.702,325.134c0,1.004-0.813,1.818-1.817,1.818c-1.005,0-1.819-0.814-1.819-1.818c0-1.005,0.814-1.818,1.819-1.818
	C-372.516,323.315-371.702,324.129-371.702,325.134z"/>
<path d="M-368.045,320.137h-10.909c-0.5,0-0.909,0.409-0.909,0.908v10.91c0,0.499,0.409,0.908,0.909,0.908h10.909
	c0.5,0,0.909-0.409,0.909-0.908v-10.91C-367.137,320.546-367.546,320.137-368.045,320.137z M-373.501,331.893
	c-0.878,0-4.091-4.434-4.091-6.693c0-2.261,1.832-4.091,4.09-4.091c2.259,0,4.091,1.832,4.092,4.091
	C-369.41,327.459-372.852,331.893-373.501,331.893z"/>
</svg>
