<?xml version="1.0" encoding="utf-8"?>
<!-- Generator: Adobe Illustrator 15.1.0, SVG Export Plug-In . SVG Version: 6.00 Build 0)  -->
<!DOCTYPE svg PUBLIC "-//W3C//DTD SVG 1.1//EN" "http://www.w3.org/Graphics/SVG/1.1/DTD/svg11.dtd">
<svg version="1.1" id="圖層_1" xmlns="http://www.w3.org/2000/svg" xmlns:xlink="http://www.w3.org/1999/xlink" x="0px" y="0px"
	 width="20px" height="20px" viewBox="-383.5 316.5 20 20" enable-background="new -383.5 316.5 20 20" xml:space="preserve">
<title>location_on</title>
<path d="M-365.318,320.137h1.818v12.727h-1.818V320.137z"/>
<path d="M-368.955,320.137h1.818v12.727h-1.818V320.137z"/>
<path d="M-375.339,325.133c0,1.005-0.814,1.818-1.818,1.818c-1.005,0-1.818-0.813-1.818-1.818c0-1.003,0.813-1.818,1.818-1.818
	C-376.153,323.314-375.339,324.13-375.339,325.133z"/>
<path d="M-371.682,320.137h-10.909c-0.5,0-0.909,0.408-0.909,0.907v10.909c0,0.5,0.409,0.91,0.909,0.91h10.909
	c0.5,0,0.909-0.41,0.909-0.91v-10.909C-370.773,320.545-371.182,320.137-371.682,320.137z M-377.138,331.893
	c-0.878,0-4.091-4.434-4.091-6.694c0-2.26,1.832-4.091,4.09-4.091c2.259,0,4.091,1.834,4.092,4.091
	C-373.046,327.459-376.489,331.893-377.138,331.893z"/>
</svg>
