<?xml version="1.0" encoding="utf-8"?>
<!-- Generator: Adobe Illustrator 15.1.0, SVG Export Plug-In . SVG Version: 6.00 Build 0)  -->
<!DOCTYPE svg PUBLIC "-//W3C//DTD SVG 1.1//EN" "http://www.w3.org/Graphics/SVG/1.1/DTD/svg11.dtd">
<svg version="1.1" id="圖層_1" xmlns="http://www.w3.org/2000/svg" xmlns:xlink="http://www.w3.org/1999/xlink" x="0px" y="0px"
	 width="30px" height="30px" viewBox="0 0 30 30" enable-background="new 0 0 30 30" xml:space="preserve">
<title>log-out</title>
<path fill="#63211C" d="M25.5,15l-7.35-5.775v3.15H15v5.251h3.151v3.15L25.5,15z"/>
<path fill="#63211C" d="M20.25,21.128v1.222h-6.299V7.648h6.299v1.222l1.576,1.237V6.074h-7.875V3.448L4.5,5.782v19.484l9.451,1.284
	v-2.625h7.875v-4.033L20.25,21.128L20.25,21.128z M11.954,16.313c0,0.348-0.283,0.632-0.63,0.632c-0.346,0-0.63-0.284-0.63-0.632
	v-2.625c0-0.35,0.283-0.63,0.63-0.63c0.348,0,0.63,0.282,0.63,0.63V16.313z"/>
</svg>
