<?xml version="1.0" encoding="utf-8"?>
<!-- Generator: Adobe Illustrator 15.1.0, SVG Export Plug-In . SVG Version: 6.00 Build 0)  -->
<!DOCTYPE svg PUBLIC "-//W3C//DTD SVG 1.1//EN" "http://www.w3.org/Graphics/SVG/1.1/DTD/svg11.dtd">
<svg version="1.1" id="圖層_1" xmlns="http://www.w3.org/2000/svg" xmlns:xlink="http://www.w3.org/1999/xlink" x="0px" y="0px"
	 width="25px" height="25px" viewBox="-383.5 316.5 25 25" enable-background="new -383.5 316.5 25 25" xml:space="preserve">
<title>log-out</title>
<path fill="#2F8AC1" d="M-359.637,329l-7.954-6.25v3.409H-371v5.683h3.409v3.408L-359.637,329z"/>
<path fill="#2F8AC1" d="M-365.318,335.632v1.322h-6.818v-15.909h6.818v1.322l1.705,1.34v-4.366h-8.523V316.5l-10.227,2.525v21.085
	l10.227,1.39v-2.841h8.523v-4.366L-365.318,335.632L-365.318,335.632z M-374.296,330.421c0,0.375-0.306,0.682-0.682,0.682
	c-0.375,0-0.682-0.307-0.682-0.682v-2.841c0-0.378,0.306-0.682,0.682-0.682c0.376,0,0.682,0.306,0.682,0.682V330.421z"/>
</svg>
