<?xml version="1.0" encoding="utf-8"?>
<!-- Generator: Adobe Illustrator 15.1.0, SVG Export Plug-In . SVG Version: 6.00 Build 0)  -->
<!DOCTYPE svg PUBLIC "-//W3C//DTD SVG 1.1//EN" "http://www.w3.org/Graphics/SVG/1.1/DTD/svg11.dtd">
<svg version="1.1" id="圖層_1" xmlns="http://www.w3.org/2000/svg" xmlns:xlink="http://www.w3.org/1999/xlink" x="0px" y="0px"
	 width="22px" height="22px" viewBox="-390.5 309.5 22 22" enable-background="new -390.5 309.5 22 22" xml:space="preserve">
<title>magic</title>
<polygon fill="#E79D5E" points="-382.314,312.995 -379.68,313.799 -382.314,314.606 -383.121,317.24 -383.928,314.606 
	-386.561,313.799 -383.928,312.995 -383.121,310.359 "/>
<polygon fill="#7F7F7F" points="-369.817,319.419 -368.5,319.819 -369.817,320.223 -370.221,321.541 -370.624,320.223 
	-371.941,319.819 -370.624,319.419 -370.221,318.101 "/>
<polygon fill="#7F7F7F" points="-378.418,310.816 -377.1,311.22 -378.418,311.622 -378.821,312.939 -379.224,311.622 
	-380.542,311.22 -379.224,310.816 -378.821,309.5 "/>
<path fill="#4E85C4" d="M-369.105,312.766l-2.661-2.66c-0.162-0.161-0.376-0.242-0.605-0.242s-0.443,0.081-0.605,0.242
	l-17.283,17.284c-0.161,0.159-0.242,0.374-0.242,0.603c0,0.228,0.082,0.444,0.242,0.605l2.661,2.66
	c0.161,0.161,0.376,0.242,0.605,0.242s0.443-0.081,0.604-0.242l17.283-17.283c0.162-0.161,0.242-0.376,0.242-0.604
	C-368.863,313.141-368.943,312.928-369.105,312.766z M-374.87,317.309l-1.439-1.438l3.938-3.938l1.438,1.438L-374.87,317.309z"/>
</svg>
