<?xml version="1.0" encoding="utf-8"?>
<!-- Generator: Adobe Illustrator 15.1.0, SVG Export Plug-In . SVG Version: 6.00 Build 0)  -->
<!DOCTYPE svg PUBLIC "-//W3C//DTD SVG 1.1//EN" "http://www.w3.org/Graphics/SVG/1.1/DTD/svg11.dtd">
<svg version="1.1" id="圖層_1" xmlns="http://www.w3.org/2000/svg" xmlns:xlink="http://www.w3.org/1999/xlink" x="0px" y="0px"
	 width="18px" height="18px" viewBox="-136.5 164.5 18 18" enable-background="new -136.5 164.5 18 18" xml:space="preserve">
<title>magic</title>
<path fill="#3280B7" d="M-123.712,170.889l3.222-3.222l-1.177-1.177l-3.222,3.222L-123.712,170.889z M-118.797,167.667
	c0,0.187-0.066,0.362-0.198,0.494l-14.141,14.141c-0.132,0.132-0.308,0.198-0.495,0.198c-0.187,0-0.363-0.066-0.495-0.198
	l-2.177-2.177c-0.131-0.132-0.198-0.308-0.198-0.495c0-0.187,0.066-0.362,0.198-0.494l14.141-14.141
	c0.132-0.132,0.308-0.198,0.495-0.198c0.187,0,0.363,0.066,0.495,0.198l2.177,2.177
	C-118.863,167.304-118.797,167.479-118.797,167.667z M-129.803,167.359l2.155,0.659l-2.155,0.66l-0.66,2.155l-0.66-2.155
	l-2.155-0.66l2.155-0.659l0.66-2.156L-129.803,167.359z M-119.578,172.615l1.078,0.329l-1.078,0.33l-0.33,1.078l-0.33-1.078
	l-1.078-0.33l1.078-0.329l0.33-1.078L-119.578,172.615z M-126.615,165.577l1.078,0.33l-1.078,0.33l-0.33,1.077l-0.33-1.077
	l-1.078-0.33l1.078-0.33l0.33-1.077L-126.615,165.577z"/>
</svg>
