<?xml version="1.0" encoding="utf-8"?>
<!-- Generator: Adobe Illustrator 15.1.0, SVG Export Plug-In . SVG Version: 6.00 Build 0)  -->
<!DOCTYPE svg PUBLIC "-//W3C//DTD SVG 1.1//EN" "http://www.w3.org/Graphics/SVG/1.1/DTD/svg11.dtd">
<svg version="1.1" id="圖層_1" xmlns="http://www.w3.org/2000/svg" xmlns:xlink="http://www.w3.org/1999/xlink" x="0px" y="0px"
	 width="20px" height="20px" viewBox="-389.5 310.5 20 20" enable-background="new -389.5 310.5 20 20" xml:space="preserve">
<title>magnifying-glass</title>
<path fill="#FFFFFF" d="M-371.859,326.036l-3.827-3.827c0.578-0.946,0.91-2.062,0.91-3.25c0-3.461-2.999-6.459-6.459-6.459
	c-3.46,0-6.264,2.805-6.264,6.266c0,3.459,2.999,6.458,6.458,6.458c1.151,0,2.228-0.313,3.154-0.854l3.847,3.85
	c0.378,0.376,0.988,0.376,1.363,0l0.956-0.955C-371.347,326.887-371.483,326.412-371.859,326.036z M-385.572,318.766
	c0-2.396,1.941-4.338,4.336-4.338c2.395,0,4.531,2.134,4.531,4.531c0,2.395-1.942,4.337-4.337,4.337
	S-385.572,321.16-385.572,318.766z"/>
</svg>
