<?xml version="1.0" encoding="utf-8"?>
<!-- Generator: Adobe Illustrator 15.1.0, SVG Export Plug-In . SVG Version: 6.00 Build 0)  -->
<!DOCTYPE svg PUBLIC "-//W3C//DTD SVG 1.1//EN" "http://www.w3.org/Graphics/SVG/1.1/DTD/svg11.dtd">
<svg version="1.1" id="圖層_1" xmlns="http://www.w3.org/2000/svg" xmlns:xlink="http://www.w3.org/1999/xlink" x="0px" y="0px"
	 width="25px" height="25px" viewBox="-383.5 316.5 25 25" enable-background="new -383.5 316.5 25 25" xml:space="preserve">
<title>markingpen</title>
<path fill="#FFFFFF" d="M-379.551,332.743c0,0,2.696,2.727,1.316,5.757l2.383,1.33c1.856-2.764,5.591-1.899,5.591-1.899
	L-379.551,332.743z"/>
<path fill="#FFFFFF" d="M-377.039,341.493l0.641-1.125l-2.117-1.243l-1.344,2.368c-0.01,0.017-0.018,0-0.018,0l0,0h-0.007
	c-0.007,0.012-0.011,0-0.011,0H-377.039L-377.039,341.493z"/>
<path fill="#FFFFFF" d="M-362.627,319.644l-5.382-3.007c-0.46-0.257-1.015-0.141-1.238,0.26l-9.972,15.06l9.431,5.267l7.59-16.391
	c0.224-0.4,0.03-0.933-0.429-1.19V319.644z"/>
</svg>
