<?xml version="1.0" encoding="utf-8"?>
<!-- Generator: Adobe Illustrator 15.1.0, SVG Export Plug-In . SVG Version: 6.00 Build 0)  -->
<!DOCTYPE svg PUBLIC "-//W3C//DTD SVG 1.1//EN" "http://www.w3.org/Graphics/SVG/1.1/DTD/svg11.dtd">
<svg version="1.1" id="圖層_1" xmlns="http://www.w3.org/2000/svg" xmlns:xlink="http://www.w3.org/1999/xlink" x="0px" y="0px"
	 width="22px" height="22px" viewBox="0 0 22 22" enable-background="new 0 0 22 22" xml:space="preserve">
<path fill="#C4C4C4" d="M3.475,14.293c0,0,2.373,2.398,1.158,5.066l2.097,1.17c1.634-2.432,4.918-1.672,4.918-1.672L3.475,14.293z"
	/>
<path fill="#4E85C4" d="M5.686,21.993l0.563-0.989l-1.863-1.095l-1.183,2.084c-0.009,0.015-0.016,0-0.016,0l0,0H3.182
	c-0.006,0.011-0.01,0-0.01,0H5.686L5.686,21.993z"/>
<path fill="#4E85C4" d="M18.368,2.766L13.632,0.12c-0.405-0.226-0.894-0.124-1.09,0.228L3.767,13.602l8.297,4.635l6.681-14.423
	C18.941,3.46,18.771,2.991,18.368,2.766L18.368,2.766z"/>
</svg>
