<?xml version="1.0" encoding="utf-8"?>
<!-- Generator: Adobe Illustrator 15.1.0, SVG Export Plug-In . SVG Version: 6.00 Build 0)  -->
<!DOCTYPE svg PUBLIC "-//W3C//DTD SVG 1.1//EN" "http://www.w3.org/Graphics/SVG/1.1/DTD/svg11.dtd">
<svg version="1.1" id="圖層_1" xmlns="http://www.w3.org/2000/svg" xmlns:xlink="http://www.w3.org/1999/xlink" x="0px" y="0px"
	 width="25px" height="25px" viewBox="-383.5 316.5 25 25" enable-background="new -383.5 316.5 25 25" xml:space="preserve">
<title>markingpen_line</title>
<path fill="#2F8AC1" d="M-379.728,332.902c0,0,2.647,2.677,1.292,5.652l2.339,1.307c1.823-2.715,5.49-1.865,5.49-1.865
	L-379.728,332.902z"/>
<path fill="#2F8AC1" d="M-377.262,341.492l0.628-1.104l-2.079-1.222l-1.319,2.325c-0.01,0.017-0.018,0-0.018,0h-0.006
	c-0.007,0.012-0.011,0-0.011,0H-377.262L-377.262,341.492z"/>
<path fill="#2F8AC1" d="M-363.113,320.038l-5.283-2.951c-0.453-0.253-0.995-0.139-1.215,0.254l-9.792,14.788l9.26,5.172
	l7.452-16.095c0.22-0.394,0.03-0.916-0.421-1.168H-363.113z"/>
<path fill="#2F8AC1" d="M-378.142,326.984l4.084-6.169l-0.316-0.316l-1.579,1.578l-0.621-0.621l1.579-1.578l-0.959-0.96
	l-2.812,2.813l-0.623-0.622l2.812-2.811l-1.457-1.457c-0.456-0.456-1.202-0.456-1.657,0l-3.468,3.469
	c-0.456,0.455-0.456,1.201,0,1.657L-378.142,326.984L-378.142,326.984z"/>
<path fill="#2F8AC1" d="M-363.938,330.936l-0.879-0.879l-1.516,3.272L-363.938,330.936z"/>
<path fill="#2F8AC1" d="M-358.843,336.031l-1.315-1.315l-2.811,2.813l-0.621-0.621l2.811-2.812l-0.957-0.959l-1.58,1.579
	l-0.621-0.621l1.579-1.579l-0.958-0.957l-2.812,2.812l-0.469-0.468l-1.465,3.162l4.093,4.094c0.456,0.455,1.202,0.455,1.657,0
	l3.469-3.47c0.456-0.457,0.456-1.202,0-1.658L-358.843,336.031z"/>
</svg>
