<?xml version="1.0" encoding="utf-8"?>
<!-- Generator: Adobe Illustrator 15.1.0, SVG Export Plug-In . SVG Version: 6.00 Build 0)  -->
<!DOCTYPE svg PUBLIC "-//W3C//DTD SVG 1.1//EN" "http://www.w3.org/Graphics/SVG/1.1/DTD/svg11.dtd">
<svg version="1.1" id="圖層_1" xmlns="http://www.w3.org/2000/svg" xmlns:xlink="http://www.w3.org/1999/xlink" x="0px" y="0px"
	 width="22px" height="22px" viewBox="0 0 22 22" enable-background="new 0 0 22 22" xml:space="preserve">
<path fill="#C4C4C4" d="M3.32,14.434c0,0,2.329,2.355,1.136,4.975l2.059,1.148c1.604-2.389,4.831-1.641,4.831-1.641L3.32,14.434z"/>
<path fill="#4E85C4" d="M5.49,21.992l0.554-0.973l-1.83-1.074l-1.161,2.047c-0.009,0.014-0.016,0-0.016,0H3.032
	c-0.007,0.01-0.01,0-0.01,0H5.49L5.49,21.992z"/>
<path fill="#4E85C4" d="M17.941,3.115l-4.649-2.597c-0.397-0.222-0.876-0.122-1.069,0.223L3.606,13.753l8.15,4.552l6.559-14.162
	C18.507,3.796,18.34,3.336,17.941,3.115L17.941,3.115z"/>
<path fill="#7F7F7F" d="M4.715,9.227l3.594-5.428L8.031,3.52l-1.39,1.39L6.095,4.363l1.389-1.39L6.64,2.13L4.167,4.605L3.619,4.058
	l2.475-2.474L4.811,0.302c-0.4-0.401-1.058-0.401-1.458,0L0.301,3.354c-0.401,0.401-0.401,1.057,0,1.458L4.715,9.227L4.715,9.227z"
	/>
<path fill="#7F7F7F" d="M17.215,12.703l-0.773-0.773l-1.334,2.881L17.215,12.703z"/>
<path fill="#7F7F7F" d="M21.698,17.188l-1.157-1.157l-2.475,2.475l-0.545-0.546l2.474-2.475l-0.843-0.844l-1.391,1.39l-0.547-0.548
	l1.391-1.389l-0.844-0.843l-2.475,2.474l-0.412-0.41l-1.289,2.781l3.602,3.604c0.401,0.398,1.059,0.398,1.459,0l3.053-3.055
	C22.102,18.243,22.102,17.587,21.698,17.188L21.698,17.188z"/>
<path fill="#F3F3F3" d="M44.915,31.349c-0.241,0-0.442-0.199-0.442-0.441c0-0.241,0.201-0.442,0.442-0.442
	c0.244,0,0.44,0.201,0.44,0.442C45.355,31.149,45.159,31.349,44.915,31.349z"/>
</svg>
