<?xml version="1.0" encoding="utf-8"?>
<!-- Generator: Adobe Illustrator 15.1.0, SVG Export Plug-In . SVG Version: 6.00 Build 0)  -->
<!DOCTYPE svg PUBLIC "-//W3C//DTD SVG 1.1//EN" "http://www.w3.org/Graphics/SVG/1.1/DTD/svg11.dtd">
<svg version="1.1" id="圖層_1" xmlns="http://www.w3.org/2000/svg" xmlns:xlink="http://www.w3.org/1999/xlink" x="0px" y="0px"
	 width="22px" height="22px" viewBox="-133.5 166.5 22 22" enable-background="new -133.5 166.5 22 22" xml:space="preserve">
<title>monitor</title>
<polygon fill="#C4C4C4" points="-121.277,185.505 -123.722,185.505 -123.722,186.778 -126.167,187.186 -126.167,188 -118.884,188 
	-118.884,187.236 -121.277,186.778 "/>
<path fill="#4E85C4" d="M-113.13,167h-18.741c-0.9,0-1.629,0.729-1.629,1.63v13.629c0,0.899,0.729,1.63,1.629,1.63h18.741
	c0.901,0,1.63-0.73,1.63-1.63V168.63C-111.5,167.729-112.229,167-113.13,167z M-122.602,182.667c-0.449,0-0.814-0.365-0.814-0.815
	s0.365-0.814,0.814-0.814c0.451,0,0.815,0.364,0.815,0.814S-122.152,182.667-122.602,182.667z M-113.13,179.814h-18.741V168.63
	h18.741V179.814z"/>
<g>
	<path fill="#7F7F7F" d="M-125.813,175.249c0.375,0.083,0.563,0.146,0.563,0.188s-0.021,0.075-0.063,0.102
		c-0.052,0.036-0.081,0.083-0.086,0.141c-0.042,0.469-0.094,0.854-0.156,1.156c-0.042,0.167-0.091,0.339-0.148,0.516
		c-0.016,0.036-0.031,0.055-0.047,0.055c-0.167-0.052-0.31-0.089-0.43-0.109c-0.047-0.011-0.07-0.034-0.07-0.07
		c0.083-0.224,0.156-0.469,0.219-0.734c0.068-0.266,0.117-0.651,0.148-1.156C-125.883,175.277-125.859,175.249-125.813,175.249z
		 M-124.656,170.593l0.586,0.328c0.026,0.047,0.039,0.073,0.039,0.078c0,0.047-0.039,0.07-0.117,0.07
		c-0.12,0-0.195,0.031-0.227,0.094c-0.287,0.417-0.557,0.8-0.813,1.148c0.156,0.156,0.313,0.328,0.469,0.516
		c0.005-0.005,0.01-0.008,0.016-0.008c0.307-0.406,0.563-0.773,0.766-1.102c0.375,0.308,0.563,0.477,0.563,0.508
		s-0.031,0.047-0.094,0.047c-0.125,0-0.203,0.019-0.234,0.055c-0.458,0.63-0.912,1.211-1.359,1.742
		c0.344-0.042,0.766-0.089,1.266-0.141c-0.068-0.188-0.146-0.372-0.234-0.555c0-0.031,0.135-0.114,0.406-0.25
		c0.135,0.297,0.245,0.567,0.328,0.813c0.078,0.224,0.146,0.464,0.203,0.719c0,0.021-0.156,0.075-0.469,0.164
		c-0.016-0.151-0.057-0.333-0.125-0.547l-0.719,0.18v3.328c0,0.067-0.042,0.102-0.125,0.102h-0.313
		c-0.078,0-0.117-0.034-0.117-0.102v-3.18l-0.852,0.219c-0.13,0.141-0.203,0.211-0.219,0.211c-0.021,0-0.073-0.25-0.156-0.75
		c0-0.026,0.135-0.06,0.406-0.102c0.338-0.406,0.623-0.761,0.852-1.063c-0.245-0.224-0.43-0.386-0.555-0.484
		c-0.203-0.146-0.417-0.273-0.641-0.383c0-0.042,0.104-0.169,0.313-0.383c0.016-0.031,0.037-0.047,0.063-0.047
		c0.068,0.052,0.138,0.106,0.211,0.164c0.151-0.198,0.287-0.396,0.406-0.594C-124.909,171.041-124.75,170.775-124.656,170.593z
		 M-123.75,175.163c0.016,0,0.026,0.021,0.031,0.063c0.13,0.308,0.276,0.805,0.438,1.492c0,0.042-0.146,0.086-0.438,0.133
		c-0.057,0-0.086-0.023-0.086-0.07c-0.068-0.474-0.174-0.974-0.32-1.5C-124.125,175.244-124,175.205-123.75,175.163z
		 M-123.063,174.819h1.25c0.094,0,0.156,0.011,0.188,0.031c0.146,0.12,0.219,0.211,0.219,0.273c-0.198,0.531-0.388,0.94-0.57,1.227
		c-0.146,0.25-0.313,0.477-0.5,0.68c-0.198,0.198-0.424,0.406-0.68,0.625c-0.037,0-0.06-0.016-0.07-0.047
		c-0.083-0.13-0.162-0.242-0.234-0.336c-0.026-0.016-0.039-0.031-0.039-0.047c0-0.042,0.008-0.07,0.023-0.086
		c0.172-0.094,0.349-0.216,0.531-0.367c0.182-0.146,0.37-0.362,0.563-0.648c0.125-0.172,0.242-0.391,0.352-0.656
		c0.021-0.052,0.044-0.104,0.07-0.156h-1.102c-0.063,0-0.094-0.039-0.094-0.117v-0.258
		C-123.156,174.858-123.125,174.819-123.063,174.819z M-121.156,170.562l0.43,0.109c0.068,0.016,0.102,0.052,0.102,0.109
		c0,0.078-0.034,0.117-0.102,0.117c-0.042,0.016-0.07,0.05-0.086,0.102c-0.057,0.13-0.117,0.245-0.18,0.344h1.648
		c0.083,0,0.125,0.031,0.125,0.094v2.727c0,0.058-0.042,0.086-0.125,0.086h-1.344v0.375c0.115,0.328,0.221,0.609,0.32,0.844
		c0.109-0.067,0.206-0.138,0.289-0.211c0.182-0.141,0.365-0.328,0.547-0.563c0.031-0.026,0.052-0.039,0.063-0.039
		c0.292,0.255,0.438,0.401,0.438,0.438c0,0.042-0.029,0.063-0.086,0.063c-0.099,0-0.154,0.013-0.164,0.039
		c-0.271,0.292-0.552,0.536-0.844,0.734c0.12,0.198,0.24,0.367,0.359,0.508c0.156,0.192,0.323,0.356,0.5,0.492
		c0.156,0.13,0.328,0.247,0.516,0.352c0,0.036-0.018,0.065-0.055,0.086c-0.068,0.078-0.13,0.161-0.188,0.25
		c-0.016,0.026-0.049,0.039-0.102,0.039c-0.229-0.13-0.458-0.297-0.688-0.5c-0.188-0.198-0.359-0.411-0.516-0.641
		c-0.135-0.188-0.266-0.403-0.391-0.648v1.383c0,0.401-0.323,0.602-0.969,0.602h-0.281c-0.037,0-0.055-0.052-0.055-0.156
		c-0.01-0.114-0.055-0.253-0.133-0.414v-0.031c0.156,0.042,0.302,0.063,0.438,0.063c0.292,0,0.438-0.094,0.438-0.281v-2.781h-1.375
		c-0.083,0-0.125-0.028-0.125-0.086v-2.727c0-0.063,0.042-0.094,0.125-0.094h1.07c0.099-0.198,0.201-0.438,0.305-0.719
		C-121.234,170.582-121.203,170.562-121.156,170.562z M-122.219,172.562h2.469v-0.742h-2.469V172.562z M-119.75,173.78v-0.75h-2.469
		v0.75H-119.75z"/>
</g>
<path fill="#F3F3F3" d="M-90.6,183.449c0.604,0,1.092-0.488,1.092-1.09c0-0.604-0.488-1.092-1.092-1.092
	c-0.602,0-1.09,0.488-1.09,1.092C-91.689,182.959-91.201,183.449-90.6,183.449L-90.6,183.449z"/>
</svg>
