<?xml version="1.0" encoding="utf-8"?>
<!-- Generator: Adobe Illustrator 15.1.0, SVG Export Plug-In . SVG Version: 6.00 Build 0)  -->
<!DOCTYPE svg PUBLIC "-//W3C//DTD SVG 1.1//EN" "http://www.w3.org/Graphics/SVG/1.1/DTD/svg11.dtd">
<svg version="1.1" id="圖層_1" xmlns="http://www.w3.org/2000/svg" xmlns:xlink="http://www.w3.org/1999/xlink" x="0px" y="0px"
	 width="15px" height="12px" viewBox="-383.5 316.5 15 12" enable-background="new -383.5 316.5 15 12" xml:space="preserve">
<title>more</title>
<path fill="#0B486B" d="M-374.643,323.073h-5.715c-0.316,0-0.571-0.257-0.571-0.572c0-0.316,0.255-0.571,0.571-0.571h5.714
	c0.315,0,0.571,0.255,0.571,0.571C-374.071,322.816-374.328,323.073-374.643,323.073L-374.643,323.073z"/>
<path fill="#0B486B" d="M-377.5,325.929c-0.316,0-0.571-0.255-0.571-0.571v-5.715c0-0.316,0.255-0.571,0.571-0.571
	c0.316,0,0.571,0.255,0.571,0.571v5.715C-376.929,325.674-377.184,325.929-377.5,325.929z"/>
<path fill="#0B486B" d="M-374.071,328.5h-6.857c-1.418,0-2.572-1.153-2.572-2.571v-6.857c0-1.416,1.153-2.571,2.572-2.571h6.857
	c1.417,0,2.571,1.155,2.571,2.571v6.857C-371.5,327.347-372.654,328.5-374.071,328.5z M-380.834,317.223
	c-1.072,0-1.945,0.872-1.945,1.943v6.668c0,1.072,0.873,1.943,1.945,1.943h6.668c1.072,0,1.944-0.872,1.944-1.943v-6.668
	c0-1.072-0.872-1.943-1.944-1.943H-380.834z"/>
</svg>
