<?xml version="1.0" encoding="utf-8"?>
<!-- Generator: Adobe Illustrator 15.1.0, SVG Export Plug-In . SVG Version: 6.00 Build 0)  -->
<!DOCTYPE svg PUBLIC "-//W3C//DTD SVG 1.1//EN" "http://www.w3.org/Graphics/SVG/1.1/DTD/svg11.dtd">
<svg version="1.1" id="圖層_1" xmlns="http://www.w3.org/2000/svg" xmlns:xlink="http://www.w3.org/1999/xlink" x="0px" y="0px"
	 width="30px" height="30px" viewBox="-383.5 316.5 30 30" enable-background="new -383.5 316.5 30 30" xml:space="preserve">
<title>move-right</title>
<path fill="#C1C1C1" d="M-361.852,329.251l5.588-5.456l-5.58-5.541l-1.644,1.656l2.654,2.637c-8.861,0.828-15.53,10.203-16.975,17.3
	l2.285,0.465c1.286-6.31,7.117-14.624,14.784-15.409l-2.741,2.678L-361.852,329.251L-361.852,329.251z"/>
<path fill="#C1C1C1" d="M-356.834,341.246c0,0.644-0.523,1.168-1.166,1.168h-21c-0.644,0-1.166-0.525-1.166-1.168V326.08
	c0-0.644,0.522-1.166,1.166-1.166h8.166v-2.334H-379c-1.931,0-3.5,1.57-3.5,3.5v15.166c0,1.931,1.569,3.5,3.5,3.5h21
	c1.931,0,3.5-1.569,3.5-3.5V326.12h-2.334V341.246z"/>
</svg>
