<?xml version="1.0" encoding="utf-8"?>
<!-- Generator: Adobe Illustrator 15.1.0, SVG Export Plug-In . SVG Version: 6.00 Build 0)  -->
<!DOCTYPE svg PUBLIC "-//W3C//DTD SVG 1.1//EN" "http://www.w3.org/Graphics/SVG/1.1/DTD/svg11.dtd">
<svg version="1.1" id="圖層_1" xmlns="http://www.w3.org/2000/svg" xmlns:xlink="http://www.w3.org/1999/xlink" x="0px" y="0px"
	 width="30px" height="30px" viewBox="-383.5 316.5 30 30" enable-background="new -383.5 316.5 30 30" xml:space="preserve">
<title>move-left</title>
<path fill="#C1C1C1" d="M-375.148,329.251l-5.589-5.456l5.58-5.541l1.645,1.656l-2.654,2.637c8.859,0.828,15.53,10.203,16.975,17.3
	l-2.286,0.465c-1.285-6.31-7.116-14.624-14.783-15.409l2.742,2.678L-375.148,329.251L-375.148,329.251z"/>
<path fill="#C1C1C1" d="M-380.166,341.246c0,0.644,0.524,1.168,1.166,1.168h21c0.645,0,1.166-0.525,1.166-1.168V326.08
	c0-0.644-0.521-1.166-1.166-1.166h-8.166v-2.334H-358c1.931,0,3.5,1.57,3.5,3.5v15.166c0,1.931-1.569,3.5-3.5,3.5h-21
	c-1.931,0-3.5-1.569-3.5-3.5V326.12h2.334V341.246z"/>
</svg>
