<?xml version="1.0" encoding="utf-8"?>
<!-- Generator: Adobe Illustrator 15.1.0, SVG Export Plug-In . SVG Version: 6.00 Build 0)  -->
<!DOCTYPE svg PUBLIC "-//W3C//DTD SVG 1.1//EN" "http://www.w3.org/Graphics/SVG/1.1/DTD/svg11.dtd">
<svg version="1.1" id="圖層_1" xmlns="http://www.w3.org/2000/svg" xmlns:xlink="http://www.w3.org/1999/xlink" x="0px" y="0px"
	 width="25px" height="25px" viewBox="-383.5 316.5 25 25" enable-background="new -383.5 316.5 25 25" xml:space="preserve">
<title>next</title>
<path fill="#FFFFFF" d="M-371,341.5c-6.893,0-12.5-5.606-12.5-12.5s5.607-12.5,12.5-12.5s12.5,5.606,12.5,12.5
	S-364.107,341.5-371,341.5z M-371,318.702c-5.679,0-10.298,4.618-10.298,10.298s4.62,10.298,10.298,10.298
	c5.679,0,10.298-4.618,10.298-10.298S-365.321,318.702-371,318.702z"/>
<path fill="#FFFFFF" d="M-373.689,335.147c-0.41,0-0.818-0.171-1.108-0.505c-0.532-0.611-0.468-1.539,0.145-2.07l4.105-3.573
	l-4.105-3.572c-0.612-0.532-0.676-1.459-0.145-2.071c0.532-0.611,1.458-0.676,2.07-0.144l5.379,4.681
	c0.32,0.279,0.504,0.682,0.504,1.106s-0.184,0.829-0.504,1.107l-5.379,4.68C-373.004,335.026-373.347,335.146-373.689,335.147
	L-373.689,335.147z"/>
</svg>
