<?xml version="1.0" encoding="utf-8"?>
<!-- Generator: Adobe Illustrator 15.1.0, SVG Export Plug-In . SVG Version: 6.00 Build 0)  -->
<!DOCTYPE svg PUBLIC "-//W3C//DTD SVG 1.1//EN" "http://www.w3.org/Graphics/SVG/1.1/DTD/svg11.dtd">
<svg version="1.1" id="圖層_1" xmlns="http://www.w3.org/2000/svg" xmlns:xlink="http://www.w3.org/1999/xlink" x="0px" y="0px"
	 width="22px" height="22px" viewBox="0 0 22 22" enable-background="new 0 0 22 22" xml:space="preserve">
<title>gavel</title>
<path fill="#4E85C4" d="M11,0c6.064,0,11,4.934,11,11c0,6.064-4.936,11-11,11C4.934,22,0,17.064,0,11C0,4.934,4.934,0,11,0z
	 M11,20.063c4.997,0,9.063-4.064,9.063-9.063S15.998,1.937,11,1.937S1.937,6.001,1.937,11C1.938,15.997,6.002,20.063,11,20.063z"/>
<path fill="#7F7F7F" d="M8.634,5.591c0.301,0,0.602,0.104,0.847,0.316l4.733,4.118c0.282,0.245,0.444,0.601,0.444,0.975
	s-0.162,0.729-0.444,0.975L9.48,16.092c-0.537,0.471-1.354,0.413-1.821-0.126c-0.469-0.538-0.411-1.354,0.126-1.821L11.398,11
	L7.785,7.855C7.247,7.388,7.19,6.573,7.659,6.034c0.255-0.295,0.613-0.445,0.975-0.445V5.591z"/>
</svg>
