<?xml version="1.0" encoding="utf-8"?>
<!-- Generator: Adobe Illustrator 15.1.0, SVG Export Plug-In . SVG Version: 6.00 Build 0)  -->
<!DOCTYPE svg PUBLIC "-//W3C//DTD SVG 1.1//EN" "http://www.w3.org/Graphics/SVG/1.1/DTD/svg11.dtd">
<svg version="1.1" id="圖層_1" xmlns="http://www.w3.org/2000/svg" xmlns:xlink="http://www.w3.org/1999/xlink" x="0px" y="0px"
	 width="25px" height="25px" viewBox="-383.5 316.5 25 25" enable-background="new -383.5 316.5 25 25" xml:space="preserve">
<title>nextpage</title>
<path d="M-374.708,336.112c0-2.121,1.727-3.847,3.849-3.847h1.595c0-0.002,0-0.003,0-0.004c0.001-1.027,0.401-1.993,1.129-2.72
	c0.727-0.724,1.691-1.125,2.719-1.125c0.444,0,0.873,0.089,1.28,0.232v-10.994c0-0.32-0.113-0.593-0.337-0.817
	c-0.225-0.225-0.499-0.338-0.818-0.338h-16.16c-0.32,0-0.593,0.113-0.818,0.338c-0.225,0.224-0.337,0.497-0.337,0.817v19.239
	c0,0.32,0.113,0.592,0.337,0.818c0.225,0.224,0.498,0.336,0.818,0.336h7.286C-374.502,337.478-374.708,336.823-374.708,336.112
	L-374.708,336.112z M-377.989,320.733c0-0.111,0.036-0.205,0.108-0.276s0.163-0.109,0.276-0.109h8.465
	c0.112,0,0.204,0.038,0.276,0.109s0.108,0.163,0.108,0.276v0.769c0,0.112-0.036,0.205-0.108,0.277s-0.164,0.109-0.276,0.109h-8.466
	c-0.111,0-0.204-0.037-0.276-0.109c-0.071-0.072-0.108-0.163-0.108-0.277L-377.989,320.733L-377.989,320.733z M-377.989,323.813
	c0-0.112,0.036-0.205,0.108-0.277c0.072-0.071,0.163-0.108,0.276-0.108h8.465c0.112,0,0.204,0.037,0.276,0.108
	c0.073,0.072,0.108,0.164,0.108,0.277v0.769c0,0.111-0.036,0.205-0.108,0.277c-0.072,0.071-0.164,0.108-0.276,0.108h-8.466
	c-0.111,0-0.204-0.037-0.276-0.108c-0.072-0.072-0.108-0.164-0.108-0.277L-377.989,323.813L-377.989,323.813z M-377.882,327.937
	c-0.072-0.072-0.108-0.163-0.108-0.277v-0.77c0-0.111,0.037-0.204,0.108-0.276c0.072-0.071,0.163-0.107,0.276-0.107h8.465
	c0.112,0,0.205,0.036,0.277,0.107c0.071,0.072,0.108,0.164,0.108,0.276v0.77c0,0.112-0.037,0.205-0.108,0.277
	c-0.072,0.072-0.164,0.108-0.277,0.108h-8.465C-377.717,328.045-377.809,328.009-377.882,327.937z"/>
<path d="M-366.506,331.177c-0.6,0.599-0.6,1.574,0,2.177l1.222,1.221h-5.575c-0.85,0-1.539,0.688-1.539,1.539
	c0,0.851,0.689,1.54,1.539,1.54h5.575l-1.222,1.221c-0.6,0.599-0.6,1.574,0,2.176c0.302,0.301,0.695,0.45,1.089,0.45
	s0.787-0.149,1.088-0.45l4.937-4.937l-4.937-4.937C-364.93,330.576-365.903,330.576-366.506,331.177L-366.506,331.177z"/>
</svg>
