<?xml version="1.0" encoding="utf-8"?>
<!-- Generator: Adobe Illustrator 15.1.0, SVG Export Plug-In . SVG Version: 6.00 Build 0)  -->
<!DOCTYPE svg PUBLIC "-//W3C//DTD SVG 1.1//EN" "http://www.w3.org/Graphics/SVG/1.1/DTD/svg11.dtd">
<svg version="1.1" id="圖層_1" xmlns="http://www.w3.org/2000/svg" xmlns:xlink="http://www.w3.org/1999/xlink" x="0px" y="0px"
	 width="22px" height="22px" viewBox="0 0 22 22" enable-background="new 0 0 22 22" xml:space="preserve">
<title>gavel</title>
<path fill="#4E85C4" d="M7.737,17.259c0-1.866,1.519-3.385,3.386-3.385h1.402c0-0.002,0-0.003,0-0.004
	c0.002-0.904,0.354-1.754,0.994-2.394c0.64-0.636,1.488-0.989,2.394-0.989c0.392,0,0.769,0.078,1.126,0.204V1.017
	c0-0.282-0.1-0.521-0.296-0.72C16.545,0.1,16.305,0,16.023,0H1.802C1.52,0,1.28,0.1,1.082,0.297
	c-0.197,0.197-0.296,0.438-0.296,0.72v16.931c0,0.282,0.1,0.521,0.296,0.72c0.198,0.197,0.438,0.296,0.72,0.296h6.412
	C7.918,18.46,7.737,17.885,7.737,17.259L7.737,17.259z M4.85,3.725c0-0.098,0.032-0.18,0.095-0.243S5.09,3.386,5.189,3.386h7.448
	c0.1,0,0.18,0.033,0.243,0.096s0.097,0.144,0.097,0.243v0.678c0,0.098-0.033,0.18-0.097,0.243s-0.144,0.096-0.243,0.096H5.188
	c-0.099,0-0.18-0.032-0.243-0.096S4.849,4.502,4.849,4.402L4.85,3.725L4.85,3.725z M4.85,6.435c0-0.099,0.032-0.181,0.095-0.244
	S5.09,6.096,5.189,6.096h7.448c0.1,0,0.18,0.032,0.243,0.095c0.063,0.064,0.097,0.145,0.097,0.244v0.677
	c0,0.099-0.033,0.181-0.097,0.244s-0.144,0.095-0.243,0.095H5.188c-0.099,0-0.18-0.032-0.243-0.095
	C4.88,7.291,4.849,7.21,4.849,7.111L4.85,6.435L4.85,6.435z M4.944,10.063C4.88,10,4.849,9.92,4.849,9.82V9.143
	c0-0.098,0.032-0.18,0.096-0.243c0.063-0.063,0.144-0.095,0.243-0.095h7.449c0.098,0,0.18,0.032,0.243,0.095
	s0.095,0.144,0.095,0.243V9.82c0,0.098-0.031,0.18-0.095,0.243s-0.144,0.096-0.243,0.096H5.188
	C5.089,10.159,5.008,10.127,4.944,10.063z"/>
<path fill="#7F7F7F" d="M14.955,12.916c-0.528,0.525-0.528,1.385,0,1.915l1.074,1.074h-4.905c-0.747,0-1.354,0.604-1.354,1.354
	c0,0.748,0.607,1.355,1.354,1.355h4.905l-1.074,1.073c-0.528,0.526-0.528,1.386,0,1.914C15.221,21.868,15.566,22,15.913,22
	s0.692-0.132,0.957-0.396l4.344-4.344l-4.344-4.344C16.342,12.387,15.484,12.387,14.955,12.916L14.955,12.916z"/>
</svg>
