<?xml version="1.0" encoding="utf-8"?>
<!-- Generator: Adobe Illustrator 15.1.0, SVG Export Plug-In . SVG Version: 6.00 Build 0)  -->
<!DOCTYPE svg PUBLIC "-//W3C//DTD SVG 1.1//EN" "http://www.w3.org/Graphics/SVG/1.1/DTD/svg11.dtd">
<svg version="1.1" id="圖層_1" xmlns="http://www.w3.org/2000/svg" xmlns:xlink="http://www.w3.org/1999/xlink" x="0px" y="0px"
	 width="50px" height="50px" viewBox="-3.5 28.5 50 50" enable-background="new -3.5 28.5 50 50" xml:space="preserve">
<title>notifications</title>
<path fill="#FFFFFF" d="M27.654,57.346l2.066,2.067v1.01H13.279v-1.01l2.067-2.067V52.25c0-3.174,1.684-5.77,4.616-6.49v-0.722
	c0-0.865,0.673-1.538,1.538-1.538c0.866,0,1.538,0.673,1.538,1.538v0.722c2.932,0.721,4.616,3.364,4.616,6.49L27.654,57.346
	L27.654,57.346z M21.5,63.5c-1.154,0-2.068-0.914-2.068-2.02h4.136C23.567,62.586,22.604,63.5,21.5,63.5L21.5,63.5z"/>
</svg>
