<?xml version="1.0" encoding="utf-8"?>
<!-- Generator: Adobe Illustrator 15.1.0, SVG Export Plug-In . SVG Version: 6.00 Build 0)  -->
<!DOCTYPE svg PUBLIC "-//W3C//DTD SVG 1.1//EN" "http://www.w3.org/Graphics/SVG/1.1/DTD/svg11.dtd">
<svg version="1.1" id="圖層_1" xmlns="http://www.w3.org/2000/svg" xmlns:xlink="http://www.w3.org/1999/xlink" x="0px" y="0px"
	 width="22px" height="22px" viewBox="0 0 22 22" enable-background="new 0 0 22 22" xml:space="preserve">
<path fill="#4E85C4" d="M3.83,3.867L3.693,4.172C3.401,4.826,2.985,5.312,2.42,5.66c-0.5,0.313-1.049,0.464-1.674,0.464L0,6.09
	v2.921h3.177v9.122h3.636V3.867H3.83z"/>
<path fill="#7F7F7F" d="M12.712,15.043c0.945-0.604,1.579-1.143,1.936-1.643c0.369-0.52,0.557-1.176,0.557-1.947
	c0-0.95-0.328-1.74-0.974-2.348C13.587,8.504,12.756,8.2,11.76,8.2c-1.07,0-1.93,0.333-2.552,0.99
	c-0.62,0.654-0.917,1.542-0.885,2.634l0.011,0.348h2.496l-0.011-0.369c-0.015-0.451,0.07-0.8,0.251-1.046
	c0.163-0.218,0.378-0.322,0.677-0.322c0.286,0,0.508,0.085,0.674,0.26c0.171,0.181,0.257,0.422,0.257,0.74
	c0,0.301-0.086,0.567-0.258,0.813c-0.189,0.27-0.533,0.578-1.025,0.92c-1.22,0.859-2.034,1.588-2.487,2.229
	c-0.468,0.662-0.704,1.461-0.704,2.377v0.359h7v-2.311h-3.566C11.918,15.576,12.275,15.318,12.712,15.043z"/>
<path fill="#7F7F7F" d="M21.216,13.514c-0.031-0.025-0.063-0.049-0.097-0.074c0.428-0.393,0.645-0.883,0.645-1.463
	c0-0.726-0.26-1.331-0.771-1.798c-0.503-0.459-1.152-0.692-1.93-0.692c-0.894,0-1.604,0.246-2.11,0.732
	c-0.508,0.489-0.772,1.183-0.784,2.061l-0.005,0.311h2.028l0.006-0.301c0.006-0.318,0.077-0.559,0.213-0.715
	c0.229-0.267,0.766-0.308,1.024-0.029c0.122,0.131,0.182,0.303,0.182,0.529c0,0.234-0.057,0.402-0.177,0.518
	c-0.095,0.092-0.227,0.146-0.4,0.168c-0.15,0.018-0.292,0.027-0.423,0.033l-0.204,0.002l-0.364-0.072v1.51l0.016,0.359l0.355-0.061
	c0.03-0.004,0.077-0.01,0.195-0.006c0.132,0.002,0.277,0.008,0.431,0.018c0.221,0.018,0.396,0.088,0.531,0.211
	c0.156,0.15,0.228,0.334,0.228,0.586c0,0.303-0.079,0.535-0.241,0.711c-0.314,0.342-0.957,0.33-1.219,0.014
	c-0.146-0.174-0.222-0.447-0.228-0.814l-0.005-0.301h-2.109l0.005,0.309c0.012,0.904,0.284,1.617,0.812,2.121
	c0.524,0.5,1.26,0.754,2.185,0.754c0.898,0,1.629-0.256,2.172-0.76C21.722,16.863,22,16.172,22,15.318
	C22,14.525,21.733,13.916,21.216,13.514z"/>
</svg>
