<?xml version="1.0" encoding="utf-8"?>
<!-- Generator: Adobe Illustrator 15.1.0, SVG Export Plug-In . SVG Version: 6.00 Build 0)  -->
<!DOCTYPE svg PUBLIC "-//W3C//DTD SVG 1.1//EN" "http://www.w3.org/Graphics/SVG/1.1/DTD/svg11.dtd">
<svg version="1.1" id="圖層_1" xmlns="http://www.w3.org/2000/svg" xmlns:xlink="http://www.w3.org/1999/xlink" x="0px" y="0px"
	 width="22px" height="22px" viewBox="0 0 22 22" enable-background="new 0 0 22 22" xml:space="preserve">
<title>inbox</title>
<path fill="#C4C4C4" d="M7.688,18.69h6.622v-0.828H7.688V18.69z M6.861,17.035h8.277v-0.828H6.861V17.035z"/>
<path fill="#7F7F7F" d="M15.677,4.153L11.894,0.37c-0.119-0.116-0.256-0.21-0.412-0.271c-0.309-0.13-0.656-0.13-0.965,0
	c-0.156,0.063-0.291,0.153-0.41,0.271L6.323,4.153c-0.493,0.494-0.493,1.289,0,1.782c0.245,0.247,0.57,0.369,0.893,0.369
	c0.321,0,0.646-0.122,0.892-0.369l1.629-1.63v7.438h0.012c0.055,0.644,0.59,1.149,1.25,1.149c0.661,0,1.195-0.507,1.25-1.149h0.016
	V4.306l1.629,1.63c0.248,0.247,0.572,0.369,0.894,0.369s0.646-0.122,0.892-0.369C16.168,5.442,16.168,4.644,15.677,4.153z"/>
<path fill="#4E85C4" d="M16.044,8.572c-0.324,0.116-0.665,0.183-1.016,0.196h0.107l4.633,7.427l-3.418,0.03l-1.699,3.313
	l-7.108-0.018l-1.824-3.309l-3.382-0.019l4.686-7.429h0.042c-0.336-0.018-0.659-0.078-0.97-0.176l-5.026,7.616v4.138
	c0,0.915,0.741,1.656,1.655,1.656h16.552c0.914,0,1.654-0.741,1.654-1.656v-4.138L16.044,8.572z"/>
</svg>
