<?xml version="1.0" encoding="utf-8"?>
<!-- Generator: Adobe Illustrator 15.1.0, SVG Export Plug-In . SVG Version: 6.00 Build 0)  -->
<!DOCTYPE svg PUBLIC "-//W3C//DTD SVG 1.1//EN" "http://www.w3.org/Graphics/SVG/1.1/DTD/svg11.dtd">
<svg version="1.1" id="圖層_1" xmlns="http://www.w3.org/2000/svg" xmlns:xlink="http://www.w3.org/1999/xlink" x="0px" y="0px"
	 width="22px" height="22px" viewBox="0 0 22 22" enable-background="new 0 0 22 22" xml:space="preserve">
<path fill="#4E85C4" d="M11,0c6.073,0,11,4.412,11,9.797c0,3.383-2.75,6.073-6.13,6.073h-2.12c-1.031,0-1.833,0.802-1.833,1.833
	c0,0.458,0.172,0.859,0.458,1.203s0.458,0.802,0.458,1.261C12.833,21.198,12.031,22,11,22C4.927,22,0,17.073,0,11S4.927,0,11,0z"/>
<path fill="#F3F3F3" d="M17.703,11c1.031,0,1.833-0.802,1.833-1.833s-0.802-1.834-1.833-1.834S15.87,8.136,15.87,9.167
	S16.672,11,17.703,11z"/>
<path fill="#009BF1" d="M14.036,6.13c1.03,0,1.834-0.802,1.834-1.833c0-1.031-0.804-1.833-1.834-1.833
	c-1.031,0-1.833,0.801-1.833,1.833C12.203,5.329,13.005,6.13,14.036,6.13z"/>
<path fill="#FEC100" d="M7.964,6.13c1.031,0,1.833-0.802,1.833-1.833c0-1.031-0.802-1.833-1.833-1.833
	c-1.031,0-1.834,0.802-1.834,1.833C6.13,5.328,6.933,6.13,7.964,6.13z"/>
<path fill="#FF5F65" d="M4.297,11c1.031,0,1.833-0.802,1.833-1.833S5.328,7.333,4.297,7.333c-1.031,0-1.833,0.803-1.833,1.834
	S3.266,11,4.297,11z"/>
</svg>
