<?xml version="1.0" encoding="utf-8"?>
<!-- Generator: Adobe Illustrator 15.1.0, SVG Export Plug-In . SVG Version: 6.00 Build 0)  -->
<!DOCTYPE svg PUBLIC "-//W3C//DTD SVG 1.1//EN" "http://www.w3.org/Graphics/SVG/1.1/DTD/svg11.dtd">
<svg version="1.1" id="圖層_1" xmlns="http://www.w3.org/2000/svg" xmlns:xlink="http://www.w3.org/1999/xlink" x="0px" y="0px"
	 width="25px" height="25px" viewBox="-387.5 312.5 25 25" enable-background="new -387.5 312.5 25 25" xml:space="preserve">
<title>palette</title>
<path d="M-367.383,325c1.172,0,2.083-0.911,2.083-2.083s-0.912-2.084-2.083-2.084s-2.083,0.912-2.083,2.084
	S-368.555,325-367.383,325z M-371.549,319.466c1.172,0,2.083-0.911,2.083-2.083s-0.911-2.083-2.083-2.083s-2.083,0.911-2.083,2.083
	S-372.721,319.466-371.549,319.466z M-378.45,319.466c1.172,0,2.083-0.911,2.083-2.083s-0.911-2.083-2.083-2.083
	c-1.173,0-2.083,0.911-2.083,2.083S-379.623,319.466-378.45,319.466z M-382.617,325c1.172,0,2.083-0.911,2.083-2.083
	s-0.912-2.084-2.083-2.084c-1.172,0-2.083,0.912-2.083,2.084S-383.789,325-382.617,325z M-375,312.5c6.901,0,12.5,5.013,12.5,11.133
	c0,3.843-3.125,6.901-6.966,6.901h-2.409c-1.172,0-2.083,0.911-2.083,2.083c0,0.521,0.195,0.977,0.521,1.367
	s0.521,0.911,0.521,1.433c0,1.172-0.912,2.083-2.083,2.083c-6.902,0-12.5-5.599-12.5-12.5S-381.902,312.5-375,312.5z"/>
</svg>
