<?xml version="1.0" encoding="utf-8"?>
<!-- Generator: Adobe Illustrator 15.1.0, SVG Export Plug-In . SVG Version: 6.00 Build 0)  -->
<!DOCTYPE svg PUBLIC "-//W3C//DTD SVG 1.1//EN" "http://www.w3.org/Graphics/SVG/1.1/DTD/svg11.dtd">
<svg version="1.1" id="圖層_1" xmlns="http://www.w3.org/2000/svg" xmlns:xlink="http://www.w3.org/1999/xlink" x="0px" y="0px"
	 width="40px" height="40px" viewBox="-387.5 312.5 40 40" enable-background="new -387.5 312.5 40 40" xml:space="preserve">
<title>palette2</title>
<path fill="#007AE1" d="M-362.93,332.5c0.703,0,1.25-0.547,1.25-1.25s-0.547-1.25-1.25-1.25s-1.25,0.547-1.25,1.25
	S-363.633,332.5-362.93,332.5z M-365.43,329.18c0.703,0,1.25-0.547,1.25-1.25s-0.547-1.25-1.25-1.25s-1.25,0.547-1.25,1.25
	S-366.133,329.18-365.43,329.18z M-369.57,329.18c0.703,0,1.25-0.547,1.25-1.25s-0.547-1.25-1.25-1.25
	c-0.704,0-1.25,0.547-1.25,1.25S-370.273,329.18-369.57,329.18z M-372.07,332.5c0.703,0,1.25-0.547,1.25-1.25s-0.547-1.25-1.25-1.25
	c-0.704,0-1.25,0.547-1.25,1.25S-372.773,332.5-372.07,332.5z M-367.5,325c4.141,0,7.5,3.008,7.5,6.68
	c0,2.306-1.875,4.141-4.18,4.141h-1.445c-0.703,0-1.25,0.547-1.25,1.25c0,0.313,0.117,0.586,0.313,0.82s0.313,0.547,0.313,0.859
	c0,0.703-0.547,1.25-1.25,1.25c-4.141,0-7.5-3.359-7.5-7.5S-371.641,325-367.5,325z"/>
</svg>
