<?xml version="1.0" encoding="utf-8"?>
<!-- Generator: Adobe Illustrator 15.1.0, SVG Export Plug-In . SVG Version: 6.00 Build 0)  -->
<!DOCTYPE svg PUBLIC "-//W3C//DTD SVG 1.1//EN" "http://www.w3.org/Graphics/SVG/1.1/DTD/svg11.dtd">
<svg version="1.1" id="圖層_1" xmlns="http://www.w3.org/2000/svg" xmlns:xlink="http://www.w3.org/1999/xlink" x="0px" y="0px"
	 width="22px" height="22px" viewBox="0 0 22 22" enable-background="new 0 0 22 22" xml:space="preserve">
<path fill="#7F7F7F" d="M10.271,2.75V1.375C10.271,0.619,9.652,0,8.896,0H7.063C6.307,0,5.688,0.619,5.688,1.375V2.75h-1.75V5.5
	h8.084V2.75H10.271z M8.896,2.75L8.896,2.75H7.063V1.377c0.001,0,0.001-0.001,0.003-0.002h1.828c0.001,0,0.002,0.001,0.003,0.002
	V2.75z"/>
<path fill="#C4C4C4" d="M2.375,18.333V4.625h0.688V2.75H1.438C0.92,2.75,0.5,3.17,0.5,3.688v15.583c0,0.517,0.42,0.938,0.938,0.938
	H9.25v-1.875H2.375z"/>
<path fill="#C4C4C4" d="M15.021,2.75h-1.625v1.875h0.688v1.75h1.875V3.688C15.959,3.17,15.538,2.75,15.021,2.75z"/>
<polygon fill="#4E85C4" points="10.666,22 21.5,22 21.5,7.875 13.791,7.875 10.666,11 "/>
</svg>
