<?xml version="1.0" encoding="utf-8"?>
<!-- Generator: Adobe Illustrator 15.1.0, SVG Export Plug-In . SVG Version: 6.00 Build 0)  -->
<!DOCTYPE svg PUBLIC "-//W3C//DTD SVG 1.1//EN" "http://www.w3.org/Graphics/SVG/1.1/DTD/svg11.dtd">
<svg version="1.1" id="圖層_1" xmlns="http://www.w3.org/2000/svg" xmlns:xlink="http://www.w3.org/1999/xlink" x="0px" y="0px"
	 width="20px" height="20px" viewBox="2.5 18.5 20 20" enable-background="new 2.5 18.5 20 20" xml:space="preserve">
<title>edit</title>
<path fill="#2F8AC1" d="M7.119,36.406l1.925-1.928l-2.521-2.524l-1.926,1.931v0.93H6.19v1.593L7.119,36.406L7.119,36.406z
	 M14.425,24.447c-0.176-0.178-0.356-0.172-0.548,0.018l-5.811,5.811c-0.188,0.192-0.195,0.375-0.02,0.553
	c0.177,0.178,0.359,0.171,0.549-0.02l5.814-5.813C14.596,24.807,14.602,24.623,14.425,24.447z M14.157,22.055l4.782,4.784L7.783,38
	H3v-4.783L14.157,22.055z M21.532,24.247l-1.524,1.526l-4.785-4.78l1.529-1.53C17.063,19.152,17.438,19,17.882,19
	c0.441,0,0.818,0.156,1.132,0.463l2.522,2.526C21.846,22.3,22,22.674,22,23.119C21.998,23.559,21.841,23.936,21.532,24.247
	L21.532,24.247z"/>
<path fill="#2F8AC1" d="M21.6,33.5h-2.1v-2.1c0-0.221-0.18-0.4-0.4-0.4H17.9c-0.221,0-0.4,0.18-0.4,0.4v2.1h-2.1
	c-0.221,0-0.4,0.18-0.4,0.4V35.1c0,0.221,0.18,0.4,0.4,0.4h2.1v2.1c0,0.221,0.18,0.4,0.4,0.4H19.1c0.221,0,0.4-0.18,0.4-0.4v-2.1
	h2.1c0.221,0,0.4-0.18,0.4-0.4V33.9C22,33.68,21.82,33.5,21.6,33.5z"/>
</svg>
