<?xml version="1.0" encoding="utf-8"?>
<!-- Generator: Adobe Illustrator 15.1.0, SVG Export Plug-In . SVG Version: 6.00 Build 0)  -->
<!DOCTYPE svg PUBLIC "-//W3C//DTD SVG 1.1//EN" "http://www.w3.org/Graphics/SVG/1.1/DTD/svg11.dtd">
<svg version="1.1" id="圖層_1" xmlns="http://www.w3.org/2000/svg" xmlns:xlink="http://www.w3.org/1999/xlink" x="0px" y="0px"
	 width="25px" height="25px" viewBox="-383.5 316.5 25 25" enable-background="new -383.5 316.5 25 25" xml:space="preserve">
<title>pen</title>
<path fill="#FFFFFF" d="M-363.78,321.083l-0.045,0.119c-0.005-0.002-0.008-0.002-0.01-0.003c0.599-2.285,0.532-3.954-0.349-4.507
	c-1.833-1.152-6.507,2.979-10.505,9.255v0.001c0.397-0.462,2.138,0.064,3.96,1.209c1.686,1.06,2.86,2.284,2.833,2.902
	c1.671-2.712,2.933-5.361,3.677-7.588c1.418,0.576,1.417,1.612,0.084,2.862c-1.4,1.313-2.87,2.304-2.559,3.992
	c0.194,1.056,1.458,1.545,1.916,1.029c0.024-0.025,0.038-0.046,0.057-0.07c0.06-0.053,0.107-0.114,0.135-0.192
	c0.042-0.08,0.046-0.146,0.023-0.206c-0.009-0.183-0.088-0.402-0.28-0.668c-1.113-1.538,2.055-4.3,2.656-6.007
	C-361.585,321.504-363.78,321.083-363.78,321.083L-363.78,321.083z"/>
<path fill="#FFFFFF" d="M-368.95,331.033c-0.351-0.665-1.366-1.609-2.703-2.448c-1.168-0.733-2.301-1.212-3.07-1.34
	c-0.323-0.029-0.556,0.023-0.665,0.167l-0.002-0.001l-0.002,0.007c-0.004,0.007-0.008,0.011-0.012,0.018l0.004,0.002l-2.322,6.673
	l0.004,0.001c-0.002,0.003-0.011,0.001-0.014,0.005c-0.024,0.039,0.031,0.125,0.139,0.238c-0.517,0.815-1.254,1.727-2.095,1.995
	c0,0,1.189,2.343-0.23,4.791l0.091,0.058l2.323-3.789c-0.068-0.126-0.046-0.25,0.037-0.381c0.132-0.211,0.438-0.257,0.684-0.101
	c0.041,0.025,0.07,0.06,0.103,0.091c0.098,0.151,0.119,0.333,0.028,0.479c-0.093,0.147-0.273,0.213-0.457,0.187l-2.312,3.77
	l0.012,0.009c0-0.001,0-0.002,0.001-0.003l0.063,0.041c1.588-2.341,4.229-2.236,4.229-2.236c-0.125-0.883,0.384-1.95,0.899-2.772
	c0.156,0.054,0.26,0.073,0.305,0.049c0.001,0.005,0.006,0.012,0.007,0.015l4.962-5.061l0.005,0.003
	c0.003-0.006,0.006-0.013,0.009-0.018l0.005-0.006l-0.002-0.001C-368.868,331.359-368.882,331.209-368.95,331.033L-368.95,331.033z"
	/>
</svg>
