<?xml version="1.0" encoding="utf-8"?>
<!-- Generator: Adobe Illustrator 15.1.0, SVG Export Plug-In . SVG Version: 6.00 Build 0)  -->
<!DOCTYPE svg PUBLIC "-//W3C//DTD SVG 1.1//EN" "http://www.w3.org/Graphics/SVG/1.1/DTD/svg11.dtd">
<svg version="1.1" id="圖層_1" xmlns="http://www.w3.org/2000/svg" xmlns:xlink="http://www.w3.org/1999/xlink" x="0px" y="0px"
	 width="22px" height="22px" viewBox="0 0 22 22" enable-background="new 0 0 22 22" xml:space="preserve">
<path fill="#7F7F7F" d="M21.703,4.252c-0.163,0-0.297,0.134-0.297,0.297v12.902c0,0.165,0.134,0.299,0.297,0.299
	c0.162,0,0.297-0.134,0.297-0.299V4.549C22,4.385,21.867,4.252,21.703,4.252z"/>
<path fill="#7F7F7F" d="M0.297,17.75c0.164,0,0.297-0.134,0.297-0.298V4.55c0-0.164-0.134-0.298-0.297-0.298S0,4.386,0,4.55v12.902
	C0,17.616,0.134,17.75,0.297,17.75z"/>
<path fill="#4E85C4" d="M19.919,3.063h-8.325c-0.235,0-0.439,0.676-0.594,0.81c-0.154-0.134-0.358-0.81-0.594-0.81H2.081
	c-0.518,0-0.891,0.376-0.891,0.892v14.092c0,0.518,0.374,0.893,0.891,0.893h8.325c0.235,0,0.439-0.676,0.594-0.81
	c0.154,0.134,0.358,0.81,0.594,0.81h8.325c0.519,0,0.892-0.375,0.892-0.893V3.954C20.811,3.438,20.438,3.063,19.919,3.063z"/>
<path fill="#F3F3F3" d="M9.216,15.105H3.271c-0.296,0-0.537-0.241-0.537-0.537c0-0.297,0.242-0.536,0.537-0.536h5.945
	c0.296,0,0.537,0.239,0.537,0.536C9.753,14.864,9.512,15.105,9.216,15.105z"/>
<path fill="#F3F3F3" d="M9.216,12.727H3.271c-0.296,0-0.537-0.24-0.537-0.535c0-0.297,0.242-0.536,0.537-0.536h5.945
	c0.296,0,0.537,0.239,0.537,0.536C9.753,12.486,9.512,12.727,9.216,12.727z"/>
<path fill="#F3F3F3" d="M9.216,10.349H3.271c-0.296,0-0.537-0.241-0.537-0.538c0-0.295,0.242-0.535,0.537-0.535h5.945
	c0.296,0,0.537,0.24,0.537,0.535C9.753,10.107,9.512,10.349,9.216,10.349z"/>
<path fill="#F3F3F3" d="M9.216,7.97H3.271c-0.296,0-0.537-0.24-0.537-0.536c0-0.297,0.242-0.537,0.537-0.537h5.945
	c0.296,0,0.537,0.241,0.537,0.537C9.753,7.729,9.512,7.97,9.216,7.97z"/>
<path fill="#F3F3F3" d="M18.729,15.105h-5.943c-0.297,0-0.537-0.241-0.537-0.537c0-0.297,0.24-0.536,0.537-0.536h5.945
	c0.295,0,0.535,0.239,0.535,0.536C19.266,14.864,19.025,15.105,18.729,15.105z"/>
<path fill="#F3F3F3" d="M18.729,12.727h-5.943c-0.297,0-0.537-0.24-0.537-0.535c0-0.297,0.24-0.536,0.537-0.536h5.945
	c0.295,0,0.535,0.239,0.535,0.536C19.266,12.486,19.025,12.727,18.729,12.727z"/>
<path fill="#F3F3F3" d="M18.729,10.349h-5.943c-0.297,0-0.537-0.241-0.537-0.538c0-0.295,0.24-0.535,0.537-0.535h5.945
	c0.295,0,0.535,0.24,0.535,0.535C19.266,10.107,19.025,10.349,18.729,10.349z"/>
<path fill="#F3F3F3" d="M18.729,7.97h-5.943c-0.297,0-0.537-0.24-0.537-0.536c0-0.297,0.24-0.537,0.537-0.537h5.945
	c0.295,0,0.535,0.241,0.535,0.537C19.266,7.729,19.025,7.97,18.729,7.97z"/>
</svg>
