<?xml version="1.0" encoding="utf-8"?>
<!-- Generator: Adobe Illustrator 15.1.0, SVG Export Plug-In . SVG Version: 6.00 Build 0)  -->
<!DOCTYPE svg PUBLIC "-//W3C//DTD SVG 1.1//EN" "http://www.w3.org/Graphics/SVG/1.1/DTD/svg11.dtd">
<svg version="1.1" id="圖層_1" xmlns="http://www.w3.org/2000/svg" xmlns:xlink="http://www.w3.org/1999/xlink" x="0px" y="0px"
	 width="25px" height="25px" viewBox="-383.5 316.5 25 25" enable-background="new -383.5 316.5 25 25" xml:space="preserve">
<title>phrase</title>
<path d="M-358.837,321.332c-0.185,0-0.337,0.15-0.337,0.338v14.66c0,0.188,0.152,0.34,0.337,0.34s0.337-0.152,0.337-0.34v-14.66
	C-358.5,321.482-358.651,321.332-358.837,321.332z"/>
<path d="M-383.163,336.67c0.186,0,0.337-0.152,0.337-0.338V321.67c0-0.188-0.152-0.338-0.337-0.338s-0.337,0.15-0.337,0.338v14.662
	C-383.5,336.518-383.348,336.67-383.163,336.67z"/>
<path d="M-360.865,319.98h-9.46c-0.267,0-0.499,0.768-0.674,0.92c-0.176-0.154-0.408-0.92-0.675-0.92h-9.46
	c-0.588,0-1.012,0.426-1.012,1.014v16.012c0,0.588,0.424,1.014,1.012,1.014h9.46c0.268,0,0.499-0.768,0.675-0.92
	c0.176,0.152,0.407,0.92,0.674,0.92h9.46c0.589,0,1.013-0.426,1.013-1.014v-16.012C-359.852,320.406-360.276,319.98-360.865,319.98z
	 M-373.027,333.664h-6.756c-0.336,0-0.61-0.273-0.61-0.609c0-0.338,0.274-0.609,0.61-0.609h6.756c0.337,0,0.609,0.271,0.609,0.609
	C-372.418,333.391-372.69,333.664-373.027,333.664z M-373.027,330.961h-6.756c-0.336,0-0.61-0.271-0.61-0.607
	c0-0.338,0.274-0.611,0.61-0.611h6.756c0.337,0,0.609,0.273,0.609,0.611C-372.418,330.689-372.69,330.961-373.027,330.961z
	 M-373.027,328.26h-6.756c-0.336,0-0.61-0.273-0.61-0.611c0-0.336,0.274-0.609,0.61-0.609h6.756c0.337,0,0.609,0.273,0.609,0.609
	C-372.418,327.986-372.69,328.26-373.027,328.26z M-373.027,325.557h-6.756c-0.336,0-0.61-0.273-0.61-0.611
	c0-0.336,0.274-0.609,0.61-0.609h6.756c0.337,0,0.609,0.275,0.609,0.609C-372.418,325.283-372.69,325.557-373.027,325.557z
	 M-362.216,333.664h-6.756c-0.337,0-0.61-0.273-0.61-0.609c0-0.338,0.273-0.609,0.61-0.609h6.757c0.336,0,0.609,0.271,0.609,0.609
	C-361.606,333.391-361.88,333.664-362.216,333.664z M-362.216,330.961h-6.756c-0.337,0-0.61-0.271-0.61-0.607
	c0-0.338,0.273-0.611,0.61-0.611h6.757c0.336,0,0.609,0.273,0.609,0.611C-361.608,330.689-361.88,330.961-362.216,330.961z
	 M-362.216,328.26h-6.756c-0.337,0-0.61-0.273-0.61-0.611c0-0.336,0.273-0.609,0.61-0.609h6.757c0.336,0,0.609,0.273,0.609,0.609
	C-361.608,327.986-361.88,328.26-362.216,328.26z M-362.216,325.557h-6.756c-0.337,0-0.61-0.273-0.61-0.611
	c0-0.336,0.273-0.609,0.61-0.609h6.757c0.336,0,0.609,0.275,0.609,0.609C-361.606,325.283-361.88,325.557-362.216,325.557z"/>
</svg>
