<?xml version="1.0" encoding="utf-8"?>
<!-- Generator: Adobe Illustrator 15.1.0, SVG Export Plug-In . SVG Version: 6.00 Build 0)  -->
<!DOCTYPE svg PUBLIC "-//W3C//DTD SVG 1.1//EN" "http://www.w3.org/Graphics/SVG/1.1/DTD/svg11.dtd">
<svg version="1.1" id="圖層_1" xmlns="http://www.w3.org/2000/svg" xmlns:xlink="http://www.w3.org/1999/xlink" x="0px" y="0px"
	 width="22px" height="22px" viewBox="0 0 22 22" enable-background="new 0 0 22 22" xml:space="preserve">
<title>gavel</title>
<path fill="#4E85C4" d="M10.999,21.998c-6.064,0-11-4.934-11-11c0-6.065,4.936-11,11-11c6.065,0,11,4.935,11,11
	C21.999,17.064,17.064,21.998,10.999,21.998z M10.999,1.936c-4.997,0-9.063,4.065-9.063,9.063s4.065,9.063,9.063,9.063
	s9.063-4.064,9.063-9.063C20.063,6.001,15.997,1.936,10.999,1.936z"/>
<path fill="#7F7F7F" d="M13.365,16.407c-0.301,0-0.602-0.104-0.848-0.316l-4.732-4.118c-0.282-0.244-0.444-0.601-0.444-0.975
	s0.162-0.729,0.444-0.975l4.732-4.117c0.537-0.47,1.354-0.413,1.821,0.126c0.47,0.538,0.411,1.354-0.126,1.821L10.6,10.998
	l3.613,3.145c0.538,0.469,0.596,1.282,0.126,1.821c-0.255,0.295-0.612,0.445-0.976,0.445v-0.002H13.365z"/>
</svg>
