<?xml version="1.0" encoding="utf-8"?>
<!-- Generator: Adobe Illustrator 15.1.0, SVG Export Plug-In . SVG Version: 6.00 Build 0)  -->
<!DOCTYPE svg PUBLIC "-//W3C//DTD SVG 1.1//EN" "http://www.w3.org/Graphics/SVG/1.1/DTD/svg11.dtd">
<svg version="1.1" id="圖層_1" xmlns="http://www.w3.org/2000/svg" xmlns:xlink="http://www.w3.org/1999/xlink" x="0px" y="0px"
	 width="25px" height="25px" viewBox="-383.5 316.5 25 25" enable-background="new -383.5 316.5 25 25" xml:space="preserve">
<title>previous</title>
<path fill="#FFFFFF" d="M-371,341.5c-6.892,0-12.5-5.606-12.5-12.5s5.608-12.5,12.5-12.5c6.893,0,12.5,5.606,12.5,12.5
	S-364.107,341.5-371,341.5z M-371,318.702c-5.679,0-10.298,4.618-10.298,10.298s4.62,10.298,10.298,10.298
	c5.679,0,10.298-4.618,10.298-10.298S-365.321,318.702-371,318.702z"/>
<path fill="#FFFFFF" d="M-368.312,335.147c-0.341,0-0.684-0.119-0.962-0.36l-5.379-4.68c-0.321-0.279-0.504-0.683-0.504-1.107
	s0.183-0.828,0.504-1.107l5.379-4.68c0.611-0.533,1.539-0.468,2.07,0.145c0.533,0.611,0.468,1.538-0.144,2.069l-4.106,3.573
	l4.106,3.573c0.612,0.531,0.676,1.458,0.144,2.069C-367.494,334.979-367.901,335.148-368.312,335.147L-368.312,335.147z"/>
</svg>
