<?xml version="1.0" encoding="utf-8"?>
<!-- Generator: Adobe Illustrator 15.1.0, SVG Export Plug-In . SVG Version: 6.00 Build 0)  -->
<!DOCTYPE svg PUBLIC "-//W3C//DTD SVG 1.1//EN" "http://www.w3.org/Graphics/SVG/1.1/DTD/svg11.dtd">
<svg version="1.1" id="圖層_1" xmlns="http://www.w3.org/2000/svg" xmlns:xlink="http://www.w3.org/1999/xlink" x="0px" y="0px"
	 width="25px" height="25px" viewBox="-387 313 25 25" enable-background="new -387 313 25 25" xml:space="preserve">
<title>previous</title>
<path fill="#2F8AC1" d="M-374.5,338c-6.892,0-12.5-5.606-12.5-12.5s5.608-12.5,12.5-12.5c6.893,0,12.5,5.606,12.5,12.5
	S-367.607,338-374.5,338z M-374.5,315.202c-5.679,0-10.298,4.618-10.298,10.298s4.62,10.298,10.298,10.298
	c5.679,0,10.298-4.618,10.298-10.298S-368.821,315.202-374.5,315.202z"/>
<path fill="#2F8AC1" d="M-371.812,331.647c-0.341,0-0.684-0.119-0.962-0.36l-5.379-4.68c-0.321-0.279-0.504-0.684-0.504-1.107
	s0.183-0.828,0.504-1.107l5.379-4.68c0.611-0.533,1.539-0.468,2.07,0.146c0.533,0.61,0.468,1.538-0.144,2.068l-4.106,3.573
	l4.106,3.573c0.612,0.531,0.676,1.458,0.144,2.068C-370.994,331.479-371.401,331.648-371.812,331.647L-371.812,331.647z"/>
</svg>
