<?xml version="1.0" encoding="utf-8"?>
<!-- Generator: Adobe Illustrator 15.1.0, SVG Export Plug-In . SVG Version: 6.00 Build 0)  -->
<!DOCTYPE svg PUBLIC "-//W3C//DTD SVG 1.1//EN" "http://www.w3.org/Graphics/SVG/1.1/DTD/svg11.dtd">
<svg version="1.1" id="圖層_1" xmlns="http://www.w3.org/2000/svg" xmlns:xlink="http://www.w3.org/1999/xlink" x="0px" y="0px"
	 width="22px" height="22px" viewBox="0 0 22 22" enable-background="new 0 0 22 22" xml:space="preserve">
<path fill="#C4C4C4" d="M15.734,5.049L11.41,0.722c-0.1-0.099-0.228-0.197-0.383-0.297V5.43h5.005
	C15.934,5.274,15.835,5.146,15.734,5.049z"/>
<path fill="#C4C4C4" d="M13.063,10.864c-2.051,0-3.715,1.663-3.715,3.715s1.665,3.715,3.715,3.715c2.053,0,3.715-1.663,3.715-3.715
	S15.113,10.864,13.063,10.864z M12.055,15.864c-0.864,0-1.562-0.699-1.562-1.563c0-0.86,0.699-1.562,1.562-1.562
	c0.862,0,1.562,0.699,1.562,1.562C13.615,15.166,12.918,15.864,12.055,15.864z"/>
<path fill="#7F7F7F" d="M13.063,22c-4.666,0-8.276-5.217-8.429-5.438l-0.343-0.502l0.342-0.502c0.152-0.222,3.763-5.437,8.43-5.437
	c4.666,0,8.275,5.214,8.43,5.437l0.341,0.502l-0.341,0.502C21.34,16.784,17.729,22,13.063,22z M6.484,16.061
	c0.955,1.203,3.602,4.157,6.579,4.157c2.978,0,5.623-2.952,6.578-4.157c-0.955-1.207-3.602-4.158-6.578-4.158
	c-2.987,0-5.625,2.951-6.579,4.156V16.061z"/>
<path fill="#4E85C4" d="M3.408,17.398l-0.913-1.338l0.914-1.34c0.424-0.623,4.306-6.085,9.653-6.085
	c1.217,0,2.353,0.291,3.394,0.734V6.786h-5.768c-0.283,0-0.522-0.098-0.721-0.297c-0.199-0.198-0.298-0.438-0.298-0.72V0H1.185
	C0.902,0,0.662,0.098,0.463,0.297C0.265,0.495,0.167,0.734,0.167,1.018v16.968c0,0.281,0.098,0.522,0.296,0.721
	c0.199,0.198,0.439,0.297,0.722,0.297h3.501C3.983,18.217,3.536,17.586,3.408,17.398L3.408,17.398z"/>
</svg>
