<?xml version="1.0" encoding="utf-8"?>
<!-- Generator: Adobe Illustrator 15.1.0, SVG Export Plug-In . SVG Version: 6.00 Build 0)  -->
<!DOCTYPE svg PUBLIC "-//W3C//DTD SVG 1.1//EN" "http://www.w3.org/Graphics/SVG/1.1/DTD/svg11.dtd">
<svg version="1.1" id="圖層_1" xmlns="http://www.w3.org/2000/svg" xmlns:xlink="http://www.w3.org/1999/xlink" x="0px" y="0px"
	 width="25px" height="25px" viewBox="-383.5 316.5 25 25" enable-background="new -383.5 316.5 25 25" xml:space="preserve">
<title>preview</title>
<path d="M-365.618,322.236l-4.917-4.917c-0.114-0.112-0.258-0.224-0.435-0.337v5.688h5.688
	C-365.394,322.494-365.505,322.349-365.618,322.236z"/>
<path d="M-368.656,328.846c-2.332,0-4.223,1.891-4.223,4.222c0,2.332,1.892,4.221,4.223,4.221c2.332,0,4.222-1.889,4.222-4.221
	C-364.435,330.736-366.325,328.846-368.656,328.846z M-369.802,334.528c-0.98,0-1.774-0.795-1.774-1.774
	c0-0.98,0.794-1.775,1.774-1.775c0.98,0,1.774,0.795,1.774,1.775S-368.821,334.528-369.802,334.528z"/>
<path d="M-368.656,341.5c-5.302,0-9.405-5.928-9.579-6.18l-0.389-0.571l0.389-0.569c0.173-0.251,4.277-6.178,9.579-6.178
	s9.405,5.925,9.579,6.178l0.388,0.569l-0.388,0.571C-359.25,335.573-363.355,341.5-368.656,341.5z M-376.132,334.749
	c1.085,1.369,4.093,4.726,7.476,4.726c3.382,0,6.389-3.355,7.475-4.726c-1.086-1.37-4.093-4.724-7.475-4.724
	C-372.052,330.025-375.05,333.379-376.132,334.749L-376.132,334.749z"/>
<path d="M-379.627,336.271l-1.039-1.521l1.039-1.521c0.482-0.708,4.893-6.915,10.971-6.915c1.382,0,2.672,0.331,3.855,0.836v-2.937
	h-6.555c-0.321,0-0.594-0.111-0.819-0.337c-0.226-0.227-0.338-0.499-0.338-0.819V316.5h-9.641c-0.321,0-0.594,0.111-0.82,0.338
	c-0.226,0.225-0.337,0.497-0.337,0.819v19.281c0,0.32,0.111,0.594,0.337,0.819c0.226,0.225,0.499,0.336,0.82,0.336h3.979
	C-378.974,337.201-379.482,336.484-379.627,336.271L-379.627,336.271z"/>
</svg>
