<?xml version="1.0" encoding="utf-8"?>
<!-- Generator: Adobe Illustrator 15.1.0, SVG Export Plug-In . SVG Version: 6.00 Build 0)  -->
<!DOCTYPE svg PUBLIC "-//W3C//DTD SVG 1.1//EN" "http://www.w3.org/Graphics/SVG/1.1/DTD/svg11.dtd">
<svg version="1.1" id="圖層_1" xmlns="http://www.w3.org/2000/svg" xmlns:xlink="http://www.w3.org/1999/xlink" x="0px" y="0px"
	 width="25px" height="25px" viewBox="-383.5 316.5 25 25" enable-background="new -383.5 316.5 25 25" xml:space="preserve">
<title>printer</title>
<path fill="#2F8AC1" d="M-378.851,322.388v-4.135c0-0.91,0.738-1.65,1.65-1.65h12.401c0.916,0,1.65,0.739,1.65,1.65v4.135H-378.851z
	 M-380.194,336.438h-0.831c-1.368,0-2.475-1.11-2.475-2.479v-7.438c0-1.367,1.108-2.479,2.475-2.479h20.051
	c1.368,0,2.474,1.11,2.474,2.479v7.438c0,1.368-1.108,2.479-2.474,2.479h-0.832v-4.132h-18.39L-380.194,336.438L-380.194,336.438z
	 M-378.024,333.959h14.049v5.786c0,0.917-0.739,1.652-1.649,1.652h-10.749c-0.915,0-1.65-0.74-1.65-1.652L-378.024,333.959
	L-378.024,333.959z M-363.562,329.826c0.684,0,1.24-0.555,1.24-1.239s-0.556-1.239-1.24-1.239s-1.238,0.555-1.238,1.239
	S-364.246,329.826-363.562,329.826L-363.562,329.826z M-376.372,335.612v1.652h10.745v-1.652H-376.372z M-376.372,338.091v1.653
	h10.745v-1.653H-376.372z"/>
</svg>
