<?xml version="1.0" encoding="utf-8"?>
<!-- Generator: Adobe Illustrator 15.1.0, SVG Export Plug-In . SVG Version: 6.00 Build 0)  -->
<!DOCTYPE svg PUBLIC "-//W3C//DTD SVG 1.1//EN" "http://www.w3.org/Graphics/SVG/1.1/DTD/svg11.dtd">
<svg version="1.1" id="圖層_1" xmlns="http://www.w3.org/2000/svg" xmlns:xlink="http://www.w3.org/1999/xlink" x="0px" y="0px"
	 width="22px" height="22px" viewBox="0 0 22 22" enable-background="new 0 0 22 22" xml:space="preserve">
<path fill="#C4C4C4" d="M4.091,5.182V1.543c0-0.801,0.649-1.452,1.452-1.452h10.913c0.806,0,1.452,0.65,1.452,1.452v3.639H4.091z"/>
<path fill="#4E85C4" d="M2.909,17.545H2.178C0.974,17.545,0,16.568,0,15.364V8.818c0-1.203,0.976-2.182,2.178-2.182h17.645
	C21.025,6.637,22,7.613,22,8.818v6.546c0,1.204-0.977,2.181-2.178,2.181h-0.731V13.91H2.908L2.909,17.545L2.909,17.545z"/>
<path fill="#7F7F7F" d="M4.818,15.364h12.364v5.091c0,0.809-0.649,1.454-1.451,1.454H6.271c-0.806,0-1.452-0.651-1.452-1.454
	L4.818,15.364L4.818,15.364z"/>
<path fill="#F3F3F3" d="M17.545,11.729c0.604,0,1.092-0.489,1.092-1.091c0-0.603-0.488-1.091-1.092-1.091
	c-0.602,0-1.09,0.488-1.09,1.091C16.455,11.238,16.943,11.729,17.545,11.729L17.545,11.729z"/>
<rect x="6.272" y="16.818" fill="#F3F3F3" width="9.455" height="1.453"/>
<rect x="6.272" y="19" fill="#F3F3F3" width="9.455" height="1.454"/>
</svg>
