<?xml version="1.0" encoding="utf-8"?>
<!-- Generator: Adobe Illustrator 15.1.0, SVG Export Plug-In . SVG Version: 6.00 Build 0)  -->
<!DOCTYPE svg PUBLIC "-//W3C//DTD SVG 1.1//EN" "http://www.w3.org/Graphics/SVG/1.1/DTD/svg11.dtd">
<svg version="1.1" id="圖層_1" xmlns="http://www.w3.org/2000/svg" xmlns:xlink="http://www.w3.org/1999/xlink" x="0px" y="0px"
	 width="25px" height="25px" viewBox="-383.5 316.5 25 25" enable-background="new -383.5 316.5 25 25" xml:space="preserve">
<title>processset</title>
<path d="M-372.142,325.56v1.791h5.013c0.151,0,0.299,0.063,0.407,0.17c0.107,0.105,0.168,0.254,0.168,0.405v2.688h-1.151v-2.112
	h-10.024v2.112h-1.153v-2.688c0-0.151,0.063-0.299,0.169-0.405c0.108-0.107,0.256-0.17,0.407-0.17h5.013v-1.791H-372.142
	L-372.142,325.56z"/>
<path d="M-369.131,318.938c0.048,0.048,0.095,0.109,0.143,0.185h-2.418v-2.418c0.076,0.048,0.137,0.096,0.185,0.144
	L-369.131,318.938L-369.131,318.938z M-371.569,319.778h2.786v5.409c0,0.137-0.047,0.253-0.143,0.349
	c-0.095,0.097-0.211,0.143-0.348,0.143h-6.885c-0.137,0-0.252-0.048-0.349-0.143c-0.095-0.096-0.143-0.212-0.143-0.349v-8.195
	c0-0.137,0.048-0.252,0.143-0.349c0.097-0.096,0.212-0.144,0.349-0.144h4.098v2.787c0,0.137,0.048,0.253,0.143,0.348
	C-371.821,319.73-371.706,319.778-371.569,319.778z"/>
<path d="M-374.64,331.983c0.048,0.048,0.096,0.109,0.143,0.185h-2.417v-2.419c0.075,0.049,0.137,0.097,0.184,0.144L-374.64,331.983
	L-374.64,331.983z M-377.077,332.822h2.786v5.409c0,0.138-0.048,0.253-0.143,0.35c-0.097,0.095-0.212,0.142-0.349,0.142h-6.885
	c-0.137,0-0.252-0.048-0.349-0.142c-0.095-0.097-0.143-0.212-0.143-0.35v-8.195c0-0.138,0.048-0.253,0.143-0.348
	c0.097-0.097,0.212-0.143,0.349-0.143h4.098v2.787c0,0.136,0.048,0.251,0.144,0.348c0.096,0.095,0.211,0.144,0.349,0.144V332.822z"
	/>
<path d="M-360.126,337.25h-0.34c-0.155,0-0.321-0.121-0.367-0.271l-0.195-0.474c-0.074-0.139-0.044-0.341,0.067-0.449l0.24-0.242
	c0.111-0.109,0.111-0.291,0-0.401l-0.4-0.401c-0.11-0.109-0.29-0.109-0.401,0l-0.241,0.242c-0.11,0.11-0.313,0.14-0.45,0.067
	l-0.475-0.196c-0.147-0.046-0.271-0.211-0.271-0.367v-0.34c0-0.155-0.128-0.283-0.282-0.283h-0.566
	c-0.156,0-0.285,0.128-0.285,0.283v0.34c0,0.156-0.12,0.321-0.269,0.367l-0.476,0.196c-0.137,0.072-0.34,0.043-0.448-0.067
	l-0.242-0.242c-0.11-0.109-0.289-0.109-0.4,0l-0.401,0.401c-0.11,0.11-0.11,0.292,0,0.401l0.241,0.242
	c0.111,0.108,0.14,0.312,0.066,0.449l-0.195,0.474c-0.045,0.149-0.21,0.271-0.367,0.271h-0.339c-0.157,0-0.284,0.129-0.284,0.284
	v0.566c0,0.157,0.127,0.283,0.284,0.283h0.339c0.157,0,0.322,0.123,0.367,0.271l0.195,0.474c0.075,0.137,0.045,0.34-0.065,0.45
	l-0.242,0.242c-0.11,0.11-0.11,0.29,0,0.4l0.401,0.401c0.111,0.11,0.291,0.11,0.4,0l0.242-0.242c0.109-0.109,0.311-0.14,0.448-0.065
	l0.476,0.195c0.148,0.047,0.271,0.212,0.271,0.368v0.339c0,0.155,0.127,0.282,0.284,0.282h0.565c0.155,0,0.283-0.127,0.283-0.282
	v-0.339c0-0.156,0.123-0.321,0.271-0.368l0.475-0.195c0.139-0.074,0.341-0.045,0.451,0.065l0.24,0.242c0.11,0.11,0.291,0.11,0.401,0
	l0.4-0.401c0.11-0.11,0.11-0.29,0-0.4l-0.241-0.242c-0.11-0.11-0.14-0.313-0.066-0.45l0.194-0.474
	c0.047-0.149,0.213-0.271,0.367-0.271h0.341c0.156,0,0.283-0.126,0.283-0.282v-0.567
	C-359.842,337.379-359.969,337.25-360.126,337.25L-360.126,337.25z M-362.108,337.817c0,0.781-0.635,1.416-1.416,1.416
	c-0.783,0-1.418-0.635-1.418-1.416c0-0.782,0.635-1.417,1.418-1.417C-362.743,336.4-362.108,337.035-362.108,337.817z"/>
<path d="M-363.622,331.983l-2.091-2.091c-0.048-0.047-0.109-0.095-0.184-0.143v2.418h2.418
	C-363.527,332.093-363.575,332.031-363.622,331.983z"/>
<path d="M-368.192,338.101v-0.566c0-0.604,0.426-1.112,0.995-1.237c-0.128-0.199-0.198-0.434-0.198-0.681
	c0-0.34,0.133-0.66,0.373-0.9l0.397-0.398c0.415-0.413,1.099-0.48,1.578-0.172c0.126-0.569,0.633-0.995,1.238-0.995h0.534v-0.328
	h-2.787c-0.137,0-0.253-0.047-0.349-0.143s-0.144-0.211-0.144-0.349v-2.786h-4.097c-0.137,0-0.253,0.047-0.349,0.143
	s-0.144,0.211-0.144,0.348v8.196c0,0.137,0.049,0.252,0.144,0.348c0.096,0.096,0.212,0.144,0.349,0.144h2.623
	C-368.132,338.539-368.192,338.326-368.192,338.101L-368.192,338.101z"/>
</svg>
