<?xml version="1.0" encoding="utf-8"?>
<!-- Generator: Adobe Illustrator 15.1.0, SVG Export Plug-In . SVG Version: 6.00 Build 0)  -->
<!DOCTYPE svg PUBLIC "-//W3C//DTD SVG 1.1//EN" "http://www.w3.org/Graphics/SVG/1.1/DTD/svg11.dtd">
<svg version="1.1" id="圖層_1" xmlns="http://www.w3.org/2000/svg" xmlns:xlink="http://www.w3.org/1999/xlink" x="0px" y="0px"
	 width="22px" height="22px" viewBox="0 0 22 22" enable-background="new 0 0 22 22" xml:space="preserve">
<title>gavel</title>
<path fill="#7F7F7F" d="M10.416,8.968v1.774h4.963c0.148,0,0.297,0.062,0.402,0.167c0.107,0.105,0.168,0.252,0.168,0.402v2.659
	h-1.143v-2.09h-9.92v2.09H3.743v-2.659c0-0.15,0.062-0.297,0.167-0.402c0.106-0.106,0.253-0.167,0.402-0.167h4.963V8.968H10.416
	L10.416,8.968z"/>
<path fill="#C4C4C4" d="M13.396,2.414c0.047,0.047,0.094,0.108,0.143,0.183h-2.395V0.202c0.075,0.048,0.135,0.096,0.183,0.143
	L13.396,2.414L13.396,2.414z"/>
<path fill="#4E85C4" d="M10.983,3.245h2.759v5.356c0,0.135-0.047,0.249-0.141,0.345c-0.097,0.094-0.209,0.14-0.347,0.14H6.439
	c-0.134,0-0.248-0.047-0.345-0.14c-0.093-0.095-0.14-0.209-0.14-0.344V0.486c0-0.135,0.049-0.249,0.141-0.344
	C6.191,0.047,6.305,0,6.439,0h4.059v2.758c0,0.136,0.046,0.251,0.141,0.344C10.733,3.198,10.847,3.245,10.983,3.245z"/>
<path fill="#C4C4C4" d="M7.943,15.328c0.047,0.049,0.096,0.107,0.142,0.184H5.692v-2.395c0.074,0.047,0.134,0.096,0.182,0.143
	L7.943,15.328L7.943,15.328z"/>
<path fill="#4E85C4" d="M5.529,16.158h2.759v5.355c0,0.137-0.047,0.25-0.142,0.346C8.052,21.953,7.938,22,7.801,22H0.986
	c-0.134,0-0.249-0.047-0.345-0.141C0.546,21.764,0.5,21.65,0.5,21.514v-8.111c0-0.139,0.046-0.252,0.141-0.346
	c0.096-0.096,0.211-0.141,0.345-0.141h4.057v2.758c0,0.133,0.047,0.25,0.142,0.346c0.095,0.095,0.209,0.144,0.345,0.144
	L5.529,16.158L5.529,16.158z"/>
<path fill="#7F7F7F" d="M21.252,18.261h-0.299c-0.139,0-0.283-0.106-0.324-0.239l-0.172-0.416c-0.064-0.123-0.039-0.299,0.059-0.396
	l0.213-0.213c0.099-0.097,0.099-0.257,0-0.354l-0.354-0.354c-0.098-0.098-0.256-0.098-0.354,0l-0.211,0.213
	c-0.099,0.098-0.275,0.123-0.396,0.061l-0.418-0.174c-0.129-0.039-0.238-0.186-0.238-0.322v-0.299c0-0.138-0.113-0.25-0.248-0.25
	h-0.498c-0.139,0-0.252,0.112-0.252,0.25v0.299c0,0.138-0.105,0.283-0.236,0.322l-0.418,0.174c-0.121,0.063-0.299,0.037-0.395-0.061
	l-0.213-0.213c-0.098-0.098-0.254-0.098-0.354,0l-0.353,0.354c-0.099,0.098-0.099,0.258,0,0.354l0.211,0.213
	c0.099,0.097,0.123,0.274,0.06,0.396l-0.172,0.416c-0.039,0.133-0.185,0.239-0.322,0.239H15.27c-0.139,0-0.25,0.112-0.25,0.249
	v0.498c0,0.139,0.111,0.25,0.25,0.25h0.299c0.14,0,0.283,0.108,0.322,0.239l0.172,0.416c0.066,0.121,0.039,0.3-0.057,0.396
	l-0.213,0.213c-0.098,0.098-0.098,0.256,0,0.354l0.352,0.354c0.101,0.099,0.258,0.099,0.354,0l0.213-0.213
	c0.097-0.097,0.272-0.123,0.396-0.058l0.418,0.172c0.131,0.041,0.238,0.187,0.238,0.323v0.298c0,0.138,0.112,0.249,0.25,0.249h0.498
	c0.137,0,0.25-0.111,0.25-0.249v-0.298c0-0.139,0.106-0.282,0.237-0.323l0.416-0.172c0.123-0.065,0.301-0.04,0.397,0.058
	l0.211,0.213c0.097,0.099,0.256,0.099,0.354,0l0.353-0.354c0.098-0.098,0.098-0.255,0-0.354l-0.213-0.213
	c-0.097-0.097-0.123-0.274-0.058-0.396l0.17-0.416c0.041-0.132,0.188-0.239,0.324-0.239h0.299c0.138,0,0.248-0.111,0.248-0.248v-0.5
	C21.5,18.373,21.389,18.261,21.252,18.261L21.252,18.261z M19.506,18.759c0,0.688-0.559,1.247-1.246,1.247
	c-0.689,0-1.246-0.559-1.246-1.247s0.557-1.245,1.246-1.245C18.947,17.514,19.506,18.07,19.506,18.759z"/>
<g>
	<path fill="#4E85C4" d="M18.014,18.759c0,0.271,0.492,0.271,0.492,0c0-0.136-0.109-0.245-0.246-0.245
		C18.124,18.514,18.014,18.623,18.014,18.759z"/>
	<path fill="#4E85C4" d="M15.443,21.941l-0.359-0.361c-0.232-0.23-0.363-0.546-0.363-0.881c0-0.184,0.038-0.359,0.111-0.521
		C14.357,20,14.02,19.542,14.02,19.007V18.51c0-0.535,0.338-0.992,0.812-1.17c-0.072-0.16-0.11-0.337-0.11-0.52
		c0-0.336,0.131-0.651,0.369-0.889l0.346-0.348c0.148-0.145,0.328-0.232,0.515-0.292v-2.377h-4.058
		c-0.134,0-0.248,0.045-0.345,0.142c-0.095,0.094-0.141,0.207-0.141,0.346v8.111c0,0.137,0.046,0.25,0.141,0.346
		C11.645,21.953,11.759,22,11.893,22h3.633C15.5,21.979,15.469,21.966,15.443,21.941z"/>
</g>
<path fill="#C4C4C4" d="M16.84,15.329c0.18-0.474,0.637-0.812,1.172-0.812h0.027l-1.26-1.259c-0.045-0.047-0.107-0.096-0.182-0.143
	v2.145C16.68,15.279,16.764,15.294,16.84,15.329z"/>
</svg>
