<?xml version="1.0" encoding="utf-8"?>
<!-- Generator: Adobe Illustrator 15.1.0, SVG Export Plug-In . SVG Version: 6.00 Build 0)  -->
<!DOCTYPE svg PUBLIC "-//W3C//DTD SVG 1.1//EN" "http://www.w3.org/Graphics/SVG/1.1/DTD/svg11.dtd">
<svg version="1.1" id="圖層_1" xmlns="http://www.w3.org/2000/svg" xmlns:xlink="http://www.w3.org/1999/xlink" x="0px" y="0px"
	 width="18px" height="18px" viewBox="-240.5 159.5 18 18" enable-background="new -240.5 159.5 18 18" xml:space="preserve">
<title>process</title>
<path fill="#A8A8A8" d="M-228.595,161.475L-228.595,161.475l-1.693-1.692c-0.039-0.038-0.088-0.077-0.15-0.116v1.959h1.959
	C-228.519,161.563-228.558,161.514-228.595,161.475z"/>
<path fill="#A8A8A8" d="M-234.75,170.348c-0.038-0.037-0.088-0.076-0.149-0.115v1.959h1.959c-0.039-0.062-0.078-0.11-0.115-0.15
	h-0.002L-234.75,170.348z"/>
<path fill="#A8A8A8" d="M-226.108,172.721v0.002c-0.109,0-0.203-0.039-0.281-0.117s-0.116-0.172-0.116-0.281v-3.569
	c0-0.122-0.05-0.243-0.136-0.328c-0.088-0.087-0.209-0.138-0.33-0.138h-4.062v-1.354h2.323c0.109,0,0.204-0.037,0.281-0.115
	c0.078-0.078,0.115-0.172,0.115-0.282v-4.381h-2.258c-0.109,0-0.203-0.039-0.281-0.116s-0.117-0.172-0.117-0.282V159.5h-3.317
	c-0.11,0-0.203,0.038-0.282,0.116c-0.076,0.077-0.115,0.171-0.115,0.28v6.641c0,0.109,0.039,0.204,0.115,0.281
	c0.078,0.078,0.172,0.115,0.282,0.115h2.32v1.354h-4.062c-0.123,0-0.242,0.05-0.33,0.137c-0.084,0.086-0.137,0.207-0.137,0.329
	v1.313h-2.254c-0.111,0-0.204,0.037-0.282,0.115s-0.116,0.172-0.116,0.282v6.638c0,0.111,0.039,0.205,0.116,0.283
	c0.078,0.077,0.171,0.115,0.282,0.115h5.576c0.109,0,0.203-0.038,0.281-0.115c0.078-0.076,0.117-0.172,0.117-0.281v-4.383
	l-2.258,0.002c-0.111,0-0.203-0.039-0.281-0.117c-0.078-0.076-0.117-0.17-0.117-0.28v-2.259h-0.129v-0.846h8.119v0.846h-2.385
	c-0.111,0-0.205,0.037-0.283,0.115c-0.076,0.078-0.115,0.172-0.115,0.281v6.639c0,0.111,0.039,0.205,0.115,0.283
	c0.078,0.076,0.172,0.114,0.283,0.114h5.576c0.109,0,0.203-0.037,0.281-0.114c0.078-0.078,0.115-0.172,0.115-0.283v-4.381H-226.108
	L-226.108,172.721z"/>
<path fill="#A8A8A8" d="M-225.976,172.189h1.957c-0.039-0.06-0.078-0.109-0.114-0.148l-1.694-1.693
	c-0.012-0.012-0.031-0.023-0.047-0.035c-0.032-0.027-0.061-0.055-0.104-0.082L-225.976,172.189z"/>
</svg>
