<?xml version="1.0" encoding="utf-8"?>
<!-- Generator: Adobe Illustrator 15.1.0, SVG Export Plug-In . SVG Version: 6.00 Build 0)  -->
<!DOCTYPE svg PUBLIC "-//W3C//DTD SVG 1.1//EN" "http://www.w3.org/Graphics/SVG/1.1/DTD/svg11.dtd">
<svg version="1.1" id="圖層_1" xmlns="http://www.w3.org/2000/svg" xmlns:xlink="http://www.w3.org/1999/xlink" x="0px" y="0px"
	 width="18px" height="18px" viewBox="6.5 26.5 18 18" enable-background="new 6.5 26.5 18 18" xml:space="preserve">
<title>process</title>
<path fill="#2BA066" d="M18.404,28.475L18.404,28.475l-1.693-1.693c-0.039-0.038-0.088-0.077-0.15-0.116v1.959h1.959
	C18.481,28.563,18.442,28.514,18.404,28.475z"/>
<path fill="#2BA066" d="M12.249,37.348c-0.038-0.038-0.088-0.076-0.149-0.116v1.959h1.958c-0.038-0.061-0.077-0.11-0.115-0.15
	h-0.001L12.249,37.348z"/>
<path fill="#2BA066" d="M20.891,39.72v0.002c-0.11,0-0.204-0.039-0.282-0.116c-0.078-0.078-0.116-0.172-0.116-0.282v-3.569
	c0-0.122-0.049-0.243-0.136-0.328c-0.087-0.087-0.208-0.138-0.33-0.138h-4.061v-1.354h2.323c0.109,0,0.204-0.037,0.281-0.115
	c0.078-0.078,0.116-0.172,0.116-0.282v-4.381h-2.258c-0.11,0-0.204-0.039-0.281-0.116c-0.078-0.077-0.117-0.172-0.117-0.282V26.5
	h-3.318c-0.11,0-0.203,0.038-0.282,0.116c-0.077,0.077-0.115,0.171-0.115,0.281v6.64c0,0.11,0.038,0.204,0.115,0.281
	c0.078,0.078,0.172,0.116,0.282,0.116h2.32v1.354h-4.061c-0.123,0-0.242,0.05-0.33,0.137c-0.085,0.086-0.137,0.207-0.137,0.329
	v1.313H8.25c-0.111,0-0.204,0.036-0.282,0.115c-0.078,0.078-0.116,0.171-0.116,0.282v6.638c0,0.111,0.039,0.205,0.116,0.283
	C8.046,44.462,8.139,44.5,8.25,44.5h5.576c0.11,0,0.204-0.038,0.282-0.115s0.116-0.172,0.116-0.282v-4.382l-2.257,0.001
	c-0.111,0-0.204-0.038-0.282-0.116c-0.078-0.077-0.116-0.171-0.116-0.281v-2.258H11.44v-0.846h8.119v0.846h-2.385
	c-0.111,0-0.205,0.036-0.283,0.115c-0.077,0.078-0.116,0.171-0.116,0.281v6.639c0,0.111,0.039,0.205,0.116,0.283
	c0.078,0.076,0.172,0.114,0.283,0.114h5.576c0.109,0,0.203-0.037,0.281-0.114c0.078-0.078,0.116-0.172,0.116-0.283V39.72H20.891
	L20.891,39.72z"/>
<path fill="#2BA066" d="M21.024,39.19h1.957c-0.039-0.06-0.078-0.11-0.115-0.149l-1.694-1.693c-0.012-0.012-0.032-0.024-0.047-0.036
	c-0.032-0.027-0.061-0.054-0.103-0.081L21.024,39.19z"/>
</svg>
