<?xml version="1.0" encoding="utf-8"?>
<!-- Generator: Adobe Illustrator 15.1.0, SVG Export Plug-In . SVG Version: 6.00 Build 0)  -->
<!DOCTYPE svg PUBLIC "-//W3C//DTD SVG 1.1//EN" "http://www.w3.org/Graphics/SVG/1.1/DTD/svg11.dtd">
<svg version="1.1" id="圖層_1" xmlns="http://www.w3.org/2000/svg" xmlns:xlink="http://www.w3.org/1999/xlink" x="0px" y="0px"
	 width="50px" height="50px" viewBox="-5.5 26.5 50 50" enable-background="new -5.5 26.5 50 50" xml:space="preserve">
<title>help</title>
<path fill="#FFFFFF" d="M24.045,42.869c-1.268-0.913-2.858-1.369-4.775-1.369c-1.456,0-2.687,0.321-3.685,0.964
	c-1.587,1.006-2.429,2.717-2.53,5.128h3.674c0-0.703,0.206-1.377,0.615-2.031c0.41-0.651,1.105-0.977,2.087-0.977
	c0.998,0,1.687,0.265,2.06,0.793c0.378,0.529,0.564,1.115,0.564,1.757c0,0.561-0.28,1.073-0.619,1.537
	c-0.185,0.271-0.43,0.521-0.733,0.749c0,0-1.992,1.277-2.867,2.305c-0.508,0.594-0.553,1.486-0.599,2.764
	c-0.002,0.092,0.032,0.28,0.351,0.28s2.575,0,2.857,0c0.284,0,0.343-0.21,0.347-0.304c0.02-0.465,0.072-0.703,0.156-0.973
	c0.161-0.508,0.597-0.95,1.088-1.332l1.011-0.697c0.914-0.712,1.641-1.295,1.964-1.753c0.55-0.751,0.936-1.678,0.936-2.778
	C25.943,45.137,25.312,43.785,24.045,42.869z M19.211,56.972c-1.265-0.039-2.309,0.837-2.35,2.211
	c-0.039,1.372,0.953,2.278,2.22,2.315c1.321,0.039,2.34-0.807,2.381-2.181C21.499,57.943,20.535,57.011,19.211,56.972z"/>
</svg>
