<?xml version="1.0" encoding="utf-8"?>
<!-- Generator: Adobe Illustrator 15.1.0, SVG Export Plug-In . SVG Version: 6.00 Build 0)  -->
<!DOCTYPE svg PUBLIC "-//W3C//DTD SVG 1.1//EN" "http://www.w3.org/Graphics/SVG/1.1/DTD/svg11.dtd">
<svg version="1.1" id="圖層_1" xmlns="http://www.w3.org/2000/svg" xmlns:xlink="http://www.w3.org/1999/xlink" x="0px" y="0px"
	 width="22px" height="22px" viewBox="0 0 22 22" enable-background="new 0 0 22 22" xml:space="preserve">
<title>gavel</title>
<path fill="#7F7F7F" d="M22,22H0V0h22V22z M1.645,20.354h18.708V1.645H1.645V20.354z"/>
<path fill="#4E85C4" d="M10.32,5.402c0.198,0,0.284,0.099,0.284,0.272v3.18c0,0.21-0.086,0.31-0.297,0.31H6.546v7.273H5.544V5.673
	c0-0.173,0.099-0.272,0.285-0.272L10.32,5.402L10.32,5.402z M6.793,6.305c-0.247,0-0.247,0.062-0.247,0.544h3.056
	c0-0.47,0-0.544-0.223-0.544H6.793z M9.355,8.26c0.247,0,0.247-0.099,0.247-0.594H6.546V8.26H9.355z M15.454,9.163h-3.699
	c-0.21,0-0.309-0.112-0.309-0.334V5.71c0-0.198,0.099-0.31,0.309-0.31h4.38c0.209,0,0.322,0.111,0.322,0.31v9.812
	c0,0.11-0.038,1.076-1.2,1.076c-0.321,0-0.718-0.074-1.151-0.224l0.063-0.717h-1.844c-0.482-0.024-0.977-0.482-0.977-0.99v-0.99
	h-0.916l-0.248,0.706c-0.396,0.741-1.299,1.25-2.685,1.51l-0.396-0.951c1.287-0.176,1.979-0.385,2.276-1.264H8.204
	c-0.087,0-0.124-0.049-0.124-0.136v-2.054l-0.767,0.507c-0.136-0.371-0.297-0.668-0.47-0.878c0.606-0.334,1.138-0.804,1.559-1.41
	l0.804,0.668l-0.754,0.804h4.713l-0.69-0.705l-0.148-0.037H9.64V9.583h2.969c0.111,0,0.186,0.025,0.248,0.074
	c0.654,0.693,1.459,1.237,2.399,1.608l-0.606,0.83c-0.334-0.161-0.655-0.321-0.977-0.532v1.979c0,0.086-0.05,0.136-0.124,0.136h-1.2
	v0.471c0,0.346,0.248,0.533,0.545,0.557h0.756c0.086,0,0.185-0.037,0.297-0.11c0.025-0.013,0.123-0.311,0.246-0.866l0.916,0.334
	l-0.16,0.729c-0.074,0.247-0.211,0.481-0.358,0.655c0.271,0.074,0.482,0.111,0.593,0.111c0.125,0,0.272-0.187,0.272-0.435
	L15.454,9.163L15.454,9.163z M12.67,12.033H9.069c-0.037,0-0.049,0.013-0.037,0.037v0.705l0.037,0.051h3.601l0.049-0.051V12.07
	L12.67,12.033z M12.67,6.305c-0.223,0-0.223,0.049-0.223,0.544h3.007c0-0.408,0-0.544-0.297-0.544H12.67z M15.454,7.666h-3.007
	c0,0.445,0,0.594,0.271,0.594h2.735L15.454,7.666L15.454,7.666z"/>
</svg>
