<?xml version="1.0" encoding="utf-8"?>
<!-- Generator: Adobe Illustrator 15.1.0, SVG Export Plug-In . SVG Version: 6.00 Build 0)  -->
<!DOCTYPE svg PUBLIC "-//W3C//DTD SVG 1.1//EN" "http://www.w3.org/Graphics/SVG/1.1/DTD/svg11.dtd">
<svg version="1.1" id="圖層_1" xmlns="http://www.w3.org/2000/svg" xmlns:xlink="http://www.w3.org/1999/xlink" x="0px" y="0px"
	 width="25px" height="25px" viewBox="-383.5 316.5 25 25" enable-background="new -383.5 316.5 25 25" xml:space="preserve">
<title>read-finished</title>
<path fill="#FFFFFF" d="M-358.5,341.5h-25v-25h25V341.5z M-381.63,339.629h21.26v-21.26h-21.26V339.629z"/>
<path fill="#FFFFFF" d="M-371.772,322.639c0.225,0,0.323,0.112,0.323,0.309v3.613c0,0.239-0.099,0.352-0.337,0.352h-4.274v8.267
	h-1.139v-12.231c0-0.197,0.113-0.311,0.324-0.311h5.104V322.639z M-375.781,323.665c-0.281,0-0.281,0.07-0.281,0.618h3.472
	c0-0.534,0-0.618-0.253-0.618H-375.781z M-372.87,325.886c0.281,0,0.281-0.112,0.281-0.675h-3.473v0.675H-372.87z M-365.938,326.912
	h-4.204c-0.239,0-0.351-0.127-0.351-0.38v-3.543c0-0.226,0.112-0.353,0.351-0.353h4.977c0.239,0,0.367,0.127,0.367,0.353v11.148
	c0,0.127-0.043,1.224-1.364,1.224c-0.365,0-0.814-0.084-1.308-0.253l0.07-0.815h-2.094c-0.549-0.027-1.11-0.548-1.11-1.124v-1.126
	h-1.041l-0.281,0.803c-0.449,0.843-1.476,1.42-3.05,1.715l-0.45-1.082c1.462-0.198,2.249-0.438,2.586-1.435h-1.336
	c-0.099,0-0.141-0.056-0.141-0.154v-2.334l-0.872,0.576c-0.155-0.422-0.338-0.76-0.534-0.998c0.688-0.38,1.292-0.913,1.771-1.603
	l0.913,0.759l-0.857,0.914h5.356l-0.786-0.802l-0.169-0.042h-3.05v-0.97h3.374c0.126,0,0.21,0.028,0.281,0.084
	c0.746,0.787,1.66,1.406,2.728,1.827l-0.688,0.942c-0.38-0.182-0.746-0.365-1.111-0.604v2.25c0,0.098-0.057,0.154-0.141,0.154
	h-1.363v0.534c0,0.393,0.282,0.605,0.619,0.632h0.858c0.098,0,0.21-0.041,0.337-0.125c0.029-0.015,0.141-0.353,0.281-0.985
	l1.041,0.38l-0.182,0.829c-0.084,0.28-0.239,0.548-0.408,0.744c0.31,0.085,0.549,0.128,0.674,0.128c0.141,0,0.31-0.211,0.31-0.492
	v-6.777L-365.938,326.912z M-369.102,330.174h-4.092c-0.042,0-0.056,0.015-0.042,0.042v0.802l0.042,0.057h4.092l0.056-0.057v-0.802
	L-369.102,330.174z M-369.102,323.665c-0.253,0-0.253,0.057-0.253,0.618h3.417c0-0.464,0-0.618-0.337-0.618H-369.102z
	 M-365.938,325.211h-3.417c0,0.506,0,0.675,0.309,0.675h3.107V325.211z"/>
</svg>
