<?xml version="1.0" encoding="utf-8"?>
<!-- Generator: Adobe Illustrator 15.1.0, SVG Export Plug-In . SVG Version: 6.00 Build 0)  -->
<!DOCTYPE svg PUBLIC "-//W3C//DTD SVG 1.1//EN" "http://www.w3.org/Graphics/SVG/1.1/DTD/svg11.dtd">
<svg version="1.1" id="圖層_1" xmlns="http://www.w3.org/2000/svg" xmlns:xlink="http://www.w3.org/1999/xlink" x="0px" y="0px"
	 width="22px" height="22px" viewBox="0 0 22 22" enable-background="new 0 0 22 22" xml:space="preserve">
<path fill="#4E85C4" d="M3.438,6.875v13.75C3.438,21.381,4.057,22,4.813,22h12.375c0.756,0,1.375-0.619,1.375-1.375V6.875H3.438z"/>
<rect x="6.188" y="9.625" fill="#F3F3F3" width="1.375" height="9.625"/>
<rect x="8.938" y="9.625" fill="#F3F3F3" width="1.375" height="9.625"/>
<rect x="11.688" y="9.625" fill="#F3F3F3" width="1.375" height="9.625"/>
<rect x="14.438" y="9.625" fill="#F3F3F3" width="1.375" height="9.625"/>
<path fill="#7F7F7F" d="M18.906,2.75h-4.469V1.031C14.438,0.465,13.973,0,13.406,0H8.594C8.027,0,7.563,0.465,7.563,1.031V2.75
	H3.094c-0.568,0-1.031,0.463-1.031,1.031V5.5h17.875V3.781C19.938,3.213,19.473,2.75,18.906,2.75z M13.063,2.75H8.938V1.394h4.125
	V2.75z"/>
</svg>
