<?xml version="1.0" encoding="utf-8"?>
<!-- Generator: Adobe Illustrator 15.1.0, SVG Export Plug-In . SVG Version: 6.00 Build 0)  -->
<!DOCTYPE svg PUBLIC "-//W3C//DTD SVG 1.1//EN" "http://www.w3.org/Graphics/SVG/1.1/DTD/svg11.dtd">
<svg version="1.1" id="圖層_1" xmlns="http://www.w3.org/2000/svg" xmlns:xlink="http://www.w3.org/1999/xlink" x="0px" y="0px"
	 width="25px" height="25px" viewBox="-383.5 316.5 25 25" enable-background="new -383.5 316.5 25 25" xml:space="preserve">
<title>remove</title>
<path fill="#FFFFFF" d="M-379.594,324.313v15.625c0,0.859,0.704,1.563,1.563,1.563h14.063c0.859,0,1.563-0.703,1.563-1.563v-15.625
	H-379.594z M-374.906,338.375h-1.563v-10.938h1.563V338.375z M-371.781,338.375h-1.563v-10.938h1.563V338.375z M-368.656,338.375
	h-1.563v-10.938h1.563V338.375z M-365.531,338.375h-1.563v-10.938h1.563V338.375z"/>
<path fill="#FFFFFF" d="M-362.016,319.625h-5.078v-1.953c0-0.644-0.528-1.172-1.172-1.172h-5.469c-0.644,0-1.172,0.528-1.172,1.172
	v1.953h-5.078c-0.646,0-1.172,0.526-1.172,1.172v1.953h20.313v-1.953C-360.844,320.151-361.372,319.625-362.016,319.625z
	 M-368.656,319.625h-4.688v-1.541h4.688V319.625z"/>
</svg>
