<?xml version="1.0" encoding="utf-8"?>
<!-- Generator: Adobe Illustrator 15.1.0, SVG Export Plug-In . SVG Version: 6.00 Build 0)  -->
<!DOCTYPE svg PUBLIC "-//W3C//DTD SVG 1.1//EN" "http://www.w3.org/Graphics/SVG/1.1/DTD/svg11.dtd">
<svg version="1.1" id="圖層_1" xmlns="http://www.w3.org/2000/svg" xmlns:xlink="http://www.w3.org/1999/xlink" x="0px" y="0px"
	 width="22px" height="22px" viewBox="-117.5 34.5 22 22" enable-background="new -117.5 34.5 22 22" xml:space="preserve">
<title>repeat</title>
<path fill="#7F7F7F" d="M-96.444,47.639c-0.164-0.346-0.441-0.597-0.807-0.728c-0.355-0.122-0.723-0.104-1.07,0.059
	c-0.348,0.163-0.601,0.44-0.733,0.808c-0.093,0.267-0.207,0.532-0.343,0.798c-0.132,0.262-0.314,0.558-0.542,0.879
	c-0.225,0.318-0.478,0.62-0.751,0.897c-0.268,0.272-0.601,0.546-0.992,0.812c-0.387,0.264-0.808,0.489-1.25,0.67
	c-1.621,0.664-3.509,0.666-5.139-0.002c-0.844-0.336-1.604-0.841-2.263-1.504l-1.614-1.577h1.866c0.384,0,0.73-0.144,1.002-0.415
	c0.271-0.272,0.415-0.619,0.415-1.002c0-0.384-0.144-0.73-0.414-1c-0.271-0.272-0.617-0.416-1.002-0.416l-5.5,0.001
	c-0.384,0-0.73,0.143-1.002,0.414c-0.271,0.272-0.415,0.619-0.415,1.002v5.5c0,0.384,0.144,0.73,0.415,1.001
	c0.543,0.544,1.466,0.542,2.003,0.001c0.272-0.271,0.416-0.618,0.416-1.002v-2.292l1.833,1.792c0.921,0.922,1.997,1.637,3.195,2.123
	c1.166,0.471,2.391,0.709,3.639,0.709c1.255,0,2.48-0.238,3.64-0.709c1.199-0.486,2.274-1.201,3.194-2.122
	c0.501-0.5,0.958-1.073,1.358-1.704c0.403-0.635,0.715-1.285,0.924-1.925C-96.262,48.351-96.282,47.981-96.444,47.639z"/>
<path fill="#4E85C4" d="M-96.415,37.166c-0.542-0.543-1.465-0.54-2.003-0.001c-0.272,0.271-0.416,0.618-0.416,1.002v2.292
	l-1.833-1.793c-0.921-0.922-1.996-1.637-3.195-2.123c-2.332-0.941-4.946-0.941-7.278,0.001c-1.198,0.485-2.273,1.2-3.194,2.122
	c-0.5,0.499-0.958,1.072-1.358,1.704c-0.403,0.636-0.715,1.285-0.924,1.924c-0.122,0.354-0.102,0.723,0.06,1.067
	c0.163,0.345,0.44,0.596,0.808,0.728c0.354,0.122,0.722,0.104,1.07-0.059c0.347-0.163,0.6-0.44,0.733-0.809
	c0.171-0.496,0.419-0.992,0.736-1.475c0.316-0.479,0.604-0.836,0.878-1.079c0.655-0.658,1.415-1.163,2.263-1.501
	c1.634-0.669,3.54-0.662,5.181,0.014c0.823,0.34,1.57,0.841,2.223,1.492l1.614,1.577h-1.866c-0.384,0-0.73,0.144-1.002,0.415
	c-0.271,0.272-0.415,0.619-0.415,1.002c0,0.384,0.144,0.73,0.414,1c0.271,0.272,0.617,0.416,1.002,0.416h5.5
	c0.384,0,0.731-0.144,1.001-0.414C-96.144,44.397-96,44.051-96,43.667v-5.5C-96,37.783-96.144,37.437-96.415,37.166z"/>
</svg>
