<?xml version="1.0" encoding="utf-8"?>
<!-- Generator: Adobe Illustrator 15.1.0, SVG Export Plug-In . SVG Version: 6.00 Build 0)  -->
<!DOCTYPE svg PUBLIC "-//W3C//DTD SVG 1.1//EN" "http://www.w3.org/Graphics/SVG/1.1/DTD/svg11.dtd">
<svg version="1.1" id="圖層_1" xmlns="http://www.w3.org/2000/svg" xmlns:xlink="http://www.w3.org/1999/xlink" x="0px" y="0px"
	 width="25px" height="25px" viewBox="-383.5 316.5 25 25" enable-background="new -383.5 316.5 25 25" xml:space="preserve">
<title>replace</title>
<path d="M-372.405,328.126l6.572,6.571l-0.533,0.532l-6.571-6.571L-372.405,328.126z"/>
<path d="M-367.118,329.836l1.504,5.615l-5.615-1.505L-367.118,329.836z"/>
<path d="M-381.392,325.927c-0.634,0-1.143-0.183-1.529-0.545c-0.385-0.363-0.579-0.841-0.579-1.432c0-0.625,0.174-1.125,0.522-1.501
	c0.349-0.376,0.855-0.611,1.523-0.708l1.189-0.164c0.31-0.042,0.568-0.113,0.774-0.214c0.088-0.042,0.156-0.117,0.205-0.226
	c0.049-0.109,0.066-0.222,0.054-0.335c-0.025-0.192-0.124-0.343-0.296-0.453c-0.206-0.129-0.501-0.193-0.888-0.193
	c-0.343,0-0.612,0.083-0.805,0.251c-0.193,0.168-0.296,0.405-0.309,0.71h-1.73c0.038-0.801,0.31-1.4,0.818-1.799
	c0.507-0.398,1.252-0.598,2.233-0.598c0.851,0,1.523,0.18,2.016,0.538c0.493,0.358,0.74,0.85,0.74,1.471v3.83
	c0,0.306,0.025,0.521,0.075,0.646c0.051,0.124,0.151,0.222,0.303,0.293v0.252h-1.952v-0.007c-0.08-0.277-0.132-0.547-0.157-0.812
	l-0.006-0.014C-379.756,325.589-380.491,325.926-381.392,325.927L-381.392,325.927z M-379.221,323.22v-0.786
	c-0.209,0.118-0.487,0.212-0.831,0.283l-0.667,0.126c-0.314,0.059-0.554,0.167-0.717,0.324c-0.164,0.157-0.246,0.355-0.246,0.595
	c0,0.273,0.073,0.486,0.22,0.642s0.353,0.231,0.616,0.231c0.579,0,1.041-0.203,1.385-0.609c0.067-0.079,0.124-0.198,0.169-0.353
	C-379.245,323.518-379.221,323.367-379.221,323.22z"/>
<path d="M-375.982,316.5h1.806v3.298l0.037-0.051c0.487-0.684,1.129-1.026,1.926-1.026c0.868,0,1.566,0.321,2.095,0.964
	c0.53,0.643,0.793,1.486,0.793,2.536c0,1.111-0.266,2.007-0.793,2.687c-0.529,0.68-1.227,1.02-2.095,1.02
	c-0.792,0-1.435-0.318-1.926-0.957l-0.076-0.101v0.88h-1.768L-375.982,316.5L-375.982,316.5z M-372.729,324.441
	c0.487,0,0.866-0.183,1.139-0.545c0.272-0.362,0.409-0.867,0.409-1.513c0-0.659-0.137-1.175-0.409-1.544
	c-0.273-0.371-0.65-0.558-1.132-0.558s-0.86,0.191-1.132,0.573c-0.273,0.381-0.409,0.912-0.409,1.591
	c0,0.626,0.137,1.115,0.409,1.467C-373.587,324.266-373.212,324.441-372.729,324.441z"/>
<path d="M-358.5,338.786c-0.092,0.854-0.409,1.518-0.95,1.995c-0.542,0.479-1.246,0.719-2.114,0.719
	c-1.037,0-1.837-0.309-2.401-0.927c-0.564-0.616-0.846-1.494-0.846-2.637c0-1.116,0.293-2.001,0.877-2.658
	c0.584-0.657,1.376-0.985,2.37-0.985c0.88,0,1.603,0.243,2.164,0.73c0.561,0.486,0.862,1.127,0.9,1.919h-1.837
	c-0.017-0.339-0.137-0.614-0.362-0.824c-0.226-0.209-0.513-0.314-0.865-0.314c-0.453,0-0.798,0.182-1.035,0.545
	c-0.236,0.363-0.355,0.892-0.355,1.588c0,0.679,0.119,1.196,0.355,1.551c0.237,0.355,0.582,0.532,1.035,0.532
	c0.328,0,0.604-0.113,0.83-0.34c0.228-0.227,0.359-0.523,0.397-0.894H-358.5L-358.5,338.786z"/>
</svg>
