<?xml version="1.0" encoding="utf-8"?>
<!-- Generator: Adobe Illustrator 15.1.0, SVG Export Plug-In . SVG Version: 6.00 Build 0)  -->
<!DOCTYPE svg PUBLIC "-//W3C//DTD SVG 1.1//EN" "http://www.w3.org/Graphics/SVG/1.1/DTD/svg11.dtd">
<svg version="1.1" id="圖層_1" xmlns="http://www.w3.org/2000/svg" xmlns:xlink="http://www.w3.org/1999/xlink" x="0px" y="0px"
	 width="22px" height="22px" viewBox="0 0 22 22" enable-background="new 0 0 22 22" xml:space="preserve">
<path fill="#E79D5E" d="M9.764,10.23l5.783,5.784l-0.469,0.469l-5.783-5.784L9.764,10.23z"/>
<path fill="#E79D5E" d="M14.416,11.734l1.324,4.941l-4.941-1.324L14.416,11.734z"/>
<path fill="#4E85C4" d="M1.855,8.295c-0.558,0-1.007-0.16-1.346-0.479C0.171,7.496,0,7.076,0,6.556c0-0.55,0.153-0.99,0.46-1.321
	S1.213,4.697,1.8,4.612l1.047-0.144c0.272-0.037,0.499-0.1,0.681-0.188c0.078-0.037,0.138-0.104,0.181-0.199
	C3.75,3.985,3.767,3.886,3.755,3.787c-0.021-0.17-0.109-0.302-0.261-0.399c-0.181-0.114-0.441-0.171-0.78-0.171
	c-0.303,0-0.539,0.074-0.709,0.222c-0.17,0.147-0.261,0.356-0.271,0.625H0.211c0.033-0.705,0.272-1.233,0.72-1.583
	C1.377,2.13,2.033,1.955,2.896,1.955c0.749,0,1.341,0.158,1.774,0.474c0.433,0.316,0.651,0.748,0.651,1.294v3.37
	c0,0.27,0.021,0.458,0.066,0.568C5.432,7.77,5.52,7.856,5.654,7.919V8.14H3.937V8.134C3.866,7.891,3.82,7.652,3.799,7.419
	L3.793,7.408C3.295,7.998,2.648,8.294,1.855,8.295L1.855,8.295z M3.766,5.914V5.221c-0.185,0.104-0.429,0.187-0.731,0.25
	L2.448,5.582C2.171,5.633,1.961,5.729,1.817,5.867C1.674,6.005,1.602,6.18,1.602,6.39c0,0.24,0.064,0.428,0.193,0.565
	c0.129,0.136,0.311,0.204,0.543,0.204c0.509,0,0.915-0.18,1.218-0.537c0.059-0.069,0.109-0.174,0.149-0.31S3.766,6.043,3.766,5.914z
	"/>
<path fill="#4E85C4" d="M6.616,0h1.588v2.902l0.033-0.045C8.666,2.256,9.23,1.955,9.933,1.955c0.764,0,1.378,0.283,1.844,0.848
	c0.466,0.565,0.697,1.309,0.697,2.232c0,0.978-0.233,1.766-0.697,2.364c-0.466,0.599-1.081,0.897-1.844,0.897
	c-0.698,0-1.264-0.28-1.695-0.842l-0.067-0.09v0.775H6.615L6.616,0L6.616,0z M9.479,6.988c0.429,0,0.762-0.16,1.002-0.479
	C10.72,6.19,10.84,5.746,10.84,5.178c0-0.581-0.12-1.034-0.359-1.359c-0.24-0.326-0.572-0.49-0.996-0.49
	c-0.424,0-0.757,0.168-0.998,0.504c-0.241,0.336-0.36,0.803-0.36,1.4c0,0.55,0.121,0.981,0.36,1.291
	C8.723,6.833,9.054,6.988,9.479,6.988z"/>
<path fill="#4E85C4" d="M22,19.611c-0.082,0.75-0.359,1.336-0.836,1.757S20.066,22,19.305,22c-0.914,0-1.617-0.271-2.113-0.814
	s-0.744-1.314-0.744-2.32c0-0.982,0.258-1.762,0.771-2.34c0.515-0.578,1.212-0.866,2.087-0.866c0.773,0,1.408,0.214,1.902,0.642
	c0.494,0.43,0.759,0.992,0.793,1.689h-1.617c-0.015-0.299-0.121-0.541-0.318-0.727c-0.197-0.184-0.451-0.275-0.76-0.275
	c-0.4,0-0.703,0.158-0.912,0.479c-0.207,0.319-0.313,0.784-0.313,1.397c0,0.598,0.105,1.053,0.313,1.364
	c0.209,0.313,0.512,0.469,0.912,0.469c0.287,0,0.53-0.1,0.729-0.299c0.2-0.199,0.315-0.461,0.349-0.787H22L22,19.611z"/>
</svg>
