<?xml version="1.0" encoding="utf-8"?>
<!-- Generator: Adobe Illustrator 15.1.0, SVG Export Plug-In . SVG Version: 6.00 Build 0)  -->
<!DOCTYPE svg PUBLIC "-//W3C//DTD SVG 1.1//EN" "http://www.w3.org/Graphics/SVG/1.1/DTD/svg11.dtd">
<svg version="1.1" id="圖層_1" xmlns="http://www.w3.org/2000/svg" xmlns:xlink="http://www.w3.org/1999/xlink" x="0px" y="0px"
	 width="20px" height="20px" viewBox="-383.5 316.5 20 20" enable-background="new -383.5 316.5 20 20" xml:space="preserve">
<title>return3</title>
<path fill="#FFFFFF" d="M-379.021,330.444c0,0.542-0.332,0.986-0.74,0.986c-0.407,0-0.739-0.444-0.739-0.986v-7.889
	c0-0.542,0.333-0.986,0.739-0.986c0.408,0,0.74,0.444,0.74,0.986V330.444z"/>
<path fill="#FFFFFF" d="M-372.79,330.444c0,0.542-0.334,0.692-0.741,0.336l-4.144-3.631c-0.408-0.357-0.408-0.942,0-1.3l4.144-3.631
	c0.409-0.358,0.742-0.206,0.742,0.336L-372.79,330.444L-372.79,330.444z"/>
<path fill="#FFFFFF" d="M-366.5,330.444c0,0.542-0.334,0.692-0.742,0.336l-4.143-3.631c-0.409-0.357-0.409-0.942,0-1.3l4.144-3.631
	c0.408-0.358,0.742-0.206,0.742,0.336V330.444L-366.5,330.444z"/>
</svg>
