<?xml version="1.0" encoding="utf-8"?>
<!-- Generator: Adobe Illustrator 15.1.0, SVG Export Plug-In . SVG Version: 6.00 Build 0)  -->
<!DOCTYPE svg PUBLIC "-//W3C//DTD SVG 1.1//EN" "http://www.w3.org/Graphics/SVG/1.1/DTD/svg11.dtd">
<svg version="1.1" id="圖層_1" xmlns="http://www.w3.org/2000/svg" xmlns:xlink="http://www.w3.org/1999/xlink" x="0px" y="0px"
	 width="25px" height="25px" viewBox="-387 313 25 25" enable-background="new -387 313 25 25" xml:space="preserve">
<path d="M-376.23,333.119c0.264-0.357,0.396-0.895,0.396-1.611c0-0.648-0.123-1.135-0.37-1.459
	c-0.246-0.324-0.617-0.485-1.113-0.485h-1.206v4.094h1.1C-376.893,333.657-376.496,333.478-376.23,333.119z"/>
<path d="M-383.237,329.563h-1.087v1.863h1.087c0.365,0,0.639-0.081,0.822-0.242s0.274-0.404,0.274-0.729
	c0-0.299-0.091-0.521-0.274-0.671C-382.598,329.637-382.872,329.563-383.237,329.563z"/>
<g>
	<path d="M-380.257,319.555v-1.875c0-0.187,0.159-0.344,0.346-0.344h1.132c0.158-0.478,0.337-0.938,0.542-1.379h-1.675
		c-0.951,0-1.722,0.773-1.722,1.722v1.876H-380.257z"/>
	<path d="M-363.254,320.889c-0.479-0.652-1.146-1.413-1.879-2.147c-0.729-0.731-1.493-1.396-2.147-1.877
		c-1.107-0.813-1.646-0.907-1.955-0.907h-3.589h-0.035c-0.199,0.408-0.359,0.868-0.485,1.379h4.109v4.822
		c0,0.379,0.31,0.689,0.688,0.689h4.822v13.431h0.002c-0.001,0.187-0.159,0.346-0.345,0.346h-15.844
		c-0.187,0-0.346-0.161-0.346-0.346v-0.701h11.173c0.484,0,0.882-0.396,0.882-0.882v-6.173c0-0.483-0.397-0.881-0.882-0.881h-6.646
		h-0.152c-0.23,0.103-0.482,0.159-0.743,0.159c-0.262,0-0.513-0.057-0.744-0.159h-0.266h-2.622v-2.38v-0.338l-1.377-1.381v0.337
		v3.762h-4.136c-0.485,0-0.882,0.397-0.882,0.881v6.173c0,0.485,0.397,0.882,0.882,0.882h4.136v0.702
		c0,0.947,0.771,1.721,1.722,1.721h15.843c0.948,0,1.721-0.773,1.721-1.721v-13.431
		C-362.347,322.536-362.441,321.998-363.254,320.889z M-367.857,321.467v-3.313c0.496,0.383,1.092,0.901,1.752,1.561
		c0.659,0.662,1.178,1.261,1.562,1.752H-367.857z M-373.544,328.487h4.442v0.553v0.558h-3.138v1.418h2.733v0.535v0.539h-2.733v2.643
		h-0.65h-0.654V328.487z M-379.826,328.487h0.649h2.022c0.858,0,1.51,0.253,1.956,0.757c0.446,0.504,0.669,1.242,0.669,2.212
		c0,1.071-0.231,1.884-0.694,2.44c-0.463,0.557-1.142,0.836-2.037,0.836h-1.916h-0.649V328.487z M-381.394,331.977
		c-0.371,0.351-0.912,0.526-1.623,0.526c-0.504-0.003-0.94,0-1.308,0.007v2.223h-0.65h-0.654v-6.245h0.649h1.962
		c0.711,0,1.251,0.166,1.623,0.499s0.556,0.819,0.556,1.455C-380.837,331.116-381.022,331.627-381.394,331.977z"/>
</g>
<path d="M-377.066,326.403c0.121,0.121,0.28,0.182,0.439,0.182c0.159,0,0.318-0.061,0.439-0.182l5.178-5.193
	c0.242-0.242,0.159-0.44-0.183-0.44h-3.101c-0.171,0-0.397,0-0.622,0c0-3.085,0.537-6.131,3.089-7.77
	c-4.648,0.171-5.753,3.648-6.553,7.77c-0.226,0-0.452,0-0.623,0h-3.063c-0.342,0-0.424,0.198-0.182,0.44L-377.066,326.403z"/>
</svg>
