<?xml version="1.0" encoding="utf-8"?>
<!-- Generator: Adobe Illustrator 15.1.0, SVG Export Plug-In . SVG Version: 6.00 Build 0)  -->
<!DOCTYPE svg PUBLIC "-//W3C//DTD SVG 1.1//EN" "http://www.w3.org/Graphics/SVG/1.1/DTD/svg11.dtd">
<svg version="1.1" id="圖層_1" xmlns="http://www.w3.org/2000/svg" xmlns:xlink="http://www.w3.org/1999/xlink" x="0px" y="0px"
	 width="25px" height="25px" viewBox="0 0 25 25" enable-background="new 0 0 25 25" xml:space="preserve">
<path fill="#2F8AC1" d="M10.77,20.119c0.264-0.357,0.396-0.895,0.396-1.611c0-0.648-0.123-1.135-0.37-1.459
	c-0.246-0.324-0.617-0.485-1.113-0.485H8.478v4.094h1.1C10.107,20.657,10.504,20.478,10.77,20.119z"/>
<path fill="#2F8AC1" d="M3.763,16.563H2.676v1.863h1.087c0.365,0,0.639-0.081,0.822-0.242s0.274-0.404,0.274-0.729
	c0-0.299-0.091-0.521-0.274-0.671C4.402,16.637,4.128,16.563,3.763,16.563z"/>
<g>
	<path fill="#2F8AC1" d="M6.743,6.555V4.68c0-0.187,0.159-0.344,0.346-0.344h1.132c0.158-0.478,0.337-0.938,0.542-1.379H7.088
		c-0.951,0-1.722,0.773-1.722,1.722v1.876H6.743z"/>
	<path fill="#2F8AC1" d="M23.746,7.889c-0.479-0.652-1.146-1.413-1.879-2.147c-0.729-0.731-1.493-1.396-2.147-1.877
		c-1.107-0.813-1.646-0.907-1.955-0.907h-3.589h-0.035c-0.199,0.408-0.359,0.868-0.485,1.379h4.109v4.822
		c0,0.379,0.31,0.689,0.688,0.689h4.822v13.431h0.002c-0.001,0.187-0.159,0.346-0.345,0.346H7.089c-0.187,0-0.346-0.161-0.346-0.346
		v-0.701h11.173c0.484,0,0.882-0.396,0.882-0.882v-6.173c0-0.483-0.397-0.881-0.882-0.881H11.27h-0.152
		c-0.23,0.103-0.482,0.159-0.743,0.159c-0.262,0-0.513-0.057-0.744-0.159H9.365H6.743v-2.38v-0.338l-1.377-1.381v0.337v3.762H1.23
		c-0.485,0-0.882,0.397-0.882,0.881v6.173c0,0.485,0.397,0.882,0.882,0.882h4.136v0.702C5.366,24.227,6.137,25,7.088,25h15.843
		c0.948,0,1.721-0.773,1.721-1.721V9.849C24.653,9.536,24.559,8.998,23.746,7.889z M19.143,8.467V5.154
		c0.496,0.383,1.092,0.901,1.752,1.561c0.659,0.662,1.178,1.261,1.562,1.752H19.143z M13.456,15.487h4.442v0.553v0.558h-3.138v1.418
		h2.733v0.535v0.539h-2.733v2.643h-0.65h-0.654V15.487z M7.174,15.487h0.649h2.022c0.858,0,1.51,0.253,1.956,0.757
		c0.446,0.504,0.669,1.242,0.669,2.212c0,1.071-0.231,1.884-0.694,2.44c-0.463,0.557-1.142,0.836-2.037,0.836H7.823H7.174V15.487z
		 M5.606,18.977c-0.371,0.351-0.912,0.526-1.623,0.526c-0.504-0.003-0.94,0-1.308,0.007v2.223h-0.65H1.372v-6.245h0.649h1.962
		c0.711,0,1.251,0.166,1.623,0.499s0.556,0.819,0.556,1.455C6.163,18.116,5.978,18.627,5.606,18.977z"/>
</g>
<path fill="#2F8AC1" d="M9.934,13.403c0.121,0.121,0.28,0.182,0.439,0.182c0.159,0,0.318-0.061,0.439-0.182l5.178-5.193
	c0.242-0.242,0.159-0.44-0.183-0.44h-3.101c-0.171,0-0.397,0-0.622,0c0-3.085,0.537-6.131,3.089-7.77
	c-4.648,0.171-5.753,3.648-6.553,7.77c-0.226,0-0.452,0-0.623,0H4.937c-0.342,0-0.424,0.198-0.182,0.44L9.934,13.403z"/>
</svg>
