<?xml version="1.0" encoding="utf-8"?>
<!-- Generator: Adobe Illustrator 15.1.0, SVG Export Plug-In . SVG Version: 6.00 Build 0)  -->
<!DOCTYPE svg PUBLIC "-//W3C//DTD SVG 1.1//EN" "http://www.w3.org/Graphics/SVG/1.1/DTD/svg11.dtd">
<svg version="1.1" id="圖層_1" xmlns="http://www.w3.org/2000/svg" xmlns:xlink="http://www.w3.org/1999/xlink" x="0px" y="0px"
	 width="25px" height="25px" viewBox="-383.5 316.5 25 25" enable-background="new -383.5 316.5 25 25" xml:space="preserve">
<title>saveout</title>
<path fill="#2F8AC1" d="M-365.614,331.177c-0.601,0.599-0.601,1.574,0,2.177l1.222,1.221h-5.575c-0.85,0-1.54,0.688-1.54,1.539
	c0,0.851,0.69,1.54,1.54,1.54h5.575l-1.222,1.221c-0.601,0.599-0.601,1.574,0,2.176c0.301,0.301,0.695,0.45,1.089,0.45
	c0.394,0,0.788-0.149,1.088-0.45l4.936-4.937l-4.936-4.937C-364.037,330.576-365.011,330.576-365.614,331.177L-365.614,331.177z"/>
<path fill="#2F8AC1" d="M-372.216,331.04c0,0.599-0.486,1.085-1.085,1.085s-1.085-0.486-1.085-1.085c0-0.6,0.486-1.085,1.085-1.085
	S-372.216,330.44-372.216,331.04z"/>
<path fill="#2F8AC1" d="M-374.111,336.112c0-0.833,0.249-1.608,0.674-2.259c-1.495-0.07-2.686-1.302-2.686-2.813
	c0-1.558,1.264-2.821,2.821-2.821s2.821,1.264,2.821,2.821c0,0.351-0.072,0.684-0.189,0.992c0.228-0.038,0.462-0.063,0.7-0.063h1.31
	c0.069-0.997,0.491-1.924,1.206-2.637c0.782-0.78,1.823-1.212,2.929-1.212c0.657,0,1.289,0.156,1.857,0.442v-7.757
	c0-0.581-0.229-1.098-0.598-1.471l-2.205-2.196c-0.392-0.395-0.938-0.639-1.537-0.639h-14.757c-0.958,0-1.736,0.778-1.736,1.737
	v17.359c0,0.96,0.777,1.736,1.736,1.736h7.837C-374.047,336.947-374.111,336.538-374.111,336.112z M-381.33,323.792v-4.167
	c0-0.529,0.426-0.955,0.956-0.955h1.215v3.385c0,0.53,0.426,0.955,0.956,0.955h1.128c0.53,0,0.955-0.426,0.955-0.955v-3.385h8.161
	c0.529,0,0.955,0.426,0.955,0.955v4.167c0,0.529-0.426,0.956-0.955,0.956h-12.414C-380.904,324.746-381.329,324.321-381.33,323.792
	L-381.33,323.792z"/>
</svg>
