<?xml version="1.0" encoding="utf-8"?>
<!-- Generator: Adobe Illustrator 15.1.0, SVG Export Plug-In . SVG Version: 6.00 Build 0)  -->
<!DOCTYPE svg PUBLIC "-//W3C//DTD SVG 1.1//EN" "http://www.w3.org/Graphics/SVG/1.1/DTD/svg11.dtd">
<svg version="1.1" id="圖層_1" xmlns="http://www.w3.org/2000/svg" xmlns:xlink="http://www.w3.org/1999/xlink" x="0px" y="0px"
	 width="25px" height="25px" viewBox="-383.5 316.5 25 25" enable-background="new -383.5 316.5 25 25" xml:space="preserve">
<title>seal2</title>
<path fill="#2F8AC1" d="M-360.778,335.728c-0.271-0.27-0.629-0.418-1.009-0.418c-1.971,0-5.239-1.615-5.239-3.334
	c0,0,0.005-2.558,0.005-2.989c0-0.678,0-0.781,1.148-1.931c1.085-0.909,1.704-2.243,1.704-3.652c0-2.623-2.138-4.761-4.761-4.761
	c-2.624,0-4.762,2.138-4.762,4.761c0,1.414,0.623,2.743,1.676,3.624c1.182,1.181,1.182,1.287,1.182,2.092v2.856
	c0,1.719-3.269,3.334-5.239,3.334c-0.785,0-1.428,0.643-1.428,1.43v1.429c0,0.261,0.214,0.476,0.476,0.476h16.191
	c0.261,0,0.476-0.215,0.476-0.476v-1.429c0-0.381-0.147-0.739-0.419-1.01V335.728z M-369.311,321.538
	c-0.886,0.181-1.523,0.966-1.523,1.866c0,0.414,0.127,0.809,0.376,1.139c0.157,0.209,0.115,0.508-0.096,0.665
	c-0.085,0.063-0.185,0.097-0.285,0.097c-0.143,0-0.287-0.067-0.382-0.189c-0.371-0.501-0.566-1.092-0.566-1.711
	c0-1.352,0.962-2.528,2.28-2.8c0.263-0.052,0.51,0.114,0.562,0.372C-368.892,321.233-369.054,321.485-369.311,321.538z"/>
<path fill="#2F8AC1" d="M-375.597,339.596h-0.953v1.429c0,0.263,0.213,0.476,0.476,0.476h14.287c0.262,0,0.477-0.215,0.477-0.476
	v-1.429H-375.597L-375.597,339.596z"/>
<path fill="#2F8AC1" d="M-377.74,339.666c-0.56-0.269-0.952-0.359-0.952-1.022h-1.283v0.952c0,0.262,0.214,0.477,0.477,0.477h1.758
	V339.666z"/>
<path fill="#2F8AC1" d="M-378.692,336.739c0-0.081,0.005-0.16,0.012-0.237h-1.533v-1.192c0-0.394,0.32-0.714,0.715-0.714
	c2.296,0,5.953-1.853,5.953-4.048v-2.857c0-0.22-0.01-0.402-0.03-0.57c-0.376-0.467-0.674-0.987-0.893-1.544
	c-0.136-0.146-0.289-0.301-0.469-0.48l-0.046-0.043c-0.902-0.756-1.42-1.877-1.42-3.076c0-2.231,1.816-4.048,4.048-4.048
	c0.304,0,0.6,0.037,0.887,0.101c0.679-0.322,1.427-0.518,2.216-0.56c-0.882-0.61-1.952-0.97-3.103-0.97
	c-3.02,0-5.477,2.458-5.477,5.477c0,1.612,0.695,3.124,1.907,4.151c0.951,0.949,0.951,0.954,0.951,1.563v2.857
	c0,1.077-2.665,2.619-4.524,2.619c-1.182,0-2.143,0.962-2.143,2.143v1.43c0,0.656,0.534,1.189,1.19,1.189h1.759L-378.692,336.739
	L-378.692,336.739z"/>
</svg>
