<?xml version="1.0" encoding="utf-8"?>
<!-- Generator: Adobe Illustrator 15.1.0, SVG Export Plug-In . SVG Version: 6.00 Build 0)  -->
<!DOCTYPE svg PUBLIC "-//W3C//DTD SVG 1.1//EN" "http://www.w3.org/Graphics/SVG/1.1/DTD/svg11.dtd">
<svg version="1.1" id="圖層_1" xmlns="http://www.w3.org/2000/svg" xmlns:xlink="http://www.w3.org/1999/xlink" x="0px" y="0px"
	 width="18px" height="18px" viewBox="0 0 18 18" enable-background="new 0 0 18 18" xml:space="preserve">
<path fill="#A8A8A8" d="M15.419,13.454c-0.214-0.213-0.493-0.33-0.796-0.33c-1.553,0-4.124-1.271-4.124-2.624
	c0,0,0.004-2.016,0.004-2.354c0-0.533,0-0.617,0.903-1.52C12.26,5.909,12.75,4.859,12.75,3.75C12.75,1.686,11.064,0,8.999,0
	c-2.066,0-3.75,1.686-3.75,3.75c0,1.111,0.492,2.159,1.319,2.854C7.499,7.534,7.499,7.617,7.499,8.25v2.25
	c0,1.354-2.571,2.624-4.124,2.624c-0.619,0-1.125,0.506-1.125,1.125v1.125c0,0.207,0.168,0.376,0.375,0.376h12.749
	c0.207,0,0.376-0.169,0.376-0.376v-1.125C15.75,13.949,15.634,13.668,15.419,13.454z M8.698,2.279C8,2.423,7.499,3.041,7.499,3.75
	c0,0.325,0.102,0.637,0.295,0.896c0.123,0.164,0.09,0.399-0.075,0.523C7.653,5.219,7.573,5.246,7.495,5.246
	c-0.113,0-0.226-0.055-0.301-0.15C6.902,4.701,6.748,4.238,6.748,3.749c0-1.065,0.758-1.992,1.796-2.205
	c0.206-0.042,0.401,0.09,0.442,0.293C9.027,2.039,8.9,2.239,8.698,2.279z"/>
<path fill="#A8A8A8" d="M3.749,16.499h-0.75v1.125C2.999,17.831,3.167,18,3.375,18h11.249c0.206,0,0.375-0.169,0.375-0.376v-1.125
	H3.749L3.749,16.499z"/>
</svg>
