<?xml version="1.0" encoding="utf-8"?>
<!-- Generator: Adobe Illustrator 15.1.0, SVG Export Plug-In . SVG Version: 6.00 Build 0)  -->
<!DOCTYPE svg PUBLIC "-//W3C//DTD SVG 1.1//EN" "http://www.w3.org/Graphics/SVG/1.1/DTD/svg11.dtd">
<svg version="1.1" id="圖層_1" xmlns="http://www.w3.org/2000/svg" xmlns:xlink="http://www.w3.org/1999/xlink" x="0px" y="0px"
	 width="18px" height="18px" viewBox="1.5 21.5 18 18" enable-background="new 1.5 21.5 18 18" xml:space="preserve">
<path fill="#CC625C" d="M16.919,34.954c-0.214-0.213-0.493-0.33-0.796-0.33c-1.553,0-4.124-1.271-4.124-2.624
	c0,0,0.004-2.015,0.004-2.354c0-0.532,0-0.616,0.903-1.519c0.854-0.718,1.344-1.768,1.344-2.877c0-2.065-1.686-3.75-3.751-3.75
	c-2.066,0-3.75,1.685-3.75,3.75c0,1.112,0.492,2.159,1.319,2.853c0.931,0.931,0.931,1.014,0.931,1.647V32
	c0,1.353-2.571,2.624-4.124,2.624c-0.619,0-1.125,0.506-1.125,1.125v1.125c0,0.207,0.168,0.376,0.375,0.376h12.749
	c0.207,0,0.376-0.169,0.376-0.376v-1.125C17.25,35.449,17.134,35.168,16.919,34.954z M10.198,23.779
	C9.5,23.923,8.999,24.541,8.999,25.25c0,0.325,0.102,0.637,0.295,0.897c0.123,0.163,0.09,0.399-0.075,0.523
	c-0.066,0.049-0.146,0.076-0.224,0.076c-0.113,0-0.226-0.054-0.301-0.151c-0.292-0.394-0.446-0.857-0.446-1.346
	c0-1.065,0.758-1.992,1.796-2.205c0.206-0.042,0.401,0.09,0.442,0.293C10.528,23.539,10.401,23.739,10.198,23.779z"/>
<path fill="#CC625C" d="M5.249,37.999h-0.75v1.125c0,0.207,0.168,0.376,0.376,0.376h11.249c0.206,0,0.375-0.169,0.375-0.376v-1.125
	H5.249L5.249,37.999z"/>
</svg>
