<?xml version="1.0" encoding="utf-8"?>
<!-- Generator: Adobe Illustrator 15.1.0, SVG Export Plug-In . SVG Version: 6.00 Build 0)  -->
<!DOCTYPE svg PUBLIC "-//W3C//DTD SVG 1.1//EN" "http://www.w3.org/Graphics/SVG/1.1/DTD/svg11.dtd">
<svg version="1.1" id="圖層_1" xmlns="http://www.w3.org/2000/svg" xmlns:xlink="http://www.w3.org/1999/xlink" x="0px" y="0px"
	 width="22px" height="22px" viewBox="0 0 22 22" enable-background="new 0 0 22 22" xml:space="preserve">
<path fill="#4E85C4" d="M19.995,16.921c-0.238-0.237-0.554-0.368-0.888-0.368c-1.734,0-4.61-1.422-4.61-2.935
	c0,0,0.004-2.25,0.004-2.63c0-0.596,0-0.688,1.011-1.698c0.955-0.8,1.5-1.974,1.5-3.214c0-2.309-1.883-4.19-4.188-4.19
	c-2.31,0-4.191,1.881-4.191,4.19c0,1.245,0.548,2.414,1.476,3.189c1.04,1.04,1.04,1.132,1.04,1.84v2.514
	c0,1.513-2.877,2.936-4.61,2.936c-0.69,0-1.256,0.564-1.256,1.258v1.256c0,0.23,0.188,0.421,0.418,0.421h14.249
	c0.229,0,0.418-0.188,0.418-0.421v-1.256C20.365,17.477,20.234,17.16,19.995,16.921L19.995,16.921z"/>
<path fill="#F3F3F3" d="M12.486,4.434c-0.78,0.159-1.341,0.851-1.341,1.643c0,0.364,0.112,0.711,0.331,1.001
	c0.139,0.185,0.101,0.448-0.084,0.586c-0.075,0.055-0.163,0.084-0.251,0.084c-0.125,0-0.252-0.059-0.336-0.167
	c-0.326-0.441-0.498-0.96-0.498-1.505c0-1.19,0.847-2.226,2.007-2.464c0.229-0.046,0.447,0.101,0.494,0.328
	C12.855,4.165,12.713,4.388,12.486,4.434z"/>
<path fill="#E79D5E" d="M6.955,20.324H6.116v1.257C6.116,21.813,6.304,22,6.535,22h12.572c0.229,0,0.42-0.188,0.42-0.419v-1.257
	H6.955L6.955,20.324z"/>
<path fill="#7F7F7F" d="M5.069,20.387c-0.493-0.236-0.838-0.316-0.838-0.9H3.102v0.84c0,0.229,0.188,0.419,0.419,0.419h1.548V20.387
	z"/>
<path fill="#7F7F7F" d="M4.23,17.811c0-0.069,0.005-0.142,0.011-0.209H2.893v-1.049c0-0.347,0.282-0.629,0.629-0.629
	c2.02,0,5.238-1.63,5.238-3.563V9.848c0-0.194-0.009-0.354-0.026-0.502C8.403,8.935,8.14,8.477,7.948,7.987
	C7.828,7.86,7.694,7.722,7.535,7.564l-0.04-0.038c-0.794-0.665-1.25-1.652-1.25-2.707c0-1.964,1.599-3.562,3.563-3.562
	c0.268,0,0.527,0.032,0.78,0.089c0.598-0.284,1.256-0.456,1.949-0.493C11.762,0.316,10.82,0,9.808,0c-2.658,0-4.82,2.162-4.82,4.819
	c0,1.419,0.611,2.749,1.678,3.653c0.837,0.835,0.837,0.84,0.837,1.376v2.513c0,0.947-2.345,2.306-3.981,2.306
	c-1.041,0-1.886,0.847-1.886,1.886v1.258c0,0.578,0.47,1.047,1.047,1.047h1.548L4.23,17.811L4.23,17.811z"/>
</svg>
