<?xml version="1.0" encoding="utf-8"?>
<!-- Generator: Adobe Illustrator 15.1.0, SVG Export Plug-In . SVG Version: 6.00 Build 0)  -->
<!DOCTYPE svg PUBLIC "-//W3C//DTD SVG 1.1//EN" "http://www.w3.org/Graphics/SVG/1.1/DTD/svg11.dtd">
<svg version="1.1" id="圖層_1" xmlns="http://www.w3.org/2000/svg" xmlns:xlink="http://www.w3.org/1999/xlink" x="0px" y="0px"
	 width="22px" height="22px" viewBox="0 0 22 22" enable-background="new 0 0 22 22" xml:space="preserve">
<path fill="#4E85C4" d="M18.846,16.443c-0.262-0.26-0.604-0.402-0.973-0.402c-1.898,0-5.041-1.555-5.041-3.208
	c0,0,0.005-2.462,0.005-2.878c0-0.651,0-0.753,1.104-1.856c1.043-0.876,1.642-2.16,1.642-3.516c0-2.524-2.06-4.583-4.584-4.583
	C8.474,0,6.416,2.058,6.416,4.583c0,1.361,0.6,2.64,1.613,3.487c1.137,1.137,1.137,1.238,1.137,2.013v2.75
	c0,1.653-3.144,3.208-5.041,3.208c-0.757,0-1.375,0.618-1.375,1.375v1.375c0,0.252,0.205,0.459,0.458,0.459h15.583
	c0.252,0,0.459-0.207,0.459-0.459v-1.375C19.25,17.049,19.107,16.705,18.846,16.443L18.846,16.443z"/>
<path fill="#F3F3F3" d="M10.631,2.786C9.779,2.961,9.165,3.717,9.165,4.583c0,0.398,0.124,0.778,0.362,1.096
	C9.677,5.88,9.636,6.168,9.435,6.32C9.352,6.38,9.255,6.413,9.16,6.413c-0.138,0-0.275-0.065-0.367-0.184
	c-0.356-0.482-0.545-1.05-0.545-1.646c0-1.302,0.926-2.435,2.194-2.695c0.253-0.051,0.49,0.11,0.541,0.358
	C11.035,2.492,10.879,2.736,10.631,2.786z"/>
<path fill="#E79D5E" d="M4.582,20.166H3.666v1.375C3.666,21.793,3.871,22,4.125,22h13.749c0.252,0,0.458-0.207,0.458-0.459v-1.375
	H4.582L4.582,20.166z"/>
</svg>
