<?xml version="1.0" encoding="utf-8"?>
<!-- Generator: Adobe Illustrator 15.1.0, SVG Export Plug-In . SVG Version: 6.00 Build 0)  -->
<!DOCTYPE svg PUBLIC "-//W3C//DTD SVG 1.1//EN" "http://www.w3.org/Graphics/SVG/1.1/DTD/svg11.dtd">
<svg version="1.1" id="圖層_1" xmlns="http://www.w3.org/2000/svg" xmlns:xlink="http://www.w3.org/1999/xlink" x="0px" y="0px"
	 width="25px" height="25px" viewBox="-383.5 316.5 25 25" enable-background="new -383.5 316.5 25 25" xml:space="preserve">
<title>seal</title>
<path fill="#FFFFFF" d="M-362.085,335.187c-0.297-0.296-0.688-0.458-1.104-0.458c-2.157,0-5.729-1.766-5.729-3.646
	c0,0,0.005-2.798,0.005-3.271c0-0.74,0-0.854,1.255-2.11c1.187-0.994,1.865-2.453,1.865-3.994c0-2.869-2.338-5.208-5.208-5.208
	s-5.208,2.338-5.208,5.208c0,1.547,0.682,3,1.834,3.963c1.291,1.292,1.291,1.407,1.291,2.287v3.125c0,1.88-3.572,3.646-5.729,3.646
	c-0.859,0-1.563,0.703-1.563,1.563v1.563c0,0.286,0.233,0.521,0.521,0.521h17.708c0.286,0,0.521-0.235,0.521-0.521v-1.563
	c0-0.417-0.162-0.808-0.458-1.104H-362.085z M-371.418,319.666c-0.968,0.198-1.666,1.058-1.666,2.042
	c0,0.452,0.141,0.885,0.411,1.245c0.172,0.229,0.125,0.557-0.104,0.728c-0.094,0.068-0.204,0.105-0.312,0.105
	c-0.157,0-0.314-0.073-0.417-0.209c-0.405-0.548-0.62-1.192-0.62-1.869c0-1.479,1.053-2.767,2.495-3.063
	c0.287-0.057,0.557,0.125,0.615,0.407C-370.959,319.332-371.137,319.61-371.418,319.666z"/>
<path fill="#FFFFFF" d="M-378.292,339.416h-1.041v1.563c0,0.286,0.233,0.521,0.521,0.521h15.625c0.286,0,0.521-0.235,0.521-0.521
	v-1.563H-378.292L-378.292,339.416z"/>
</svg>
