<?xml version="1.0" encoding="utf-8"?>
<!-- Generator: Adobe Illustrator 15.1.0, SVG Export Plug-In . SVG Version: 6.00 Build 0)  -->
<!DOCTYPE svg PUBLIC "-//W3C//DTD SVG 1.1//EN" "http://www.w3.org/Graphics/SVG/1.1/DTD/svg11.dtd">
<svg version="1.1" id="圖層_1" xmlns="http://www.w3.org/2000/svg" xmlns:xlink="http://www.w3.org/1999/xlink" x="0px" y="0px"
	 width="25px" height="25px" viewBox="-359.5 313 25 25" enable-background="new -359.5 313 25 25" xml:space="preserve">
<title>search-plus</title>
<path d="M-344.116,323.098v0.959c0,0.133-0.047,0.244-0.143,0.34c-0.094,0.096-0.208,0.142-0.339,0.142h-3.365v3.365
	c0,0.131-0.048,0.242-0.142,0.339c-0.096,0.094-0.208,0.143-0.339,0.143h-0.963c-0.13,0-0.243-0.049-0.338-0.143
	c-0.095-0.094-0.143-0.208-0.143-0.339v-3.365h-3.366c-0.13,0-0.242-0.046-0.338-0.142c-0.095-0.096-0.143-0.207-0.143-0.34v-0.959
	c0-0.131,0.048-0.244,0.143-0.34c0.094-0.094,0.208-0.14,0.338-0.14h3.366v-3.368c0-0.129,0.048-0.242,0.143-0.337
	c0.094-0.095,0.208-0.144,0.338-0.144h0.963c0.13,0,0.242,0.049,0.339,0.144c0.094,0.092,0.142,0.208,0.142,0.337v3.367h3.365
	c0.13,0,0.243,0.046,0.339,0.14C-344.163,322.853-344.116,322.966-344.116,323.098z M-342.193,323.578
	c0-1.855-0.659-3.439-1.975-4.756c-1.318-1.315-2.903-1.975-4.755-1.975s-3.438,0.656-4.755,1.975s-1.976,2.903-1.976,4.756
	c0,1.852,0.659,3.436,1.976,4.754c1.317,1.319,2.902,1.975,4.755,1.975s3.438-0.657,4.755-1.975
	C-342.853,327.016-342.193,325.432-342.193,323.578z M-334.5,336.076c0,0.532-0.188,0.984-0.564,1.359
	c-0.376,0.377-0.83,0.564-1.36,0.564c-0.542,0-0.991-0.19-1.353-0.571l-5.154-5.137c-1.792,1.24-3.79,1.86-5.993,1.86
	c-1.432,0-2.801-0.278-4.108-0.832c-1.308-0.557-2.434-1.309-3.381-2.254c-0.947-0.947-1.698-2.075-2.254-3.381
	c-0.556-1.309-0.834-2.676-0.834-4.109c0-1.431,0.278-2.801,0.834-4.106c0.555-1.309,1.307-2.433,2.254-3.382
	c0.947-0.947,2.073-1.697,3.381-2.253c1.308-0.557,2.677-0.835,4.108-0.835c1.432,0,2.802,0.278,4.108,0.835
	c1.307,0.554,2.434,1.306,3.381,2.253c0.947,0.949,1.699,2.073,2.253,3.382c0.557,1.306,0.833,2.677,0.833,4.106
	c0,2.205-0.621,4.201-1.861,5.994l5.153,5.153C-334.685,335.095-334.5,335.544-334.5,336.076L-334.5,336.076z"/>
</svg>
