<?xml version="1.0" encoding="utf-8"?>
<!-- Generator: Adobe Illustrator 15.1.0, SVG Export Plug-In . SVG Version: 6.00 Build 0)  -->
<!DOCTYPE svg PUBLIC "-//W3C//DTD SVG 1.1//EN" "http://www.w3.org/Graphics/SVG/1.1/DTD/svg11.dtd">
<svg version="1.1" id="圖層_1" xmlns="http://www.w3.org/2000/svg" xmlns:xlink="http://www.w3.org/1999/xlink" x="0px" y="0px"
	 width="22px" height="22px" viewBox="0 0 22 22" enable-background="new 0 0 22 22" xml:space="preserve">
<title>gavel</title>
<path fill="#EF4922" d="M8.461,10.154H5.499c-0.114,0-0.214-0.042-0.298-0.125C5.117,9.945,5.075,9.846,5.076,9.731V8.885
	c0-0.114,0.042-0.214,0.125-0.298c0.084-0.084,0.183-0.126,0.298-0.125h2.962h1.691h2.961c0.115,0,0.214,0.042,0.299,0.125
	c0.084,0.084,0.125,0.183,0.125,0.298v0.847c0,0.114-0.041,0.214-0.125,0.298c-0.083,0.083-0.184,0.125-0.299,0.125h-2.961H8.461
	V10.154z"/>
<path fill="#7F7F7F" d="M8.461,10.154H5.499c-0.114,0-0.214-0.042-0.298-0.125C5.117,9.945,5.075,9.846,5.076,9.731V8.885
	c0-0.114,0.042-0.214,0.125-0.298c0.084-0.084,0.183-0.126,0.298-0.125h2.962h1.691h2.961c0.115,0,0.214,0.042,0.299,0.125
	c0.084,0.084,0.125,0.183,0.125,0.298v0.847c0,0.114-0.041,0.214-0.125,0.298c-0.083,0.083-0.184,0.125-0.299,0.125h-2.961H8.461
	V10.154z"/>
<path fill="#4E85C4" d="M21.512,19.116l-4.535-4.535c1.094-1.577,1.641-3.335,1.641-5.274c0-1.26-0.245-2.465-0.733-3.615
	c-0.487-1.15-1.149-2.142-1.983-2.975s-1.826-1.494-2.978-1.983C11.771,0.244,10.567,0,9.308,0C8.049,0,6.842,0.244,5.692,0.733
	c-1.15,0.489-2.142,1.15-2.976,1.983C1.884,3.55,1.223,4.541,0.734,5.691C0.245,6.842,0,8.047,0,9.307
	c0,1.261,0.245,2.464,0.734,3.615c0.488,1.15,1.149,2.143,1.982,2.977c0.834,0.832,1.825,1.494,2.976,1.982
	c1.149,0.488,2.355,0.733,3.615,0.733c1.938,0,3.696-0.546,5.274-1.64l4.534,4.521C19.434,21.832,19.831,22,20.307,22
	c0.467,0,0.866-0.166,1.196-0.496c0.331-0.331,0.496-0.729,0.496-1.195L22,20.307C22,19.838,21.837,19.441,21.512,19.116z
	 M13.491,13.492c-1.159,1.158-2.555,1.738-4.185,1.738c-1.63,0-3.025-0.58-4.184-1.738c-1.159-1.16-1.739-2.555-1.739-4.185
	c0-1.629,0.58-3.023,1.739-4.184c1.158-1.16,2.554-1.739,4.184-1.739c1.63,0.001,3.025,0.58,4.185,1.739
	c1.157,1.158,1.737,2.553,1.737,4.184C15.229,10.938,14.648,12.334,13.491,13.492z"/>
</svg>
