<?xml version="1.0" encoding="utf-8"?>
<!-- Generator: Adobe Illustrator 15.1.0, SVG Export Plug-In . SVG Version: 6.00 Build 0)  -->
<!DOCTYPE svg PUBLIC "-//W3C//DTD SVG 1.1//EN" "http://www.w3.org/Graphics/SVG/1.1/DTD/svg11.dtd">
<svg version="1.1" id="圖層_1" xmlns="http://www.w3.org/2000/svg" xmlns:xlink="http://www.w3.org/1999/xlink" x="0px" y="0px"
	 width="25px" height="25px" viewBox="-386.5 314.5 25 25" enable-background="new -386.5 314.5 25 25" xml:space="preserve">
<title>search-minus</title>
<path d="M-371.116,324.597v0.961c0,0.13-0.047,0.243-0.143,0.338c-0.094,0.096-0.207,0.143-0.338,0.143h-8.654
	c-0.13,0-0.243-0.047-0.338-0.143c-0.095-0.094-0.143-0.207-0.143-0.338v-0.961c0-0.13,0.048-0.243,0.143-0.339
	s0.208-0.143,0.338-0.143h8.654c0.13,0,0.242,0.047,0.338,0.143C-371.163,324.353-371.116,324.466-371.116,324.597z
	 M-369.193,325.077c0-1.854-0.659-3.438-1.976-4.755c-1.317-1.316-2.902-1.976-4.755-1.976c-1.853,0-3.438,0.658-4.755,1.976
	c-1.317,1.318-1.976,2.903-1.976,4.755s0.659,3.437,1.976,4.755c1.317,1.317,2.902,1.976,4.755,1.976
	c1.853,0,3.438-0.659,4.755-1.976C-369.853,328.516-369.193,326.931-369.193,325.077z M-361.501,337.576
	c0,0.531-0.188,0.984-0.563,1.36c-0.375,0.375-0.829,0.563-1.359,0.563c-0.541,0-0.992-0.191-1.353-0.571l-5.153-5.138
	c-1.793,1.241-3.791,1.861-5.994,1.861c-1.432,0-2.802-0.277-4.109-0.834c-1.307-0.555-2.434-1.307-3.381-2.253
	c-0.946-0.947-1.698-2.074-2.253-3.382c-0.556-1.307-0.834-2.676-0.834-4.107s0.278-2.801,0.834-4.108
	c0.555-1.307,1.307-2.434,2.253-3.381c0.947-0.946,2.074-1.698,3.381-2.254s2.677-0.833,4.109-0.833
	c1.432,0,2.801,0.277,4.108,0.833s2.434,1.308,3.381,2.254c0.947,0.947,1.699,2.074,2.253,3.381
	c0.556,1.308,0.834,2.677,0.834,4.108c0,2.204-0.621,4.201-1.862,5.993l5.152,5.153c0.371,0.371,0.556,0.82,0.556,1.352
	L-361.501,337.576z"/>
</svg>
