<?xml version="1.0" encoding="utf-8"?>
<!-- Generator: Adobe Illustrator 15.1.0, SVG Export Plug-In . SVG Version: 6.00 Build 0)  -->
<!DOCTYPE svg PUBLIC "-//W3C//DTD SVG 1.1//EN" "http://www.w3.org/Graphics/SVG/1.1/DTD/svg11.dtd">
<svg version="1.1" id="圖層_1" xmlns="http://www.w3.org/2000/svg" xmlns:xlink="http://www.w3.org/1999/xlink" x="0px" y="0px"
	 width="25px" height="25px" viewBox="-383.5 316.5 25 25" enable-background="new -383.5 316.5 25 25" xml:space="preserve">
<title>select</title>
<path fill="#FFFFFF" d="M-361.005,335.277l-8.463-8.72c-0.073-0.076-0.186-0.099-0.285-0.059c-0.098,0.04-0.163,0.136-0.162,0.24
	l0.003,12.151c0,0.104,0.061,0.197,0.156,0.238c0.001,0,0.001,0,0.001,0.001c0.096,0.04,0.206,0.021,0.28-0.052l2.973-2.819
	l1.962,4.832c0.063,0.16,0.191,0.288,0.351,0.357c0.082,0.033,0.166,0.052,0.254,0.052c0.085,0,0.167-0.016,0.248-0.048
	c0.333-0.136,0.496-0.517,0.359-0.853l-1.96-4.832l4.097-0.049c0.104,0,0.199-0.063,0.238-0.16
	C-360.912,335.464-360.932,335.352-361.005,335.277L-361.005,335.277z"/>
<path fill="#FFFFFF" d="M-371.371,326.739c-0.007-0.684,0.424-1.331,1.074-1.592c0.642-0.258,1.408-0.093,1.883,0.403l1.256,1.294
	v-3.306h-10.899v11.354h6.689L-371.371,326.739z"/>
<path fill="#FFFFFF" d="M-371.369,336.482h-8.338v-15.895h0.682v-1.362h-1.363c-0.374,0-0.681,0.307-0.681,0.681v17.257
	c0,0.376,0.307,0.683,0.681,0.683h9.021L-371.369,336.482L-371.369,336.482z"/>
<path fill="#FFFFFF" d="M-365.629,328.42l1.362,1.404v-9.918c0-0.375-0.307-0.683-0.68-0.683h-1.363v1.363h0.681V328.42
	L-365.629,328.42z"/>
<path fill="#FFFFFF" d="M-367.673,319.224h-2.724v-1.36c0-0.75-0.614-1.363-1.362-1.363h-1.816c-0.749,0-1.362,0.614-1.362,1.363
	v1.36h-2.725v2.726h9.992v-2.726H-367.673z M-371.759,319.224h-1.817v-1.359c0.001,0,0.001,0,0.002-0.002h1.813
	c0,0.001,0.001,0.001,0.002,0.002V319.224z"/>
</svg>
