<?xml version="1.0" encoding="utf-8"?>
<!-- Generator: Adobe Illustrator 15.1.0, SVG Export Plug-In . SVG Version: 6.00 Build 0)  -->
<!DOCTYPE svg PUBLIC "-//W3C//DTD SVG 1.1//EN" "http://www.w3.org/Graphics/SVG/1.1/DTD/svg11.dtd">
<svg version="1.1" id="圖層_1" xmlns="http://www.w3.org/2000/svg" xmlns:xlink="http://www.w3.org/1999/xlink" x="0px" y="0px"
	 width="25px" height="25px" viewBox="-383.5 316.5 25 25" enable-background="new -383.5 316.5 25 25" xml:space="preserve">
<title>select-arrow</title>
<path fill="#2F8AC1" d="M-363.647,331.144l-14.084-14.513c-0.123-0.127-0.31-0.164-0.474-0.099c-0.163,0.066-0.27,0.225-0.27,0.401
	l0.005,20.223c0,0.173,0.103,0.329,0.26,0.398c0.001,0,0.001,0,0.002,0.001c0.159,0.066,0.341,0.033,0.466-0.085l4.95-4.693
	l3.263,8.042c0.106,0.265,0.319,0.48,0.583,0.594c0.136,0.058,0.278,0.087,0.426,0.087c0.141,0,0.277-0.027,0.411-0.081
	c0.555-0.226,0.824-0.861,0.599-1.417l-3.263-8.042l6.819-0.084c0.173-0.001,0.328-0.105,0.396-0.266
	C-363.493,331.452-363.526,331.266-363.647,331.144z"/>
</svg>
