<?xml version="1.0" encoding="utf-8"?>
<!-- Generator: Adobe Illustrator 15.1.0, SVG Export Plug-In . SVG Version: 6.00 Build 0)  -->
<!DOCTYPE svg PUBLIC "-//W3C//DTD SVG 1.1//EN" "http://www.w3.org/Graphics/SVG/1.1/DTD/svg11.dtd">
<svg version="1.1" id="圖層_1" xmlns="http://www.w3.org/2000/svg" xmlns:xlink="http://www.w3.org/1999/xlink" x="0px" y="0px"
	 width="22px" height="22px" viewBox="0 0 22 22" enable-background="new 0 0 22 22" xml:space="preserve">
<path fill="#4E85C4" d="M17.471,12.886L5.076,0.115C4.968,0.003,4.803-0.03,4.659,0.028C4.516,0.086,4.422,0.226,4.422,0.381
	l0.005,17.797c0,0.152,0.09,0.29,0.229,0.35c0.001,0.002,0.001,0.002,0.002,0.003c0.14,0.059,0.3,0.028,0.41-0.075l4.356-4.13
	l2.872,7.075c0.095,0.233,0.281,0.425,0.515,0.523C12.93,21.975,13.055,22,13.184,22c0.125,0,0.244-0.023,0.362-0.07
	c0.488-0.199,0.726-0.759,0.526-1.248L11.2,13.604l6.001-0.072c0.152-0.001,0.287-0.094,0.348-0.234
	C17.605,13.158,17.577,12.994,17.471,12.886z"/>
</svg>
