<?xml version="1.0" encoding="utf-8"?>
<!-- Generator: Adobe Illustrator 15.1.0, SVG Export Plug-In . SVG Version: 6.00 Build 0)  -->
<!DOCTYPE svg PUBLIC "-//W3C//DTD SVG 1.1//EN" "http://www.w3.org/Graphics/SVG/1.1/DTD/svg11.dtd">
<svg version="1.1" id="圖層_1" xmlns="http://www.w3.org/2000/svg" xmlns:xlink="http://www.w3.org/1999/xlink" x="0px" y="0px"
	 width="22px" height="22px" viewBox="0 0 22 22" enable-background="new 0 0 22 22" xml:space="preserve">
<title>gavel</title>
<path fill="#4E85C4" d="M19.796,16.523L12.35,8.85c-0.064-0.067-0.164-0.087-0.25-0.052c-0.086,0.035-0.146,0.119-0.144,0.212
	l0.003,10.693c0,0.091,0.055,0.174,0.137,0.209c0.002,0.001,0.002,0.001,0.002,0.002c0.084,0.034,0.182,0.018,0.246-0.046
	l2.616-2.481l1.728,4.252c0.055,0.143,0.168,0.254,0.309,0.314C17.066,21.982,17.143,22,17.219,22c0.075,0,0.147-0.014,0.219-0.042
	c0.293-0.119,0.438-0.455,0.315-0.75l-1.726-4.252l3.605-0.044c0.092,0,0.176-0.055,0.21-0.141
	C19.878,16.688,19.859,16.589,19.796,16.523L19.796,16.523z"/>
<path fill="#C4C4C4" d="M10.674,9.011c-0.006-0.602,0.373-1.171,0.945-1.401c0.564-0.228,1.238-0.081,1.656,0.355l1.104,1.139v-2.91
	H4.79v9.992h5.886L10.674,9.011z"/>
<path fill="#7F7F7F" d="M10.676,17.584H3.338V3.597h0.6V2.398H2.739c-0.329,0-0.6,0.27-0.6,0.6v15.186c0,0.33,0.271,0.602,0.6,0.602
	h7.938L10.676,17.584L10.676,17.584z"/>
<path fill="#7F7F7F" d="M15.727,10.489l1.199,1.235V2.997c0-0.329-0.271-0.6-0.599-0.6h-1.2v1.199h0.6V10.489L15.727,10.489z"/>
<path fill="#7F7F7F" d="M13.928,2.397h-2.398V1.199C11.529,0.539,10.99,0,10.331,0H8.733C8.074,0,7.535,0.54,7.535,1.199v1.198
	H5.137v2.398h8.792V2.397H13.928z M10.332,2.397H8.733V1.2c0.001,0,0.001,0,0.002-0.002h1.595c0,0.001,0.001,0.001,0.002,0.002
	V2.397z"/>
</svg>
