<?xml version="1.0" encoding="utf-8"?>
<!-- Generator: Adobe Illustrator 15.1.0, SVG Export Plug-In . SVG Version: 6.00 Build 0)  -->
<!DOCTYPE svg PUBLIC "-//W3C//DTD SVG 1.1//EN" "http://www.w3.org/Graphics/SVG/1.1/DTD/svg11.dtd">
<svg version="1.1" id="圖層_1" xmlns="http://www.w3.org/2000/svg" xmlns:xlink="http://www.w3.org/1999/xlink" x="0px" y="0px"
	 width="18px" height="18px" viewBox="-384.5 315.5 18 18" enable-background="new -384.5 315.5 18 18" xml:space="preserve">
<title>home</title>
<path fill="#2E323C" d="M-375.501,321.607c-1.596,0-2.892,1.296-2.892,2.895c0,1.595,1.295,2.893,2.892,2.893
	c1.597,0,2.882-1.296,2.882-2.893C-372.619,322.903-373.905,321.607-375.501,321.607z M-369.705,326.162l-0.521,1.257l1.054,2.067
	l-1.29,1.288l-2.115-0.999l-1.256,0.516l-0.636,1.95l-0.083,0.259h-1.822l-0.788-2.201l-1.255-0.52l-2.071,1.049l-1.288-1.288
	l0.998-2.115l-0.517-1.255l-2.207-0.72v-1.821l2.204-0.79l0.517-1.253l-0.927-1.83l-0.122-0.24l1.287-1.287l2.117,0.998l1.254-0.519
	l0.637-1.949l0.082-0.259h1.822l0.79,2.205l1.251,0.518l2.072-1.05l1.288,1.286l-0.998,2.115l0.516,1.256l2.21,0.719v1.819
	l-2.203,0.794H-369.705z"/>
<circle fill="#2E323C" cx="-375.5" cy="324.5" r="1.818"/>
</svg>
