<?xml version="1.0" encoding="utf-8"?>
<!-- Generator: Adobe Illustrator 15.1.0, SVG Export Plug-In . SVG Version: 6.00 Build 0)  -->
<!DOCTYPE svg PUBLIC "-//W3C//DTD SVG 1.1//EN" "http://www.w3.org/Graphics/SVG/1.1/DTD/svg11.dtd">
<svg version="1.1" id="圖層_1" xmlns="http://www.w3.org/2000/svg" xmlns:xlink="http://www.w3.org/1999/xlink" x="0px" y="0px"
	 width="18px" height="18px" viewBox="-384.5 315.5 18 18" enable-background="new -384.5 315.5 18 18" xml:space="preserve">
<title>home</title>
<path fill="#2E323C" d="M-369.069,325.589v5.358c0,0.194-0.071,0.361-0.212,0.502s-0.309,0.212-0.502,0.212h-4.288v-4.286h-2.857
	v4.286h-4.288c-0.194,0-0.361-0.071-0.502-0.212s-0.212-0.31-0.212-0.502v-5.358c0-0.007,0.002-0.019,0.006-0.034
	c0.003-0.016,0.006-0.025,0.006-0.033l6.419-5.292l6.419,5.292C-369.073,325.535-369.069,325.559-369.069,325.589z"/>
<path fill="#2E323C" d="M-366.578,324.818l-0.692,0.825c-0.06,0.067-0.139,0.106-0.235,0.123h-0.033
	c-0.098,0-0.175-0.026-0.235-0.078l-7.727-6.44l-7.726,6.44c-0.089,0.06-0.178,0.085-0.269,0.078
	c-0.096-0.015-0.174-0.056-0.234-0.123l-0.692-0.825c-0.06-0.074-0.085-0.162-0.078-0.262c0.008-0.104,0.049-0.182,0.123-0.242
	l8.027-6.687c0.238-0.193,0.521-0.289,0.849-0.289c0.329,0,0.61,0.096,0.849,0.289l2.725,2.277v-2.177
	c0-0.104,0.033-0.189,0.101-0.255c0.067-0.067,0.152-0.103,0.256-0.103h2.144c0.104,0,0.19,0.034,0.256,0.103
	c0.066,0.066,0.101,0.152,0.101,0.255v4.555l2.445,2.031c0.075,0.061,0.115,0.139,0.123,0.242
	C-366.493,324.657-366.519,324.745-366.578,324.818L-366.578,324.818z"/>
</svg>
