<?xml version="1.0" encoding="utf-8"?>
<!-- Generator: Adobe Illustrator 15.1.0, SVG Export Plug-In . SVG Version: 6.00 Build 0)  -->
<!DOCTYPE svg PUBLIC "-//W3C//DTD SVG 1.1//EN" "http://www.w3.org/Graphics/SVG/1.1/DTD/svg11.dtd">
<svg version="1.1" id="圖層_1" xmlns="http://www.w3.org/2000/svg" xmlns:xlink="http://www.w3.org/1999/xlink" x="0px" y="0px"
	 width="25px" height="25px" viewBox="-383.5 316.5 25 25" enable-background="new -383.5 316.5 25 25" xml:space="preserve">
<title>settings</title>
<path fill="#2F8AC1" d="M-383.499,337.854c0,2.016,1.63,3.646,3.646,3.646c1.005,0,1.942-0.38,2.604-1.041l6.646-6.651l1.781,1.78
	c-0.24,0.877-0.011,1.854,0.683,2.553l2.583,2.583c1.031,1.026,2.682,1.037,3.698,0.021c1.016-1.016,1.005-2.666-0.021-3.697
	l-2.583-2.585c-0.697-0.692-1.677-0.921-2.551-0.682l-1.782-1.776l1.146-1.146c2.438,0.615,5.125-0.026,7.025-1.886
	c1.308-1.28,2.027-2.905,2.125-4.587v-0.089c-0.001-0.567-0.47-1.025-1.047-1.025c-0.287,0-0.548,0.115-0.74,0.297l-0.307,0.302
	l-1.052,1.031c-0.662,0.646-1.604,1.025-2.62,1.025c-1.01,0-1.901-0.442-2.563-1.093c-0.651-0.662-1.098-1.558-1.098-2.568
	c0-1.017,0.379-1.959,1.025-2.62l1.03-1.053l0.303-0.307c0.182-0.193,0.297-0.453,0.297-0.74c0-0.578-0.458-1.047-1.027-1.047
	h-0.089c-1.681,0.099-3.306,0.818-4.587,2.126c-1.859,1.9-2.495,4.589-1.88,7.021l-1.151,1.15l-4.807-4.813v-1.317l-3.125-1.563
	l-1.563,1.563l1.563,3.125h1.313l4.812,4.808l-6.646,6.65C-383.121,335.912-383.5,336.85-383.499,337.854L-383.499,337.854z
	 M-380.896,337.594c0-0.719,0.583-1.303,1.302-1.303s1.302,0.584,1.302,1.303s-0.583,1.303-1.302,1.303
	S-380.896,338.313-380.896,337.594z"/>
</svg>
