<?xml version="1.0" encoding="utf-8"?>
<!-- Generator: Adobe Illustrator 15.1.0, SVG Export Plug-In . SVG Version: 6.00 Build 0)  -->
<!DOCTYPE svg PUBLIC "-//W3C//DTD SVG 1.1//EN" "http://www.w3.org/Graphics/SVG/1.1/DTD/svg11.dtd">
<svg version="1.1" id="圖層_1" xmlns="http://www.w3.org/2000/svg" xmlns:xlink="http://www.w3.org/1999/xlink" x="0px" y="0px"
	 width="22px" height="22px" viewBox="0 0 22 22" enable-background="new 0 0 22 22" xml:space="preserve">
<path fill="#7F7F7F" d="M12.938,13.645l1.01-1.009c2.145,0.542,4.51-0.021,6.182-1.659C21.279,9.849,21.913,8.419,22,6.94V6.862
	c-0.001-0.499-0.414-0.903-0.922-0.903c-0.253,0-0.482,0.102-0.651,0.262l-0.271,0.267L19.23,7.394
	c-0.582,0.568-1.412,0.902-2.306,0.902c-0.89,0-1.674-0.39-2.256-0.963c-0.571-0.582-0.966-1.37-0.966-2.26
	c0-0.893,0.334-1.723,0.902-2.305l0.906-0.926l0.266-0.271c0.16-0.169,0.262-0.398,0.262-0.651C16.04,0.413,15.637,0,15.137,0
	h-0.078c-1.479,0.087-2.908,0.72-4.036,1.87C9.386,3.543,8.826,5.909,9.367,8.049L8.354,9.061l-1.59,1.586L0.916,16.5
	C0.334,17.082,0,17.907,0,18.791l0,0c0,1.773,1.436,3.208,3.209,3.208c0.885,0,1.71-0.334,2.291-0.916l5.849-5.853L12.938,13.645z"
	/>
<path fill="#4E85C4" d="M8.355,9.062l-4.23-4.234v-1.16l-2.75-1.375L0,3.667l1.375,2.75h1.156l4.234,4.23l4.584,4.583l1.566,1.565
	c-0.211,0.771-0.011,1.632,0.603,2.246l2.272,2.272c0.905,0.903,2.358,0.912,3.254,0.02c0.894-0.895,0.886-2.348-0.021-3.254
	l-2.272-2.273c-0.612-0.608-1.476-0.811-2.244-0.6l-1.567-1.563L8.355,9.062z"/>
<circle fill="#F3F3F3" cx="3.438" cy="18.562" r="1.146"/>
</svg>
