<?xml version="1.0" encoding="utf-8"?>
<!-- Generator: Adobe Illustrator 15.1.0, SVG Export Plug-In . SVG Version: 6.00 Build 0)  -->
<!DOCTYPE svg PUBLIC "-//W3C//DTD SVG 1.1//EN" "http://www.w3.org/Graphics/SVG/1.1/DTD/svg11.dtd">
<svg version="1.1" id="圖層_1" xmlns="http://www.w3.org/2000/svg" xmlns:xlink="http://www.w3.org/1999/xlink" x="0px" y="0px"
	 width="14px" height="14px" viewBox="-391.5 308.5 14 14" enable-background="new -391.5 308.5 14 14" xml:space="preserve">
<title>share-2</title>
<path fill="#007AE1" d="M-380.681,317.409c-0.701,0-1.336,0.318-1.782,0.764l-3.373-1.973c0-0.255,0.063-0.445,0.063-0.7
	s-0.063-0.445-0.128-0.7l3.373-1.973c0.509,0.445,1.146,0.764,1.845,0.764c1.4,0,2.545-1.146,2.545-2.545
	c0-1.401-1.146-2.546-2.545-2.546c-1.399,0-2.545,1.145-2.545,2.546c0,0.254,0.063,0.444,0.127,0.699l-3.437,1.974
	c-0.445-0.446-1.082-0.765-1.782-0.765c-1.399,0-2.545,1.146-2.545,2.546s1.146,2.546,2.545,2.546c0.7,0,1.336-0.318,1.782-0.765
	l3.372,1.974c0,0.255-0.063,0.445-0.063,0.699c0,1.401,1.146,2.546,2.545,2.546c1.4,0,2.545-1.145,2.545-2.546
	C-378.136,318.555-379.281,317.409-380.681,317.409z M-388.318,316.772c-0.7,0-1.273-0.572-1.273-1.272s0.573-1.272,1.273-1.272
	c0.7,0,1.273,0.572,1.273,1.272S-387.617,316.772-388.318,316.772z M-380.681,321.228c-0.701,0-1.273-0.573-1.273-1.273
	c0-0.254,0.063-0.444,0.19-0.636l0,0l0,0c0.191-0.383,0.637-0.637,1.083-0.637c0.7,0,1.272,0.572,1.272,1.271
	C-379.408,320.653-379.981,321.228-380.681,321.228z"/>
<title>user</title>
<title>user</title>
</svg>
