<?xml version="1.0" encoding="utf-8"?>
<!-- Generator: Adobe Illustrator 15.1.0, SVG Export Plug-In . SVG Version: 6.00 Build 0)  -->
<!DOCTYPE svg PUBLIC "-//W3C//DTD SVG 1.1//EN" "http://www.w3.org/Graphics/SVG/1.1/DTD/svg11.dtd">
<svg version="1.1" id="圖層_1" xmlns="http://www.w3.org/2000/svg" xmlns:xlink="http://www.w3.org/1999/xlink" x="0px" y="0px"
	 width="22px" height="22px" viewBox="0 0 22 22" enable-background="new 0 0 22 22" xml:space="preserve">
<path fill="#4E85C4" d="M21.938,6.603l-3.324,5.149c-0.047,0.074-0.119,0.102-0.205,0.117c-0.124,0.021-0.189-0.021-0.282-0.092
	c-0.481,0.688-0.949,1.355-1.384,1.979c-0.862,1.229-1.77,2.603-3.026,3.252l-0.124-0.084l-0.283,0.407
	c-0.098,0.139-0.291,0.17-0.43,0.073s-0.172-0.286-0.076-0.425l0.285-0.407l-0.127-0.091c0.33-1.668,0.938-2.403,2.023-3.955
	l1.428-2.04c-0.159-0.11-0.273-0.286-0.137-0.469l2.777-3.662l-0.26-0.182l-2.465,3.226C16.23,9.54,16.041,9.574,15.9,9.476
	c-0.139-0.098-0.172-0.288-0.074-0.427l3.35-4.382c0.098-0.14,0.288-0.173,0.428-0.075c0.138,0.097,0.172,0.288,0.073,0.427
	l-0.278,0.365l0.254,0.179l0.277-0.368C20.415,4.555,22.373,5.926,21.938,6.603L21.938,6.603L21.938,6.603z"/>
<path fill="#7F7F7F" d="M15.925,17.918v2.633H1.448V1.449L15.925,1.45v5.089l1.448-1.895V1.087c0-0.302-0.105-0.558-0.316-0.77
	C16.846,0.106,16.589,0,16.288,0H1.087c-0.302,0-0.558,0.106-0.77,0.317C0.107,0.529,0,0.785,0,1.087l0,0l0,0v19.828
	c0,0.301,0.106,0.558,0.317,0.771C0.529,21.896,0.785,22,1.087,22h15.201c0.301,0,0.558-0.104,0.771-0.314
	c0.209-0.213,0.316-0.47,0.316-0.771c0-0.001,0-0.001,0-0.001v-4.673C16.945,16.827,16.473,17.407,15.925,17.918L15.925,17.918z"/>
<path fill="#C4C4C4" d="M3.667,5.042c-0.253,0-0.458-0.206-0.458-0.459V4.124c0-0.253,0.206-0.458,0.458-0.458
	s0.458,0.205,0.458,0.458v0.459C4.125,4.836,3.92,5.042,3.667,5.042z"/>
<path fill="#C4C4C4" d="M3.667,16.041c-0.253,0-0.458-0.204-0.458-0.458v-0.917c0-0.253,0.206-0.458,0.458-0.458
	s0.458,0.205,0.458,0.458v0.917C4.125,15.837,3.92,16.041,3.667,16.041z M3.667,13.292c-0.253,0-0.458-0.206-0.458-0.459v-0.916
	c0-0.254,0.206-0.459,0.458-0.459s0.458,0.205,0.458,0.459v0.916C4.125,13.086,3.92,13.292,3.667,13.292z M3.667,10.542
	c-0.253,0-0.458-0.206-0.458-0.459V9.167c0-0.254,0.206-0.459,0.458-0.459s0.458,0.205,0.458,0.459v0.916
	C4.125,10.336,3.92,10.542,3.667,10.542z M3.667,7.792c-0.253,0-0.458-0.206-0.458-0.459V6.417c0-0.253,0.206-0.459,0.458-0.459
	s0.458,0.206,0.458,0.459v0.916C4.125,7.586,3.92,7.792,3.667,7.792z"/>
<path fill="#C4C4C4" d="M3.667,18.333c-0.253,0-0.458-0.204-0.458-0.458v-0.459c0-0.253,0.206-0.458,0.458-0.458
	s0.458,0.205,0.458,0.458v0.459C4.125,18.129,3.92,18.333,3.667,18.333z"/>
<path fill="#E79D5E" d="M8.028,17.386c0,0.037-0.015,0.08-0.045,0.128c-0.029,0.049-0.068,0.098-0.118,0.149
	c-0.05,0.054-0.107,0.106-0.173,0.163s-0.136,0.111-0.21,0.168c-0.101,0.076-0.206,0.148-0.317,0.218
	c-0.111,0.07-0.226,0.132-0.342,0.185c-0.116,0.054-0.231,0.097-0.346,0.129c-0.115,0.031-0.224,0.048-0.328,0.048
	c-0.124,0-0.231-0.019-0.322-0.054c-0.091-0.035-0.166-0.086-0.226-0.15s-0.104-0.143-0.133-0.234
	c-0.029-0.091-0.043-0.193-0.043-0.305c0-0.094,0.011-0.188,0.032-0.286c0.021-0.097,0.052-0.192,0.09-0.288
	s0.084-0.188,0.136-0.275c0.051-0.088,0.107-0.17,0.166-0.246c0.036-0.043,0.077-0.088,0.124-0.135
	c0.048-0.048,0.098-0.094,0.151-0.139c0.053-0.046,0.106-0.088,0.16-0.128c0.053-0.039,0.104-0.074,0.154-0.104
	c0.034-0.021,0.078-0.043,0.132-0.068c0.052-0.025,0.108-0.049,0.166-0.071c0.058-0.021,0.114-0.04,0.171-0.056
	c0.057-0.016,0.105-0.022,0.146-0.022c0.074,0,0.133,0.007,0.176,0.015c0.043,0.012,0.081,0.027,0.115,0.053
	c0.016,0.012,0.035,0.029,0.055,0.056c0.021,0.025,0.04,0.052,0.06,0.081c0.018,0.03,0.033,0.059,0.047,0.087
	c0.014,0.028,0.02,0.054,0.02,0.072c0,0.013-0.004,0.031-0.013,0.053c-0.008,0.022-0.018,0.048-0.031,0.072
	c-0.013,0.024-0.027,0.054-0.044,0.081c-0.017,0.025-0.032,0.054-0.047,0.079c-0.017,0.024-0.031,0.047-0.045,0.065
	c-0.014,0.02-0.025,0.033-0.032,0.045c-0.05,0.058-0.11,0.086-0.184,0.086c-0.062,0-0.109-0.019-0.144-0.053
	c-0.035-0.033-0.052-0.076-0.052-0.13c0-0.017,0.01-0.042,0.028-0.075c0.018-0.037,0.049-0.074,0.09-0.117
	c0.021-0.021,0.039-0.041,0.054-0.062c0.016-0.021,0.027-0.037,0.037-0.053c-0.027-0.011-0.056-0.015-0.084-0.015
	c-0.034,0-0.075,0.008-0.126,0.024c-0.05,0.019-0.104,0.038-0.157,0.063c-0.055,0.024-0.107,0.055-0.16,0.084
	c-0.052,0.033-0.096,0.063-0.132,0.093c-0.1,0.079-0.193,0.173-0.282,0.274c-0.089,0.101-0.162,0.211-0.221,0.332
	c-0.022,0.049-0.044,0.098-0.065,0.153c-0.02,0.054-0.038,0.108-0.054,0.164c-0.016,0.056-0.026,0.11-0.035,0.167
	c-0.01,0.057-0.014,0.107-0.014,0.159c0,0.055,0.007,0.104,0.019,0.151c0.012,0.049,0.03,0.088,0.059,0.121
	c0.028,0.035,0.064,0.063,0.108,0.082c0.044,0.021,0.099,0.028,0.164,0.028c0.076,0,0.157-0.01,0.241-0.031
	c0.084-0.021,0.17-0.05,0.257-0.086c0.086-0.036,0.173-0.077,0.261-0.125c0.087-0.047,0.17-0.097,0.251-0.147
	c0.08-0.051,0.157-0.104,0.229-0.157c0.071-0.054,0.136-0.104,0.194-0.15c0.023-0.019,0.048-0.04,0.076-0.065
	c0.028-0.025,0.056-0.049,0.085-0.076c0.028-0.027,0.057-0.055,0.084-0.084c0.027-0.028,0.054-0.055,0.076-0.077
	c0.024,0.013,0.044,0.022,0.059,0.034c0.016,0.009,0.026,0.02,0.032,0.029c0.008,0.008,0.013,0.021,0.015,0.033
	c0.002,0.012,0.003,0.024,0.003,0.04H8.028z"/>
<path fill="#E79D5E" d="M10.392,17.617c0,0.014-0.001,0.029-0.004,0.046c-0.003,0.019-0.008,0.037-0.015,0.056
	c-0.006,0.021-0.015,0.04-0.025,0.061c-0.011,0.021-0.024,0.037-0.039,0.055c-0.064,0.061-0.132,0.113-0.2,0.162
	s-0.138,0.091-0.207,0.126c-0.068,0.034-0.136,0.06-0.203,0.079c-0.065,0.018-0.129,0.027-0.187,0.027
	c-0.088,0-0.161-0.016-0.219-0.047c-0.059-0.031-0.104-0.07-0.14-0.119c-0.033-0.049-0.058-0.106-0.073-0.172
	c-0.014-0.064-0.021-0.131-0.021-0.199c0-0.025,0.002-0.053,0.005-0.088c0.003-0.031,0.006-0.064,0.008-0.098
	c0.003-0.031,0.006-0.063,0.009-0.086c0.002-0.025,0.003-0.043,0.003-0.051c0-0.01-0.001-0.02-0.002-0.03
	c-0.001-0.01-0.007-0.019-0.017-0.019c-0.04,0.046-0.092,0.113-0.155,0.201c-0.063,0.09-0.13,0.194-0.201,0.314
	c-0.043,0.075-0.09,0.153-0.142,0.236c-0.051,0.082-0.101,0.156-0.151,0.224c-0.051,0.068-0.098,0.125-0.144,0.169
	c-0.047,0.044-0.085,0.066-0.118,0.066c-0.027,0-0.047-0.001-0.062-0.001c-0.015,0-0.027-0.003-0.036-0.005
	c-0.009-0.004-0.016-0.006-0.023-0.01c-0.007-0.006-0.015-0.013-0.024-0.021c-0.011-0.041-0.02-0.085-0.026-0.13
	c-0.006-0.047-0.011-0.09-0.014-0.133c-0.003-0.043-0.005-0.082-0.005-0.116c0-0.035,0-0.062,0-0.078
	c0-0.158,0.013-0.324,0.037-0.501c0.025-0.176,0.056-0.362,0.089-0.561c0.026-0.15,0.051-0.308,0.076-0.466
	c0.023-0.157,0.046-0.325,0.063-0.502c0.008-0.039,0.021-0.071,0.037-0.096c0.019-0.024,0.039-0.045,0.06-0.06
	c0.021-0.014,0.042-0.023,0.065-0.027c0.021-0.006,0.042-0.008,0.059-0.008c0.049,0,0.088,0.02,0.115,0.062
	c0.026,0.041,0.04,0.095,0.04,0.162c0,0.017-0.001,0.038-0.005,0.067c-0.003,0.027-0.008,0.063-0.014,0.101
	c-0.006,0.039-0.013,0.08-0.02,0.124c-0.006,0.045-0.015,0.087-0.022,0.131c-0.008,0.043-0.016,0.085-0.022,0.124
	c-0.009,0.04-0.015,0.075-0.021,0.104c-0.026,0.123-0.051,0.246-0.074,0.367c-0.022,0.121-0.044,0.237-0.063,0.349
	c-0.018,0.11-0.034,0.212-0.048,0.305c-0.013,0.093-0.022,0.173-0.029,0.237c0.015-0.02,0.033-0.045,0.058-0.08
	c0.023-0.035,0.051-0.074,0.08-0.116c0.029-0.042,0.059-0.086,0.09-0.133c0.031-0.047,0.06-0.089,0.088-0.13
	c0.026-0.041,0.051-0.076,0.072-0.108c0.021-0.03,0.036-0.053,0.046-0.065c0.031-0.043,0.068-0.09,0.111-0.142
	c0.043-0.05,0.089-0.097,0.14-0.139c0.05-0.044,0.103-0.079,0.158-0.106c0.055-0.029,0.112-0.043,0.168-0.043
	c0.041,0,0.074,0.023,0.1,0.07s0.038,0.109,0.038,0.184c0,0.022-0.002,0.049-0.007,0.082c-0.004,0.032-0.009,0.067-0.014,0.106
	c-0.006,0.038-0.011,0.076-0.015,0.116c-0.004,0.039-0.006,0.076-0.006,0.111c0,0.026,0.002,0.06,0.004,0.098
	c0.003,0.039,0.011,0.074,0.023,0.109c0.012,0.036,0.029,0.066,0.051,0.092c0.022,0.024,0.054,0.037,0.092,0.037
	s0.081-0.004,0.129-0.013c0.047-0.008,0.097-0.021,0.15-0.039c0.054-0.019,0.108-0.043,0.166-0.071
	c0.058-0.028,0.114-0.064,0.172-0.106c0.01-0.006,0.02-0.015,0.031-0.024c0.011-0.009,0.022-0.021,0.034-0.029
	c0.013-0.01,0.026-0.019,0.039-0.024c0.013-0.006,0.027-0.009,0.041-0.009c0.015,0,0.029,0.005,0.043,0.014
	C10.385,17.6,10.391,17.609,10.392,17.617L10.392,17.617z"/>
<path fill="#E79D5E" d="M11.824,17.633c0,0.041-0.016,0.086-0.047,0.139c-0.032,0.049-0.074,0.104-0.127,0.158
	c-0.06,0.061-0.123,0.114-0.193,0.165c-0.069,0.052-0.143,0.097-0.217,0.134c-0.076,0.037-0.152,0.065-0.229,0.088
	c-0.078,0.021-0.154,0.031-0.229,0.031c-0.091,0-0.172-0.016-0.242-0.043c-0.07-0.029-0.131-0.072-0.181-0.128
	c-0.049-0.055-0.086-0.125-0.113-0.208c-0.025-0.083-0.038-0.179-0.038-0.285c0-0.065,0.006-0.132,0.019-0.199
	c0.012-0.067,0.03-0.135,0.055-0.2c0.023-0.066,0.054-0.132,0.089-0.193c0.036-0.063,0.076-0.121,0.122-0.177
	c0.028-0.034,0.062-0.069,0.1-0.104c0.037-0.037,0.079-0.067,0.124-0.096c0.045-0.027,0.096-0.052,0.151-0.068
	c0.055-0.02,0.112-0.027,0.177-0.027c0.053,0,0.099,0.011,0.14,0.029c0.04,0.019,0.074,0.043,0.103,0.071
	c0.028,0.028,0.05,0.063,0.065,0.099c0.015,0.037,0.022,0.074,0.022,0.109c0,0.084-0.019,0.163-0.055,0.236
	c-0.035,0.072-0.087,0.143-0.151,0.208c-0.066,0.067-0.144,0.132-0.235,0.196c-0.09,0.063-0.192,0.13-0.303,0.197
	c-0.005,0.002-0.014,0.006-0.025,0.014c-0.011,0.008-0.017,0.012-0.017,0.015c0,0.022,0.006,0.046,0.016,0.07
	c0.01,0.024,0.025,0.047,0.046,0.067c0.021,0.022,0.047,0.041,0.079,0.055c0.031,0.016,0.07,0.021,0.114,0.021
	c0.068,0,0.137-0.01,0.207-0.027c0.068-0.021,0.137-0.047,0.204-0.082c0.066-0.037,0.133-0.08,0.195-0.131
	c0.065-0.051,0.125-0.106,0.183-0.172c0.021-0.023,0.043-0.043,0.063-0.054c0.021-0.01,0.041-0.017,0.061-0.017
	s0.034,0.008,0.049,0.022C11.818,17.563,11.824,17.593,11.824,17.633L11.824,17.633z M11.037,17.014c0-0.019-0.004-0.033-0.01-0.045
	c-0.007-0.011-0.013-0.021-0.021-0.027c-0.009-0.006-0.018-0.01-0.023-0.012c-0.009-0.004-0.015-0.005-0.018-0.005
	c-0.05,0-0.095,0.019-0.135,0.056s-0.078,0.086-0.11,0.145c-0.032,0.059-0.061,0.122-0.086,0.191
	c-0.023,0.07-0.044,0.14-0.061,0.205c0.065-0.049,0.125-0.097,0.182-0.139c0.057-0.042,0.104-0.083,0.146-0.123
	c0.042-0.041,0.075-0.08,0.1-0.121C11.025,17.102,11.037,17.059,11.037,17.014z"/>
<rect x="31.408" y="28.204" fill="#F3F3F3" width="5.195" height="0.917"/>
</svg>
