<?xml version="1.0" encoding="utf-8"?>
<!-- Generator: Adobe Illustrator 15.1.0, SVG Export Plug-In . SVG Version: 6.00 Build 0)  -->
<!DOCTYPE svg PUBLIC "-//W3C//DTD SVG 1.1//EN" "http://www.w3.org/Graphics/SVG/1.1/DTD/svg11.dtd">
<svg version="1.1" id="圖層_1" xmlns="http://www.w3.org/2000/svg" xmlns:xlink="http://www.w3.org/1999/xlink" x="0px" y="0px"
	 width="25px" height="25px" viewBox="-383.5 316.5 25 25" enable-background="new -383.5 316.5 25 25" xml:space="preserve">
<title>sign</title>
<path d="M-358.571,324.003l-3.778,5.852c-0.054,0.084-0.136,0.114-0.233,0.133c-0.141,0.024-0.216-0.024-0.321-0.103
	c-0.547,0.781-1.079,1.54-1.573,2.249c-0.979,1.398-2.011,2.957-3.44,3.696l-0.14-0.097l-0.324,0.463
	c-0.11,0.157-0.33,0.193-0.487,0.084c-0.157-0.108-0.195-0.325-0.087-0.481l0.325-0.465l-0.145-0.103
	c0.375-1.896,1.065-2.731,2.3-4.495l1.623-2.316c-0.181-0.126-0.313-0.325-0.154-0.533l3.155-4.161l-0.294-0.206l-2.801,3.665
	c-0.111,0.158-0.327,0.196-0.484,0.085c-0.158-0.111-0.195-0.327-0.085-0.484l3.805-4.98c0.111-0.157,0.328-0.195,0.485-0.084
	c0.157,0.109,0.195,0.326,0.084,0.484l-0.316,0.415l0.289,0.203l0.315-0.418C-360.301,321.676-358.076,323.233-358.571,324.003
	L-358.571,324.003L-358.571,324.003z"/>
<path d="M-365.403,336.861v2.992h-16.452v-21.707l16.452,0.002v5.782l1.646-2.153v-4.042c0-0.342-0.121-0.634-0.36-0.875
	c-0.24-0.239-0.532-0.36-0.873-0.36h-17.275c-0.343,0-0.634,0.121-0.875,0.36c-0.239,0.241-0.36,0.533-0.36,0.875l0,0l0,0v22.531
	c0,0.342,0.12,0.634,0.36,0.875c0.241,0.239,0.531,0.358,0.875,0.358h17.275c0.341,0,0.632-0.119,0.874-0.358
	c0.239-0.241,0.36-0.533,0.36-0.875c0-0.001,0-0.001,0-0.001v-5.31C-364.244,335.622-364.782,336.281-365.403,336.861
	L-365.403,336.861z"/>
<path d="M-379.333,322.229c-0.288,0-0.521-0.233-0.521-0.521v-0.521c0-0.288,0.233-0.521,0.521-0.521s0.521,0.233,0.521,0.521v0.521
	C-378.813,321.996-379.046,322.229-379.333,322.229z"/>
<path d="M-379.333,334.729c-0.288,0-0.521-0.232-0.521-0.521v-1.042c0-0.288,0.233-0.521,0.521-0.521s0.521,0.232,0.521,0.521v1.042
	C-378.813,334.496-379.046,334.729-379.333,334.729z M-379.333,331.604c-0.288,0-0.521-0.233-0.521-0.521v-1.042
	c0-0.287,0.233-0.521,0.521-0.521s0.521,0.233,0.521,0.521v1.042C-378.813,331.37-379.046,331.604-379.333,331.604z
	 M-379.333,328.479c-0.288,0-0.521-0.234-0.521-0.521v-1.041c0-0.288,0.233-0.521,0.521-0.521s0.521,0.233,0.521,0.521v1.041
	C-378.813,328.245-379.046,328.479-379.333,328.479z M-379.333,325.354c-0.288,0-0.521-0.233-0.521-0.521v-1.041
	c0-0.288,0.233-0.521,0.521-0.521s0.521,0.233,0.521,0.521v1.041C-378.813,325.121-379.046,325.354-379.333,325.354z"/>
<path d="M-379.333,337.333c-0.288,0-0.521-0.232-0.521-0.521v-0.521c0-0.288,0.233-0.521,0.521-0.521s0.521,0.232,0.521,0.521v0.521
	C-378.813,337.101-379.046,337.333-379.333,337.333z"/>
<path d="M-374.378,336.256c0,0.043-0.017,0.092-0.05,0.146s-0.078,0.11-0.135,0.169c-0.056,0.061-0.122,0.122-0.197,0.187
	c-0.075,0.063-0.154,0.126-0.238,0.19c-0.113,0.086-0.233,0.168-0.36,0.247c-0.126,0.079-0.257,0.149-0.388,0.21
	c-0.132,0.061-0.263,0.109-0.393,0.146c-0.129,0.036-0.254,0.054-0.373,0.054c-0.141,0-0.264-0.021-0.367-0.06
	c-0.104-0.041-0.188-0.098-0.256-0.172c-0.068-0.073-0.118-0.162-0.151-0.267c-0.033-0.104-0.049-0.22-0.049-0.346
	c0-0.106,0.012-0.214,0.037-0.325c0.024-0.11,0.059-0.22,0.103-0.328c0.043-0.108,0.095-0.212,0.154-0.313s0.123-0.194,0.19-0.279
	c0.04-0.049,0.087-0.101,0.141-0.154s0.111-0.105,0.171-0.157c0.06-0.052,0.121-0.1,0.182-0.145c0.061-0.045,0.12-0.084,0.176-0.118
	c0.039-0.023,0.089-0.049,0.149-0.078c0.06-0.029,0.123-0.056,0.189-0.082c0.065-0.023,0.13-0.046,0.194-0.063
	c0.064-0.018,0.12-0.025,0.166-0.025c0.084,0,0.151,0.006,0.2,0.017c0.049,0.012,0.092,0.03,0.131,0.059
	c0.018,0.013,0.039,0.034,0.063,0.063c0.023,0.028,0.045,0.059,0.066,0.092c0.021,0.034,0.039,0.066,0.054,0.099
	c0.015,0.032,0.022,0.06,0.022,0.082c0,0.015-0.005,0.035-0.014,0.06c-0.009,0.025-0.021,0.054-0.036,0.083
	c-0.015,0.028-0.031,0.061-0.05,0.092c-0.019,0.03-0.037,0.061-0.054,0.09c-0.018,0.028-0.035,0.053-0.051,0.075
	s-0.029,0.038-0.037,0.05c-0.056,0.065-0.125,0.098-0.208,0.098c-0.071,0-0.125-0.02-0.164-0.059s-0.058-0.088-0.058-0.147
	c0-0.019,0.01-0.048,0.031-0.087c0.021-0.041,0.055-0.084,0.103-0.132c0.023-0.024,0.043-0.048,0.061-0.069
	c0.017-0.023,0.03-0.043,0.041-0.06c-0.03-0.012-0.062-0.018-0.095-0.018c-0.039,0-0.085,0.01-0.143,0.029
	c-0.057,0.02-0.117,0.043-0.179,0.072c-0.062,0.028-0.123,0.062-0.182,0.097c-0.059,0.036-0.108,0.07-0.149,0.104
	c-0.113,0.092-0.221,0.196-0.321,0.313c-0.101,0.115-0.184,0.24-0.25,0.378c-0.026,0.055-0.05,0.111-0.075,0.174
	c-0.022,0.062-0.043,0.124-0.061,0.187c-0.018,0.063-0.031,0.127-0.041,0.189c-0.01,0.063-0.015,0.124-0.015,0.181
	c0,0.063,0.007,0.119,0.021,0.174c0.013,0.054,0.035,0.099,0.067,0.138c0.032,0.04,0.073,0.07,0.123,0.093
	c0.051,0.022,0.112,0.032,0.187,0.032c0.087,0,0.179-0.011,0.274-0.035c0.096-0.024,0.193-0.056,0.292-0.098
	c0.098-0.041,0.197-0.088,0.296-0.142c0.1-0.054,0.195-0.109,0.286-0.169c0.091-0.059,0.178-0.118,0.26-0.179
	s0.155-0.117,0.222-0.171c0.026-0.021,0.054-0.046,0.086-0.075c0.032-0.028,0.063-0.056,0.096-0.088
	c0.033-0.03,0.064-0.062,0.096-0.094c0.032-0.032,0.06-0.063,0.086-0.089c0.029,0.015,0.051,0.027,0.068,0.039
	c0.017,0.011,0.029,0.021,0.037,0.033c0.009,0.011,0.014,0.023,0.016,0.038c0.002,0.014,0.004,0.029,0.004,0.047L-374.378,336.256z"
	/>
<path d="M-371.691,336.52c0,0.015-0.002,0.032-0.005,0.052c-0.003,0.021-0.008,0.042-0.016,0.064
	c-0.007,0.021-0.017,0.045-0.03,0.066c-0.011,0.023-0.027,0.044-0.044,0.063c-0.073,0.067-0.149,0.129-0.227,0.185
	s-0.157,0.103-0.235,0.143c-0.078,0.039-0.154,0.068-0.23,0.09c-0.075,0.02-0.146,0.032-0.213,0.032
	c-0.099,0-0.182-0.018-0.249-0.054c-0.066-0.035-0.118-0.079-0.158-0.136c-0.039-0.056-0.066-0.121-0.083-0.193
	c-0.016-0.075-0.024-0.149-0.024-0.228c0-0.029,0.002-0.062,0.005-0.1c0.003-0.036,0.006-0.074,0.009-0.111
	c0.003-0.036,0.006-0.069,0.009-0.098c0.002-0.028,0.004-0.049,0.004-0.058c0-0.011-0.001-0.021-0.002-0.034
	c-0.001-0.012-0.007-0.02-0.018-0.02c-0.047,0.051-0.106,0.127-0.178,0.228c-0.072,0.103-0.147,0.221-0.229,0.358
	c-0.049,0.086-0.103,0.174-0.161,0.268c-0.058,0.094-0.115,0.178-0.172,0.255c-0.057,0.077-0.112,0.142-0.164,0.191
	c-0.052,0.051-0.097,0.076-0.134,0.076c-0.03,0-0.052-0.001-0.069-0.001c-0.017-0.001-0.031-0.002-0.041-0.006
	c-0.011-0.003-0.019-0.008-0.027-0.013c-0.008-0.006-0.017-0.014-0.027-0.024c-0.013-0.047-0.023-0.096-0.03-0.147
	c-0.007-0.053-0.012-0.102-0.016-0.15s-0.005-0.093-0.005-0.132c0-0.04-0.001-0.069-0.001-0.089c0-0.18,0.015-0.369,0.043-0.569
	c0.029-0.2,0.063-0.412,0.102-0.638c0.03-0.171,0.058-0.348,0.085-0.528c0.028-0.18,0.053-0.37,0.073-0.57
	c0.008-0.044,0.022-0.081,0.042-0.108c0.021-0.029,0.043-0.051,0.066-0.067c0.024-0.015,0.048-0.027,0.074-0.031
	c0.026-0.007,0.048-0.01,0.067-0.01c0.056,0,0.1,0.023,0.13,0.07c0.031,0.047,0.046,0.106,0.046,0.185
	c0,0.019-0.002,0.043-0.006,0.076c-0.003,0.032-0.009,0.072-0.016,0.114c-0.007,0.045-0.014,0.092-0.022,0.142
	c-0.007,0.051-0.016,0.099-0.025,0.148c-0.009,0.049-0.018,0.097-0.027,0.142s-0.016,0.085-0.024,0.119
	c-0.029,0.14-0.057,0.278-0.083,0.417c-0.026,0.138-0.051,0.271-0.071,0.396s-0.039,0.241-0.054,0.346
	c-0.015,0.105-0.027,0.197-0.034,0.271c0.017-0.021,0.038-0.052,0.065-0.092c0.027-0.039,0.058-0.084,0.091-0.132
	c0.033-0.048,0.067-0.098,0.102-0.151c0.036-0.053,0.068-0.101,0.1-0.146c0.03-0.047,0.058-0.087,0.082-0.123
	c0.024-0.036,0.041-0.061,0.052-0.076c0.035-0.049,0.077-0.102,0.126-0.16c0.049-0.056,0.102-0.109,0.158-0.157
	c0.058-0.05,0.117-0.09,0.181-0.122c0.063-0.031,0.127-0.049,0.191-0.049c0.046,0,0.084,0.028,0.113,0.081
	c0.029,0.054,0.043,0.124,0.043,0.208c0,0.025-0.002,0.056-0.007,0.095c-0.004,0.036-0.011,0.076-0.017,0.12
	c-0.006,0.043-0.011,0.087-0.016,0.132s-0.007,0.088-0.007,0.128c0,0.03,0.002,0.066,0.005,0.109
	c0.003,0.044,0.012,0.086,0.026,0.126s0.034,0.075,0.058,0.104c0.026,0.027,0.061,0.042,0.104,0.042
	c0.043,0,0.092-0.004,0.146-0.014c0.053-0.009,0.11-0.024,0.171-0.044c0.06-0.021,0.123-0.049,0.188-0.081
	c0.065-0.033,0.13-0.074,0.195-0.122c0.011-0.008,0.022-0.017,0.036-0.028c0.014-0.012,0.026-0.022,0.04-0.033
	c0.014-0.012,0.028-0.021,0.043-0.028c0.015-0.008,0.031-0.011,0.047-0.011c0.017,0,0.034,0.005,0.049,0.016
	C-371.699,336.5-371.692,336.511-371.691,336.52L-371.691,336.52z"/>
<path d="M-370.063,336.538c0,0.045-0.019,0.098-0.054,0.155c-0.036,0.058-0.084,0.118-0.144,0.181
	c-0.067,0.068-0.14,0.131-0.219,0.188s-0.162,0.108-0.247,0.151c-0.086,0.043-0.173,0.074-0.261,0.099
	c-0.088,0.024-0.174,0.035-0.259,0.035c-0.103,0-0.195-0.016-0.276-0.049c-0.08-0.032-0.149-0.081-0.205-0.144
	c-0.055-0.063-0.099-0.142-0.128-0.236c-0.029-0.095-0.044-0.203-0.044-0.325c0-0.074,0.007-0.149,0.021-0.226
	c0.014-0.077,0.034-0.152,0.062-0.229s0.061-0.148,0.102-0.22c0.041-0.07,0.086-0.138,0.139-0.2c0.033-0.039,0.071-0.079,0.113-0.12
	c0.042-0.04,0.09-0.075,0.142-0.107c0.051-0.031,0.108-0.058,0.171-0.078c0.063-0.021,0.129-0.03,0.202-0.03
	c0.059,0,0.112,0.011,0.158,0.032c0.046,0.021,0.085,0.049,0.116,0.083c0.032,0.031,0.057,0.07,0.075,0.111
	c0.017,0.042,0.025,0.084,0.025,0.124c0,0.096-0.021,0.186-0.062,0.269c-0.04,0.083-0.099,0.162-0.172,0.237
	c-0.074,0.076-0.163,0.149-0.267,0.223c-0.103,0.073-0.218,0.147-0.344,0.224c-0.006,0.002-0.016,0.009-0.029,0.016
	c-0.012,0.01-0.019,0.014-0.019,0.018c0,0.024,0.007,0.052,0.019,0.079c0.011,0.028,0.029,0.053,0.052,0.078
	c0.022,0.025,0.053,0.045,0.09,0.063c0.036,0.017,0.08,0.024,0.13,0.024c0.077,0,0.156-0.011,0.234-0.032
	c0.079-0.022,0.156-0.053,0.232-0.094s0.151-0.09,0.223-0.147c0.073-0.059,0.142-0.122,0.207-0.195
	c0.024-0.027,0.05-0.049,0.072-0.062c0.024-0.011,0.046-0.018,0.067-0.018s0.04,0.008,0.055,0.025
	C-370.072,336.459-370.064,336.491-370.063,336.538L-370.063,336.538z M-370.958,335.832c0-0.02-0.004-0.037-0.011-0.05
	c-0.007-0.012-0.016-0.022-0.025-0.03c-0.009-0.007-0.019-0.013-0.027-0.016c-0.009-0.003-0.016-0.004-0.02-0.004
	c-0.056,0-0.106,0.021-0.152,0.063c-0.046,0.042-0.088,0.098-0.126,0.164c-0.037,0.066-0.069,0.14-0.097,0.219
	c-0.028,0.08-0.051,0.157-0.07,0.231c0.075-0.055,0.143-0.108,0.207-0.156s0.12-0.095,0.167-0.14
	c0.048-0.046,0.085-0.091,0.113-0.137C-370.972,335.932-370.958,335.883-370.958,335.832z"/>
</svg>
