<?xml version="1.0" encoding="utf-8"?>
<!-- Generator: Adobe Illustrator 15.1.0, SVG Export Plug-In . SVG Version: 6.00 Build 0)  -->
<!DOCTYPE svg PUBLIC "-//W3C//DTD SVG 1.1//EN" "http://www.w3.org/Graphics/SVG/1.1/DTD/svg11.dtd">
<svg version="1.1" id="圖層_1" xmlns="http://www.w3.org/2000/svg" xmlns:xlink="http://www.w3.org/1999/xlink" x="0px" y="0px"
	 width="22px" height="22px" viewBox="0 0 22 22" enable-background="new 0 0 22 22" xml:space="preserve">
<path fill="#7F7F7F" d="M22,22H0V0h22V22z M1.645,20.354h18.708V1.645H1.645V20.354z"/>
<path fill="#4E85C4" d="M7.263,10.696c-0.206,0.39-0.423,0.745-0.642,1.055L5.658,11.35c1.021-1.513,1.604-3.131,1.604-3.142
	c0.275-0.78,0.46-1.605,0.585-2.488l1.01,0.149C8.685,6.764,8.502,7.555,8.283,8.266v8.016h-1.02V10.696L7.263,10.696z
	 M16.266,13.402c-0.022,1.398-0.229,2.293-0.584,2.648c-0.139,0.139-0.287,0.219-0.425,0.229c-0.344,0-0.678-0.173-1.01-0.505
	c-1.468-1.469-2.306-3.338-2.683-6.032L8.927,9.905l-0.15-1.021l2.649-0.161c-0.104-0.895-0.161-1.869-0.184-2.924l0.986,0.034
	c-0.013,0.998,0.033,1.95,0.138,2.845l3.6-0.241l0.068,1.021l-3.531,0.219c0.332,2.134,0.951,3.749,1.869,4.793
	c0.31,0.378,0.504,0.562,0.63,0.562c0.068-0.012,0.115-0.068,0.148-0.172c0.082-0.344,0.127-0.905,0.16-1.721L16.266,13.402
	L16.266,13.402z M15.348,8.128c-0.883-0.734-1.615-1.25-2.236-1.571l0.539-0.814c0.688,0.355,1.445,0.883,2.281,1.583L15.348,8.128
	L15.348,8.128z"/>
</svg>
