<?xml version="1.0" encoding="utf-8"?>
<!-- Generator: Adobe Illustrator 15.1.0, SVG Export Plug-In . SVG Version: 6.00 Build 0)  -->
<!DOCTYPE svg PUBLIC "-//W3C//DTD SVG 1.1//EN" "http://www.w3.org/Graphics/SVG/1.1/DTD/svg11.dtd">
<svg version="1.1" id="圖層_1" xmlns="http://www.w3.org/2000/svg" xmlns:xlink="http://www.w3.org/1999/xlink" x="0px" y="0px"
	 width="25px" height="25px" viewBox="-383.5 316.5 25 25" enable-background="new -383.5 316.5 25 25" xml:space="preserve">
<title>substitute</title>
<path fill="#2F8AC1" d="M-358.5,341.5h-25v-25h25V341.5z M-381.63,339.629h21.26v-21.26h-21.26V339.629z"/>
<path fill="#2F8AC1" d="M-375.246,328.655c-0.235,0.442-0.482,0.847-0.73,1.198l-1.094-0.456c1.16-1.719,1.824-3.558,1.824-3.569
	c0.313-0.887,0.521-1.825,0.664-2.828l1.146,0.17c-0.196,1.016-0.403,1.915-0.651,2.724v9.107h-1.16L-375.246,328.655
	L-375.246,328.655z M-365.016,331.73c-0.027,1.59-0.262,2.606-0.665,3.01c-0.157,0.157-0.327,0.248-0.482,0.261
	c-0.391,0-0.77-0.195-1.147-0.573c-1.667-1.668-2.619-3.792-3.049-6.854l-2.997,0.183l-0.169-1.16l3.01-0.184
	c-0.117-1.017-0.183-2.124-0.208-3.322l1.121,0.039c-0.014,1.133,0.039,2.215,0.156,3.232l4.091-0.274l0.078,1.16l-4.013,0.248
	c0.377,2.424,1.08,4.261,2.124,5.446c0.351,0.431,0.572,0.638,0.716,0.638c0.078-0.012,0.131-0.078,0.17-0.195
	c0.092-0.391,0.143-1.029,0.183-1.954L-365.016,331.73L-365.016,331.73z M-366.059,325.736c-1.004-0.834-1.837-1.421-2.542-1.785
	l0.614-0.927c0.781,0.404,1.641,1.004,2.592,1.799l-0.665,0.911L-366.059,325.736z"/>
</svg>
