<?xml version="1.0" encoding="utf-8"?>
<!-- Generator: Adobe Illustrator 15.1.0, SVG Export Plug-In . SVG Version: 6.00 Build 0)  -->
<!DOCTYPE svg PUBLIC "-//W3C//DTD SVG 1.1//EN" "http://www.w3.org/Graphics/SVG/1.1/DTD/svg11.dtd">
<svg version="1.1" id="圖層_1" xmlns="http://www.w3.org/2000/svg" xmlns:xlink="http://www.w3.org/1999/xlink" x="0px" y="0px"
	 width="50px" height="50px" viewBox="-1.5 30.5 50 50" enable-background="new -1.5 30.5 50 50" xml:space="preserve">
<title>check2</title>
<path fill="#FFFFFF" d="M34.5,50.362c0,0.377-0.133,0.701-0.398,0.966L21.896,63.533c-0.266,0.264-0.587,0.397-0.965,0.397
	s-0.699-0.134-0.965-0.397l-7.068-7.068C12.632,56.2,12.5,55.878,12.5,55.5s0.132-0.699,0.397-0.964l1.931-1.93
	c0.265-0.267,0.586-0.399,0.965-0.399c0.378,0,0.699,0.133,0.964,0.399l4.174,4.186l9.31-9.325c0.266-0.264,0.587-0.397,0.965-0.397
	c0.379,0,0.701,0.134,0.965,0.397l1.931,1.93c0.267,0.264,0.397,0.588,0.397,0.966H34.5z"/>
</svg>
