<?xml version="1.0" encoding="utf-8"?>
<!-- Generator: Adobe Illustrator 15.1.0, SVG Export Plug-In . SVG Version: 6.00 Build 0)  -->
<!DOCTYPE svg PUBLIC "-//W3C//DTD SVG 1.1//EN" "http://www.w3.org/Graphics/SVG/1.1/DTD/svg11.dtd">
<svg version="1.1" id="圖層_1" xmlns="http://www.w3.org/2000/svg" xmlns:xlink="http://www.w3.org/1999/xlink" x="0px" y="0px"
	 width="40px" height="40px" viewBox="-383.5 316.5 40 40" enable-background="new -383.5 316.5 40 40" xml:space="preserve">
<title>synchronous</title>
<path fill="#787878" d="M-368.018,338.044c0-2.322,1.884-4.206,4.209-4.206c0.373,0,0.734,0.051,1.08,0.143l0.188-1.214l1.854,2.952
	l-2.655,2.256l0.194-1.271c-0.215-0.033-0.435-0.054-0.661-0.054c-1.831,0-3.388,1.171-3.967,2.801
	C-367.932,339.012-368.018,338.538-368.018,338.044L-368.018,338.044z"/>
<path fill="#787878" d="M-363.848,342.364c-0.373,0-0.734-0.051-1.081-0.144l-0.186,1.214l-0.927-1.478l-0.927-1.475l2.655-2.258
	l-0.196,1.273c0.216,0.035,0.437,0.056,0.662,0.056c1.831,0,3.39-1.172,3.967-2.804c0.158,0.44,0.242,0.913,0.242,1.407
	C-359.64,340.481-361.523,342.363-363.848,342.364L-363.848,342.364z"/>
<path fill="#787878" d="M-356.683,335.102c0.012-0.111,0.018-0.22,0.018-0.325c0-1.681-1.367-3.046-3.047-3.046
	c-0.16,0-0.321,0.013-0.478,0.037c-0.559-1.342-1.848-2.202-3.311-2.202c-1.472,0-2.799,0.908-3.337,2.271
	c-0.323-0.07-0.657-0.105-0.993-0.105c-2.575,0-4.67,2.095-4.67,4.669c0,2.41,1.852,4.413,4.239,4.636l-0.445-1.255
	c-0.05-0.143-0.077-0.292-0.114-0.437c-1.233-0.42-2.134-1.583-2.134-2.944c0-1.722,1.402-3.123,3.125-3.123
	c0.301,0,0.595,0.041,0.876,0.124l1.157,0.336l0.338-1.156c0.251-0.865,1.057-1.469,1.959-1.469c0.892,0,1.673,0.57,1.944,1.417
	l0.35,1.092l1.105-0.294c0.128-0.033,0.259-0.051,0.388-0.051c0.828,0,1.501,0.673,1.501,1.501c0,0.107-0.012,0.216-0.036,0.324
	l-0.27,1.226l1.236,0.219c0.715,0.13,1.234,0.751,1.234,1.478c0,0.828-0.673,1.501-1.5,1.501h-1.541l-0.078,0.229
	c-0.1,0.29-0.221,0.563-0.36,0.81l-0.285,0.507h2.264c1.68,0,3.046-1.367,3.046-3.047
	C-354.5,336.666-355.393,335.48-356.683,335.102z"/>
</svg>
