<?xml version="1.0" encoding="utf-8"?>
<!-- Generator: Adobe Illustrator 15.1.0, SVG Export Plug-In . SVG Version: 6.00 Build 0)  -->
<!DOCTYPE svg PUBLIC "-//W3C//DTD SVG 1.1//EN" "http://www.w3.org/Graphics/SVG/1.1/DTD/svg11.dtd">
<svg version="1.1" id="圖層_1" xmlns="http://www.w3.org/2000/svg" xmlns:xlink="http://www.w3.org/1999/xlink" x="0px" y="0px"
	 width="22px" height="22px" viewBox="0 0 22 22" enable-background="new 0 0 22 22" xml:space="preserve">
<path fill="#4E85C4" d="M18.549,3.582h-5.251c0.112,0.275,0.215,0.555,0.297,0.844h0.665c0.593,0,1.152,0.23,1.577,0.647
	C16.268,5.504,16.5,6.066,16.5,6.667c0,0.594-0.229,1.154-0.646,1.577l-5.668,5.744L5.5,9.238v1.309v5.313v4.601
	C5.5,21.31,6.183,22,7.033,22h11.516c0.847,0,1.532-0.684,1.532-1.532v-5.434V9.722V5.121C20.081,4.272,19.397,3.582,18.549,3.582z
	 M12.895,13.225h4.73v1.301h-4.73V13.225z M17.779,19.197H7.802v-1.301h9.977V19.197z M17.779,16.894H7.802v-1.301h9.977V16.894z"/>
<path fill="#E79D5E" d="M5.741,0H5c2.535,1.663,2.904,3.889,2.955,5.926H6.111c-0.188,0-0.379,0.073-0.524,0.217
	C5.444,6.287,5.372,6.478,5.372,6.667S5.443,7.046,5.587,7.19l4.598,4.661l4.6-4.661C14.928,7.046,15,6.855,15,6.667
	s-0.07-0.379-0.215-0.524c-0.146-0.144-0.336-0.217-0.525-0.217h-1.896C11.995,2.592,9.172,0,5.741,0z"/>
<g>
	<path fill="#7F7F7F" d="M3.918,6.214V2h1.177C4.838,1.739,4.538,1.491,4.177,1.254L2.796,0.349C2.268,0.709,1.918,1.316,1.918,2v14
		h2V7.121V6.214z"/>
	<path fill="#7F7F7F" d="M12.445,2h3.473V0h-5.465C11.226,0.546,11.902,1.22,12.445,2z"/>
</g>
</svg>
