<?xml version="1.0" encoding="utf-8"?>
<!-- Generator: Adobe Illustrator 15.1.0, SVG Export Plug-In . SVG Version: 6.00 Build 0)  -->
<!DOCTYPE svg PUBLIC "-//W3C//DTD SVG 1.1//EN" "http://www.w3.org/Graphics/SVG/1.1/DTD/svg11.dtd">
<svg version="1.1" id="圖層_1" xmlns="http://www.w3.org/2000/svg" xmlns:xlink="http://www.w3.org/1999/xlink" x="0px" y="0px"
	 width="22px" height="22px" viewBox="0 0 22 22" enable-background="new 0 0 22 22" xml:space="preserve">
<path fill="#4E85C4" d="M15.807,0v2.078l0.082,0.025c0.395,0.113,0.666,0.474,0.666,0.878c0,0.51-0.412,0.923-0.918,0.923
	c-0.511,0-0.925-0.413-0.925-0.923c0-0.409,0.267-0.758,0.662-0.878l0.092-0.027V0h-4.295v2.076l0.087,0.026
	c0.396,0.116,0.666,0.47,0.666,0.878c0,0.51-0.417,0.923-0.923,0.923c-0.51,0-0.924-0.413-0.924-0.923
	c0-0.409,0.269-0.762,0.666-0.878l0.088-0.026V0H6.535v2.076l0.092,0.027c0.394,0.12,0.662,0.47,0.662,0.878
	c0,0.51-0.413,0.923-0.924,0.923c-0.51,0-0.923-0.413-0.923-0.923c0-0.405,0.277-0.766,0.666-0.878l0.087-0.025V0H2.448v22h17.104V0
	H15.807L15.807,0z"/>
<rect x="4.256" y="18.096" fill="#F3F3F3" width="13.491" height="0.906"/>
<rect x="4.256" y="15.411" fill="#F3F3F3" width="13.491" height="0.905"/>
<rect x="4.256" y="12.727" fill="#F3F3F3" width="13.491" height="0.906"/>
<rect x="4.256" y="10.043" fill="#F3F3F3" width="13.491" height="0.905"/>
<rect x="4.256" y="7.357" fill="#F3F3F3" width="13.491" height="0.906"/>
</svg>
