<?xml version="1.0" encoding="utf-8"?>
<!-- Generator: Adobe Illustrator 15.1.0, SVG Export Plug-In . SVG Version: 6.00 Build 0)  -->
<!DOCTYPE svg PUBLIC "-//W3C//DTD SVG 1.1//EN" "http://www.w3.org/Graphics/SVG/1.1/DTD/svg11.dtd">
<svg version="1.1" id="圖層_1" xmlns="http://www.w3.org/2000/svg" xmlns:xlink="http://www.w3.org/1999/xlink" x="0px" y="0px"
	 width="25px" height="25px" viewBox="-383.5 316.5 25 25" enable-background="new -383.5 316.5 25 25" xml:space="preserve">
<title>textnote</title>
<path fill="#2F8AC1" d="M-365.54,316.5v2.36l0.095,0.029c0.447,0.128,0.758,0.538,0.758,0.998c0,0.579-0.47,1.05-1.045,1.05
	c-0.579,0-1.05-0.471-1.05-1.05c0-0.465,0.303-0.862,0.753-0.998l0.104-0.03V316.5h-4.882v2.359l0.1,0.03
	c0.451,0.131,0.757,0.533,0.757,0.998c0,0.579-0.474,1.05-1.049,1.05c-0.579,0-1.05-0.471-1.05-1.05
	c0-0.465,0.306-0.867,0.757-0.998l0.1-0.03V316.5h-4.882v2.359l0.104,0.03c0.447,0.136,0.752,0.533,0.752,0.998
	c0,0.579-0.469,1.05-1.049,1.05s-1.049-0.471-1.049-1.05c0-0.46,0.314-0.87,0.757-0.998l0.098-0.029v-2.36h-4.257v25h19.436v-25
	H-365.54L-365.54,316.5z M-363.333,338.093h-15.331v-1.03h15.331V338.093z M-363.333,335.043h-15.331v-1.03h15.331V335.043z
	 M-363.333,331.991h-15.331v-1.029h15.331V331.991z M-363.333,328.941h-15.331v-1.029h15.331V328.941z M-363.333,325.891h-15.331
	v-1.029h15.331V325.891z"/>
</svg>
