<?xml version="1.0" encoding="utf-8"?>
<!-- Generator: Adobe Illustrator 15.1.0, SVG Export Plug-In . SVG Version: 6.00 Build 0)  -->
<!DOCTYPE svg PUBLIC "-//W3C//DTD SVG 1.1//EN" "http://www.w3.org/Graphics/SVG/1.1/DTD/svg11.dtd">
<svg version="1.1" id="圖層_1" xmlns="http://www.w3.org/2000/svg" xmlns:xlink="http://www.w3.org/1999/xlink" x="0px" y="0px"
	 width="22px" height="22px" viewBox="0 0 22 22" enable-background="new 0 0 22 22" xml:space="preserve">
<path fill="#4E85C4" d="M4.917,0H0.703C0.316,0,0,0.316,0,0.703v17.025c0,0.387,0.316,0.702,0.703,0.702h4.215
	c0.386,0,0.703-0.315,0.703-0.702V0.703C5.621,0.316,5.304,0,4.917,0z M4.215,4.215h-2.81V2.81h2.81V4.215z"/>
<path fill="#7F7F7F" d="M19.179,16.711c0-0.679-0.241-1.259-0.725-1.742c-0.482-0.482-1.063-0.725-1.744-0.725
	c-0.678,0-1.259,0.242-1.742,0.725c-0.482,0.483-0.725,1.064-0.725,1.742c0,0.681,0.242,1.262,0.725,1.744
	c0.483,0.483,1.064,0.725,1.742,0.725c0.681,0,1.262-0.241,1.744-0.725C18.938,17.973,19.179,17.392,19.179,16.711z M21.999,21.295
	c0,0.195-0.069,0.361-0.206,0.498C21.655,21.931,21.488,22,21.294,22c-0.198,0-0.363-0.07-0.496-0.209l-1.89-1.885
	c-0.657,0.456-1.389,0.684-2.197,0.684c-0.524,0-1.027-0.102-1.506-0.307c-0.479-0.203-0.892-0.479-1.239-0.825
	c-0.349-0.348-0.624-0.761-0.827-1.239c-0.203-0.48-0.306-0.982-0.306-1.508c0-0.524,0.103-1.027,0.306-1.506
	c0.203-0.479,0.479-0.892,0.827-1.239c0.348-0.347,0.76-0.623,1.239-0.826c0.479-0.204,0.981-0.307,1.506-0.307
	c0.525,0,1.027,0.103,1.506,0.307c0.48,0.203,0.894,0.479,1.24,0.826c0.348,0.348,0.623,0.76,0.826,1.239
	c0.205,0.479,0.307,0.981,0.307,1.506c0,0.809-0.228,1.541-0.684,2.199l1.89,1.889C21.932,20.936,22,21.099,21.999,21.295
	L21.999,21.295z"/>
<path fill="#4E85C4" d="M14.433,11.19c1.504-0.641,3.247-0.641,4.752,0.002c0.286,0.121,0.556,0.267,0.815,0.425V0.703
	C20,0.316,19.685,0,19.298,0h-4.216c-0.386,0-0.702,0.316-0.702,0.703v10.513C14.398,11.209,14.415,11.199,14.433,11.19z
	 M15.784,2.81h2.811v1.405h-2.811V2.81z"/>
<path fill="#C4C4C4" d="M10.708,16.807c0-0.821,0.162-1.62,0.482-2.374c0.314-0.74,0.752-1.394,1.301-1.942
	c0.103-0.101,0.211-0.194,0.319-0.288v-11.5C12.811,0.316,12.495,0,12.108,0H7.892C7.506,0,7.19,0.316,7.19,0.703v17.025
	c0,0.387,0.316,0.702,0.702,0.702h3.042C10.788,17.903,10.708,17.36,10.708,16.807z M8.595,2.81h2.811v1.405H8.595V2.81z"/>
</svg>
