<?xml version="1.0" encoding="utf-8"?>
<!-- Generator: Adobe Illustrator 15.1.0, SVG Export Plug-In . SVG Version: 6.00 Build 0)  -->
<!DOCTYPE svg PUBLIC "-//W3C//DTD SVG 1.1//EN" "http://www.w3.org/Graphics/SVG/1.1/DTD/svg11.dtd">
<svg version="1.1" id="圖層_1" xmlns="http://www.w3.org/2000/svg" xmlns:xlink="http://www.w3.org/1999/xlink" x="0px" y="0px"
	 width="20px" height="20px" viewBox="1.5 17.5 20 20" enable-background="new 1.5 17.5 20 20" xml:space="preserve">
<title>trash2</title>
<path fill="#CC0000" d="M20.6,21.5h-4.672l-0.795-1.896c-0.249-0.607-0.992-1.104-1.65-1.104H9.517c-0.657,0-1.4,0.496-1.649,1.104
	L7.072,21.5H2.399C2.181,21.5,2,21.68,2,21.9V22.6C2,22.82,2.181,23,2.399,23H4.5v11.134c0,1.301,0.851,2.366,1.892,2.366h10.215
	c1.041,0,1.893-1.112,1.893-2.413V23h2.1c0.221,0,0.4-0.18,0.4-0.4V21.9C21,21.68,20.82,21.5,20.6,21.5z M9.33,20.224
	c0.037-0.05,0.136-0.123,0.211-0.137h3.931c0.061,0.014,0.173,0.087,0.21,0.137l0.523,1.276H8.796L9.33,20.224z M9.228,33.093
	c0,0.213-0.165,0.379-0.378,0.379H8.092c-0.212,0-0.378-0.165-0.378-0.379v-8.33c0-0.213,0.166-0.38,0.378-0.38H8.85
	c0.213,0,0.378,0.167,0.378,0.38V33.093z M12.259,33.093c0,0.213-0.167,0.379-0.38,0.379h-0.756c-0.213,0-0.381-0.165-0.381-0.379
	v-8.33c0-0.213,0.168-0.38,0.381-0.38h0.756c0.213,0,0.38,0.167,0.38,0.38V33.093z M15.287,33.093c0,0.213-0.166,0.379-0.379,0.379
	H14.15c-0.212,0-0.378-0.165-0.378-0.379v-8.33c0-0.213,0.165-0.38,0.378-0.38h0.758c0.213,0,0.379,0.167,0.379,0.38V33.093z"/>
</svg>
