<?xml version="1.0" encoding="utf-8"?>
<!-- Generator: Adobe Illustrator 15.1.0, SVG Export Plug-In . SVG Version: 6.00 Build 0)  -->
<!DOCTYPE svg PUBLIC "-//W3C//DTD SVG 1.1//EN" "http://www.w3.org/Graphics/SVG/1.1/DTD/svg11.dtd">
<svg version="1.1" id="圖層_1" xmlns="http://www.w3.org/2000/svg" xmlns:xlink="http://www.w3.org/1999/xlink" x="0px" y="0px"
	 width="22px" height="22px" viewBox="0 0 22 22" enable-background="new 0 0 22 22" xml:space="preserve">
<path fill="#7F7F7F" d="M19.25,0H2.75C2.371,0,2.063,0.308,2.063,0.688v4.125C2.063,5.192,2.371,5.5,2.75,5.5h0.688
	c0.379,0,0.688-0.308,0.688-0.688L5.5,2.75h4.125v16.5l-3.438,1.375c-0.379,0-0.688,0.309-0.688,0.688
	C5.499,21.693,5.808,22,6.188,22h9.625c0.381,0,0.688-0.309,0.688-0.688c0-0.381-0.308-0.688-0.688-0.688l-3.438-1.375V2.75H16.5
	l1.375,2.063c0,0.379,0.309,0.688,0.688,0.688h0.688c0.38,0,0.688-0.308,0.688-0.688V0.688C19.938,0.308,19.63,0,19.25,0z"/>
</svg>
