<?xml version="1.0" encoding="utf-8"?>
<!-- Generator: Adobe Illustrator 15.1.0, SVG Export Plug-In . SVG Version: 6.00 Build 0)  -->
<!DOCTYPE svg PUBLIC "-//W3C//DTD SVG 1.1//EN" "http://www.w3.org/Graphics/SVG/1.1/DTD/svg11.dtd">
<svg version="1.1" id="圖層_1" xmlns="http://www.w3.org/2000/svg" xmlns:xlink="http://www.w3.org/1999/xlink" x="0px" y="0px"
	 width="25px" height="25px" viewBox="-383.5 316.5 25 25" enable-background="new -383.5 316.5 25 25" xml:space="preserve">
<title>type</title>
<path fill="#FFFFFF" d="M-361.625,316.5h-18.75c-0.431,0-0.781,0.351-0.781,0.781v4.688c0,0.431,0.35,0.781,0.781,0.781h0.781
	c0.431,0,0.781-0.351,0.781-0.781l1.563-2.344h4.688v18.75l-3.906,1.563c-0.431,0-0.781,0.35-0.781,0.781s0.35,0.781,0.781,0.781
	h10.938c0.432,0,0.781-0.35,0.781-0.781s-0.35-0.781-0.781-0.781l-3.906-1.563v-18.75h4.688l1.563,2.344
	c0,0.431,0.35,0.781,0.781,0.781h0.781c0.432,0,0.781-0.351,0.781-0.781v-4.688C-360.844,316.851-361.193,316.5-361.625,316.5z"/>
</svg>
