<?xml version="1.0" encoding="utf-8"?>
<!-- Generator: Adobe Illustrator 15.1.0, SVG Export Plug-In . SVG Version: 6.00 Build 0)  -->
<!DOCTYPE svg PUBLIC "-//W3C//DTD SVG 1.1//EN" "http://www.w3.org/Graphics/SVG/1.1/DTD/svg11.dtd">
<svg version="1.1" id="圖層_1" xmlns="http://www.w3.org/2000/svg" xmlns:xlink="http://www.w3.org/1999/xlink" x="0px" y="0px"
	 width="20px" height="20px" viewBox="-389.5 310.5 20 20" enable-background="new -389.5 310.5 20 20" xml:space="preserve">
<title>typing</title>
<path fill="#FFFFFF" d="M-373.5,313.5h-12c-1.101,0-2,0.9-2,2v7c0,1.1,0.899,2,2,2h4l4,3v-3h4c1.1,0,2-0.9,2-2v-7
	C-371.5,314.4-372.4,313.5-373.5,313.5z M-383.5,320.1c-0.607,0-1.1-0.492-1.1-1.1s0.492-1.1,1.1-1.1s1.1,0.492,1.1,1.1
	S-382.893,320.1-383.5,320.1z M-379.5,320.1c-0.607,0-1.1-0.492-1.1-1.1s0.492-1.1,1.1-1.1c0.607,0,1.1,0.492,1.1,1.1
	S-378.893,320.1-379.5,320.1z M-375.5,320.1c-0.607,0-1.1-0.492-1.1-1.1s0.492-1.1,1.1-1.1s1.1,0.492,1.1,1.1
	S-374.893,320.1-375.5,320.1z"/>
</svg>
