<?xml version="1.0" encoding="utf-8"?>
<!-- Generator: Adobe Illustrator 15.1.0, SVG Export Plug-In . SVG Version: 6.00 Build 0)  -->
<!DOCTYPE svg PUBLIC "-//W3C//DTD SVG 1.1//EN" "http://www.w3.org/Graphics/SVG/1.1/DTD/svg11.dtd">
<svg version="1.1" id="圖層_1" xmlns="http://www.w3.org/2000/svg" xmlns:xlink="http://www.w3.org/1999/xlink" x="0px" y="0px"
	 width="22px" height="22px" viewBox="-825.5 1206.5 22 22" enable-background="new -825.5 1206.5 22 22" xml:space="preserve">
<title>folder</title>
<path fill="#7F7F7F" d="M-804.188,1210.625h-7.563l-1.375-2.063c0-0.379-0.308-0.688-0.688-0.688h-8.25
	c-0.38,0-0.688,0.309-0.688,0.688v2.063h-2.063c-0.38,0-0.688,0.308-0.688,0.688v1.375c0,0.38,0.308,0.688,0.688,0.688h20.625
	c0.379,0,0.688-0.308,0.688-0.688v-1.375C-803.5,1210.933-803.808,1210.625-804.188,1210.625z"/>
<path fill="#4E85C4" d="M-804.188,1214.75h-20.625c-0.38,0-0.688,0.308-0.688,0.688l0.688,11c0,0.38,0.308,0.688,0.688,0.688h19.25
	c0.379,0,0.688-0.308,0.688-0.688l0.688-11C-803.5,1215.058-803.808,1214.75-804.188,1214.75z M-812.938,1223.5v2.5h-3.125v-2.5
	h-3.438l5-7.5l5,7.5H-812.938z"/>
</svg>
