<?xml version="1.0" encoding="utf-8"?>
<!-- Generator: Adobe Illustrator 15.1.0, SVG Export Plug-In . SVG Version: 6.00 Build 0)  -->
<!DOCTYPE svg PUBLIC "-//W3C//DTD SVG 1.1//EN" "http://www.w3.org/Graphics/SVG/1.1/DTD/svg11.dtd">
<svg version="1.1" id="圖層_1" xmlns="http://www.w3.org/2000/svg" xmlns:xlink="http://www.w3.org/1999/xlink" x="0px" y="0px"
	 width="30px" height="30px" viewBox="-279.5 438.5 30 30" enable-background="new -279.5 438.5 30 30" xml:space="preserve">
<path fill="#E2E2E2" d="M-256.21,461.032c0,4.404-3.625,6.313-8.205,6.313c-4.579,0-8.375-1.91-8.375-6.168
	c0-5.212,3.826-10.249,8.405-10.249C-259.808,450.929-256.21,455.816-256.21,461.032"/>
<path opacity="0.51" fill="#FFFFFF" enable-background="new    " d="M-264.388,451.114c-4.477,0-8.215,4.922-8.215,10.02
	c0,4.159,3.708,6.026,8.182,6.026c-4.319,0-7.901-1.801-7.901-5.817c0-4.918,3.61-8.141,7.928-8.141
	c4.321,0,7.716,3.083,7.716,8.002c0,4.156-3.418,5.956-7.74,5.956c4.477,0,8.023-1.864,8.023-6.171
	C-256.396,455.893-259.914,451.114-264.388,451.114"/>
<path fill="#4F4F4F" d="M-264.402,464.928c-3.766,0-6.566-0.905-8.112-2.525c0.608,3.02,3.537,4.785,8.099,4.785
	c4.462,0,7.263-1.707,7.907-4.739C-258.019,464.055-260.721,464.928-264.402,464.928z"/>
<path fill="#636363" d="M-264.385,450.773c-2.232,0-4.376,1.147-6.043,3.227c-1.6,2.002-2.518,4.616-2.518,7.178
	c0,3.898,3.269,6.322,8.53,6.322c5.236,0,8.36-2.418,8.36-6.468C-256.055,455.474-259.868,450.773-264.385,450.773z
	 M-264.385,451.084c1.619,0,3.145,0.635,4.422,1.708c2.062,1.812,3.394,4.794,3.394,7.896c0,4.212-3.47,6.038-7.85,6.038
	c-4.379,0-8.013-1.826-8.013-5.898c0-2.65,1.036-5.247,2.662-7.104c0.06-0.066,0.115-0.137,0.176-0.199
	c0.032-0.036,0.068-0.067,0.102-0.104C-268.007,451.911-266.225,451.084-264.385,451.084z"/>
<path fill="#FFE1BD" d="M-257.965,446.849c0,3.415-2.88,6.184-6.433,6.184c-3.55,0-6.429-2.769-6.429-6.184
	c0-3.412,2.88-6.183,6.429-6.183C-260.845,440.666-257.965,443.437-257.965,446.849"/>
<path fill="#FABB78" d="M-258.196,446.105c-0.197,1.519-0.58,3.775-3.391,4.971c-0.563,0.239-1.567,0.494-2.708,0.494
	c-1.505,0-3.247-0.445-4.52-1.957c-0.862-1.023-1.565-2.113-1.763-3.387c-0.015,0.201,0.004,0.428,0.028,0.637
	c-0.023-0.154-0.053-0.344-0.07-0.537c-0.016,0.172-0.026,0.345-0.026,0.522c0,1.605,0.651,3.117,1.831,4.252
	c1.181,1.135,2.753,1.761,4.418,1.761c3.449,0,6.254-2.698,6.254-6.013C-258.145,446.597-258.166,446.349-258.196,446.105"/>
<linearGradient id="SVGID_1_" gradientUnits="userSpaceOnUse" x1="-566.6309" y1="32.8896" x2="-566.2862" y2="32.8896" gradientTransform="matrix(103.3955 116.9352 -116.9352 103.3955 62153.9375 63288.6328)">
	<stop  offset="0" style="stop-color:#FFD8BF"/>
	<stop  offset="0.5393" style="stop-color:#BF7400"/>
	<stop  offset="1" style="stop-color:#000000"/>
</linearGradient>
<path fill="url(#SVGID_1_)" d="M-258.411,444.93c0.187,0.57,0.267,1.291,0.267,1.919l0,0c0,3.314-2.804,6.013-6.253,6.013
	c-1.666,0-3.239-0.627-4.418-1.761c-1.18-1.135-1.832-2.646-1.832-4.252l0,0c0-0.184,0.009-0.364,0.025-0.545
	c-0.031-0.37-0.019-0.751,0.155-0.927c-0.004,0-0.009,0-0.013,0c-0.152,0-0.606,0.077-0.704,0.159
	c-0.021,0.096,0.076,0.208,0.059,0.306c-0.06,0.342-0.007,0.648-0.007,1.007c0,1.697,0.674,3.15,2.063,4.494
	c0.249,0.241,0.517,0.459,0.799,0.654c0,0.001,0,0.001,0.001,0.001c0.021,0.014,0.04,0.027,0.059,0.04
	c0.055,0.037,0.109,0.074,0.166,0.109c0.01,0.006,0.02,0.013,0.028,0.019c0.01,0.006,0.02,0.012,0.028,0.017
	c0.009,0.007,0.018,0.012,0.026,0.017c0.051,0.031,0.102,0.063,0.153,0.093c0.169,0.099,0.342,0.188,0.519,0.271
	c0.052,0.023,0.104,0.049,0.156,0.071c0.104,0.046,0.211,0.088,0.318,0.13c0.759,0.286,1.576,0.436,2.417,0.436
	c0.913,0,1.785-0.179,2.576-0.502c0.092-0.037,0.181-0.077,0.271-0.118c0.092-0.042,0.184-0.088,0.273-0.134
	c0.083-0.043,0.162-0.086,0.241-0.131c0.105-0.061,0.212-0.125,0.313-0.19c0.067-0.044,0.135-0.088,0.201-0.135
	c0,0,0.001-0.001,0.001-0.002c1.091-0.762,1.93-1.835,2.376-3.082c0.044-0.121,0.083-0.244,0.118-0.369
	c0.155-0.539,0.237-1.104,0.237-1.69c0-0.449,0.066-0.821-0.025-1.244c-0.08-0.065-0.131-2.094-0.336-1.249
	c-0.018,0.071-0.278,0.597-0.351,0.522"/>
<path fill="#633809" d="M-259.817,441.563c0.353,0.361,1.855,1.025,1.959,3.677c0.007,0.177-0.584-0.206-1.012-0.656
	c-0.418-0.441-0.868-0.885-0.989-0.737c-0.754,0.91-2.516,1.546-4.567,1.546c-1.269,0-2.77-0.739-4.072,0.018
	c-0.899,0.523-0.769,0.542-1.302,0.207c-1.894-1.183-1.274,1.561-1.274,1.561c-0.468-1.687,0.067-3.898,1.535-5.355
	c1.47-1.453,3.687-2.052,5.146-1.973C-262.469,439.951-260.753,440.605-259.817,441.563"/>
<path fill="#844F19" d="M-258.15,444.354c0.021,0.187,0.038,0.378,0.049,0.587c0.006,0.177-0.394-0.273-0.821-0.724
	c-0.42-0.44-0.867-0.885-0.991-0.736c-0.751,0.91-2.512,1.549-4.565,1.549c-1.268,0-2.77-0.742-4.074,0.016
	c-0.9,0.522-0.767,0.54-1.299,0.209c-1.281-0.803-1.411,0.608-1.299,1.323c-0.091-0.732,0.265-1.64,1.351-0.961
	c0.532,0.334,0.402,0.316,1.302-0.207c1.303-0.757,2.804-0.018,4.072-0.018c2.054,0,3.813-0.636,4.567-1.545
	c0.121-0.149,0.569,0.294,0.989,0.736c0.429,0.45,1.019,0.939,1.012,0.763C-257.874,444.996-258.1,444.641-258.15,444.354"/>
<path fill="#F1B26F" d="M-270.595,446.105c-0.01,0.074-0.018,0.147-0.024,0.221c0.017,0.193,0.047,0.382,0.07,0.537
	c-0.025-0.209-0.043-0.436-0.029-0.637C-270.584,446.187-270.59,446.146-270.595,446.105"/>
<linearGradient id="SVGID_2_" gradientUnits="userSpaceOnUse" x1="-566.6167" y1="32.9141" x2="-566.3124" y2="32.9141" gradientTransform="matrix(103.3955 116.9352 -116.9352 103.3955 62153.9375 63288.6328)">
	<stop  offset="0" style="stop-color:#F3C192"/>
	<stop  offset="0.5393" style="stop-color:#D49035"/>
	<stop  offset="1" style="stop-color:#765735"/>
</linearGradient>
<path fill="url(#SVGID_2_)" d="M-270.467,445.379c-0.173,0.176-0.186,0.555-0.154,0.927c0.029-0.317,0.085-0.627,0.164-0.927
	C-270.46,445.379-270.464,445.379-270.467,445.379"/>
<path opacity="0.18" fill="#FFFFFF" enable-background="new    " d="M-260.702,443.355c0,0.731-1.525,1.326-3.405,1.326
	c-1.882,0-3.822-0.464-3.822-1.196c0,0,1.812,0.415,3.691,0.415C-262.356,443.901-260.702,442.623-260.702,443.355z"/>
<path fill="#331607" d="M-271.049,446.293c0-3.359,2.957-6.084,6.604-6.084c3.647,0,6.604,2.725,6.604,6.084
	c0,0.827-0.092,2.263-0.417,2.981c0.454-0.814,0.624-2.374,0.624-3.346c-0.001-3.358-3.065-6.429-6.829-6.429
	c-3.762,0-6.793,3.07-6.793,6.429c0,0.972-0.022,1.974,0.43,2.788C-271.15,447.997-271.049,447.121-271.049,446.293z"/>
<circle fill="#636363" cx="-263.737" cy="456.273" r="0.618"/>
<circle fill="#636363" cx="-263.737" cy="458.305" r="0.618"/>
</svg>
