<?xml version="1.0" encoding="utf-8"?>
<!-- Generator: Adobe Illustrator 15.1.0, SVG Export Plug-In . SVG Version: 6.00 Build 0)  -->
<!DOCTYPE svg PUBLIC "-//W3C//DTD SVG 1.1//EN" "http://www.w3.org/Graphics/SVG/1.1/DTD/svg11.dtd">
<svg version="1.1" id="圖層_1" xmlns="http://www.w3.org/2000/svg" xmlns:xlink="http://www.w3.org/1999/xlink" x="0px" y="0px"
	 width="30px" height="30px" viewBox="-282.5 435.5 30 30" enable-background="new -282.5 435.5 30 30" xml:space="preserve">
<path fill="#14213D" d="M58.119,0"/>
<path fill="#14425E" d="M-268.261,457.717h1.537l0.471-1.089l-0.144-0.372h-2.195l-0.144,0.372L-268.261,457.717L-268.261,457.717z
	 M-266.046,458.193l2.069,2.066c0.079,0.08,0.079,0.212,0,0.29l-0.802,0.804c-0.08,0.079-0.211,0.079-0.292,0l-0.01-0.011
	l-0.501-0.501l0.252,1.432c0.02,0.12-0.026,0.239-0.111,0.314l-1.812,1.811c-0.135,0.136-0.351,0.136-0.485,0l0,0l-1.824-1.824
	c-0.089-0.088-0.118-0.209-0.094-0.318l0.752-4.295l-0.518-1.192c-0.037-0.086-0.037-0.178-0.004-0.258l0,0l0.279-0.726
	c0.052-0.132,0.182-0.217,0.319-0.219l0,0h2.664c0.158,0,0.289,0.107,0.332,0.248l0.267,0.697c0.035,0.085,0.029,0.177-0.005,0.257
	l-0.518,1.193L-266.046,458.193L-266.046,458.193z M-266.753,458.13h-1.479l-0.717,4.087l1.456,1.459l1.456-1.459L-266.753,458.13
	L-266.753,458.13z M-265.922,458.898l0.216,1.24l0.779,0.779l0.509-0.511L-265.922,458.898z"/>
<g id="XMLID_52_">
	<g id="XMLID_867_">
		<path id="XMLID_1526_" fill="#327CCB" d="M-260.439,449.024c-0.736,0-1.335-0.6-1.335-1.335v-0.82
			c0-0.737,0.599-1.337,1.335-1.337s1.337,0.6,1.337,1.337v0.82C-259.102,448.426-259.703,449.024-260.439,449.024z
			 M-260.439,446.513c-0.196,0-0.355,0.16-0.355,0.357v0.82c0,0.196,0.16,0.355,0.355,0.355c0.198,0,0.357-0.159,0.357-0.355v-0.82
			C-260.082,446.672-260.242,446.513-260.439,446.513z"/>
	</g>
	<g id="XMLID_865_">
		<path id="XMLID_1523_" fill="#327CCB" d="M-274.782,449.024c-0.736,0-1.336-0.6-1.336-1.335v-0.82c0-0.737,0.6-1.337,1.336-1.337
			c0.737,0,1.337,0.6,1.337,1.337v0.82C-273.445,448.426-274.045,449.024-274.782,449.024z M-274.782,446.513
			c-0.198,0-0.356,0.16-0.356,0.357v0.82c0,0.196,0.16,0.355,0.356,0.355c0.197,0,0.358-0.159,0.358-0.355v-0.82
			C-274.423,446.672-274.584,446.513-274.782,446.513z"/>
	</g>
	<g id="XMLID_213_">
		<path id="XMLID_1520_" fill="#327CCB" d="M-257.969,464.032h-0.978v-2.566c0-4.007-3.836-7.271-8.553-7.271
			c-1.748,0-3.432,0.451-4.871,1.302l-0.5-0.839c1.59-0.943,3.447-1.442,5.369-1.442c5.256,0,9.531,3.7,9.531,8.248
			L-257.969,464.032L-257.969,464.032z"/>
	</g>
	<g id="XMLID_2_">
		<path id="XMLID_3_" fill="#327CCB" d="M-277.031,464.032h0.978v-2.566c0-4.007,3.837-7.271,8.554-7.271
			c1.748,0,3.432,0.451,4.87,1.302l0.5-0.839c-1.59-0.943-3.447-1.442-5.368-1.442c-5.256,0-9.532,3.7-9.532,8.248L-277.031,464.032
			L-277.031,464.032z"/>
	</g>
	<g id="XMLID_827_">
		<path fill="#FFFFFF" d="M-267.687,454.493L-267.687,454.493c-3.537,0-6.431-2.896-6.431-6.434v-4.36
			c0-3.537,2.893-3.457,6.431-3.457l0,0c3.539,0,6.434-0.08,6.434,3.457v4.361C-261.254,451.6-264.148,454.493-267.687,454.493z"/>
	</g>
	<g id="XMLID_855_">
		<path id="XMLID_1514_" fill="#327CCB" d="M-267.687,454.982c-3.815,0-6.922-3.105-6.922-6.92V443.7
			c0-1.792,0.697-2.931,2.128-3.481c1.206-0.465,2.846-0.464,4.564-0.464h0.461c1.721,0,3.357-0.001,4.564,0.464
			c1.433,0.55,2.127,1.689,2.127,3.481v4.361C-260.765,451.877-263.869,454.982-267.687,454.982z M-268.136,440.732
			c-1.551,0-3.002,0.016-3.994,0.397c-0.699,0.269-1.499,0.805-1.499,2.57v4.361c0,3.277,2.666,5.942,5.943,5.942
			c3.279,0,5.943-2.665,5.943-5.942V443.7c0-1.766-0.801-2.301-1.5-2.57c-1.036-0.398-2.578-0.398-4.212-0.397h-0.46
			C-267.989,440.732-268.064,440.732-268.136,440.732z"/>
	</g>
	<g id="XMLID_179_">
		<path fill="#FFFFFF" d="M-274.088,446.436L-274.088,446.436c-0.852,0-1.54-0.687-1.54-1.539v-3.702
			c0-1.275,1.032-2.309,2.308-2.309l0,0l0,0c0-1.049,0.849-1.896,1.896-1.896h9.354c1.267,0,2.294,1.026,2.294,2.293v5.558
			c0,0.825-0.696,1.477-1.516,1.428l0,0v-3.673c0,0-1.057,1.726-4.383,1.722c-4.019-0.004-6.633-1.989-6.633-1.989
			s-0.246,0.546-0.784,1.022c-0.495,0.438-0.995,0.282-0.995,0.282L-274.088,446.436L-274.088,446.436z"/>
	</g>
	<g id="XMLID_151_">
		<path id="XMLID_1513_" fill="#327CCB" d="M-273.599,446.926h-0.489c-1.119,0-2.03-0.911-2.03-2.029v-3.703
			c0-1.392,1.019-2.549,2.351-2.763c0.213-1.1,1.183-1.931,2.343-1.931h9.354c1.536,0,2.783,1.249,2.783,2.782v5.559
			c0,0.525-0.22,1.036-0.603,1.396c-0.382,0.36-0.902,0.551-1.431,0.518l-0.46-0.027v-4.133h0.98v3.094
			c0.086-0.042,0.167-0.097,0.241-0.164c0.191-0.18,0.296-0.422,0.296-0.684v-5.559c0-0.994-0.809-1.805-1.804-1.805h-9.354
			c-0.776,0-1.408,0.632-1.408,1.407v0.489h-0.488c-1.002,0-1.818,0.815-1.818,1.818v3.702c0,0.403,0.228,0.755,0.562,0.93v-2.857
			l0.634,0.196c0.014,0.002,0.259,0.056,0.526-0.18c0.445-0.396,0.662-0.856,0.664-0.86l0.891,0.405
			c-0.013,0.027-0.298,0.648-0.907,1.187c-0.275,0.244-0.569,0.363-0.831,0.408v2.803H-273.599z"/>
	</g>
	<g id="XMLID_133_">
		<path id="XMLID_1512_" fill="#327CCB" d="M-265.666,444.807c-0.003,0-0.005,0-0.009,0c-4.134-0.006-7.677-2.59-7.825-2.702
			l0.583-0.786c0.034,0.024,3.439,2.503,7.244,2.508c0.003,0,0.006,0,0.009,0c2.998,0,4.362-1.981,4.42-2.066l0.816,0.541
			C-260.498,442.405-262.123,444.807-265.666,444.807z"/>
	</g>
</g>
<g>
	
		<rect x="-268.208" y="458.007" transform="matrix(-0.7077 -0.7065 0.7065 -0.7077 -782.3525 596.5213)" fill="#14425E" width="0.875" height="4.207"/>
</g>
</svg>
