<?xml version="1.0" encoding="utf-8"?>
<!-- Generator: Adobe Illustrator 15.1.0, SVG Export Plug-In . SVG Version: 6.00 Build 0)  -->
<!DOCTYPE svg PUBLIC "-//W3C//DTD SVG 1.1//EN" "http://www.w3.org/Graphics/SVG/1.1/DTD/svg11.dtd">
<svg version="1.1" id="圖層_1" xmlns="http://www.w3.org/2000/svg" xmlns:xlink="http://www.w3.org/1999/xlink" x="0px" y="0px"
	 width="30px" height="30px" viewBox="-279.5 438.5 30 30" enable-background="new -279.5 438.5 30 30" xml:space="preserve">
<g>
	
		<linearGradient id="SVGID_1_" gradientUnits="userSpaceOnUse" x1="-260.2471" y1="-424.0869" x2="-240.3657" y2="-424.0869" gradientTransform="matrix(-0.9592 0 0 -1 -504.5937 35.0947)">
		<stop  offset="0" style="stop-color:#E6F7FF"/>
		<stop  offset="1" style="stop-color:#A2DBF2"/>
	</linearGradient>
	<path fill="url(#SVGID_1_)" d="M-264.501,450.863c5.267,0,9.536,4.997,9.536,11.16c0,1.062-0.137,2.086-0.374,3.061
		c-2.409,1.499-5.625,2.416-9.162,2.416c-3.536,0-6.754-0.917-9.163-2.417c-0.238-0.975-0.372-1.998-0.372-3.06
		C-274.035,455.86-269.768,450.863-264.501,450.863z"/>
</g>
<path opacity="0.31" fill="#FFFFFF" enable-background="new    " d="M-264.763,451.524c4.753,0,8.703,3.995,9.547,9.273
	c-1.644,1.009-3.67,1.613-5.873,1.613c-5.459,0-9.88-3.661-9.88-8.175c0-0.033,0.003-0.063,0.003-0.096
	C-269.283,452.508-267.121,451.524-264.763,451.524z"/>
<path fill="#327CCB" d="M-264.501,451.688c4.804,0,8.712,4.637,8.712,10.336c0,0.838-0.092,1.688-0.275,2.536
	c-2.334,1.367-5.314,2.117-8.438,2.117c-3.124,0-6.105-0.75-8.438-2.117c-0.18-0.839-0.273-1.691-0.273-2.536
	C-273.211,456.324-269.304,451.688-264.501,451.688 M-264.501,450.863c-5.267,0-9.534,4.997-9.534,11.16
	c0,1.062,0.134,2.086,0.372,3.061c2.409,1.499,5.626,2.416,9.163,2.416c3.537,0,6.753-0.917,9.162-2.417
	c0.237-0.975,0.374-1.998,0.374-3.06C-254.965,455.86-259.234,450.863-264.501,450.863L-264.501,450.863z"/>
<g>
	<ellipse fill="#FFF3E8" cx="-264.395" cy="447.367" rx="6.544" ry="7.328"/>
</g>
<path opacity="0.5" fill="#B5B5B5" enable-background="new    " d="M-270.961,447.45c0-3.872,2.556-6.62,6.182-7.109
	c0.844-0.114,2.268-0.206,2.755,0.45c0.116,0.023,0.244,0.046,0.394,0.074c2.046,0.386,3.917,3.357,3.917,6.585
	c0,0.624-0.251,1.561-0.394,2.138c-0.053-0.704-0.198-2.016-0.802-3.157c-1.039-1.967-2.544-1.62-2.938-1.529
	c-0.258,0.438-0.708,1.056-1.57,1.512c-2.077,1.102-5.201,1.547-5.94,2.327c-1.186,1.255-0.396,2.196-0.444,2.757
	C-270.683,450.449-270.961,448.225-270.961,447.45z"/>
<path fill="#5E5E5E" d="M-264.396,440.489c3.336,0,6.049,3.085,6.049,6.877s-2.712,6.877-6.049,6.877
	c-3.333,0-6.044-3.085-6.044-6.877C-270.441,443.572-267.73,440.489-264.396,440.489 M-264.396,439.617
	c-3.823,0-6.915,3.47-6.915,7.749c0,4.277,3.092,7.746,6.915,7.746s6.921-3.469,6.921-7.746
	C-257.476,443.087-260.574,439.617-264.396,439.617L-264.396,439.617z"/>
<g opacity="0.46">
	<path fill="#FFFFFF" d="M-268.939,450.964c1.87,2.567,5.343,2.979,7.757,0.916c1.735-1.482,2.437-3.837,2.003-6.001
		c0.721,2.321,0.069,4.998-1.834,6.628c-2.416,2.061-5.89,1.648-7.759-0.916c-0.506-0.695-0.839-1.48-1.012-2.294
		c0.003,0.008,0.007,0.014,0.012,0.021C-269.583,449.898-269.31,450.455-268.939,450.964z"/>
</g>
<path fill="#212121" d="M-257.447,447.194c0,0.666-0.088,1.31-0.238,1.926c-0.056-0.756-0.219-1.82-0.815-3.064
	c-1.222-2.537-3.664-1.806-3.664-1.806l0.158-3.979c0,0-2.068-0.607,0.452-0.12C-259.406,440.565-257.447,443.74-257.447,447.194z"
	/>
<path d="M-262.136,443.442l-0.028,0.628c0,0,2.421-0.625,3.653,1.852c0.603,1.214,0.805,2.165,0.859,2.899
	c0.115-0.45-0.019-0.357,0.014-0.838c-0.12-0.556-0.408-1.851-0.748-2.538C-259.495,443.21-261.431,443.363-262.136,443.442z"/>
<path fill="#1E1E1E" d="M-264.855,439.59c0.94-0.131,2.599-0.244,2.988,0.625c0.515,1.138,0.68,3.998-1.408,5.207
	c-2.149,1.244-5.831,1.993-6.603,2.831c-1.245,1.342-0.204,2.669-0.249,3.269c-0.926-1.123-1.22-3.5-1.22-4.327
	C-271.346,443.053-268.665,440.114-264.855,439.59z"/>
<path opacity="0.33" fill="#FFFFFF" enable-background="new    " d="M-270.521,448.643h-0.255c0.09-0.276,0.248-0.566,0.512-0.854
	c0.775-0.836,4.456-1.586,6.606-2.83c1.959-1.133,1.934-3.723,1.497-4.978c0.014,0.022,0.034,0.039,0.044,0.063
	c0.516,1.14,0.682,4-1.403,5.206c-2.15,1.247-5.833,1.997-6.606,2.83C-270.3,448.27-270.427,448.457-270.521,448.643z"/>
</svg>
