<?xml version="1.0" encoding="utf-8"?>
<!-- Generator: Adobe Illustrator 15.1.0, SVG Export Plug-In . SVG Version: 6.00 Build 0)  -->
<!DOCTYPE svg PUBLIC "-//W3C//DTD SVG 1.1//EN" "http://www.w3.org/Graphics/SVG/1.1/DTD/svg11.dtd">
<svg version="1.1" id="圖層_1" xmlns="http://www.w3.org/2000/svg" xmlns:xlink="http://www.w3.org/1999/xlink" x="0px" y="0px"
	 width="30px" height="30px" viewBox="-279.5 438.5 30 30" enable-background="new -279.5 438.5 30 30" xml:space="preserve">
<g>
	<path fill="#FFFFFF" d="M-260.344,446.273c0,3.093-2.567,5.6-4.259,5.6c-1.458,0-4.258-2.507-4.258-5.6
		c0-3.094-0.233-6.417,4.434-6.3C-259.76,440.09-260.344,443.18-260.344,446.273z"/>
	<path fill="#327CCB" d="M-269.328,446.273c0-0.279-0.001-0.564-0.003-0.847l0,0c0.007-1.394,0.031-2.822,0.652-3.989l0,0
		c0.62-1.186,1.917-1.954,4.016-1.937l0,0c0.082,0,0.166,0.001,0.249,0.006l0,0c1.935,0.041,3.158,0.609,3.824,1.578l0,0
		c0.657,0.961,0.732,2.146,0.736,3.356l0,0c0,0.605-0.023,1.223-0.023,1.832l0,0h0.003c-0.051,3.346-2.638,5.999-4.727,6.065l0,0
		C-266.473,452.259-269.259,449.647-269.328,446.273L-269.328,446.273z M-267.858,441.88c-0.475,0.869-0.542,2.171-0.539,3.547l0,0
		c0,0.279,0.003,0.563,0.005,0.847l0,0c-0.005,1.401,0.64,2.705,1.466,3.651l0,0c0.811,0.955,1.848,1.504,2.325,1.482l0,0
		c0.617,0.014,1.62-0.527,2.406-1.475l0,0c0.793-0.941,1.386-2.245,1.386-3.659l0,0c0-0.633,0.022-1.25,0.021-1.832l0,0
		c0.006-1.172-0.106-2.17-0.57-2.825l0,0c-0.454-0.648-1.283-1.124-3.088-1.178l0,0c-0.07-0.002-0.142-0.004-0.217-0.004l0,0
		C-266.581,440.454-267.382,441.028-267.858,441.88L-267.858,441.88z"/>
</g>
<path fill="#D2EAFF" d="M-261.023,451.725c-0.345,1.551-1.769,2.716-3.477,2.716c-1.706,0-3.131-1.165-3.477-2.716
	c-4.745,1.217-8.19,4.863-8.19,9.171c0,0.615,0.078,3.999,0.211,4.582c3.332,0.986,7.255,1.555,11.456,1.555
	s8.125-0.568,11.456-1.555c0.134-0.583,0.211-3.967,0.211-4.582C-252.833,456.588-256.278,452.941-261.023,451.725z"/>
<path fill="#327CCB" d="M-276.087,465.923l-0.264-0.079l-0.06-0.263c-0.157-0.736-0.217-4.023-0.222-4.686l0,0
	c0.005-4.573,3.641-8.369,8.541-9.623l0,0l0.467-0.119l0.104,0.471c0.295,1.332,1.529,2.351,3.021,2.351l0,0
	c1.493,0,2.726-1.019,3.021-2.351l0,0l0.105-0.471l0.467,0.119c4.898,1.254,8.535,5.05,8.541,9.623l0,0
	c-0.006,0.662-0.066,3.951-0.223,4.686l0,0l-0.061,0.264l-0.263,0.079c-3.379,1.002-7.343,1.573-11.587,1.576l0,0
	C-268.744,467.496-272.708,466.925-276.087,465.923L-276.087,465.923z M-264.501,466.563c4.039,0.003,7.816-0.53,11.039-1.451l0,0
	c0.094-0.93,0.167-3.713,0.162-4.217l0,0c0.008-3.913-3.045-7.315-7.405-8.6l0,0c-0.555,1.524-2.046,2.609-3.795,2.611l0,0
	c-1.748-0.002-3.24-1.085-3.793-2.611l0,0c-4.359,1.285-7.413,4.687-7.405,8.6l0,0c-0.004,0.504,0.068,3.285,0.163,4.217l0,0
	C-272.316,466.033-268.539,466.566-264.501,466.563L-264.501,466.563z M-261.142,452.175l0.118-0.45L-261.142,452.175
	L-261.142,452.175z"/>
<path opacity="0.52" fill="#FFFFFF" enable-background="new    " d="M-264.505,441.228c3.135,0.086,3.568,1.848,3.598,4.004
	c0.029-2.448-0.143-4.581-3.598-4.675c-3.923-0.107-3.898,2.819-3.89,5.68C-268.383,443.608-268.122,441.128-264.505,441.228z"/>
<path opacity="0.52" fill="#FFFFFF" enable-background="new    " d="M-267.88,453.38c0.33,1.428,1.689,2.5,3.317,2.5
	c1.631,0,2.991-1.072,3.319-2.5c4.431,1.096,7.667,4.329,7.807,8.178c0.01-0.377,0.014-0.675,0.014-0.815
	c0-3.961-3.291-7.314-7.82-8.435c-0.329,1.426-1.688,2.498-3.319,2.498c-1.629,0-2.988-1.071-3.318-2.498
	c-4.531,1.12-7.82,4.474-7.82,8.436c0,0.141,0.004,0.439,0.014,0.815C-275.547,457.709-272.311,454.476-267.88,453.38z"/>
</svg>
