<?xml version="1.0" encoding="utf-8"?>
<!-- Generator: Adobe Illustrator 15.1.0, SVG Export Plug-In . SVG Version: 6.00 Build 0)  -->
<!DOCTYPE svg PUBLIC "-//W3C//DTD SVG 1.1//EN" "http://www.w3.org/Graphics/SVG/1.1/DTD/svg11.dtd">
<svg version="1.1" id="圖層_1" xmlns="http://www.w3.org/2000/svg" xmlns:xlink="http://www.w3.org/1999/xlink" x="0px" y="0px"
	 width="30px" height="30px" viewBox="-279.5 438.5 30 30" enable-background="new -279.5 438.5 30 30" xml:space="preserve">
<linearGradient id="SVGID_1_" gradientUnits="userSpaceOnUse" x1="-268.0459" y1="-424.582" x2="-249.4824" y2="-424.582" gradientTransform="matrix(-1 0 0 -1 -523.0195 35.0947)">
	<stop  offset="0" style="stop-color:#BDE9FF"/>
	<stop  offset="1" style="stop-color:#9EE2F2"/>
</linearGradient>
<path fill="url(#SVGID_1_)" d="M-261.138,451.962c0.771,1.32,1.018,2.271,3.817,2.767c1.564,0.279,1.945,1.918,2.187,3.228
	c0.296,1.62,0.254,2.964-0.73,4.36c-0.627,0.891-1.456,1.558-2.294,2.235c-1.307,1.056-3.02,1.956-4.669,2.325
	c-3.914,0.874-10.165,0.678-10.389-0.922c-0.264-1.881-0.478-5.655-0.162-6.062c1.324-1.703,3.845-4.457,5.374-6.275
	c0.451-0.534,2.509-0.356,2.731-0.678L-261.138,451.962z"/>
<path opacity="0.31" fill="#FFFFFF" enable-background="new    " d="M-261.138,451.962c0.635,1.088,0.771,2.422,0.269,3.586
	c-0.639,1.482-2.088,1.668-3.456,2.143c-0.9,0.313-1.796,0.698-2.622,1.176c-0.839,0.484-1.632,1.217-2.335,1.879
	c-0.348,0.327-0.68,0.729-1.048,1.068c-0.184,0.17-0.377,0.325-0.585,0.446c-1.02,0.597-1.769-0.674-2.181-1.448
	c-0.047-0.086-0.431-0.73-0.345-0.842c1.324-1.703,3.906-4.533,5.435-6.352c0.451-0.534,2.509-0.356,2.731-0.678L-261.138,451.962z"
	/>
<linearGradient id="SVGID_2_" gradientUnits="userSpaceOnUse" x1="-255.4595" y1="-428.6396" x2="-248.9927" y2="-428.6396" gradientTransform="matrix(-1 0 0 -1 -523.0195 35.0947)">
	<stop  offset="0" style="stop-color:#BDE9FF"/>
	<stop  offset="1" style="stop-color:#9EE2F2"/>
</linearGradient>
<path fill="url(#SVGID_2_)" d="M-273.441,459.97c0,0,4.96,0.841,5.881,7.419c0.027,0.196-2.716,0.075-2.919,0.06
	c-1.018-0.074-2.772-0.373-3.151-1.496C-273.631,465.952-274.638,462.961-273.441,459.97z"/>
<path fill="#F4E3CE" d="M-267.269,449.402c0,0-0.089,4.164,0,4.481c0.087,0.316,3.797,3.305,6.711,0.046l-2.252-3.53
	L-267.269,449.402z"/>
<linearGradient id="SVGID_3_" gradientUnits="userSpaceOnUse" x1="-262.3799" y1="-409.7026" x2="-256.4599" y2="-416.3714" gradientTransform="matrix(-1 0 0 -1 -523.0195 35.0947)">
	<stop  offset="0" style="stop-color:#592F26"/>
	<stop  offset="0.2513" style="stop-color:#6A3C31"/>
	<stop  offset="0.7225" style="stop-color:#855142"/>
	<stop  offset="1" style="stop-color:#8F5949"/>
</linearGradient>
<path opacity="0.29" fill="url(#SVGID_3_)" enable-background="new    " d="M-268.707,447.025c0,0.893,1.118,0.878,1.536,1.738
	c0.239,0.487-0.336,1.884-0.001,2.331c0.701,0.935,1.354,2.209,2.302,2.875c1.05,0.738,2.409,0.806,3.387,0.551
	c2.109-0.551,4.108-3.854,4.108-7.495c0-3.642-2.535-6.593-5.666-6.593C-266.169,440.433-268.707,443.384-268.707,447.025z"/>
<path fill="#FFEDD4" d="M-267.804,448.144c0.06,1.629,2.397,4.381,3.388,4.917c0.706,0.382,1.434,0.733,2.187,1.013
	c1.012,0.376,2.042,0.525,2.925-0.213c0.829-0.693,1.447-1.671,1.808-2.682c0.321-0.899,0.299-1.861,0.325-2.803
	c0.023-0.893,0.35-1.739,0.364-2.62c0.058-3.301-1.215-4.953-5.804-5.504C-265.718,439.88-267.938,444.503-267.804,448.144z"/>
<path fill="#091C2D" d="M-256.542,442.994c0.36,2.234-2.191,2.738-3.833,2.703c-0.943-0.021-1.879-0.017-2.812-0.166
	c-0.859-0.139-1.763-0.307-2.509,0.265c-1.173,0.897-1.407,3.482-1.058,4.798c-0.022-0.086-0.735-0.973-0.824-1.027
	c-0.678-0.42-1.301-0.977-1.715-1.663c-0.558-0.93-0.735-2.08-0.581-3.146c0.272-1.87,1.569-3.492,3.259-4.242
	c1.783-0.789,4.033-1.304,5.965-0.841c0.98,0.235,2.321,0.799,3.047,1.526C-257.17,441.637-256.644,442.369-256.542,442.994z"/>
</svg>
