<?xml version="1.0" encoding="utf-8"?>
<!-- Generator: Adobe Illustrator 15.1.0, SVG Export Plug-In . SVG Version: 6.00 Build 0)  -->
<!DOCTYPE svg PUBLIC "-//W3C//DTD SVG 1.1//EN" "http://www.w3.org/Graphics/SVG/1.1/DTD/svg11.dtd">
<svg version="1.1" id="圖層_1" xmlns="http://www.w3.org/2000/svg" xmlns:xlink="http://www.w3.org/1999/xlink" x="0px" y="0px"
	 width="30px" height="30px" viewBox="-279.5 438.5 30 30" enable-background="new -279.5 438.5 30 30" xml:space="preserve">
<g>
	
		<linearGradient id="SVGID_1_" gradientUnits="userSpaceOnUse" x1="-274.0659" y1="-419.8511" x2="-254.8415" y2="-436.6534" gradientTransform="matrix(1 0 0 -1 -0.02 35.0947)">
		<stop  offset="0" style="stop-color:#E6F7FF"/>
		<stop  offset="1" style="stop-color:#A2DBF2"/>
	</linearGradient>
	<path fill="url(#SVGID_1_)" d="M-264.5,452.577c-7.049,0-12.766,6.046-12.766,13.501c0,0.294,0.014,0.586,0.031,0.876
		c4.051,0.356,8.321,0.546,12.735,0.546c4.413,0,8.683-0.189,12.733-0.544c0.02-0.291,0.033-0.583,0.033-0.876
		C-251.734,458.625-257.451,452.577-264.5,452.577z"/>
</g>
<path opacity="0.75" fill="#FFFFFF" enable-background="new    " d="M-276.696,466.337c0,0,1.432-19.581,18.07-11.636
	c1.001,0.479,1.882,1.521,2.998,2.204C-255.629,456.905-266.163,454.962-276.696,466.337z"/>
<g>
	<path fill="#327CCB" d="M-264.5,453.401c6.586,0,11.943,5.688,11.943,12.679c0,0.038,0,0.077-0.001,0.117
		c-3.891,0.318-7.904,0.479-11.942,0.479c-4.043,0-8.056-0.161-11.941-0.481c0-0.039-0.001-0.078-0.001-0.117
		C-276.442,459.089-271.086,453.401-264.5,453.401 M-264.5,452.577c-7.049,0-12.766,6.046-12.766,13.501
		c0,0.294,0.014,0.586,0.031,0.876c4.051,0.356,8.321,0.546,12.735,0.546c4.413,0,8.683-0.189,12.733-0.544
		c0.02-0.291,0.033-0.583,0.033-0.876C-251.734,458.625-257.451,452.577-264.5,452.577L-264.5,452.577z"/>
</g>
<g>
	
		<linearGradient id="SVGID_2_" gradientUnits="userSpaceOnUse" x1="-268.7896" y1="-408.0229" x2="-258.7238" y2="-419.2809" gradientTransform="matrix(1 0 0 -1 -0.02 35.0947)">
		<stop  offset="0" style="stop-color:#E6F7FF"/>
		<stop  offset="1" style="stop-color:#BDE9FF"/>
	</linearGradient>
	<circle fill="url(#SVGID_2_)" cx="-264.5" cy="447.938" r="7.551"/>
	<path fill="#327CCB" d="M-264.5,440.388c4.169,0,7.55,3.38,7.55,7.551c0,4.17-3.381,7.551-7.55,7.551
		c-4.169,0-7.55-3.381-7.55-7.551C-272.051,443.768-268.671,440.388-264.5,440.388 M-264.5,439.5c-4.653,0-8.439,3.786-8.439,8.438
		s3.786,8.438,8.438,8.438c4.652,0,8.44-3.785,8.44-8.438C-256.061,443.286-259.848,439.5-264.5,439.5L-264.5,439.5z"/>
	<path opacity="0.87" fill="#FFFFFF" enable-background="new    " d="M-271.577,448.886c0-4.2,3.271-7.602,7.306-7.602
		c3.114,0,5.772,2.026,6.823,4.883c-0.875-3.179-3.686-5.505-7.022-5.505c-4.034,0-7.306,3.402-7.306,7.601
		c0,0.959,0.172,1.873,0.482,2.717C-271.478,450.314-271.577,449.613-271.577,448.886z"/>
	<path opacity="0.27" fill="#FFFFFF" enable-background="new    " d="M-257.374,446.945c0,4.198-3.27,7.602-7.305,7.602
		c-3.116,0-5.772-2.026-6.822-4.884c0.875,3.179,3.686,5.507,7.022,5.507c4.035,0,7.306-3.404,7.306-7.603
		c0-0.958-0.172-1.873-0.483-2.718C-257.473,445.516-257.374,446.219-257.374,446.945z"/>
</g>
</svg>
