<?xml version="1.0" encoding="utf-8"?>
<!-- Generator: Adobe Illustrator 15.1.0, SVG Export Plug-In . SVG Version: 6.00 Build 0)  -->
<!DOCTYPE svg PUBLIC "-//W3C//DTD SVG 1.1//EN" "http://www.w3.org/Graphics/SVG/1.1/DTD/svg11.dtd">
<svg version="1.1" id="圖層_1" xmlns="http://www.w3.org/2000/svg" xmlns:xlink="http://www.w3.org/1999/xlink" x="0px" y="0px"
	 width="50px" height="50px" viewBox="-392.5 307.5 50 50" enable-background="new -392.5 307.5 50 50" xml:space="preserve">
<title>user</title>
<path fill="#007AE1" d="M-360.987,340.5c-0.002-0.001-0.008-0.001-0.013,0h-0.542c-0.245,0-0.444-0.198-0.444-0.443
	c0-3.043-2.477-5.521-5.521-5.521c-3.043,0-5.52,2.478-5.52,5.521c0,0.245-0.199,0.443-0.445,0.443h-0.542
	c-0.245,0-0.442-0.198-0.442-0.443c0-3.833,3.119-6.949,6.95-6.949c3.795,0,6.891,3.063,6.948,6.844
	c0.008,0.035,0.013,0.07,0.013,0.106C-360.544,340.302-360.741,340.5-360.987,340.5z"/>
<path fill="#007AE1" d="M-363.956,328.049c0,1.96-1.588,3.547-3.548,3.547s-3.547-1.588-3.547-3.547c0-1.96,1.588-3.549,3.547-3.549
	C-365.544,324.5-363.956,326.089-363.956,328.049z"/>
</svg>
