<?xml version="1.0" encoding="utf-8"?>
<!-- Generator: Adobe Illustrator 15.1.0, SVG Export Plug-In . SVG Version: 6.00 Build 0)  -->
<!DOCTYPE svg PUBLIC "-//W3C//DTD SVG 1.1//EN" "http://www.w3.org/Graphics/SVG/1.1/DTD/svg11.dtd">
<svg version="1.1" id="圖層_1" xmlns="http://www.w3.org/2000/svg" xmlns:xlink="http://www.w3.org/1999/xlink" x="0px" y="0px"
	 width="30px" height="30px" viewBox="-282.5 435.5 30 30" enable-background="new -282.5 435.5 30 30" xml:space="preserve">
<g id="XMLID_81_">
	<g id="XMLID_1_">
		<path id="XMLID_1452_" fill="#327CCB" d="M-261.731,457.168l2.221-0.576c0.28-0.075,0.515-0.266,0.642-0.528
			c0.12-0.25,0.129-0.524,0.021-0.774l0,0c-1.438-3.31-0.613-9.051-0.523-9.636c-0.02-4.499-3.689-8.154-8.196-8.154
			c-4.504,0-8.17,3.651-8.195,8.148c0.114,0.611,1.065,6.067-0.375,9.445c-0.131,0.307-0.121,0.651,0.027,0.948
			c0.147,0.295,0.417,0.511,0.737,0.592l2.509,0.625l-0.704,0.853l-2.046-0.511c-0.604-0.149-1.109-0.556-1.389-1.114
			c-0.278-0.559-0.296-1.207-0.053-1.781c1.375-3.226,0.316-8.858,0.306-8.915l-0.009-0.097c0-5.069,4.123-9.192,9.192-9.192
			c5.07,0,9.194,4.123,9.194,9.192l-0.006,0.078c-0.009,0.06-0.921,5.973,0.447,9.122l0,0c0.223,0.514,0.21,1.099-0.039,1.607
			c-0.256,0.525-0.724,0.91-1.288,1.056l-1.717,0.447L-261.731,457.168z"/>
	</g>
	<g id="XMLID_96_">
		<path id="XMLID_1448_" fill="#327CCB" d="M-258.821,464.5h-0.997v-1.311c0-4.164-3.388-7.551-7.551-7.551
			c-1.8,0-3.546,0.652-4.917,1.833l-0.653-0.754c1.553-1.34,3.531-2.077,5.57-2.077c4.713,0,8.548,3.835,8.548,8.548L-258.821,464.5
			L-258.821,464.5z"/>
	</g>
	<g id="XMLID_4_">
		<path id="XMLID_5_" fill="#327CCB" d="M-275.916,464.5h0.998v-1.311c0-4.164,3.386-7.551,7.55-7.551
			c1.8,0,3.545,0.652,4.918,1.833l0.651-0.754c-1.553-1.34-3.53-2.077-5.57-2.077c-4.713,0-8.548,3.835-8.548,8.548L-275.916,464.5
			L-275.916,464.5z"/>
	</g>
	<g id="XMLID_111_">
		<path fill="#FFFFFF" d="M-260.938,453.095l0.562-5.857c0.042-4.492-2.229-4.979-4.978-4.979h-4.371h-0.308
			c-2.313,0-4.187,1.874-4.187,4.187l0.575,6.669c0.056,0.648,0.448,1.223,1.033,1.508l4.486,2.196
			c0.389,0.19,0.843,0.198,1.238,0.019l4.874-2.23C-261.413,454.331-261.003,453.756-260.938,453.095z"/>
	</g>
	<g id="XMLID_109_">
		<path id="XMLID_1442_" fill="#327CCB" d="M-272.833,455.069c-0.738-0.362-1.24-1.095-1.311-1.912l-0.575-6.67
			c-0.001-2.626,2.1-4.729,4.684-4.729h4.679c1.553,0,3.136,0.149,4.205,1.228c0.875,0.885,1.291,2.275,1.272,4.255l-0.565,5.902
			c-0.08,0.833-0.602,1.567-1.365,1.916C-267.697,459.143-272.833,455.069-272.833,455.069z M-262.223,454.152
			c0.439-0.2,0.741-0.623,0.786-1.104h0l0.564-5.858c0.014-1.657-0.309-2.817-0.988-3.5c-0.766-0.773-1.952-0.932-3.496-0.932
			h-4.679c-2.034,0-3.689,1.653-3.689,3.688l0.572,6.628c0.041,0.471,0.33,0.895,0.755,1.104
			C-272.395,454.176-267.291,458.092-262.223,454.152z"/>
	</g>
	<g id="XMLID_145_">
		<path fill="#FFFFFF" d="M-273.355,441.399c0,0,6.977,5.585,13.272,3.29v-2.425l-4.75-2.995l-7.654,0.515L-273.355,441.399z"/>
	</g>
	<g id="XMLID_141_">
		<path fill="#FFFFFF" d="M-270.834,442.965c0,0-0.559,3.068-3.975,3.068l-0.345-1.492l1.362-3.411L-270.834,442.965z"/>
	</g>
	<g id="XMLID_140_">
		<path id="XMLID_1441_" fill="#327CCB" d="M-274.808,446.532v-0.998c2.943,0,3.462-2.551,3.483-2.661l0.981,0.179
			C-270.563,444.256-271.778,446.532-274.808,446.532z"/>
	</g>
	<g id="XMLID_139_">
		<path id="XMLID_1440_" fill="#327CCB" d="M-263.218,445.665c-5.24,0-9.938-3.493-10.179-3.677l0.6-0.796
			c0.068,0.051,6.864,5.092,12.826,2.92l0.342,0.938C-260.821,445.487-262.034,445.665-263.218,445.665z"/>
	</g>
</g>
<g>
	<path fill="#14425E" d="M-267.924,458.561v5.939h0.849v-6.009C-267.35,458.537-267.633,458.561-267.924,458.561z"/>
	<circle fill="#14425E" cx="-265.803" cy="460.343" r="0.849"/>
	<circle fill="#14425E" cx="-265.803" cy="462.889" r="0.848"/>
</g>
</svg>
