<?xml version="1.0" encoding="utf-8"?>
<!-- Generator: Adobe Illustrator 15.1.0, SVG Export Plug-In . SVG Version: 6.00 Build 0)  -->
<!DOCTYPE svg PUBLIC "-//W3C//DTD SVG 1.1//EN" "http://www.w3.org/Graphics/SVG/1.1/DTD/svg11.dtd">
<svg version="1.1" id="圖層_1" xmlns="http://www.w3.org/2000/svg" xmlns:xlink="http://www.w3.org/1999/xlink" x="0px" y="0px"
	 width="30px" height="30px" viewBox="-279.5 438.5 30 30" enable-background="new -279.5 438.5 30 30" xml:space="preserve">
<linearGradient id="SVGID_1_" gradientUnits="userSpaceOnUse" x1="-550.9702" y1="-418.0425" x2="-535.1129" y2="-430.1965" gradientTransform="matrix(-1 0 0 -1 -806.4648 35.0947)">
	<stop  offset="0" style="stop-color:#1B649B"/>
	<stop  offset="1" style="stop-color:#327CCB"/>
</linearGradient>
<path fill="url(#SVGID_1_)" d="M-259.667,451.56c0,0,5.691,2.474,5.115,12.593c0,0-10.518,7.532-19.883,0
	c0,0-1.081-9.221,6.339-12.807C-268.095,451.346-262.835,449.308-259.667,451.56z"/>
<path fill="#FABB78" d="M-260.532,450.665l0.865,0.895c0,0-2.204,4.915-9.983,0.698c0,0,0.515-0.467,1.659-0.921
	C-266.368,450.69-263.785,450.171-260.532,450.665z"/>
<path fill="#FFE1BD" d="M-258.74,443.29c0,0,2.891,6.764-3.231,9.219c0,0-3.387,1.554-6.845-0.949c0,0-6.123-6.897,0.865-8.627
	C-260.963,441.204-258.74,443.29-258.74,443.29z"/>
<path opacity="0.53" fill="#633809" enable-background="new    " d="M-258.65,443.201c0,0-0.417,2.914-9.869,1.232v-0.98
	L-258.65,443.201z"/>
<path fill="#633809" d="M-257.938,441.349c0,0,0.72,4.755-10.301,2.737l0.36,3.602c0,0-3.242-2.953-1.873,2.667
	c-0.062-0.253-0.453-0.622-0.592-0.846c-0.444-0.718-0.786-1.483-1.021-2.295c-0.583-2.021-0.582-4.421,0.967-6.012
	c1.744-1.794,4.448-1.809,6.771-1.628C-261.684,439.726-259.658,440.446-257.938,441.349z"/>
</svg>
