<?xml version="1.0" encoding="utf-8"?>
<!-- Generator: Adobe Illustrator 15.1.0, SVG Export Plug-In . SVG Version: 6.00 Build 0)  -->
<!DOCTYPE svg PUBLIC "-//W3C//DTD SVG 1.1//EN" "http://www.w3.org/Graphics/SVG/1.1/DTD/svg11.dtd">
<svg version="1.1" id="圖層_1" xmlns="http://www.w3.org/2000/svg" xmlns:xlink="http://www.w3.org/1999/xlink" x="0px" y="0px"
	 width="22px" height="22px" viewBox="0 0 22 22" enable-background="new 0 0 22 22" xml:space="preserve">
<title>gavel</title>
<path fill="#4E85C4" d="M14.959,1.537c-1.883,0-3.65,0.732-4.98,2.062C8.649,4.93,7.916,6.698,7.916,8.578
	c0,1.21,0.309,2.392,0.896,3.438l-6.349,6.353c-0.233,0.229-0.36,0.54-0.36,0.866c0,0.33,0.128,0.64,0.359,0.869
	c0.232,0.233,0.541,0.361,0.871,0.361s0.639-0.128,0.87-0.361l6.179-6.176c1.275,1.094,2.886,1.691,4.578,1.691
	c3.883,0,7.041-3.159,7.041-7.042c0-3.883-3.158-7.042-7.04-7.042L14.959,1.537z M14.959,13.159c-1.227,0-2.377-0.478-3.24-1.343
	c-0.866-0.863-1.343-2.015-1.343-3.238c0-1.226,0.478-2.377,1.345-3.24c0.861-0.864,2.014-1.34,3.238-1.34
	c2.525,0,4.58,2.055,4.58,4.581C19.539,11.105,17.484,13.159,14.959,13.159z"/>
<path fill="#7F7F7F" d="M14.959,17.219c-1.327,0-2.607-0.313-3.771-0.883h-0.954l-4.002,4.001h8.566
	c0.333,0,0.615-0.117,0.851-0.351C15.881,19.752,16,19.467,16,19.135l0.482-2.059C15.986,17.166,15.479,17.218,14.959,17.219
	L14.959,17.219z"/>
<path fill="#7F7F7F" d="M5.427,13.136H5.199c-0.116,0-0.212-0.036-0.287-0.112c-0.075-0.072-0.113-0.168-0.113-0.287v-0.799
	c0-0.117,0.038-0.213,0.113-0.289c0.075-0.072,0.17-0.11,0.287-0.11h1.644c-0.188-0.518-0.326-1.054-0.412-1.6H5.199
	c-0.116,0-0.212-0.039-0.287-0.113C4.837,9.75,4.799,9.655,4.799,9.537v-0.8c0-0.116,0.038-0.212,0.113-0.288
	c0.075-0.076,0.17-0.113,0.287-0.113h1.128c0.04-1.424,0.42-2.788,1.106-4H1.199c-0.332,0-0.615,0.117-0.85,0.35
	C0.117,4.92,0,5.204,0,5.537l2.48,10.547L5.427,13.136z"/>
</svg>
