<?xml version="1.0" encoding="utf-8"?>
<!-- Generator: Adobe Illustrator 15.1.0, SVG Export Plug-In . SVG Version: 6.00 Build 0)  -->
<!DOCTYPE svg PUBLIC "-//W3C//DTD SVG 1.1//EN" "http://www.w3.org/Graphics/SVG/1.1/DTD/svg11.dtd">
<svg version="1.1" id="圖層_1" xmlns="http://www.w3.org/2000/svg" xmlns:xlink="http://www.w3.org/1999/xlink" x="0px" y="0px"
	 width="25px" height="25px" viewBox="-383.5 316.5 25 25" enable-background="new -383.5 316.5 25 25" xml:space="preserve">
<title>zoomup</title>
<path d="M-366.501,318.246c-2.139,0-4.147,0.832-5.658,2.344c-1.512,1.511-2.344,3.521-2.344,5.657c0,1.375,0.351,2.719,1.018,3.906
	l-7.214,7.218c-0.265,0.263-0.41,0.613-0.41,0.987c0,0.373,0.146,0.723,0.409,0.986c0.264,0.266,0.615,0.411,0.99,0.411
	c0.374,0,0.726-0.146,0.988-0.411l7.021-7.019c1.449,1.244,3.28,1.923,5.203,1.923c4.412,0,8-3.59,8-8.002s-3.589-8.003-7.999-8.003
	L-366.501,318.246z M-366.501,331.453c-1.392,0-2.701-0.541-3.682-1.525c-0.983-0.981-1.526-2.288-1.526-3.681
	s0.542-2.7,1.526-3.682c0.98-0.981,2.289-1.522,3.681-1.522c2.871,0,5.206,2.335,5.206,5.206
	C-361.296,329.119-363.63,331.453-366.501,331.453z"/>
<path d="M-366.501,336.067c-1.507,0-2.961-0.359-4.284-1.004h-1.085l-4.548,4.547h9.735c0.378,0,0.699-0.134,0.966-0.397
	c0.265-0.268,0.398-0.59,0.398-0.967l0.551-2.34C-365.333,336.007-365.91,336.066-366.501,336.067L-366.501,336.067z"/>
<path d="M-377.332,331.428h-0.26c-0.132,0-0.241-0.044-0.326-0.128c-0.085-0.084-0.128-0.192-0.128-0.327v-0.909
	c0-0.131,0.043-0.241,0.128-0.326c0.085-0.085,0.194-0.129,0.326-0.129h1.868c-0.214-0.587-0.371-1.196-0.468-1.816h-1.399
	c-0.132,0-0.241-0.045-0.326-0.129c-0.085-0.085-0.128-0.193-0.128-0.326v-0.909c0-0.132,0.043-0.241,0.128-0.327
	c0.085-0.085,0.194-0.128,0.326-0.128h1.282c0.045-1.618,0.477-3.168,1.256-4.545h-7.083c-0.378,0-0.699,0.133-0.966,0.397
	c-0.265,0.266-0.397,0.588-0.397,0.966l2.819,11.986L-377.332,331.428z"/>
</svg>
