<?xml version="1.0" encoding="utf-8"?>
<!-- Generator: Adobe Illustrator 15.1.0, SVG Export Plug-In . SVG Version: 6.00 Build 0)  -->
<!DOCTYPE svg PUBLIC "-//W3C//DTD SVG 1.1//EN" "http://www.w3.org/Graphics/SVG/1.1/DTD/svg11.dtd">
<svg version="1.1" id="圖層_1" xmlns="http://www.w3.org/2000/svg" xmlns:xlink="http://www.w3.org/1999/xlink" x="0px" y="0px"
	 width="25px" height="25px" viewBox="-383.5 316.5 25 25" enable-background="new -383.5 316.5 25 25" xml:space="preserve">
<title>zoomdown</title>
<path d="M-360.842,326.64c-1.513-1.512-3.522-2.344-5.66-2.344c-1.375,0-2.718,0.35-3.906,1.017l-7.218-7.216
	c-0.527-0.527-1.448-0.528-1.976,0c-0.265,0.264-0.411,0.616-0.411,0.989c0,0.374,0.146,0.726,0.411,0.988l7.02,7.021
	c-1.244,1.45-1.923,3.281-1.923,5.203c0,4.412,3.59,8.001,8.001,8.001c4.411,0,8.003-3.588,8.003-8.001
	c0-2.138-0.832-4.147-2.343-5.658L-360.842,326.64z M-366.501,337.504c-2.87,0-5.205-2.336-5.205-5.206
	c0-1.394,0.541-2.701,1.525-3.682c0.982-0.985,2.288-1.526,3.679-1.526c1.393,0,2.701,0.541,3.683,1.526
	c0.982,0.982,1.523,2.29,1.523,3.682C-361.295,335.168-363.63,337.504-366.501,337.504z"/>
<path d="M-370.021,323.127c1.117-0.429,2.309-0.65,3.52-0.65c0.59,0,1.167,0.058,1.736,0.16l-0.551-2.338
	c0-0.379-0.134-0.7-0.398-0.966c-0.266-0.265-0.587-0.397-0.966-0.397h-7.534L-370.021,323.127z"/>
<path d="M-376.308,332.571h-1.282c-0.132,0-0.241-0.043-0.327-0.127c-0.085-0.086-0.127-0.194-0.127-0.327v-0.909
	c0-0.132,0.044-0.241,0.127-0.326c0.085-0.086,0.194-0.128,0.327-0.128h1.402c0.098-0.625,0.263-1.229,0.479-1.818h-1.881
	c-0.132,0-0.241-0.044-0.327-0.129c-0.086-0.084-0.127-0.192-0.127-0.326v-0.908c0-0.133,0.044-0.241,0.127-0.328
	c0.085-0.084,0.194-0.127,0.327-0.127h2.461l-1.818-1.817h-0.642c-0.132,0-0.242-0.044-0.328-0.128
	c-0.085-0.085-0.127-0.194-0.127-0.327v-0.644l-2.215-2.216l-3.24,13.769c0,0.379,0.133,0.7,0.397,0.966
	c0.266,0.265,0.588,0.398,0.966,0.398h7.089C-375.813,335.767-376.262,334.221-376.308,332.571z"/>
</svg>
